<svg xmlns="http://www.w3.org/2000/svg" width="40" height="28" viewBox="0 0 40 28">
    <g fill="none" fill-rule="evenodd">
        <g fill="#4E4E4E">
            <g>
                <g>
                    <g>
                        <g>
                            <path fill-rule="nonzero" d="M2.938 0h33.487c1.645 0 2.938 1.292 2.938 2.938V23.5c0 1.645-1.293 2.938-2.938 2.938H2.938C1.292 26.438 0 25.145 0 23.5V2.937C0 1.294 1.292 0 2.938 0zm-.823 6.463h35.133V2.937c0-.47-.353-.822-.823-.822H2.938c-.47 0-.823.352-.823.822v3.526zm35.133 2.115H2.114V23.5c0 .47.352.823.822.823h33.488c.47 0 .823-.353.823-.823V8.578z" transform="translate(-1077 -1562) translate(80 1444) translate(972 87) translate(20 20) translate(5 11.5)"/>
                            <path d="M7.638 13.043h8.107c1.41 0 1.41 2.115 0 2.115H7.638c-1.41 0-1.41-2.115 0-2.115zM7.638 17.39h8.107c1.41 0 1.41 2.115 0 2.115H7.638c-1.41 0-1.41-2.115 0-2.115z" transform="translate(-1077 -1562) translate(80 1444) translate(972 87) translate(20 20) translate(5 11.5)"/>
                        </g>
                    </g>
                </g>
            </g>
        </g>
    </g>
</svg>
