<svg xmlns="http://www.w3.org/2000/svg" width="30" height="26" viewBox="0 0 30 26">
    <g fill="none" fill-rule="evenodd">
        <g fill="#4E4E4E" fill-rule="nonzero">
            <g>
                <g>
                    <g>
                        <g>
                            <path d="M0 24.5v-2.722c1.503 0 2.722 1.219 2.722 2.722H0zm8.167 0H5.444c0-3.007-2.437-5.444-5.444-5.444v-2.723c4.51 0 8.167 3.657 8.167 8.167zm5.444 0H10.89c0-6.014-4.875-10.889-10.889-10.889V10.89c7.517 0 13.611 6.094 13.611 13.611zM2.722 8.167H0V2.722C0 1.22 1.219 0 2.722 0h24.5c1.504 0 2.722 1.219 2.722 2.722v19.056c0 1.503-1.218 2.722-2.722 2.722H16.333v-2.722h10.89V2.722h-24.5v5.445z" transform="translate(-110 -1767) translate(80 1444) translate(0 291) translate(20 20) translate(10 12.5)"/>
                        </g>
                    </g>
                </g>
            </g>
        </g>
    </g>
</svg>
