<svg xmlns="http://www.w3.org/2000/svg" width="38" height="32" viewBox="0 0 38 32">
    <g fill="none" fill-rule="evenodd">
        <g fill="#4E4E4E" fill-rule="nonzero">
            <g>
                <g>
                    <g>
                        <g>
                            <g>
                                <path d="M9.013.132c-.423.056-.784.333-.948.726-.165.393-.108.844.149 1.184.506.704.581.955.574 1.26-.008.342-.221.882-.537 1.274-.27.335-.34.788-.186 1.189.155.4.512.689.937.755.424.066.852-.099 1.122-.433.6-.746 1.036-1.673 1.06-2.722.023-.95-.383-1.845-1.023-2.733-.258-.37-.702-.563-1.148-.5zm5.992 0c-.423.056-.784.333-.948.726-.165.393-.108.844.149 1.184.506.704.581.955.574 1.26-.008.342-.221.882-.537 1.274-.27.335-.34.788-.186 1.189.155.4.512.689.937.755.424.066.852-.099 1.122-.433.6-.746 1.036-1.673 1.06-2.722.023-.95-.383-1.845-1.023-2.733-.258-.37-.702-.563-1.148-.5zm5.992 0c-.423.056-.784.333-.948.726-.165.393-.108.844.149 1.184.506.704.581.955.574 1.26-.008.342-.221.882-.537 1.274-.27.335-.34.788-.186 1.189.155.4.512.689.936.755.425.066.853-.099 1.123-.433.6-.746 1.036-1.673 1.06-2.722.023-.95-.383-1.845-1.023-2.733-.258-.37-.702-.563-1.148-.5zM3.196 8.134C1.667 8.134.399 9.402.399 10.93v3.995c0 3.303 1.818 6.247 4.582 8.301 2.764 2.054 6.497 3.283 10.598 3.283 4.101 0 7.834-1.23 10.598-3.283 1.456-1.081 2.642-2.41 3.445-3.907h2.335c2.413 0 4.394-1.98 4.394-4.394s-1.98-4.394-4.394-4.394H30.72c-.202-1.339-1.37-2.397-2.759-2.397H3.196zm0 2.397h24.766c.242 0 .4.157.4.4v3.994c0 2.43-1.312 4.673-3.608 6.379-2.296 1.705-5.555 2.808-9.175 2.808-3.62 0-6.88-1.103-9.175-2.808-2.296-1.706-3.608-3.948-3.608-6.38V10.93c0-.242.158-.4.4-.4zm27.562 2.396h1.199c1.127 0 1.997.87 1.997 1.998 0 1.127-.87 1.997-1.997 1.997h-1.423c.146-.645.224-1.317.224-1.997v-1.998zM1.473 28.107c-.428.022-.812.271-1.007.653-.195.382-.17.839.063 1.199.233.36.64.567 1.069.545H29.56c.432.006.834-.221 1.052-.595.218-.373.218-.835 0-1.208s-.62-.6-1.052-.594H1.598c-.042-.002-.083-.002-.125 0z" transform="translate(-754 -1560) translate(80 1444) translate(648 87) translate(20 20) translate(6.5 9) translate(0 .255)"/>
                            </g>
                        </g>
                    </g>
                </g>
            </g>
        </g>
    </g>
</svg>
