<svg xmlns="http://www.w3.org/2000/svg" width="28" height="38" viewBox="0 0 28 38">
    <g fill="none" fill-rule="evenodd">
        <g fill="#4E4E4E" fill-rule="nonzero">
            <g>
                <g>
                    <g>
                        <g>
                            <path d="M22.8 15.39V9.5c0-5.32-4.37-9.5-9.5-9.5-5.32 0-9.5 4.18-9.5 9.5v5.89C1.33 17.86 0 21.09 0 24.7 0 32.11 5.89 38 13.3 38c7.41 0 13.3-5.89 13.3-13.3 0-3.42-1.33-6.84-3.8-9.31zM13.3 3.8c3.04 0 5.7 2.47 5.7 5.7v3.23c-1.71-.95-3.61-1.33-5.7-1.33-2.09 0-3.99.38-5.7 1.33V9.5c0-3.23 2.47-5.7 5.7-5.7zm0 30.4c-5.32 0-9.5-4.18-9.5-9.5s4.37-9.5 9.5-9.5 9.5 4.18 9.5 9.5-4.18 9.5-9.5 9.5z" transform="translate(-435 -1557) translate(80 1444) translate(324 87) translate(20 20) translate(11.5 6)"/>
                            <path d="M13.3 20.9c-1.14 0-1.9.76-1.9 1.9v3.8c0 1.14.76 1.9 1.9 1.9s1.9-.76 1.9-1.9v-3.8c0-1.14-.76-1.9-1.9-1.9z" transform="translate(-435 -1557) translate(80 1444) translate(324 87) translate(20 20) translate(11.5 6)"/>
                        </g>
                    </g>
                </g>
            </g>
        </g>
    </g>
</svg>
