<svg xmlns="http://www.w3.org/2000/svg" width="42" height="34" viewBox="0 0 42 34">
    <g fill="none" fill-rule="evenodd">
        <g fill="#4E4E4E" fill-rule="nonzero">
            <g>
                <g>
                    <g>
                        <g>
                            <path d="M40.926 25.146l-.481-.657c-.526-.744-.832-1.62-.876-2.539-.131-2.495-.35-7.267-.087-10.813.043-.875.35-1.707.875-2.451l.526-.744c1.181-1.664 1.181-3.809.087-5.428C40.095 1.244 38.65.5 37.118.5c-.963 0-1.926.306-2.714.876l-.7.481c-.657.482-1.401.744-2.19.876-3.501-.307-7.004-.438-10.506-.438-3.502 0-7.047.131-10.506.438-.788-.088-1.576-.394-2.189-.876l-.7-.481C6.825.806 5.906.5 4.899.5c-1.532 0-2.977.744-3.852 2.014-1.138 1.62-1.095 3.808.087 5.428l.526.744c.525.744.831 1.576.875 2.451.263 3.546.044 8.318-.087 10.813-.044.92-.35 1.795-.876 2.54l-.482.656C.346 26.153.084 27.422.303 28.648c.218 1.225.919 2.32 1.926 3.02.788.526 1.663.832 2.626.832 1.007 0 1.97-.306 2.802-.92l.613-.437c.656-.482 1.4-.744 2.188-.876 3.503.307 7.005.438 10.507.438s7.048-.131 10.506-.438c.788.088 1.576.394 2.232.876l.613.438c.832.569 1.795.919 2.802.919.963 0 1.838-.263 2.626-.832 1.051-.7 1.708-1.795 1.927-3.02.262-1.226 0-2.452-.745-3.502zm-4.377-3.02c.087 1.488.569 2.888 1.444 4.114l.482.657c.525.744.35 1.75-.394 2.32-.263.175-.57.262-.876.262-.35 0-.744-.13-1.05-.35l-.613-.437c-1.182-.832-2.54-1.314-3.94-1.445-3.502.306-7.004.481-10.55.481-3.502 0-7.048-.175-10.55-.481-1.4.131-2.801.613-3.94 1.445l-.612.437c-.307.22-.7.35-1.051.35-.306 0-.613-.087-.876-.262-.788-.525-.919-1.576-.394-2.32l.482-.657c.876-1.226 1.357-2.626 1.445-4.115.175-2.758.35-7.53.087-11.206C5.556 9.474 5.03 8.117 4.2 6.935l-.526-.744c-.394-.57-.481-1.357-.087-1.97.306-.482.831-.7 1.357-.7.35 0 .656.087.963.306l.7.481c1.182.832 2.54 1.314 3.94 1.445 3.502-.306 7.004-.481 10.55-.481 3.502 0 7.048.175 10.55.481 1.4-.131 2.802-.613 3.94-1.445l.7-.481c.307-.219.613-.306.963-.306.525 0 1.007.262 1.357.7.394.569.35 1.357-.087 1.97l-.526.744c-.831 1.182-1.357 2.539-1.444 3.984-.35 3.677-.175 8.448 0 11.206z" transform="translate(-752 -1755) translate(80 1444) translate(648 283) translate(20 20) translate(4 8.5)"/>
                        </g>
                    </g>
                </g>
            </g>
        </g>
    </g>
</svg>
