<svg xmlns="http://www.w3.org/2000/svg" width="36" height="33" viewBox="0 0 36 33">
    <g fill="none" fill-rule="evenodd">
        <g fill="#4E4E4E" fill-rule="nonzero">
            <g>
                <g>
                    <g>
                        <g>
                            <path d="M1.722 4.327h7.595l1.413-.839-7.507-.044-1.501.883zm5.475-3.179h7.286L15.1.751H7.904l-.707.397zm8.743 0h7.683l.662-.353L16.602.75l-.662.397zm9.14 0h7.771l.618-.353h-7.727l-.662.353zm8.3.662v7.772l1.149-.707.044-7.771-1.192.706zm0 8.743v8.92l1.149-.619V9.846l-1.148.707zm0 9.89v7.595l1.149-.662v-7.55l-1.148.618zm-.838 8.08v-7.638l-1.766.972v7.727l1.766-1.06zm0-8.61v-8.918l-1.766 1.06v8.83l1.766-.971zm.044-9.89V2.296l-1.81 1.06v7.727l1.81-1.06zm-1.06-8.08h-7.682l-1.237.75h7.639l1.28-.75zm-9.14 0h-7.682l-1.281.75h7.683l1.28-.75zm-9.184 0h-7.33l-1.324.75h7.418l1.236-.75zm14.836 20.443l1.899-1.015V12.54l-1.899 1.104v8.742zm1.899-.088l-1.899 1.06v7.86l1.899-1.149V22.3zm-1.899-9.626l1.899-1.103V3.84L28.038 4.99v7.683zM.838 22.696h8.17V13.82H.838v8.876zm9.008 0h8.346V13.82H9.846v8.876zm9.185 0h8.168V13.82h-8.168v8.876zm8.168.794h-8.168v8.036h8.168V23.49zm-9.007 0H9.846v8.036h8.346V23.49zm-9.184 0H.838v8.036h8.17V23.49zM.838 12.981h8.17V5.166H.838v7.815zm9.008 0h8.346V5.166H9.846v7.815zm9.185 0h8.168V5.166h-8.168v7.815zm-.574-8.654l1.368-.839h-7.638l-1.37.84h7.64zm2.87-.839l-1.37.84h7.551l1.37-.84h-7.551zM7.727 0h27.64v27.773l-7.682 4.592H0V4.415L7.727 0z" transform="translate(-1079 -1756) translate(80 1444) translate(972 283) translate(20 20) translate(7 9)"/>
                        </g>
                    </g>
                </g>
            </g>
        </g>
    </g>
</svg>
