<svg xmlns="http://www.w3.org/2000/svg" width="24" height="36" viewBox="0 0 24 36">
    <g fill="none" fill-rule="evenodd">
        <g fill="#4E4E4E" fill-rule="nonzero">
            <g>
                <g>
                    <g>
                        <g>
                            <path d="M20.66 15.534v13.942c0 .605.004 1.207 0 1.812 0 .112-.009.22-.021.331.017-.104.03-.204.046-.308-.034.224-.102.443-.196.652l.128-.278c-.068.143-.149.278-.243.405-.02.027-.042.054-.063.085-.111.146.178-.193.08-.093-.06.054-.11.116-.17.17-.051.046-.11.092-.166.138-.158.135.213-.134.102-.069-.03.02-.06.039-.094.058-.149.092-.306.166-.472.231l.306-.116c-.234.09-.472.147-.72.178.115-.016.226-.027.341-.043-.575.062-1.18.02-1.755.02H5.857c-.583 0-1.167.004-1.75 0-.124 0-.243-.008-.363-.02.115.016.226.027.341.043-.247-.031-.49-.089-.72-.178l.307.116c-.158-.062-.307-.13-.447-.216l-.094-.058c-.166-.1.213.162.102.074-.06-.054-.128-.1-.187-.154-.051-.047-.103-.1-.154-.15-.149-.143.15.192.077.096-.021-.027-.043-.054-.064-.085-.102-.135-.183-.278-.255-.424l.127.277c-.098-.212-.162-.428-.196-.651.017.104.03.204.047.308-.08-.601-.021-1.23-.021-1.83v-3.87-4.692-3.974c0-.574-.004-1.145 0-1.72 0-.23.017-.462.051-.693-.017.104-.03.204-.047.308.073-.481.213-.952.422-1.399l-.128.278c.15-.313.328-.613.537-.895.051-.069.106-.138.162-.208.115-.146-.18.197-.081.093.03-.031.06-.066.09-.1.119-.131.242-.255.374-.374.132-.12.269-.232.413-.34.03-.023.06-.042.086-.065.174-.131-.269.177-.081.058.068-.043.136-.089.204-.131.32-.197.66-.363 1.014-.501l-.307.115c.494-.189 1.014-.316 1.546-.381l-.34.042c.477-.054.954-.046 1.431-.046h7.164c.546 0 1.091-.016 1.632.046l-.34-.042c.532.065 1.052.192 1.546.381l-.307-.115c.345.134.678.296.988.485.077.047.154.097.23.147.162.104-.217-.162-.102-.073.034.026.073.053.111.08.145.108.281.22.413.34.132.12.256.243.375.374.026.027.047.054.072.077.145.158-.195-.243-.063-.074.046.062.098.124.144.185.218.29.4.598.554.918l-.128-.278c.21.447.35.918.422 1.4-.017-.105-.03-.205-.047-.309.026.228.043.459.043.69.004.605.583 1.184 1.278 1.157.69-.027 1.282-.51 1.278-1.157-.013-2.498-1.662-4.915-4.205-5.936-.996-.4-2.032-.617-3.126-.617h-6.42c-1.295 0-2.65-.085-3.919.193-2.654.582-4.86 2.633-5.359 5.073-.174.844-.144 1.684-.144 2.536v12.643c0 .625-.005 1.245 0 1.87.012 1.314.813 2.582 2.1 3.21.677.328 1.401.455 2.16.455H17.272c.874 0 1.777.058 2.641-.069 1.53-.223 2.863-1.391 3.191-2.756.094-.385.106-.763.106-1.149v-2.86-4.533-4.59-3.027-.435c0-.605-.587-1.184-1.277-1.157-.69.02-1.274.502-1.274 1.15z" transform="translate(-437 -1754) translate(80 1444) translate(324 283) translate(20 20) translate(13 7.5)"/>
                            <path d="M14.696 7.089v3.049l1.278-1.157H7.284l1.278 1.157v-1.6V7.49c0-.205-.013-.41.017-.61-.017.105-.03.205-.047.309.022-.12.056-.231.107-.347l-.128.277c.038-.077.077-.15.128-.223.076-.112.149-.104-.068.073.034-.027.06-.062.093-.092.009-.008.098-.089.103-.085.008.008-.307.185-.103.077.09-.046.175-.093.269-.131l-.307.116c.124-.047.251-.078.383-.097-.115.016-.225.027-.34.043.234-.027.472-.016.707-.016h4.375c.276 0 .562-.015.839.016-.115-.016-.226-.027-.341-.043.132.02.256.05.383.097l-.306-.116c.085.035.166.07.247.116.123.069.115.138-.081-.062.03.03.068.054.102.085.008.007.098.088.094.092-.009.008-.205-.277-.086-.092.052.08.103.158.145.242l-.127-.277c.05.112.085.227.106.347-.017-.104-.03-.204-.047-.308.009.069.017.138.017.208.013.605.58 1.183 1.278 1.156.682-.027 1.29-.509 1.278-1.156-.021-1.157-.835-2.14-2.045-2.502-.392-.12-.8-.116-1.205-.116h-2.986c-.707 0-1.41-.011-2.117 0-1.248.02-2.288.713-2.727 1.754-.174.417-.166.856-.166 1.292v2.62c0 .625.584 1.157 1.278 1.157H15.974c.69 0 1.278-.528 1.278-1.156v-3.05c0-.605-.588-1.183-1.278-1.156-.694.031-1.278.51-1.278 1.157zM5.58 2.351h11.553c.6 0 1.227-.046 1.823.023l-.34-.042c.23.03.446.085.66.162l-.307-.116c.145.058.285.124.421.2.009.005.12.062.115.074 0 .004-.26-.193-.127-.089.064.05.127.1.183.155.051.046.102.096.149.146.072.073.098.177-.081-.096.017.027.043.054.064.08.094.128.17.263.238.401l-.127-.277c.085.193.144.39.179.597-.017-.104-.03-.204-.047-.308.012.108.021.212.025.32.009.605.584 1.183 1.278 1.156.686-.027 1.287-.508 1.278-1.156-.017-1.245-.745-2.42-1.934-3.057-.639-.343-1.367-.49-2.104-.49H7.714c-.702 0-1.405-.01-2.108 0h-.03c-.669 0-1.308.533-1.278 1.157.034.632.567 1.16 1.282 1.16z" transform="translate(-437 -1754) translate(80 1444) translate(324 283) translate(20 20) translate(13 7.5)"/>
                            <path d="M10.351 1.195v4.433c0 .605.588 1.183 1.278 1.156.695-.027 1.278-.509 1.278-1.156V1.742v-.547c0-.605-.588-1.183-1.278-1.156-.694.027-1.278.508-1.278 1.156zM12.26 18.34V25.976c0 .378.034.767-.009 1.145.017-.104.03-.204.047-.308-.013.07-.03.13-.06.196l.128-.277c-.004.004-.068.139-.077.135-.004-.004.239-.25.077-.1-.106.1-.094-.016.11-.07-.046.012-.097.05-.148.07l.306-.116c-.072.023-.14.042-.217.054.115-.016.226-.027.341-.043-.396.035-.81.008-1.206.008H1.316l1.278 1.157V24.33v-5.523-1.268l-1.278 1.156h9.972c.482 0 .984-.035 1.47.008-.115-.016-.226-.027-.34-.043.076.012.144.027.216.054l-.306-.115c.004.003.153.061.149.069-.004.004-.277-.216-.11-.07.11.097-.018.085-.078-.1.013.043.056.089.077.135l-.128-.277c.026.065.047.127.06.196-.017-.104-.03-.204-.047-.308.009.027.009.062.009.096.02.605.57 1.184 1.278 1.157.673-.027 1.299-.51 1.277-1.157-.038-1.102-.98-1.942-2.198-1.966-.174-.003-.349 0-.52 0H1.322c-.69 0-1.278.529-1.278 1.157v10.288c0 .624.583 1.156 1.278 1.156h11.207c.584 0 1.09-.162 1.55-.497.516-.378.742-.975.742-1.557v-4.287c0-1.407.013-2.814 0-4.224v-.074c0-.605-.588-1.183-1.278-1.156-.695.03-1.282.513-1.282 1.16z" transform="translate(-437 -1754) translate(80 1444) translate(324 283) translate(20 20) translate(13 7.5)"/>
                        </g>
                    </g>
                </g>
            </g>
        </g>
    </g>
</svg>
