<svg width="32" height="32" viewBox="0 0 32 32" fill="none" xmlns="http://www.w3.org/2000/svg">
<rect width="32" height="32" rx="8" fill="white"/>
<path d="M22.9998 23.5831C23.2533 23.5831 23.4973 23.6674 23.6825 23.8187C23.8678 23.9701 23.9804 24.1773 23.9977 24.3985C24.0149 24.6197 23.9356 24.8384 23.7756 25.0104C23.6156 25.1824 23.387 25.2949 23.1358 25.3251L22.9998 25.3333H9.00023C8.74673 25.3332 8.50271 25.249 8.31748 25.0976C8.13224 24.9463 8.01961 24.739 8.00233 24.5178C7.98505 24.2966 8.06442 24.0779 8.22439 23.9059C8.38437 23.7339 8.61302 23.6215 8.86416 23.5912L9.00023 23.5831H22.9998ZM16.0093 6.66779C16.2509 6.66808 16.4842 6.74479 16.6661 6.88376C16.848 7.02273 16.9664 7.21458 16.9992 7.42389L17.0085 7.5429V19.4362L20.9653 15.9708C21.1346 15.8224 21.3591 15.7321 21.598 15.7162C21.837 15.7004 22.0745 15.7601 22.2674 15.8844L22.3808 15.9685C22.5506 16.1167 22.6538 16.3134 22.6717 16.5226C22.6896 16.7319 22.6209 16.9398 22.4782 17.1084L22.3821 17.2064L16.7217 22.1654L16.6283 22.2389L16.5056 22.3077L16.4576 22.3323L16.3362 22.3766L16.1761 22.4116L16.0827 22.4209L16.0027 22.4233C15.935 22.4232 15.8675 22.4169 15.8012 22.4046L15.6945 22.3778C15.5677 22.3421 15.4506 22.2841 15.3503 22.2074L9.62724 17.2076C9.44776 17.0517 9.34249 16.842 9.33262 16.6209C9.32275 16.3998 9.40902 16.1836 9.57405 16.0159C9.73909 15.8482 9.97064 15.7414 10.2221 15.717C10.4735 15.6926 10.7262 15.7524 10.9293 15.8844L11.0413 15.9696L15.0075 19.4316V7.54174C15.0075 7.30964 15.1129 7.08705 15.3005 6.92294C15.4882 6.75882 15.7426 6.66663 16.008 6.66663L16.0093 6.66779Z" fill="#D1091E"/>
</svg>
