<svg width="433" height="120" viewBox="0 0 433 120" fill="none" xmlns="http://www.w3.org/2000/svg">
<g filter="url(#filter0_b)">
<rect x="64" width="56" height="56" rx="8" fill="white" fill-opacity="0.9"/>
<rect x="64.5" y="0.5" width="55" height="55" rx="7.5" stroke="#D1091E"/>
</g>
<path d="M82.964 21.2561H86.024L88.058 29.4281H88.094L90.758 21.2561H93.368L96.014 29.6441H96.05L98.192 21.2561H101.036L97.31 34.0001H94.808L92 25.1801H91.964L89.156 34.0001H86.744L82.964 21.2561Z" fill="#D1091E"/>
<g filter="url(#filter1_b)">
<rect x="128" y="56" width="56" height="56" rx="8" fill="white" fill-opacity="0.9"/>
<rect x="128.5" y="56.5" width="55" height="55" rx="7.5" stroke="#D1091E"/>
</g>
<path d="M150.467 77.2561H154.679C155.699 77.2561 156.665 77.3701 157.577 77.5981C158.501 77.8261 159.305 78.1981 159.989 78.7141C160.673 79.2181 161.213 79.8781 161.609 80.6941C162.017 81.5101 162.221 82.5001 162.221 83.6641C162.221 84.6961 162.023 85.6081 161.627 86.4001C161.243 87.1801 160.721 87.8401 160.061 88.3801C159.401 88.9081 158.639 89.3101 157.775 89.5861C156.911 89.8621 156.005 90.0001 155.057 90.0001H150.467V77.2561ZM153.275 87.4081H154.733C155.381 87.4081 155.981 87.3421 156.533 87.2101C157.097 87.0781 157.583 86.8621 157.991 86.5621C158.399 86.2501 158.717 85.8481 158.945 85.3561C159.185 84.8521 159.305 84.2401 159.305 83.5201C159.305 82.8961 159.185 82.3561 158.945 81.9001C158.717 81.4321 158.405 81.0481 158.009 80.7481C157.613 80.4481 157.145 80.2261 156.605 80.0821C156.077 79.9261 155.519 79.8481 154.931 79.8481H153.275V87.4081Z" fill="#D1091E"/>
<g filter="url(#filter2_b)">
<rect x="64" y="64" width="56" height="56" rx="8" fill="white" fill-opacity="0.9"/>
<rect x="64.5" y="64.5" width="55" height="55" rx="7.5" stroke="#D1091E"/>
</g>
<path d="M94.428 88.3699C94.2 88.0819 93.888 87.8719 93.492 87.7399C93.108 87.5959 92.742 87.5239 92.394 87.5239C92.19 87.5239 91.98 87.5479 91.764 87.5959C91.548 87.6439 91.344 87.7219 91.152 87.8299C90.96 87.9259 90.804 88.0579 90.684 88.2259C90.564 88.3939 90.504 88.5979 90.504 88.8379C90.504 89.2219 90.648 89.5159 90.936 89.7199C91.224 89.9239 91.584 90.0979 92.016 90.2419C92.46 90.3859 92.934 90.5299 93.438 90.6739C93.942 90.8179 94.41 91.0219 94.842 91.2859C95.286 91.5499 95.652 91.9039 95.94 92.3479C96.228 92.7919 96.372 93.3859 96.372 94.1299C96.372 94.8379 96.24 95.4559 95.976 95.9839C95.712 96.5119 95.352 96.9499 94.896 97.2979C94.452 97.6459 93.93 97.9039 93.33 98.0719C92.742 98.2399 92.118 98.3239 91.458 98.3239C90.63 98.3239 89.862 98.1979 89.154 97.9459C88.446 97.6939 87.786 97.2859 87.174 96.7219L89.172 94.5259C89.46 94.9099 89.82 95.2099 90.252 95.4259C90.696 95.6299 91.152 95.7319 91.62 95.7319C91.848 95.7319 92.076 95.7079 92.304 95.6599C92.544 95.5999 92.754 95.5159 92.934 95.4079C93.126 95.2999 93.276 95.1619 93.384 94.9939C93.504 94.8259 93.564 94.6279 93.564 94.3999C93.564 94.0159 93.414 93.7159 93.114 93.4999C92.826 93.2719 92.46 93.0799 92.016 92.9239C91.572 92.7679 91.092 92.6119 90.576 92.4559C90.06 92.2999 89.58 92.0899 89.136 91.8259C88.692 91.5619 88.32 91.2139 88.02 90.7819C87.732 90.3499 87.588 89.7799 87.588 89.0719C87.588 88.3879 87.72 87.7879 87.984 87.2719C88.26 86.7559 88.62 86.3239 89.064 85.9759C89.52 85.6279 90.042 85.3699 90.63 85.2019C91.218 85.0219 91.824 84.9319 92.448 84.9319C93.168 84.9319 93.864 85.0339 94.536 85.2379C95.208 85.4419 95.814 85.7839 96.354 86.2639L94.428 88.3699Z" fill="#D1091E"/>
<g filter="url(#filter3_b)">
<rect y="56" width="56" height="56" rx="8" fill="white" fill-opacity="0.9"/>
<rect x="0.5" y="56.5" width="55" height="55" rx="7.5" stroke="#D1091E"/>
</g>
<path d="M26.8191 77.2561H29.1411L34.6851 90.0001H31.5171L30.4191 87.3001H25.4691L24.4071 90.0001H21.3111L26.8191 77.2561ZM27.8991 80.9641L26.3511 84.9241H29.4651L27.8991 80.9641Z" fill="#D1091E"/>
<rect x="216" y="44" width="1" height="32" fill="#C4C4C4"/>
<g filter="url(#filter4_b)">
<rect x="313" width="56" height="56" rx="8" fill="white" fill-opacity="0.9"/>
<rect x="313.5" y="0.5" width="55" height="55" rx="7.5" stroke="#D1091E"/>
</g>
<path fill-rule="evenodd" clip-rule="evenodd" d="M341 38.4999C341.199 38.4999 341.39 38.4209 341.531 38.2802C341.671 38.1396 341.75 37.9488 341.75 37.7499V20.0604L346.469 24.7809C346.61 24.9217 346.801 25.0008 347 25.0008C347.2 25.0008 347.391 24.9217 347.531 24.7809C347.672 24.64 347.751 24.449 347.751 24.2499C347.751 24.0507 347.672 23.8597 347.531 23.7189L341.531 17.7189C341.462 17.649 341.379 17.5936 341.288 17.5558C341.197 17.518 341.099 17.4985 341 17.4985C340.902 17.4985 340.804 17.518 340.713 17.5558C340.622 17.5936 340.539 17.649 340.469 17.7189L334.469 23.7189C334.4 23.7886 334.344 23.8714 334.307 23.9625C334.269 24.0536 334.249 24.1513 334.249 24.2499C334.249 24.449 334.329 24.64 334.469 24.7809C334.61 24.9217 334.801 25.0008 335 25.0008C335.2 25.0008 335.391 24.9217 335.531 24.7809L340.25 20.0604V37.7499C340.25 37.9488 340.329 38.1396 340.47 38.2802C340.611 38.4209 340.801 38.4999 341 38.4999Z" fill="#D1091E"/>
<g filter="url(#filter5_b)">
<rect x="313" y="64" width="56" height="56" rx="8" fill="white" fill-opacity="0.9"/>
<rect x="313.5" y="64.5" width="55" height="55" rx="7.5" stroke="#D1091E"/>
</g>
<path fill-rule="evenodd" clip-rule="evenodd" d="M341 81.4984C341.199 81.4984 341.39 81.5774 341.531 81.7181C341.671 81.8587 341.75 82.0495 341.75 82.2484V99.9379L346.469 95.2174C346.61 95.0766 346.801 94.9975 347 94.9975C347.2 94.9975 347.391 95.0766 347.531 95.2174C347.672 95.3582 347.751 95.5493 347.751 95.7484C347.751 95.9476 347.672 96.1386 347.531 96.2794L341.531 102.279C341.462 102.349 341.379 102.405 341.288 102.442C341.197 102.48 341.099 102.5 341 102.5C340.902 102.5 340.804 102.48 340.713 102.442C340.622 102.405 340.539 102.349 340.469 102.279L334.469 96.2794C334.4 96.2097 334.344 96.1269 334.307 96.0358C334.269 95.9447 334.249 95.847 334.249 95.7484C334.249 95.5493 334.329 95.3582 334.469 95.2174C334.61 95.0766 334.801 94.9975 335 94.9975C335.2 94.9975 335.391 95.0766 335.531 95.2174L340.25 99.9379V82.2484C340.25 82.0495 340.329 81.8587 340.47 81.7181C340.611 81.5774 340.801 81.4984 341 81.4984Z" fill="#D1091E"/>
<g filter="url(#filter6_b)">
<rect x="377" y="56" width="56" height="56" rx="8" fill="white" fill-opacity="0.9"/>
<rect x="377.5" y="56.5" width="55" height="55" rx="7.5" stroke="#D1091E"/>
</g>
<path fill-rule="evenodd" clip-rule="evenodd" d="M394.5 83.9993C394.5 83.8004 394.579 83.6096 394.72 83.469C394.86 83.3283 395.051 83.2493 395.25 83.2493L412.94 83.2493L408.219 78.5303C408.078 78.3895 407.999 78.1985 407.999 77.9993C407.999 77.8001 408.078 77.6091 408.219 77.4683C408.36 77.3275 408.551 77.2484 408.75 77.2484C408.949 77.2484 409.14 77.3275 409.281 77.4683L415.281 83.4683C415.351 83.538 415.406 83.6207 415.444 83.7118C415.482 83.803 415.501 83.9006 415.501 83.9993C415.501 84.0979 415.482 84.1956 415.444 84.2867C415.406 84.3779 415.351 84.4606 415.281 84.5303L409.281 90.5303C409.211 90.6 409.128 90.6553 409.037 90.6931C408.946 90.7308 408.849 90.7502 408.75 90.7502C408.551 90.7502 408.36 90.6711 408.219 90.5303C408.078 90.3895 407.999 90.1985 407.999 89.9993C407.999 89.8001 408.078 89.6091 408.219 89.4683L412.94 84.7493L395.25 84.7493C395.051 84.7493 394.86 84.6703 394.72 84.5296C394.579 84.389 394.5 84.1982 394.5 83.9993Z" fill="#D1091E"/>
<g filter="url(#filter7_b)">
<rect x="249" y="56" width="56" height="56" rx="8" fill="white" fill-opacity="0.9"/>
<rect x="249.5" y="56.5" width="55" height="55" rx="7.5" stroke="#D1091E"/>
</g>
<path fill-rule="evenodd" clip-rule="evenodd" d="M287.5 83.9993C287.5 83.8004 287.421 83.6096 287.28 83.469C287.14 83.3283 286.949 83.2493 286.75 83.2493L269.061 83.2493L273.781 78.5303C273.922 78.3895 274.001 78.1985 274.001 77.9993C274.001 77.8001 273.922 77.6091 273.781 77.4683C273.64 77.3275 273.449 77.2484 273.25 77.2484C273.051 77.2484 272.86 77.3275 272.719 77.4683L266.719 83.4683C266.649 83.538 266.594 83.6207 266.556 83.7118C266.518 83.803 266.499 83.9006 266.499 83.9993C266.499 84.0979 266.518 84.1956 266.556 84.2867C266.594 84.3779 266.649 84.4606 266.719 84.5303L272.719 90.5303C272.789 90.6 272.872 90.6553 272.963 90.6931C273.054 90.7308 273.152 90.7502 273.25 90.7502C273.449 90.7502 273.64 90.6711 273.781 90.5303C273.922 90.3895 274.001 90.1985 274.001 89.9993C274.001 89.8001 273.922 89.6091 273.781 89.4683L269.061 84.7493L286.75 84.7493C286.949 84.7493 287.14 84.6703 287.28 84.5296C287.421 84.389 287.5 84.1982 287.5 83.9993Z" fill="#D1091E"/>
<defs>
<filter id="filter0_b" x="34" y="-30" width="116" height="116" filterUnits="userSpaceOnUse" color-interpolation-filters="sRGB">
<feFlood flood-opacity="0" result="BackgroundImageFix"/>
<feGaussianBlur in="BackgroundImage" stdDeviation="15"/>
<feComposite in2="SourceAlpha" operator="in" result="effect1_backgroundBlur"/>
<feBlend mode="normal" in="SourceGraphic" in2="effect1_backgroundBlur" result="shape"/>
</filter>
<filter id="filter1_b" x="98" y="26" width="116" height="116" filterUnits="userSpaceOnUse" color-interpolation-filters="sRGB">
<feFlood flood-opacity="0" result="BackgroundImageFix"/>
<feGaussianBlur in="BackgroundImage" stdDeviation="15"/>
<feComposite in2="SourceAlpha" operator="in" result="effect1_backgroundBlur"/>
<feBlend mode="normal" in="SourceGraphic" in2="effect1_backgroundBlur" result="shape"/>
</filter>
<filter id="filter2_b" x="34" y="34" width="116" height="116" filterUnits="userSpaceOnUse" color-interpolation-filters="sRGB">
<feFlood flood-opacity="0" result="BackgroundImageFix"/>
<feGaussianBlur in="BackgroundImage" stdDeviation="15"/>
<feComposite in2="SourceAlpha" operator="in" result="effect1_backgroundBlur"/>
<feBlend mode="normal" in="SourceGraphic" in2="effect1_backgroundBlur" result="shape"/>
</filter>
<filter id="filter3_b" x="-30" y="26" width="116" height="116" filterUnits="userSpaceOnUse" color-interpolation-filters="sRGB">
<feFlood flood-opacity="0" result="BackgroundImageFix"/>
<feGaussianBlur in="BackgroundImage" stdDeviation="15"/>
<feComposite in2="SourceAlpha" operator="in" result="effect1_backgroundBlur"/>
<feBlend mode="normal" in="SourceGraphic" in2="effect1_backgroundBlur" result="shape"/>
</filter>
<filter id="filter4_b" x="283" y="-30" width="116" height="116" filterUnits="userSpaceOnUse" color-interpolation-filters="sRGB">
<feFlood flood-opacity="0" result="BackgroundImageFix"/>
<feGaussianBlur in="BackgroundImage" stdDeviation="15"/>
<feComposite in2="SourceAlpha" operator="in" result="effect1_backgroundBlur"/>
<feBlend mode="normal" in="SourceGraphic" in2="effect1_backgroundBlur" result="shape"/>
</filter>
<filter id="filter5_b" x="283" y="34" width="116" height="116" filterUnits="userSpaceOnUse" color-interpolation-filters="sRGB">
<feFlood flood-opacity="0" result="BackgroundImageFix"/>
<feGaussianBlur in="BackgroundImage" stdDeviation="15"/>
<feComposite in2="SourceAlpha" operator="in" result="effect1_backgroundBlur"/>
<feBlend mode="normal" in="SourceGraphic" in2="effect1_backgroundBlur" result="shape"/>
</filter>
<filter id="filter6_b" x="347" y="26" width="116" height="116" filterUnits="userSpaceOnUse" color-interpolation-filters="sRGB">
<feFlood flood-opacity="0" result="BackgroundImageFix"/>
<feGaussianBlur in="BackgroundImage" stdDeviation="15"/>
<feComposite in2="SourceAlpha" operator="in" result="effect1_backgroundBlur"/>
<feBlend mode="normal" in="SourceGraphic" in2="effect1_backgroundBlur" result="shape"/>
</filter>
<filter id="filter7_b" x="219" y="26" width="116" height="116" filterUnits="userSpaceOnUse" color-interpolation-filters="sRGB">
<feFlood flood-opacity="0" result="BackgroundImageFix"/>
<feGaussianBlur in="BackgroundImage" stdDeviation="15"/>
<feComposite in2="SourceAlpha" operator="in" result="effect1_backgroundBlur"/>
<feBlend mode="normal" in="SourceGraphic" in2="effect1_backgroundBlur" result="shape"/>
</filter>
</defs>
</svg>
