<svg width="24" height="24" viewBox="0 0 24 24" fill="none" xmlns="http://www.w3.org/2000/svg">
<path d="M20.8992 12.8295C21.2741 12.4555 21.4807 11.9578 21.481 11.4283C21.4812 10.8987 21.2752 10.4008 20.9007 10.0263C20.71 9.83559 20.4893 9.69214 20.2536 9.59572L21.0671 8.78534C21.4428 8.41142 21.65 7.91361 21.6506 7.38353C21.6512 6.85346 21.4452 6.35511 21.0704 5.9803L21.0493 5.95924C20.7601 5.67002 20.4026 5.48914 20.0279 5.41666C20.0507 5.29622 20.0627 5.17289 20.0628 5.04762C20.0634 4.51762 19.8574 4.01932 19.4826 3.64459L19.4567 3.61874C19.0825 3.24454 18.5851 3.03846 18.0559 3.03846C17.6986 3.03846 17.3559 3.13273 17.0557 3.30894C16.958 3.04427 16.8037 2.80155 16.5985 2.59637L16.5814 2.57924C15.809 1.80697 14.5522 1.80685 13.7797 2.57928L8.48564 7.87343L9.14323 5.15784C9.40303 4.08486 8.81675 2.99074 7.77948 2.61276C7.19576 2.40003 6.54799 2.44849 6.00233 2.7455C5.45667 3.04252 5.06441 3.56026 4.92611 4.16598L4.83594 4.56108C4.40464 6.45036 3.6917 8.34889 2.71693 10.2038C1.9865 11.5937 1.70831 13.2192 1.93362 14.7809C2.16672 16.3967 2.9017 17.8625 4.05912 19.0199C5.47989 20.4407 7.36823 21.2229 9.3773 21.2229H9.38241C11.3933 21.2216 13.2828 20.4367 14.7029 19.0129L16.2185 17.4932L20.8992 12.8295ZM13.8409 18.1531C12.6507 19.3465 11.067 20.0043 9.38164 20.0054H9.37734C7.69357 20.0054 6.11073 19.3498 4.91998 18.1591C3.94984 17.189 3.33385 15.9607 3.13857 14.6071C2.94962 13.2974 3.18264 11.9347 3.79465 10.7701C4.81845 8.82195 5.56815 6.82407 6.02287 4.83201L6.11304 4.43694C6.17448 4.16777 6.34188 3.94684 6.58439 3.81483C6.82691 3.68282 7.10339 3.6622 7.36275 3.75668C7.81702 3.92221 8.07382 4.40139 7.96003 4.87133L6.7925 9.69254C6.65399 10.1895 7.29425 10.7431 7.81454 10.2662L14.6406 3.44018C14.9384 3.14235 15.4229 3.14243 15.7201 3.43961L15.7372 3.4567C15.8814 3.60096 15.9608 3.79267 15.9608 3.99667C15.9608 4.20068 15.8813 4.39243 15.7372 4.53669C14.6261 5.64774 12.6332 7.64062 11.5426 8.73125C11.3048 8.96893 11.3048 9.35438 11.5426 9.5921C11.7803 9.82983 12.1657 9.82983 12.4034 9.5921C13.0773 8.91825 16.9487 5.04689 17.516 4.47964C17.6602 4.33537 17.852 4.25595 18.056 4.25595C18.26 4.25595 18.4517 4.33537 18.596 4.47964L18.6218 4.50549C18.7663 4.64996 18.8457 4.84203 18.8455 5.04632C18.8453 5.25061 18.7654 5.44252 18.6205 5.58674C17.0942 7.10697 15.0068 9.1854 13.4958 10.6912C13.2576 10.9285 13.2569 11.3139 13.4941 11.5521C13.6131 11.6715 13.7692 11.7312 13.9254 11.7312C14.0808 11.7312 14.2362 11.6721 14.355 11.5538C15.3706 10.5421 18.1379 7.78553 19.1098 6.81884C19.4076 6.52255 19.8915 6.52312 20.1885 6.8201L20.2095 6.84116C20.354 6.98567 20.4335 7.17774 20.4332 7.38207C20.433 7.5864 20.3531 7.77831 20.2081 7.92262C18.7275 9.39731 16.3828 11.7325 14.9153 13.1955C14.6771 13.4329 14.6764 13.8183 14.9136 14.0564C15.0326 14.1758 15.1887 14.2355 15.3449 14.2355C15.5002 14.2355 15.6557 14.1764 15.7745 14.0581L18.5658 11.2773L18.9627 10.8844C19.2604 10.5897 19.7437 10.5911 20.0399 10.8872C20.1842 11.0315 20.2636 11.2234 20.2635 11.4276C20.2634 11.6317 20.1838 11.8236 20.0396 11.9674L15.3579 16.6321L13.8409 18.1531Z" fill="#D1091E"/>
<path d="M20.1643 17.0551C20.2966 16.7461 20.1533 16.3883 19.8443 16.256C19.5352 16.1236 19.1774 16.267 19.0451 16.576C18.8409 17.053 18.5494 17.4828 18.1788 17.8534C17.7261 18.3061 17.1911 18.6376 16.5887 18.8385C16.2697 18.9449 16.0974 19.2896 16.2038 19.6086C16.2889 19.8636 16.5263 20.0249 16.7812 20.0249C16.845 20.0249 16.91 20.0147 16.9739 19.9934C17.7571 19.7322 18.4522 19.3019 19.0397 18.7143C19.5204 18.2335 19.8988 17.6753 20.1643 17.0551Z" fill="#D1091E"/>
<path d="M21.7736 17.3909C21.4645 17.2584 21.1067 17.4015 20.9742 17.7105C20.6898 18.374 20.2842 18.9717 19.7688 19.4872C19.1693 20.0866 18.4642 20.5344 17.673 20.8181C17.3565 20.9315 17.1919 21.28 17.3054 21.5965C17.3945 21.8451 17.6287 22 17.8785 22C17.9466 22 18.016 21.9884 18.0839 21.9641C19.0456 21.6193 19.9021 21.0756 20.6297 20.348C21.2551 19.7226 21.7475 18.9966 22.0932 18.1902C22.2257 17.8812 22.0826 17.5233 21.7736 17.3909Z" fill="#D1091E"/>
</svg>
