<svg width="161" height="48" viewBox="0 0 161 48" fill="none" xmlns="http://www.w3.org/2000/svg">
<path d="M66.5319 22.3602H74.9719V13.9202H80.0119V22.3602H88.4519V27.4002H80.0119V35.8402H74.9719V27.4002H66.5319V22.3602Z" fill="#D1091E"/>
<path d="M92.7725 30.6402L103.772 20.7602C104.332 20.2535 104.892 19.6802 105.452 19.0402C106.012 18.4002 106.292 17.6535 106.292 16.8002C106.292 15.8402 105.946 15.0935 105.252 14.5602C104.559 14.0002 103.746 13.7202 102.812 13.7202C101.692 13.7202 100.812 14.0669 100.172 14.7602C99.5592 15.4535 99.2125 16.3069 99.1325 17.3202L93.1325 16.8802C93.2125 15.4135 93.5192 14.1469 94.0525 13.0802C94.5858 11.9869 95.2925 11.0802 96.1725 10.3602C97.0525 9.6402 98.0792 9.10686 99.2525 8.76019C100.452 8.38686 101.746 8.2002 103.132 8.2002C104.412 8.2002 105.612 8.38686 106.732 8.76019C107.852 9.10686 108.826 9.6402 109.652 10.3602C110.479 11.0535 111.119 11.9335 111.572 13.0002C112.052 14.0669 112.292 15.3069 112.292 16.7202C112.292 17.6269 112.199 18.4535 112.012 19.2002C111.826 19.9202 111.559 20.5869 111.212 21.2002C110.892 21.7869 110.506 22.3335 110.052 22.8402C109.599 23.3469 109.106 23.8402 108.572 24.3202L99.9725 31.7202H112.532V37.0002H92.7725V30.6402Z" fill="#D1091E"/>
<path d="M115.804 22.8402C115.804 21.1602 115.951 19.4535 116.244 17.7202C116.564 15.9869 117.111 14.4135 117.884 13.0002C118.684 11.5869 119.764 10.4402 121.124 9.56019C122.484 8.65353 124.218 8.2002 126.324 8.2002C128.431 8.2002 130.164 8.65353 131.524 9.56019C132.884 10.4402 133.951 11.5869 134.724 13.0002C135.524 14.4135 136.071 15.9869 136.364 17.7202C136.684 19.4535 136.844 21.1602 136.844 22.8402C136.844 24.5202 136.684 26.2269 136.364 27.9602C136.071 29.6935 135.524 31.2669 134.724 32.6802C133.951 34.0935 132.884 35.2535 131.524 36.1602C130.164 37.0402 128.431 37.4802 126.324 37.4802C124.218 37.4802 122.484 37.0402 121.124 36.1602C119.764 35.2535 118.684 34.0935 117.884 32.6802C117.111 31.2669 116.564 29.6935 116.244 27.9602C115.951 26.2269 115.804 24.5202 115.804 22.8402ZM121.804 22.8402C121.804 23.5869 121.831 24.4802 121.884 25.5202C121.964 26.5602 122.151 27.5602 122.444 28.5202C122.738 29.4802 123.178 30.2935 123.764 30.9602C124.378 31.6269 125.231 31.9602 126.324 31.9602C127.391 31.9602 128.231 31.6269 128.844 30.9602C129.458 30.2935 129.911 29.4802 130.204 28.5202C130.498 27.5602 130.671 26.5602 130.724 25.5202C130.804 24.4802 130.844 23.5869 130.844 22.8402C130.844 22.0935 130.804 21.2002 130.724 20.1602C130.671 19.1202 130.498 18.1202 130.204 17.1602C129.911 16.2002 129.458 15.3869 128.844 14.7202C128.231 14.0535 127.391 13.7202 126.324 13.7202C125.231 13.7202 124.378 14.0535 123.764 14.7202C123.178 15.3869 122.738 16.2002 122.444 17.1602C122.151 18.1202 121.964 19.1202 121.884 20.1602C121.831 21.2002 121.804 22.0935 121.804 22.8402Z" fill="#D1091E"/>
<path d="M139.476 22.8402C139.476 21.1602 139.623 19.4535 139.916 17.7202C140.236 15.9869 140.783 14.4135 141.556 13.0002C142.356 11.5869 143.436 10.4402 144.796 9.56019C146.156 8.65353 147.89 8.2002 149.996 8.2002C152.103 8.2002 153.836 8.65353 155.196 9.56019C156.556 10.4402 157.623 11.5869 158.396 13.0002C159.196 14.4135 159.743 15.9869 160.036 17.7202C160.356 19.4535 160.516 21.1602 160.516 22.8402C160.516 24.5202 160.356 26.2269 160.036 27.9602C159.743 29.6935 159.196 31.2669 158.396 32.6802C157.623 34.0935 156.556 35.2535 155.196 36.1602C153.836 37.0402 152.103 37.4802 149.996 37.4802C147.89 37.4802 146.156 37.0402 144.796 36.1602C143.436 35.2535 142.356 34.0935 141.556 32.6802C140.783 31.2669 140.236 29.6935 139.916 27.9602C139.623 26.2269 139.476 24.5202 139.476 22.8402ZM145.476 22.8402C145.476 23.5869 145.503 24.4802 145.556 25.5202C145.636 26.5602 145.823 27.5602 146.116 28.5202C146.41 29.4802 146.85 30.2935 147.436 30.9602C148.05 31.6269 148.903 31.9602 149.996 31.9602C151.063 31.9602 151.903 31.6269 152.516 30.9602C153.13 30.2935 153.583 29.4802 153.876 28.5202C154.17 27.5602 154.343 26.5602 154.396 25.5202C154.476 24.4802 154.516 23.5869 154.516 22.8402C154.516 22.0935 154.476 21.2002 154.396 20.1602C154.343 19.1202 154.17 18.1202 153.876 17.1602C153.583 16.2002 153.13 15.3869 152.516 14.7202C151.903 14.0535 151.063 13.7202 149.996 13.7202C148.903 13.7202 148.05 14.0535 147.436 14.7202C146.85 15.3869 146.41 16.2002 146.116 17.1602C145.823 18.1202 145.636 19.1202 145.556 20.1602C145.503 21.2002 145.476 22.0935 145.476 22.8402Z" fill="#D1091E"/>
<mask id="mask0" mask-type="alpha" maskUnits="userSpaceOnUse" x="3" y="0" width="41" height="48">
<path d="M3.99969 11.9995V36.0005L23.9997 48L43.9997 36.0005V11.9995L23.9997 0L3.99969 11.9995Z" fill="black"/>
</mask>
<g mask="url(#mask0)">
<path d="M23.8791 7.86725V-2.32373L1.00281 11.4797L3.74528 11.9653L10.4342 15.9163L23.8791 7.86725Z" fill="#DA352F"/>
<path d="M37.3246 32.0157C38.0604 32.0809 46.0202 36.9364 46.0202 36.9364L50.1005 5.58379L23.8798 -2.32373V7.86726L28.0269 19.5204L31.9734 27.3586L37.3246 32.0157Z" fill="#EA001C"/>
<path d="M23.8786 39.7803V49.0057L46.0191 36.9363C46.0191 36.9363 38.1261 32.0878 37.3234 32.0156C36.5207 31.9435 23.8786 39.7803 23.8786 39.7803Z" fill="#CE011A"/>
<path d="M3.7453 11.9653L0.156006 38.1628L15.6731 54.1623L23.8791 49.0058V39.7804L16.0303 17.8155L10.4343 15.9163L3.7453 11.9653Z" fill="#EA001C"/>
<path d="M10.434 15.9162V32.0156L23.8788 40.0646L37.3237 32.0156V15.9162L23.8788 7.86719L10.434 15.9162Z" fill="url(#paint0_linear)"/>
<path d="M24.2705 17.1538L25.6725 21.6153C25.6993 21.7008 25.7516 21.7753 25.8217 21.8281C25.8919 21.881 25.9764 21.9094 26.0631 21.9094H30.5875C30.6744 21.9093 30.7591 21.9377 30.8295 21.9907C30.8998 22.0436 30.9521 22.1184 30.9788 22.2041C31.0056 22.2898 31.0055 22.3822 30.9784 22.4678C30.9514 22.5535 30.8988 22.628 30.8283 22.6807L27.1695 25.4372C27.0975 25.4889 27.0432 25.563 27.0146 25.6489C26.986 25.7347 26.9845 25.8277 27.0103 25.9145L28.4136 30.3815C28.44 30.4671 28.4397 30.5591 28.4128 30.6445C28.3858 30.7299 28.3336 30.8044 28.2635 30.8572C28.1934 30.9101 28.1091 30.9387 28.0224 30.9389C27.9358 30.9392 27.8512 30.9112 27.7808 30.8587L24.1206 28.0953C24.0504 28.0426 23.9659 28.0142 23.8792 28.0142C23.7925 28.0142 23.708 28.0426 23.6377 28.0953L19.9788 30.8532C19.9084 30.9056 19.8239 30.9337 19.7373 30.9334C19.6506 30.9331 19.5663 30.9045 19.4962 30.8517C19.4261 30.7988 19.3739 30.7244 19.3469 30.639C19.32 30.5536 19.3197 30.4616 19.3461 30.376L20.7441 25.9145C20.7708 25.8287 20.7707 25.7364 20.7438 25.6506C20.7169 25.5649 20.6645 25.4902 20.5942 25.4372L16.934 22.6807C16.8634 22.6279 16.8109 22.5533 16.7838 22.4675C16.7568 22.3817 16.7568 22.2892 16.7837 22.2034C16.8107 22.1176 16.8632 22.0429 16.9337 21.9901C17.0042 21.9372 17.0891 21.909 17.1762 21.9094H21.6992C21.786 21.9091 21.8705 21.8805 21.9409 21.8277C22.0112 21.775 22.0638 21.7007 22.0912 21.6153L23.4892 17.1538C23.516 17.0682 23.5682 16.9936 23.6384 16.9407C23.7086 16.8879 23.7931 16.8594 23.8798 16.8594C23.9666 16.8594 24.0511 16.8879 24.1213 16.9407C24.1915 16.9936 24.2437 17.0682 24.2705 17.1538V17.1538Z" fill="white"/>
</g>
<defs>
<linearGradient id="paint0_linear" x1="26.4568" y1="43.9477" x2="20.9973" y2="4.60096" gradientUnits="userSpaceOnUse">
<stop stop-color="#F15441"/>
<stop offset="1" stop-color="#CE011A"/>
</linearGradient>
</defs>
</svg>
