<svg width="184" height="120" viewBox="0 0 184 120" fill="none" xmlns="http://www.w3.org/2000/svg">
<g filter="url(#filter0_b)">
<rect x="64" width="56" height="56" rx="8" fill="white" fill-opacity="0.9"/>
<rect x="64.5" y="0.5" width="55" height="55" rx="7.5" stroke="#D1091E"/>
</g>
<path fill-rule="evenodd" clip-rule="evenodd" d="M92.0005 38.5C92.1994 38.5 92.3901 38.4209 92.5308 38.2803C92.6714 38.1396 92.7505 37.9489 92.7505 37.75V20.0605L97.4695 24.781C97.6103 24.9218 97.8013 25.0009 98.0005 25.0009C98.1996 25.0009 98.3906 24.9218 98.5315 24.781C98.6723 24.6401 98.7514 24.4491 98.7514 24.25C98.7514 24.0508 98.6723 23.8598 98.5315 23.719L92.5315 17.719C92.4618 17.6491 92.379 17.5937 92.2879 17.5559C92.1968 17.5181 92.0991 17.4986 92.0005 17.4986C91.9018 17.4986 91.8041 17.5181 91.713 17.5559C91.6219 17.5937 91.5391 17.6491 91.4695 17.719L85.4695 23.719C85.3997 23.7887 85.3444 23.8715 85.3067 23.9626C85.2689 24.0537 85.2495 24.1513 85.2495 24.25C85.2495 24.4491 85.3286 24.6401 85.4695 24.781C85.6103 24.9218 85.8013 25.0009 86.0005 25.0009C86.1996 25.0009 86.3906 24.9218 86.5315 24.781L91.2505 20.0605V37.75C91.2505 37.9489 91.3295 38.1396 91.4701 38.2803C91.6108 38.4209 91.8015 38.5 92.0005 38.5Z" fill="#D1091E"/>
<g filter="url(#filter1_b)">
<rect x="64" y="64" width="56" height="56" rx="8" fill="white" fill-opacity="0.9"/>
<rect x="64.5" y="64.5" width="55" height="55" rx="7.5" stroke="#D1091E"/>
</g>
<path fill-rule="evenodd" clip-rule="evenodd" d="M92.0005 81.4986C92.1994 81.4986 92.3901 81.5776 92.5308 81.7183C92.6714 81.8589 92.7505 82.0497 92.7505 82.2486V99.9381L97.4695 95.2176C97.6103 95.0768 97.8013 94.9976 98.0005 94.9976C98.1996 94.9976 98.3906 95.0768 98.5315 95.2176C98.6723 95.3584 98.7514 95.5494 98.7514 95.7486C98.7514 95.9477 98.6723 96.1388 98.5315 96.2796L92.5315 102.28C92.4618 102.349 92.379 102.405 92.2879 102.443C92.1968 102.48 92.0991 102.5 92.0005 102.5C91.9018 102.5 91.8041 102.48 91.713 102.443C91.6219 102.405 91.5391 102.349 91.4695 102.28L85.4695 96.2796C85.3997 96.2099 85.3444 96.1271 85.3067 96.036C85.2689 95.9448 85.2495 95.8472 85.2495 95.7486C85.2495 95.5494 85.3286 95.3584 85.4695 95.2176C85.6103 95.0768 85.8013 94.9976 86.0005 94.9976C86.1996 94.9976 86.3906 95.0768 86.5315 95.2176L91.2505 99.9381V82.2486C91.2505 82.0497 91.3295 81.8589 91.4701 81.7183C91.6108 81.5776 91.8015 81.4986 92.0005 81.4986Z" fill="#D1091E"/>
<g filter="url(#filter2_b)">
<rect x="128" y="56" width="56" height="56" rx="8" fill="white" fill-opacity="0.9"/>
<rect x="128.5" y="56.5" width="55" height="55" rx="7.5" stroke="#D1091E"/>
</g>
<path fill-rule="evenodd" clip-rule="evenodd" d="M145.5 83.9993C145.5 83.8004 145.579 83.6096 145.72 83.4689C145.86 83.3283 146.051 83.2493 146.25 83.2493L163.94 83.2493L159.219 78.5303C159.078 78.3894 158.999 78.1984 158.999 77.9993C158.999 77.8001 159.078 77.6091 159.219 77.4683C159.36 77.3274 159.551 77.2483 159.75 77.2483C159.949 77.2483 160.14 77.3274 160.281 77.4683L166.281 83.4683C166.351 83.5379 166.406 83.6207 166.444 83.7118C166.482 83.8029 166.501 83.9006 166.501 83.9993C166.501 84.0979 166.482 84.1956 166.444 84.2867C166.406 84.3778 166.351 84.4606 166.281 84.5303L160.281 90.5303C160.211 90.6 160.129 90.6553 160.037 90.6931C159.946 90.7308 159.849 90.7502 159.75 90.7502C159.551 90.7502 159.36 90.6711 159.219 90.5303C159.078 90.3894 158.999 90.1984 158.999 89.9993C158.999 89.8001 159.078 89.6091 159.219 89.4683L163.94 84.7493L146.25 84.7493C146.051 84.7493 145.86 84.6702 145.72 84.5296C145.579 84.3889 145.5 84.1982 145.5 83.9993Z" fill="#D1091E"/>
<g filter="url(#filter3_b)">
<rect y="56" width="56" height="56" rx="8" fill="white" fill-opacity="0.9"/>
<rect x="0.5" y="56.5" width="55" height="55" rx="7.5" stroke="#D1091E"/>
</g>
<path fill-rule="evenodd" clip-rule="evenodd" d="M38.5004 83.9993C38.5004 83.8004 38.4213 83.6096 38.2807 83.4689C38.14 83.3283 37.9493 83.2493 37.7504 83.2493L20.0609 83.2493L24.7814 78.5303C24.9222 78.3894 25.0013 78.1984 25.0013 77.9993C25.0013 77.8001 24.9222 77.6091 24.7814 77.4683C24.6405 77.3274 24.4495 77.2483 24.2504 77.2483C24.0512 77.2483 23.8602 77.3274 23.7194 77.4683L17.7194 83.4683C17.6495 83.5379 17.5941 83.6207 17.5563 83.7118C17.5185 83.8029 17.499 83.9006 17.499 83.9993C17.499 84.0979 17.5185 84.1956 17.5563 84.2867C17.5941 84.3778 17.6495 84.4606 17.7194 84.5303L23.7194 90.5303C23.7891 90.6 23.8719 90.6553 23.963 90.6931C24.0541 90.7308 24.1517 90.7502 24.2504 90.7502C24.4495 90.7502 24.6405 90.6711 24.7814 90.5303C24.9222 90.3894 25.0013 90.1984 25.0013 89.9993C25.0013 89.8001 24.9222 89.6091 24.7814 89.4683L20.0609 84.7493L37.7504 84.7493C37.9493 84.7493 38.14 84.6702 38.2807 84.5296C38.4213 84.3889 38.5004 84.1982 38.5004 83.9993Z" fill="#D1091E"/>
<rect x="160" y="24" width="24" height="24" rx="12" transform="rotate(-90 160 24)" fill="white"/>
<path d="M180 12.0002C180 7.58148 176.418 4 172 4C167.582 4 164 7.58148 164 12.0002C164 16.4182 167.582 20 172 20C176.418 20 180 16.4182 180 12.0002Z" fill="#D1091E"/>
<path d="M168 9.76089C168 9.3426 168.163 8.91875 168.488 8.48943C168.813 8.06011 169.288 7.70455 169.912 7.42271C170.536 7.14095 171.264 7 172.096 7C172.869 7 173.552 7.11787 174.144 7.35336C174.736 7.58897 175.193 7.90932 175.516 8.31439C175.839 8.71957 176 9.15983 176 9.63538C176 10.0097 175.908 10.3378 175.724 10.6195C175.54 10.9014 175.321 11.1446 175.068 11.3494C174.815 11.5541 174.36 11.8987 173.704 12.3831C173.523 12.5196 173.377 12.6396 173.268 12.7431C173.159 12.8466 173.077 12.9412 173.024 13.0271C172.971 13.1129 172.929 13.1988 172.9 13.2847C172.871 13.3705 172.827 13.5214 172.768 13.7371C172.667 14.1951 172.349 14.424 171.816 14.424C171.539 14.424 171.305 14.3492 171.116 14.1995C170.927 14.0498 170.832 13.8274 170.832 13.5324C170.832 13.1625 170.901 12.8421 171.04 12.5713C171.179 12.3005 171.363 12.0627 171.592 11.858C171.821 11.6532 172.131 11.41 172.52 11.1281C172.861 10.8816 173.108 10.6955 173.26 10.57C173.412 10.4445 173.54 10.3048 173.644 10.1506C173.748 9.9965 173.8 9.82921 173.8 9.64861C173.8 9.29636 173.641 8.99916 173.324 8.75693C173.007 8.51483 172.597 8.39365 172.096 8.39365C171.509 8.39365 171.077 8.51585 170.8 8.76024C170.523 9.00463 170.288 9.3646 170.096 9.84015C169.915 10.3378 169.571 10.5865 169.064 10.5865C168.765 10.5865 168.513 10.4996 168.308 10.3256C168.103 10.1517 168 9.96346 168 9.76089ZM171.904 17C171.579 17 171.295 16.913 171.052 16.7391C170.809 16.5652 170.688 16.3219 170.688 16.0092C170.688 15.7318 170.805 15.4985 171.04 15.3091C171.275 15.1198 171.563 15.0251 171.904 15.0251C172.24 15.0251 172.523 15.1198 172.752 15.3091C172.981 15.4985 173.096 15.7318 173.096 16.0092C173.096 16.3175 172.976 16.5597 172.736 16.7358C172.496 16.9119 172.219 17 171.904 17Z" fill="white"/>
<defs>
<filter id="filter0_b" x="34" y="-30" width="116" height="116" filterUnits="userSpaceOnUse" color-interpolation-filters="sRGB">
<feFlood flood-opacity="0" result="BackgroundImageFix"/>
<feGaussianBlur in="BackgroundImage" stdDeviation="15"/>
<feComposite in2="SourceAlpha" operator="in" result="effect1_backgroundBlur"/>
<feBlend mode="normal" in="SourceGraphic" in2="effect1_backgroundBlur" result="shape"/>
</filter>
<filter id="filter1_b" x="34" y="34" width="116" height="116" filterUnits="userSpaceOnUse" color-interpolation-filters="sRGB">
<feFlood flood-opacity="0" result="BackgroundImageFix"/>
<feGaussianBlur in="BackgroundImage" stdDeviation="15"/>
<feComposite in2="SourceAlpha" operator="in" result="effect1_backgroundBlur"/>
<feBlend mode="normal" in="SourceGraphic" in2="effect1_backgroundBlur" result="shape"/>
</filter>
<filter id="filter2_b" x="98" y="26" width="116" height="116" filterUnits="userSpaceOnUse" color-interpolation-filters="sRGB">
<feFlood flood-opacity="0" result="BackgroundImageFix"/>
<feGaussianBlur in="BackgroundImage" stdDeviation="15"/>
<feComposite in2="SourceAlpha" operator="in" result="effect1_backgroundBlur"/>
<feBlend mode="normal" in="SourceGraphic" in2="effect1_backgroundBlur" result="shape"/>
</filter>
<filter id="filter3_b" x="-30" y="26" width="116" height="116" filterUnits="userSpaceOnUse" color-interpolation-filters="sRGB">
<feFlood flood-opacity="0" result="BackgroundImageFix"/>
<feGaussianBlur in="BackgroundImage" stdDeviation="15"/>
<feComposite in2="SourceAlpha" operator="in" result="effect1_backgroundBlur"/>
<feBlend mode="normal" in="SourceGraphic" in2="effect1_backgroundBlur" result="shape"/>
</filter>
</defs>
</svg>
