<svg width="24" height="24" viewBox="0 0 24 24" fill="none" xmlns="http://www.w3.org/2000/svg">
<path d="M6.25076 6.85547H7.28629C7.62732 6.85547 7.95438 6.99093 8.19552 7.23205C8.43667 7.47317 8.57214 7.80019 8.57214 8.14119C8.57214 8.48218 8.43667 8.80921 8.19552 9.05032C7.95438 9.29144 7.62732 9.4269 7.28629 9.4269H3.00014C2.65911 9.4269 2.33205 9.29144 2.09091 9.05032C1.84977 8.80921 1.71429 8.48218 1.71429 8.14119V3.85548C1.71429 3.51449 1.84977 3.18746 2.09091 2.94634C2.33205 2.70523 2.65911 2.56977 3.00014 2.56977C3.34117 2.56977 3.66823 2.70523 3.90937 2.94634C4.15051 3.18746 4.28599 3.51449 4.28599 3.85548V5.19433C5.83715 3.43676 7.94217 2.26168 10.2525 1.8637C12.5627 1.46572 14.9397 1.86872 16.9896 3.00595C19.0395 4.14318 20.6395 5.94642 21.5245 8.11703C22.4095 10.2876 22.5265 12.6954 21.8561 14.9416C21.1857 17.1878 19.768 19.1376 17.838 20.4681C15.908 21.7987 13.5813 22.4302 11.2433 22.258C8.90534 22.0858 6.69631 21.1203 4.98207 19.5213C3.26783 17.9224 2.15122 15.7859 1.81716 13.4658C1.76896 13.1279 1.85695 12.7848 2.06176 12.5119C2.26657 12.2389 2.57143 12.0585 2.90927 12.0103C3.24712 11.9621 3.59027 12.0501 3.86325 12.2549C4.13622 12.4597 4.31665 12.7645 4.36485 13.1023C4.61585 14.8404 5.45228 16.4408 6.73597 17.6393C8.01965 18.8378 9.67379 19.5626 11.4251 19.6939C13.1765 19.8253 14.9203 19.3554 16.3684 18.3619C17.8165 17.3683 18.8824 15.9105 19.39 14.2294C19.8975 12.5482 19.8163 10.7442 19.1599 9.11545C18.5034 7.48665 17.3109 6.13049 15.7794 5.27097C14.2479 4.41146 12.4689 4.10003 10.7365 4.38812C9.00399 4.67621 7.42163 5.54659 6.25076 6.85547ZM11.5724 6.85547C11.9135 6.85547 12.2405 6.99093 12.4817 7.23205C12.7228 7.47317 12.8583 7.80019 12.8583 8.14119V11.1412H14.1441C14.4852 11.1412 14.8122 11.2766 15.0534 11.5178C15.2945 11.7589 15.43 12.0859 15.43 12.4269C15.43 12.7679 15.2945 13.0949 15.0534 13.336C14.8122 13.5771 14.4852 13.7126 14.1441 13.7126H11.5724C11.2314 13.7126 10.9044 13.5771 10.6632 13.336C10.4221 13.0949 10.2866 12.7679 10.2866 12.4269V8.14119C10.2866 7.80019 10.4221 7.47317 10.6632 7.23205C10.9044 6.99093 11.2314 6.85547 11.5724 6.85547V6.85547Z" fill="#D1091E"/>
</svg>
