<svg width="48" height="48" viewBox="0 0 48 48" fill="none" xmlns="http://www.w3.org/2000/svg">
<rect width="48" height="48" rx="8" fill="#D1091E"/>
<path d="M32.1818 20.1818H31.2727V16.3637C31.2727 12.1522 28.0109 8.72729 24 8.72729C19.9891 8.72729 16.7273 12.1522 16.7273 16.3637V20.1818H15.8182C14.3152 20.1818 13.0909 21.466 13.0909 23.0455V36.4091C13.0909 37.9886 14.3152 39.2728 15.8182 39.2728H32.1818C33.6849 39.2728 34.9091 37.9886 34.9091 36.4091V23.0455C34.9091 21.466 33.6849 20.1818 32.1818 20.1818ZM19.1515 16.3637C19.1515 13.556 21.3261 11.2727 24 11.2727C26.6739 11.2727 28.8485 13.556 28.8485 16.3637V20.1818H19.1515V16.3637ZM25.2121 30.0098V32.9091C25.2121 33.6117 24.6703 34.1818 24 34.1818C23.3297 34.1818 22.7879 33.6117 22.7879 32.9091V30.0098C22.0667 29.5682 21.5758 28.7562 21.5758 27.8182C21.5758 26.4144 22.663 25.2728 24 25.2728C25.337 25.2728 26.4242 26.4144 26.4242 27.8182C26.4242 28.7562 25.9333 29.5682 25.2121 30.0098Z" fill="white"/>
</svg>
