<svg width="24" height="24" viewBox="0 0 24 24" fill="none" xmlns="http://www.w3.org/2000/svg">
<path d="M17.7857 9.42864H17.1428V6.85721C17.1428 4.02093 14.8363 1.71436 12 1.71436C9.16371 1.71436 6.85713 4.02093 6.85713 6.85721V9.42864H6.21428C5.15142 9.42864 4.28571 10.2935 4.28571 11.3572V20.3572C4.28571 21.4209 5.15142 22.2858 6.21428 22.2858H17.7857C18.8486 22.2858 19.7143 21.4209 19.7143 20.3572V11.3572C19.7143 10.2935 18.8486 9.42864 17.7857 9.42864ZM8.57142 6.85721C8.57142 4.96635 10.1091 3.42864 12 3.42864C13.8908 3.42864 15.4286 4.96635 15.4286 6.85721V9.42864H8.57142V6.85721ZM12.8571 16.0475V18.0001C12.8571 18.4732 12.474 18.8572 12 18.8572C11.526 18.8572 11.1428 18.4732 11.1428 18.0001V16.0475C10.6328 15.7501 10.2857 15.2032 10.2857 14.5715C10.2857 13.6261 11.0546 12.8572 12 12.8572C12.9454 12.8572 13.7143 13.6261 13.7143 14.5715C13.7143 15.2032 13.3671 15.7501 12.8571 16.0475Z" fill="#D1091E"/>
</svg>
