<svg width="24" height="88" viewBox="0 0 24 88" fill="none" xmlns="http://www.w3.org/2000/svg">
<path d="M12.0002 3C7.02917 3 3 7.02945 3 11.9999C3 16.9705 7.02917 21 12.0002 21C16.9705 21 21 16.9705 21 11.9999C21 7.02945 16.9705 3 12.0002 3Z" fill="#CED1DC"/>
<path d="M9.31306 16.5C8.81112 16.5 8.3025 16.317 7.78731 15.951C7.27213 15.5851 6.84546 15.051 6.50725 14.349C6.16914 13.647 6 12.828 6 11.892C6 11.0221 6.14144 10.254 6.42403 9.58799C6.70676 8.92198 7.09119 8.4076 7.57726 8.04449C8.06348 7.68154 8.5918 7.5 9.16246 7.5C9.61163 7.5 10.0054 7.60351 10.3434 7.81052C10.6816 8.01754 10.9736 8.26362 11.2192 8.54854C11.465 8.83359 11.8785 9.34506 12.4597 10.083C12.6235 10.2871 12.7676 10.4507 12.8917 10.5735C13.0159 10.6966 13.1295 10.7881 13.2325 10.8481C13.3355 10.9081 13.4385 10.9547 13.5416 10.9876C13.6446 11.0206 13.8257 11.0701 14.0845 11.136C14.6341 11.2501 14.9089 11.6071 14.9089 12.207C14.9089 12.5191 14.8191 12.7816 14.6394 12.9945C14.4598 13.2076 14.1929 13.314 13.8388 13.314C13.395 13.314 13.0105 13.2361 12.6856 13.08C12.3606 12.924 12.0753 12.7171 11.8296 12.459C11.5839 12.2011 11.292 11.8531 10.9538 11.415C10.6579 11.0311 10.4346 10.7535 10.284 10.5825C10.1334 10.4115 9.96576 10.2675 9.7807 10.1505C9.5958 10.0335 9.39505 9.97499 9.17833 9.97499C8.75564 9.97499 8.39899 10.1536 8.10832 10.5105C7.81779 10.8676 7.67238 11.3281 7.67238 11.892C7.67238 12.5521 7.81902 13.0381 8.11229 13.35C8.40556 13.6621 8.83752 13.926 9.40819 14.142C10.0054 14.3461 10.3038 14.7331 10.3038 15.3031C10.3038 15.6392 10.1995 15.9227 9.99075 16.1536C9.78204 16.3845 9.55615 16.5 9.31306 16.5ZM18 12.108C18 12.4741 17.8956 12.7935 17.6869 13.0665C17.4783 13.3396 17.1863 13.476 16.8111 13.476C16.4782 13.476 16.1982 13.3441 15.9709 13.08C15.7438 12.8161 15.6301 12.4921 15.6301 12.108C15.6301 11.73 15.7438 11.4121 15.9709 11.154C16.1982 10.8961 16.4782 10.767 16.8111 10.767C17.181 10.767 17.4716 10.902 17.683 11.1721C17.8943 11.4421 18 11.754 18 12.108Z" fill="white"/>
<path d="M6.38401 87.1841L6.38401 83.4081L13.776 80.8001L13.776 80.7681L6.38401 78.1441L6.38401 74.3841L17.712 74.3841L17.712 76.8801L9.02401 76.8801L9.02401 76.9121L17.712 79.8881L17.712 81.7921L9.02401 84.6561L9.02401 84.6881L17.712 84.6881L17.712 87.1841L6.38401 87.1841Z" fill="#383838"/>
<path d="M9.93601 72.3467L9.93601 69.9467L17.712 69.9467L17.712 72.3467L9.93601 72.3467ZM7.48801 72.5387C7.10401 72.5387 6.77867 72.4054 6.51201 72.1387C6.23467 71.8614 6.09601 71.5307 6.09601 71.1467C6.09601 70.7627 6.23467 70.4374 6.51201 70.1707C6.77867 69.8934 7.10401 69.7547 7.48801 69.7547C7.87201 69.7547 8.20267 69.8934 8.48001 70.1707C8.74667 70.4374 8.88001 70.7627 8.88001 71.1467C8.88001 71.5307 8.74667 71.8614 8.48001 72.1387C8.20267 72.4054 7.87201 72.5387 7.48801 72.5387Z" fill="#383838"/>
<path d="M12.224 63.8225C11.7867 64.1745 11.568 64.6385 11.568 65.2145C11.568 65.4171 11.616 65.6145 11.712 65.8065C11.808 65.9985 11.9733 66.0945 12.208 66.0945C12.4 66.0945 12.544 65.9985 12.64 65.8065C12.7253 65.6038 12.8053 65.3531 12.88 65.0545C12.944 64.7451 13.0187 64.4198 13.104 64.0785C13.1787 63.7265 13.3013 63.4011 13.472 63.1025C13.6427 62.7931 13.8773 62.5425 14.176 62.3505C14.464 62.1478 14.8533 62.0465 15.344 62.0465C15.8453 62.0465 16.2613 62.1585 16.592 62.3825C16.912 62.5958 17.1733 62.8731 17.376 63.2145C17.568 63.5558 17.7013 63.9398 17.776 64.3665C17.8613 64.7931 17.904 65.2145 17.904 65.6305C17.904 66.1745 17.8293 66.7238 17.68 67.2785C17.52 67.8331 17.2427 68.3025 16.848 68.6865L15.232 67.2305C15.5093 67.0065 15.7227 66.7611 15.872 66.4945C16.0107 66.2171 16.08 65.8971 16.08 65.5345C16.08 65.2571 16.0427 65.0065 15.968 64.7825C15.8827 64.5585 15.7333 64.4465 15.52 64.4465C15.3173 64.4465 15.168 64.5478 15.072 64.7505C14.9653 64.9425 14.88 65.1931 14.816 65.5025C14.7413 65.8011 14.6667 66.1265 14.592 66.4785C14.5067 66.8198 14.384 67.1451 14.224 67.4545C14.064 67.7531 13.84 68.0038 13.552 68.2065C13.2533 68.3985 12.8587 68.4945 12.368 68.4945C11.9093 68.4945 11.5147 68.4038 11.184 68.2225C10.8533 68.0305 10.5813 67.7851 10.368 67.4865C10.1547 67.1771 10 66.8251 9.90401 66.4305C9.79734 66.0358 9.74401 65.6358 9.74401 65.2305C9.74401 64.7185 9.81867 64.2011 9.96801 63.6785C10.1173 63.1558 10.384 62.7131 10.768 62.3505L12.224 63.8225Z" fill="#383838"/>
<path d="M12.224 56.4162C11.7867 56.7682 11.568 57.2322 11.568 57.8082C11.568 58.0109 11.616 58.2082 11.712 58.4002C11.808 58.5922 11.9733 58.6882 12.208 58.6882C12.4 58.6882 12.544 58.5922 12.64 58.4002C12.7253 58.1975 12.8053 57.9469 12.88 57.6482C12.944 57.3389 13.0187 57.0135 13.104 56.6722C13.1787 56.3202 13.3013 55.9949 13.472 55.6962C13.6427 55.3869 13.8773 55.1362 14.176 54.9442C14.464 54.7415 14.8533 54.6402 15.344 54.6402C15.8453 54.6402 16.2613 54.7522 16.592 54.9762C16.912 55.1895 17.1733 55.4669 17.376 55.8082C17.568 56.1495 17.7013 56.5335 17.776 56.9602C17.8613 57.3869 17.904 57.8082 17.904 58.2242C17.904 58.7682 17.8293 59.3175 17.68 59.8722C17.52 60.4269 17.2427 60.8962 16.848 61.2802L15.232 59.8242C15.5093 59.6002 15.7227 59.3549 15.872 59.0882C16.0107 58.8109 16.08 58.4909 16.08 58.1282C16.08 57.8509 16.0427 57.6002 15.968 57.3762C15.8827 57.1522 15.7333 57.0402 15.52 57.0402C15.3173 57.0402 15.168 57.1415 15.072 57.3442C14.9653 57.5362 14.88 57.7869 14.816 58.0962C14.7413 58.3949 14.6667 58.7202 14.592 59.0722C14.5067 59.4135 14.384 59.7389 14.224 60.0482C14.064 60.3469 13.84 60.5975 13.552 60.8002C13.2533 60.9922 12.8587 61.0882 12.368 61.0882C11.9093 61.0882 11.5147 60.9975 11.184 60.8162C10.8533 60.6242 10.5813 60.3789 10.368 60.0802C10.1547 59.7709 10 59.4189 9.90401 59.0242C9.79734 58.6295 9.74401 58.2295 9.74401 57.8242C9.74401 57.3122 9.81867 56.7949 9.96801 56.2722C10.1173 55.7495 10.384 55.3069 10.768 54.9442L12.224 56.4162Z" fill="#383838"/>
<path d="M9.93601 53.378L9.93601 50.978L17.712 50.978L17.712 53.378L9.93601 53.378ZM7.48801 53.57C7.10401 53.57 6.77867 53.4366 6.51201 53.17C6.23467 52.8926 6.09601 52.562 6.09601 52.178C6.09601 51.794 6.23467 51.4686 6.51201 51.202C6.77867 50.9246 7.10401 50.786 7.48801 50.786C7.87201 50.786 8.20267 50.9246 8.48001 51.202C8.74667 51.4686 8.88001 51.794 8.88001 52.178C8.88001 52.562 8.74667 52.8926 8.48001 53.17C8.20267 53.4366 7.87201 53.57 7.48801 53.57Z" fill="#383838"/>
<path d="M13.824 49.5417C13.2053 49.5417 12.6453 49.4297 12.144 49.2057C11.6427 48.9817 11.216 48.6777 10.864 48.2937C10.5013 47.899 10.224 47.4404 10.032 46.9177C9.84001 46.3844 9.74401 45.819 9.74401 45.2217C9.74401 44.6244 9.84001 44.0644 10.032 43.5417C10.224 43.0084 10.5013 42.5497 10.864 42.1657C11.216 41.771 11.6427 41.4617 12.144 41.2377C12.6453 41.0137 13.2053 40.9017 13.824 40.9017C14.4427 40.9017 15.0027 41.0137 15.504 41.2377C16.0053 41.4617 16.4373 41.771 16.8 42.1657C17.152 42.5497 17.424 43.0084 17.616 43.5417C17.808 44.0644 17.904 44.6244 17.904 45.2217C17.904 45.819 17.808 46.3844 17.616 46.9177C17.424 47.4404 17.152 47.899 16.8 48.2937C16.4373 48.6777 16.0053 48.9817 15.504 49.2057C15.0027 49.4297 14.4427 49.5417 13.824 49.5417ZM13.824 47.1417C14.4107 47.1417 14.8853 46.9764 15.248 46.6457C15.6107 46.3044 15.792 45.8297 15.792 45.2217C15.792 44.6137 15.6107 44.1444 15.248 43.8137C14.8853 43.4724 14.4107 43.3017 13.824 43.3017C13.2373 43.3017 12.7627 43.4724 12.4 43.8137C12.0373 44.1444 11.856 44.6137 11.856 45.2217C11.856 45.8297 12.0373 46.3044 12.4 46.6457C12.7627 46.9764 13.2373 47.1417 13.824 47.1417Z" fill="#383838"/>
<path d="M9.93601 39.4881L9.93601 37.1841L10.992 37.1841L10.992 37.1521C10.8427 37.0774 10.6933 36.9707 10.544 36.8321C10.3947 36.6934 10.2613 36.5281 10.144 36.3361C10.0267 36.1441 9.93067 35.9254 9.85601 35.6801C9.78134 35.4348 9.74401 35.1681 9.74401 34.8801C9.74401 34.2721 9.84001 33.7814 10.032 33.4081C10.2133 33.0347 10.4693 32.7467 10.8 32.5441C11.1307 32.3307 11.52 32.1867 11.968 32.1121C12.416 32.0374 12.9013 32.0001 13.424 32.0001L17.712 32.0001L17.712 34.4001L13.904 34.4001C13.68 34.4001 13.4507 34.4107 13.216 34.4321C12.9707 34.4427 12.7467 34.4907 12.544 34.5761C12.3413 34.6507 12.176 34.7734 12.048 34.9441C11.92 35.1041 11.856 35.3387 11.856 35.6481C11.856 35.9574 11.9147 36.2081 12.032 36.4001C12.1387 36.5921 12.288 36.7414 12.48 36.8481C12.6613 36.9441 12.8693 37.0081 13.104 37.0401C13.3387 37.0721 13.584 37.0881 13.84 37.0881L17.712 37.0881L17.712 39.4881L9.93601 39.4881Z" fill="#383838"/>
</svg>
