<svg width="77" height="20" viewBox="0 0 77 20" fill="none" xmlns="http://www.w3.org/2000/svg">
<path d="M74.5 10.0002C74.5 5.85764 71.1421 2.5 67.0001 2.5C62.8579 2.5 59.5 5.85764 59.5 10.0002C59.5 14.1421 62.8579 17.5 67.0001 17.5C71.1421 17.5 74.5 14.1421 74.5 10.0002Z" fill="#CED1DC"/>
<path d="M63.25 7.76089C63.25 7.3426 63.4025 6.91875 63.7075 6.48943C64.0124 6.06011 64.4575 5.70455 65.0425 5.42271C65.6275 5.14095 66.31 5 67.09 5C67.8149 5 68.455 5.11787 69.01 5.35336C69.565 5.58897 69.9937 5.90932 70.2963 6.31439C70.5987 6.71957 70.75 7.15983 70.75 7.63538C70.75 8.00969 70.6637 8.3378 70.4912 8.61953C70.3187 8.90137 70.1136 9.14465 69.8762 9.34936C69.6387 9.55413 69.2125 9.89871 68.5975 10.3831C68.4274 10.5196 68.2911 10.6396 68.1887 10.7431C68.0862 10.8466 68.0099 10.9412 67.96 11.0271C67.9099 11.1129 67.8711 11.1988 67.8437 11.2847C67.8161 11.3705 67.7749 11.5214 67.72 11.7371C67.6249 12.1951 67.3274 12.424 66.8275 12.424C66.5674 12.424 66.3486 12.3492 66.1712 12.1995C65.9937 12.0498 65.905 11.8274 65.905 11.5324C65.905 11.1625 65.9699 10.8421 66.1 10.5713C66.23 10.3005 66.4024 10.0627 66.6175 9.85801C66.8324 9.65324 67.1225 9.40999 67.4875 9.12815C67.8074 8.88159 68.0387 8.69552 68.1812 8.57002C68.3238 8.44452 68.4437 8.3048 68.5412 8.15059C68.6387 7.9965 68.6875 7.82921 68.6875 7.64861C68.6875 7.29636 68.5387 6.99916 68.2412 6.75693C67.9437 6.51483 67.5599 6.39365 67.09 6.39365C66.5399 6.39365 66.1349 6.51585 65.875 6.76024C65.6149 7.00463 65.395 7.3646 65.215 7.84015C65.0449 8.3378 64.7224 8.58652 64.2475 8.58652C63.9674 8.58652 63.7311 8.49962 63.5387 8.32563C63.3462 8.1517 63.25 7.96346 63.25 7.76089ZM66.91 15C66.605 15 66.3387 14.913 66.1112 14.7391C65.8837 14.5652 65.77 14.3219 65.77 14.0092C65.77 13.7318 65.8799 13.4985 66.1 13.3091C66.3199 13.1198 66.5899 13.0251 66.91 13.0251C67.225 13.0251 67.4899 13.1198 67.705 13.3091C67.9199 13.4985 68.0275 13.7318 68.0275 14.0092C68.0275 14.3175 67.915 14.5597 67.69 14.7358C67.4649 14.9119 67.205 15 66.91 15Z" fill="white"/>
<path d="M0.713989 5.08598H4.01799L6.29999 11.554H6.32799L8.62399 5.08598H11.914V14.998H9.72999V7.39598H9.70199L7.09799 14.998H5.43199L2.92599 7.39598H2.89799V14.998H0.713989V5.08598Z" fill="#383838"/>
<path d="M13.6967 8.19398H15.7967V14.998H13.6967V8.19398ZM13.5287 6.05198C13.5287 5.71598 13.6454 5.43132 13.8787 5.19798C14.1214 4.95532 14.4107 4.83398 14.7467 4.83398C15.0827 4.83398 15.3674 4.95532 15.6007 5.19798C15.8434 5.43132 15.9647 5.71598 15.9647 6.05198C15.9647 6.38798 15.8434 6.67732 15.6007 6.91998C15.3674 7.15332 15.0827 7.26998 14.7467 7.26998C14.4107 7.26998 14.1214 7.15332 13.8787 6.91998C13.6454 6.67732 13.5287 6.38798 13.5287 6.05198Z" fill="#383838"/>
<path d="M21.1554 10.196C20.8474 9.81332 20.4414 9.62198 19.9374 9.62198C19.7601 9.62198 19.5874 9.66398 19.4194 9.74798C19.2514 9.83198 19.1674 9.97665 19.1674 10.182C19.1674 10.35 19.2514 10.476 19.4194 10.56C19.5967 10.6347 19.8161 10.7047 20.0774 10.77C20.3481 10.826 20.6327 10.8913 20.9314 10.966C21.2394 11.0313 21.5241 11.1387 21.7854 11.288C22.0561 11.4373 22.2754 11.6427 22.4434 11.904C22.6207 12.156 22.7094 12.4967 22.7094 12.926C22.7094 13.3647 22.6114 13.7287 22.4154 14.018C22.2287 14.298 21.9861 14.5267 21.6874 14.704C21.3887 14.872 21.0527 14.9887 20.6794 15.054C20.3061 15.1287 19.9374 15.166 19.5734 15.166C19.0974 15.166 18.6167 15.1007 18.1314 14.97C17.6461 14.83 17.2354 14.5873 16.8994 14.242L18.1734 12.828C18.3694 13.0707 18.5841 13.2573 18.8174 13.388C19.0601 13.5093 19.3401 13.57 19.6574 13.57C19.9001 13.57 20.1194 13.5373 20.3154 13.472C20.5114 13.3973 20.6094 13.2667 20.6094 13.08C20.6094 12.9027 20.5207 12.772 20.3434 12.688C20.1754 12.5947 19.9561 12.52 19.6854 12.464C19.4241 12.3987 19.1394 12.3333 18.8314 12.268C18.5327 12.1933 18.2481 12.086 17.9774 11.946C17.7161 11.806 17.4967 11.61 17.3194 11.358C17.1514 11.0967 17.0674 10.7513 17.0674 10.322C17.0674 9.92065 17.1467 9.57532 17.3054 9.28598C17.4734 8.99665 17.6881 8.75865 17.9494 8.57198C18.2201 8.38532 18.5281 8.24998 18.8734 8.16598C19.2187 8.07265 19.5687 8.02598 19.9234 8.02598C20.3714 8.02598 20.8241 8.09132 21.2814 8.22198C21.7387 8.35265 22.1261 8.58598 22.4434 8.92198L21.1554 10.196Z" fill="#383838"/>
<path d="M27.6359 10.196C27.3279 9.81332 26.9219 9.62198 26.4179 9.62198C26.2405 9.62198 26.0679 9.66398 25.8999 9.74798C25.7319 9.83198 25.6479 9.97665 25.6479 10.182C25.6479 10.35 25.7319 10.476 25.8999 10.56C26.0772 10.6347 26.2965 10.7047 26.5579 10.77C26.8285 10.826 27.1132 10.8913 27.4119 10.966C27.7199 11.0313 28.0045 11.1387 28.2659 11.288C28.5365 11.4373 28.7559 11.6427 28.9239 11.904C29.1012 12.156 29.1899 12.4967 29.1899 12.926C29.1899 13.3647 29.0919 13.7287 28.8959 14.018C28.7092 14.298 28.4665 14.5267 28.1679 14.704C27.8692 14.872 27.5332 14.9887 27.1599 15.054C26.7865 15.1287 26.4179 15.166 26.0539 15.166C25.5779 15.166 25.0972 15.1007 24.6119 14.97C24.1265 14.83 23.7159 14.5873 23.3799 14.242L24.6539 12.828C24.8499 13.0707 25.0645 13.2573 25.2979 13.388C25.5405 13.5093 25.8205 13.57 26.1379 13.57C26.3805 13.57 26.5999 13.5373 26.7959 13.472C26.9919 13.3973 27.0899 13.2667 27.0899 13.08C27.0899 12.9027 27.0012 12.772 26.8239 12.688C26.6559 12.5947 26.4365 12.52 26.1659 12.464C25.9045 12.3987 25.6199 12.3333 25.3119 12.268C25.0132 12.1933 24.7285 12.086 24.4579 11.946C24.1965 11.806 23.9772 11.61 23.7999 11.358C23.6319 11.0967 23.5479 10.7513 23.5479 10.322C23.5479 9.92065 23.6272 9.57532 23.7859 9.28598C23.9539 8.99665 24.1685 8.75865 24.4299 8.57198C24.7005 8.38532 25.0085 8.24998 25.3539 8.16598C25.6992 8.07265 26.0492 8.02598 26.4039 8.02598C26.8519 8.02598 27.3045 8.09132 27.7619 8.22198C28.2192 8.35265 28.6065 8.58598 28.9239 8.92198L27.6359 10.196Z" fill="#383838"/>
<path d="M30.2943 8.19398H32.3943V14.998H30.2943V8.19398ZM30.1263 6.05198C30.1263 5.71598 30.243 5.43132 30.4763 5.19798C30.719 4.95532 31.0083 4.83398 31.3443 4.83398C31.6803 4.83398 31.965 4.95532 32.1983 5.19798C32.441 5.43132 32.5624 5.71598 32.5624 6.05198C32.5624 6.38798 32.441 6.67732 32.1983 6.91998C31.965 7.15332 31.6803 7.26998 31.3443 7.26998C31.0083 7.26998 30.719 7.15332 30.4763 6.91998C30.243 6.67732 30.1263 6.38798 30.1263 6.05198Z" fill="#383838"/>
<path d="M33.6511 11.596C33.6511 11.0547 33.7491 10.5647 33.9451 10.126C34.1411 9.68732 34.4071 9.31398 34.7431 9.00598C35.0884 8.68865 35.4897 8.44598 35.9471 8.27798C36.4137 8.10998 36.9084 8.02598 37.4311 8.02598C37.9537 8.02598 38.4437 8.10998 38.9011 8.27798C39.3677 8.44598 39.7691 8.68865 40.1051 9.00598C40.4504 9.31398 40.7211 9.68732 40.9171 10.126C41.1131 10.5647 41.2111 11.0547 41.2111 11.596C41.2111 12.1373 41.1131 12.6273 40.9171 13.066C40.7211 13.5047 40.4504 13.8827 40.1051 14.2C39.7691 14.508 39.3677 14.746 38.9011 14.914C38.4437 15.082 37.9537 15.166 37.4311 15.166C36.9084 15.166 36.4137 15.082 35.9471 14.914C35.4897 14.746 35.0884 14.508 34.7431 14.2C34.4071 13.8827 34.1411 13.5047 33.9451 13.066C33.7491 12.6273 33.6511 12.1373 33.6511 11.596ZM35.7511 11.596C35.7511 12.1093 35.8957 12.5247 36.1851 12.842C36.4837 13.1593 36.8991 13.318 37.4311 13.318C37.9631 13.318 38.3737 13.1593 38.6631 12.842C38.9617 12.5247 39.1111 12.1093 39.1111 11.596C39.1111 11.0827 38.9617 10.6673 38.6631 10.35C38.3737 10.0327 37.9631 9.87398 37.4311 9.87398C36.8991 9.87398 36.4837 10.0327 36.1851 10.35C35.8957 10.6673 35.7511 11.0827 35.7511 11.596Z" fill="#383838"/>
<path d="M42.448 8.19398H44.464V9.11798H44.492C44.5573 8.98732 44.6507 8.85665 44.772 8.72598C44.8933 8.59532 45.038 8.47865 45.206 8.37598C45.374 8.27332 45.5653 8.18932 45.78 8.12398C45.9947 8.05865 46.228 8.02598 46.48 8.02598C47.012 8.02598 47.4413 8.10998 47.768 8.27798C48.0947 8.43665 48.3467 8.66065 48.524 8.94998C48.7107 9.23932 48.8367 9.57998 48.902 9.97198C48.9673 10.364 49 10.7887 49 11.246V14.998H46.9V11.666C46.9 11.47 46.8907 11.2693 46.872 11.064C46.8627 10.8493 46.8207 10.6533 46.746 10.476C46.6807 10.2987 46.5733 10.154 46.424 10.042C46.284 9.92998 46.0787 9.87398 45.808 9.87398C45.5373 9.87398 45.318 9.92532 45.15 10.028C44.982 10.1213 44.8513 10.252 44.758 10.42C44.674 10.5787 44.618 10.7607 44.59 10.966C44.562 11.1713 44.548 11.386 44.548 11.61V14.998H42.448V8.19398Z" fill="#383838"/>
</svg>
