<svg width="25" height="25" viewBox="0 0 25 25" fill="none" xmlns="http://www.w3.org/2000/svg">
<g clip-path="url(#clip0)">
<path d="M12.9184 2.75317L4.45601 7.89296H2.68555C1.20474 7.89296 0 9.0977 0 10.5785V14.4222C0 15.903 1.20474 17.1078 2.68555 17.1078H4.11436C4.1165 17.109 4.11851 17.1105 4.1207 17.1118L12.9366 22.2585C13.7439 22.7298 14.7727 22.1493 14.7727 21.2043V3.79648C14.7727 2.84633 13.7305 2.25981 12.9184 2.75317ZM1.46484 14.4222V10.5785C1.46484 9.90537 2.01245 9.35776 2.68555 9.35776H3.75757V15.6429H2.68555C2.01245 15.6429 1.46484 15.0953 1.46484 14.4222ZM13.3079 20.779L5.22236 16.0587V9.14135L13.3079 4.23041V20.779Z" fill="white"/>
<path d="M17.0667 15.5241C16.6622 15.5241 16.3342 15.852 16.3342 16.2565C16.3342 16.661 16.6622 16.9889 17.0667 16.9889C19.5417 16.9889 21.5554 14.9753 21.5554 12.5002C21.5554 10.0251 19.5417 8.01151 17.0667 8.01151C16.6622 8.01151 16.3342 8.33943 16.3342 8.74393C16.3342 9.14842 16.6622 9.47635 17.0667 9.47635C18.734 9.47635 20.0905 10.8328 20.0905 12.5002C20.0905 14.1676 18.734 15.5241 17.0667 15.5241Z" fill="white"/>
<path d="M17.0667 4.56708C16.6622 4.56708 16.3342 4.89501 16.3342 5.2995C16.3342 5.70399 16.6622 6.03192 17.0667 6.03192C20.6333 6.03192 23.5351 8.93363 23.5351 12.5004C23.5351 16.0671 20.6333 18.9689 17.0667 18.9689C16.6622 18.9689 16.3342 19.2968 16.3342 19.7013C16.3342 20.1058 16.6622 20.4337 17.0667 20.4337C21.4411 20.4337 25 16.8748 25 12.5004C25 8.12592 21.4411 4.56708 17.0667 4.56708Z" fill="white"/>
</g>
<defs>
<clipPath id="clip0">
<rect width="25" height="25" fill="white"/>
</clipPath>
</defs>
</svg>
