<svg width="20" height="20" viewBox="0 0 20 20" fill="none" xmlns="http://www.w3.org/2000/svg">
<path d="M18.9093 1.09074C18.2059 0.387383 17.2707 3.90625e-05 16.276 7.8125e-05L3.72398 0C1.67055 7.8125e-05 0 1.67066 0 3.72395V16.276C0 18.3294 1.67062 20 3.72398 20H16.276C18.3294 20 20 18.3294 20 16.276V3.72402C20 2.7293 19.6127 1.7941 18.9093 1.09074ZM6.4791 8.49586C6.70789 8.26707 7.07887 8.26707 7.30773 8.49586L9.41406 10.6022L9.41398 4.35152C9.41398 4.02793 9.67633 3.76559 9.99992 3.76559C10.3236 3.76559 10.5859 4.02793 10.5859 4.35152L10.5859 10.602L12.6921 8.49578C12.9209 8.26699 13.2919 8.26699 13.5207 8.49578C13.7496 8.72457 13.7496 9.09559 13.5208 9.32441L10.4143 12.431C10.3044 12.5409 10.1554 12.6026 9.99996 12.6026C9.84461 12.6026 9.69555 12.5409 9.5857 12.431L6.47918 9.32449C6.25027 9.0957 6.25027 8.72469 6.4791 8.49586ZM15.6485 16.2344H4.35156C4.02801 16.2344 3.76562 15.972 3.76562 15.6484C3.76562 15.3248 4.02801 15.0625 4.35156 15.0625H15.6485C15.972 15.0625 16.2344 15.3248 16.2344 15.6484C16.2345 15.972 15.9721 16.2344 15.6485 16.2344Z" fill="#D1091E"/>
</svg>
