<svg width="20" height="20" viewBox="0 0 20 20" fill="none" xmlns="http://www.w3.org/2000/svg">
<path fill-rule="evenodd" clip-rule="evenodd" d="M10 17.9999C12.1217 17.9999 14.1566 17.1571 15.6569 15.6568C17.1571 14.1565 18 12.1217 18 9.99994C18 7.87821 17.1571 5.84338 15.6569 4.34308C14.1566 2.84279 12.1217 1.99994 10 1.99994C7.87827 1.99994 5.84344 2.84279 4.34315 4.34308C2.84285 5.84338 2 7.87821 2 9.99994C2 12.1217 2.84285 14.1565 4.34315 15.6568C5.84344 17.1571 7.87827 17.9999 10 17.9999ZM13.707 8.70694C13.8892 8.51834 13.99 8.26573 13.9877 8.00354C13.9854 7.74134 13.8802 7.49053 13.6948 7.30512C13.5094 7.11971 13.2586 7.01454 12.9964 7.01226C12.7342 7.00999 12.4816 7.11078 12.293 7.29294L9 10.5859L7.707 9.29294C7.5184 9.11078 7.26579 9.00999 7.0036 9.01227C6.7414 9.01454 6.49059 9.11971 6.30518 9.30512C6.11977 9.49053 6.0146 9.74134 6.01232 10.0035C6.01005 10.2657 6.11084 10.5183 6.293 10.7069L8.293 12.7069C8.48053 12.8944 8.73483 12.9997 9 12.9997C9.26516 12.9997 9.51947 12.8944 9.707 12.7069L13.707 8.70694Z" fill="#0F277C"/>
</svg>
