<svg width="38" height="38" viewBox="0 0 38 38" fill="none" xmlns="http://www.w3.org/2000/svg">
<rect width="38" height="38" rx="19" fill="white"/>
<g clip-path="url(#clip0)">
<path d="M13.9586 13.9251C14.2934 14.2615 14.2921 14.8056 13.9557 15.1404L10.9409 18.1406H29.1406C29.6153 18.1406 30 18.5254 30 19C30 19.4746 29.6153 19.8594 29.1406 19.8594H10.9409L13.9557 22.8596C14.2921 23.1944 14.2934 23.7386 13.9586 24.075C13.6238 24.4114 13.0796 24.4126 12.7432 24.0779L8.25283 19.6091C8.25253 19.6089 8.25231 19.6086 8.25205 19.6083C7.91651 19.2735 7.91544 18.7276 8.25201 18.3917C8.25231 18.3914 8.25253 18.3911 8.25278 18.3909L12.7432 13.9221C13.0795 13.5874 13.6237 13.5886 13.9586 13.9251Z" fill="black"/>
</g>
<defs>
<clipPath id="clip0">
<rect width="22" height="22" fill="white" transform="matrix(0 -1 -1 0 30 30)"/>
</clipPath>
</defs>
</svg>
