<svg width="98" height="50" viewBox="0 0 98 50" fill="none" xmlns="http://www.w3.org/2000/svg">
<rect x="4" width="93.1136" height="44" rx="8" fill="white"/>
<path d="M31.696 31.3601C31.248 31.3601 30.832 31.2561 30.448 31.0481C30.08 30.8401 29.76 30.5601 29.488 30.2081C29.248 29.8721 29.032 29.4481 28.84 28.9361C28.648 28.4081 28.504 27.8641 28.408 27.3041C28.216 26.3601 28.088 25.1201 28.024 23.5841C28.008 23.2161 28 22.5841 28 21.6881V20.1761C28.016 19.7441 28.024 19.2961 28.024 18.8321C28.024 17.8881 28.08 17.1441 28.192 16.6001C28.144 16.3601 28.12 16.1121 28.12 15.8561C28.12 14.8961 28.48 14.1201 29.2 13.5281C29.92 12.9361 30.832 12.6401 31.936 12.6401C32.352 12.6401 32.736 12.7521 33.088 12.9761C33.44 13.2001 33.616 13.4801 33.616 13.8161C33.616 13.9761 33.552 14.1041 33.424 14.2001C33.296 14.2961 33.136 14.3441 32.944 14.3441C32.784 14.3441 32.608 14.3201 32.416 14.2721C32.24 14.2241 32.128 14.1521 32.08 14.0561H31.768V14.0081C31.176 14.0081 30.68 14.1361 30.28 14.3921C29.992 14.6001 29.768 14.9441 29.608 15.4241C29.544 15.6001 29.496 15.8241 29.464 16.0961C29.432 16.3681 29.416 16.6161 29.416 16.8401C29.4 16.9681 29.392 17.2241 29.392 17.6081L29.44 18.4481L29.464 19.2641C29.464 19.5041 29.432 19.7841 29.368 20.1041C29.288 20.5041 29.248 20.7841 29.248 20.9441V21.5201C29.248 22.1441 29.272 23.0001 29.32 24.0881C29.336 25.0001 29.44 25.9121 29.632 26.8241C29.776 27.6721 30.048 28.3921 30.448 28.9841C30.832 29.5921 31.352 29.8961 32.008 29.8961C32.28 29.8961 32.616 29.7521 33.016 29.4641C33.448 29.1761 33.752 29.0321 33.928 29.0321C34.152 29.0321 34.384 29.1521 34.624 29.3921C34.624 29.9841 34.4 30.4401 33.952 30.7601C33.536 31.0481 33.04 31.2321 32.464 31.3121C32.144 31.3441 31.888 31.3601 31.696 31.3601Z" fill="#D1091E"/>
<path d="M41.2219 31.1921C40.8539 31.1921 40.5819 31.1361 40.4059 31.0241C40.2299 30.9121 40.1419 30.7041 40.1419 30.4001C40.1419 29.9201 40.0619 29.1041 39.9019 27.9521L39.8059 27.4481L37.4299 27.0881C37.3339 27.4561 37.1979 28.2001 37.0219 29.3201C36.9259 30.1041 36.7739 30.6241 36.5659 30.8801C36.4539 31.0241 36.2939 31.0961 36.0859 31.0961C35.8939 31.0961 35.7179 31.0401 35.5579 30.9281C35.3979 30.8001 35.3179 30.6481 35.3179 30.4721L35.3659 30.3521L35.3899 30.2561C36.4459 26.1441 37.2459 22.0881 37.7899 18.0881C37.7899 18.0241 37.7979 17.9201 37.8139 17.7761C37.8299 17.6161 37.8459 17.3921 37.8619 17.1041C37.9099 16.5121 37.9579 16.0401 38.0059 15.6881C38.0699 15.3361 38.1659 15.0721 38.2939 14.8961H39.1099C39.3339 14.8961 39.5259 14.9521 39.6859 15.0641C39.8459 15.1601 39.9259 15.3041 39.9259 15.4961C39.9259 16.7121 40.0939 18.5201 40.4299 20.9201C40.7499 23.3841 40.9099 25.1121 40.9099 26.1041C40.9099 26.2001 40.9499 26.4481 41.0299 26.8481C41.1099 27.2161 41.1499 27.4561 41.1499 27.5681C41.1499 27.6801 41.2299 28.1601 41.3899 29.0081C41.5339 29.7761 41.6059 30.2721 41.6059 30.4961V30.5201C41.6059 30.8721 41.4779 31.0961 41.2219 31.1921ZM39.6379 26.5841C39.5899 26.3441 39.5659 26.0481 39.5659 25.6961C39.5659 24.2561 39.4379 22.4161 39.1819 20.1761L38.9419 17.6801C38.2539 21.4401 37.7819 24.2801 37.5259 26.2001C37.7659 26.3601 38.4699 26.4881 39.6379 26.5841Z" fill="#D1091E"/>
<path d="M50.2178 31.0481C50.0258 31.0481 49.8818 31.0001 49.7858 30.9041C49.6898 30.7921 49.6178 30.6081 49.5698 30.3521L49.4258 29.8961V29.8481V29.7761C49.4258 29.2481 48.8738 27.4481 47.7698 24.3761C46.6818 21.3041 45.8258 19.0321 45.2018 17.5601V29.6321L45.2978 29.8001C45.3138 29.8321 45.3458 29.8881 45.3938 29.9681C45.4418 30.0481 45.4658 30.1281 45.4658 30.2081C45.4658 30.4161 45.3938 30.5921 45.2498 30.7361C45.1058 30.8801 44.9298 30.9521 44.7218 30.9521C44.2098 30.9521 43.9538 30.4641 43.9538 29.4881L43.9298 25.3841C43.9138 24.1521 43.9058 22.7761 43.9058 21.2561C43.9058 20.7441 43.9298 20.0001 43.9778 19.0241C44.0258 18.0161 44.0498 17.2721 44.0498 16.7921C44.0498 16.0401 44.3378 15.4481 44.9138 15.0161V15.1601C45.0098 15.1281 45.0738 15.1121 45.1058 15.1121C45.4738 15.1121 45.9378 15.7521 46.4978 17.0321C46.9458 18.0561 47.3458 19.1361 47.6978 20.2721C48.0658 21.4081 48.5458 23.0241 49.1378 25.1201L49.3778 25.9841C49.7458 27.2801 50.0258 28.2081 50.2178 28.7681C50.5378 25.3281 50.6978 21.2641 50.6978 16.5761V16.2641C50.6818 16.1681 50.6738 16.0641 50.6738 15.9521C50.6738 15.4721 50.8658 15.2321 51.2498 15.2321C51.4738 15.2321 51.6418 15.3201 51.7538 15.4961C51.8818 15.6721 51.9458 15.8961 51.9458 16.1681V17.9681C51.9138 20.4321 51.8178 23.1041 51.6578 25.9841C51.4978 28.8641 51.3058 30.4881 51.0818 30.8561C50.6178 30.9841 50.3298 31.0481 50.2178 31.0481Z" fill="#D1091E"/>
<path d="M58.3662 31.3121C58.0142 31.3121 57.6382 31.2561 57.2382 31.1441C56.8542 31.0481 56.5582 30.9361 56.3502 30.8081C55.2782 30.1201 54.7422 28.2401 54.7422 25.1681V24.5201V23.7761V23.2001C54.7422 22.5601 54.7502 21.9921 54.7662 21.4961C54.7822 20.9841 54.8142 20.4321 54.8622 19.8401C54.9102 19.2161 54.9822 18.7121 55.0782 18.3281C55.1742 17.9281 55.3342 17.4801 55.5582 16.9841C55.7502 16.5201 55.9822 16.1601 56.2542 15.9041C56.5422 15.6481 56.9102 15.4321 57.3582 15.2561C57.7582 15.0801 58.2542 14.9921 58.8462 14.9921C59.0862 14.9921 59.2702 15.0481 59.3982 15.1601C59.5262 15.2721 59.5902 15.4161 59.5902 15.5921C59.5902 15.7521 59.5342 15.8961 59.4222 16.0241C59.3262 16.1521 59.2062 16.2241 59.0622 16.2401H57.9342C57.6142 16.2401 57.3342 16.4401 57.0942 16.8401C56.8542 17.2401 56.6862 17.7601 56.5902 18.4001C56.3822 19.5841 56.2782 20.5441 56.2782 21.2801V21.4001L56.2302 23.7041C56.1982 24.3921 56.1822 25.1681 56.1822 26.0321C56.1822 26.6401 56.2062 27.1361 56.2542 27.5201C56.3342 28.0961 56.4702 28.5761 56.6622 28.9601C56.8542 29.3921 57.1822 29.7041 57.6462 29.8961C57.8862 29.9921 58.1502 30.0401 58.4382 30.0401C58.6142 30.0401 58.7902 29.9761 58.9662 29.8481C59.1742 29.8481 59.3422 29.8961 59.4702 29.9921C59.6142 30.0721 59.6862 30.2001 59.6862 30.3761C59.6862 31.0001 59.2462 31.3121 58.3662 31.3121Z" fill="#D1091E"/>
<path d="M62.9573 31.2881C62.7493 31.2881 62.5573 31.2161 62.3813 31.0721C62.2213 30.9281 62.1333 30.7521 62.1173 30.5441V29.9201V29.4401C62.1013 29.2961 62.0933 29.1281 62.0933 28.9361C62.0933 28.6001 62.0693 28.0881 62.0213 27.4001L61.9733 25.8641C61.9733 25.0801 61.9973 23.9121 62.0453 22.3601C62.1093 20.9681 62.1413 19.8001 62.1413 18.8561C62.1413 18.6321 62.1173 18.2961 62.0693 17.8481C62.0213 17.3841 61.9973 17.0481 61.9973 16.8401C61.9973 15.7041 62.3333 15.1361 63.0053 15.1361C63.5333 15.1361 64.1413 15.2401 64.8293 15.4481C65.5333 15.6561 65.8853 15.9041 65.8853 16.1921C65.8853 16.3521 65.8133 16.5041 65.6693 16.6481C65.5413 16.7761 65.3813 16.8801 65.1893 16.9601C64.5173 16.7201 63.9093 16.5601 63.3653 16.4801C63.3813 16.7201 63.3893 17.0641 63.3893 17.5121C63.3893 18.1521 63.3813 18.7281 63.3653 19.2401C63.3173 20.0081 63.2933 20.5841 63.2933 20.9681L63.3653 21.3521L63.7493 21.3281C63.8773 21.3121 64.0373 21.3041 64.2293 21.3041C64.9973 21.3041 65.3813 21.5281 65.3813 21.9761C65.3813 22.1521 65.3093 22.3041 65.1653 22.4321C65.0213 22.5441 64.8373 22.6001 64.6133 22.6001C64.3253 22.6001 64.1013 22.5841 63.9413 22.5521H63.3413C63.3733 22.9681 63.3893 23.5761 63.3893 24.3761C63.3893 25.1761 63.3813 25.8961 63.3653 26.5361C63.3173 27.5121 63.2933 28.2401 63.2933 28.7201C63.2933 29.6161 63.3093 30.0641 63.3413 30.0641L64.1333 30.0401C64.4053 30.0241 64.7333 30.0161 65.1173 30.0161C65.7253 30.0161 66.0293 30.2081 66.0293 30.5921C66.0293 30.8161 65.9253 30.9841 65.7173 31.0961C65.5253 31.2241 65.2853 31.2881 64.9973 31.2881H62.9573Z" fill="#D1091E"/>
<path d="M72.3696 31.3601C71.7936 31.1681 71.0816 31.0721 70.2336 31.0721C69.9776 31.2321 69.7056 31.3121 69.4176 31.3121C69.2256 31.3121 69.0576 31.2241 68.9136 31.0481C68.7856 30.8881 68.7216 30.7121 68.7216 30.5201C68.7216 29.1761 68.7776 27.3841 68.8896 25.1441C68.9856 22.7601 69.0336 20.9761 69.0336 19.7921V19.6241C68.9376 18.6161 68.8896 17.8641 68.8896 17.3681C68.8896 15.8481 69.1696 15.0881 69.7296 15.0881C69.8896 15.0881 70.0256 15.1521 70.1376 15.2801C70.2656 15.3921 70.3296 15.5281 70.3296 15.6881C70.3296 15.8801 70.3056 16.1841 70.2576 16.6001C70.2096 17.0001 70.1856 17.3041 70.1856 17.5121C70.1856 18.5841 70.1936 19.5521 70.2096 20.4161C70.2256 21.2641 70.2336 22.2241 70.2336 23.2961C70.1536 23.5361 70.1136 23.8721 70.1136 24.3041V24.5921L70.0656 26.4881C70.0336 27.0481 70.0176 27.6881 70.0176 28.4081C70.0176 29.5121 70.2816 30.0641 70.8096 30.0641C70.8416 30.0641 70.8896 30.0641 70.9536 30.0641C71.0336 30.0481 71.1376 30.0401 71.2656 30.0401C71.4096 30.0241 71.5936 30.0161 71.8176 30.0161C72.6816 30.0161 73.1136 30.2561 73.1136 30.7361C73.1136 30.8961 73.0416 31.0321 72.8976 31.1441C72.7536 31.2561 72.5776 31.3281 72.3696 31.3601Z" fill="#D1091E"/>
<rect x="0.5" y="4.5" width="94" height="45" rx="7.5" stroke="#D1091E"/>
</svg>
