<svg width="101" height="50" viewBox="0 0 101 50" fill="none" xmlns="http://www.w3.org/2000/svg">
<rect x="4" width="96.9564" height="45" rx="8" fill="#D1091E"/>
<path d="M29.872 31.632C29.296 31.632 28.8 31.528 28.384 31.32C28.128 31.176 28 31.008 28 30.816C28 30.624 28.048 30.472 28.144 30.36C28.24 30.232 28.376 30.1679 28.552 30.1679C28.712 30.1679 28.944 30.232 29.248 30.36C29.584 30.488 29.792 30.552 29.872 30.552C30.176 30.552 30.448 30.4239 30.688 30.1679C30.944 29.8959 31.144 29.5439 31.288 29.1119C31.576 28.3119 31.72 27.592 31.72 26.952C31.72 26.264 31.608 25.544 31.384 24.792C31.176 24.024 30.888 23.2799 30.52 22.5599L30.136 21.792C29.736 20.992 29.424 20.36 29.2 19.896C28.992 19.432 28.808 18.9279 28.648 18.3839C28.408 17.6159 28.288 16.872 28.288 16.1519C28.288 15.5759 28.384 15.0319 28.576 14.5199C28.784 14.0079 29.088 13.5759 29.488 13.2239C29.888 12.8399 30.384 12.6479 30.976 12.6479C31.264 12.6479 31.544 12.7359 31.816 12.912C32.088 13.0719 32.28 13.2799 32.392 13.5359L31.984 14.0399C31.568 14.0399 31.256 13.9599 31.048 13.8C30.76 13.8319 30.504 13.9759 30.28 14.232C30.072 14.472 29.912 14.7519 29.8 15.0719C29.704 15.3759 29.656 15.6799 29.656 15.9839C29.656 16.5919 29.736 17.216 29.896 17.8559C30.072 18.4799 30.296 19.072 30.568 19.632L32.248 22.992C32.52 23.568 32.736 24.216 32.896 24.936C33.056 25.656 33.136 26.376 33.136 27.096C33.136 28.152 32.88 29.144 32.368 30.072C32.096 30.552 31.744 30.928 31.312 31.2C30.88 31.488 30.4 31.632 29.872 31.632Z" fill="white"/>
<path d="M37.0874 31.08C35.6954 31.08 34.9994 30.84 34.9994 30.36C34.9994 29.976 35.2474 29.784 35.7434 29.784H36.0074L36.2474 29.808C36.3754 29.808 36.4634 29.768 36.5114 29.688C36.5594 29.608 36.5834 29.464 36.5834 29.256C36.5834 28.984 36.5674 28.5599 36.5354 27.9839C36.4874 27.5999 36.4314 26.912 36.3674 25.92C36.2234 23.472 36.1514 21.624 36.1514 20.3759C36.1514 19.9279 36.1594 19.5199 36.1754 19.1519L36.1994 17.9279C36.1994 17.4 36.1754 16.9599 36.1274 16.6079C35.8714 16.6719 35.6874 16.7039 35.5754 16.7039C35.1914 16.7039 34.9994 16.512 34.9994 16.128C34.9994 15.9359 35.1194 15.7679 35.3594 15.6239C35.5994 15.4799 35.9034 15.3759 36.2714 15.3119C36.9114 15.1839 37.4794 15.12 37.9754 15.12C38.1674 15.12 38.3274 15.192 38.4554 15.336C38.5994 15.4639 38.6714 15.6159 38.6714 15.792C38.6714 15.9679 38.6154 16.1199 38.5034 16.248C38.4074 16.376 38.2794 16.44 38.1194 16.44C38.0234 16.44 37.9434 16.432 37.8794 16.4159H37.6874C37.5274 16.4159 37.4074 16.4559 37.3274 16.5359C37.2634 16.5999 37.2314 16.7279 37.2314 16.92C37.2314 18.472 37.3274 20.808 37.5194 23.9279C37.5514 24.504 37.6154 25.352 37.7114 26.472C37.7914 27.208 37.8314 27.96 37.8314 28.728V29.6399C37.9274 29.6239 38.0874 29.6159 38.3114 29.6159C38.9834 29.6159 39.3194 29.8959 39.3194 30.4559V30.6L38.7194 31.0079C38.7034 31.0079 38.6474 31.0159 38.5514 31.0319C38.4714 31.0319 38.3114 31.0319 38.0714 31.0319C37.5594 31.0639 37.2314 31.08 37.0874 31.08Z" fill="white"/>
<path d="M50.9734 32.3519C50.4774 32.3519 50.2294 31.856 50.2294 30.864V29.3279V27.792C50.2294 26.992 50.1734 25.944 50.0614 24.648C49.9334 23.192 49.8694 22.192 49.8694 21.648L49.9174 20.16C49.9494 19.728 49.9654 19.2399 49.9654 18.6959C49.9014 18.9039 49.6374 20.0079 49.1734 22.0079C48.7094 23.9439 48.2294 25.736 47.7334 27.384C47.2534 28.968 46.8614 29.76 46.5574 29.76C46.2534 29.76 46.0054 29.672 45.8134 29.496C45.6374 29.304 45.5494 29.048 45.5494 28.728C45.5494 28.024 45.2614 26.528 44.6854 24.24C44.1254 21.952 43.6134 20.0799 43.1494 18.6239L43.0054 21.336C42.8774 23.624 42.7894 25.528 42.7414 27.048C42.7094 28.52 42.6934 29.528 42.6934 30.072C42.6934 30.2 42.7014 30.3199 42.7174 30.4319V30.768C42.7174 31.04 42.6614 31.24 42.5494 31.368C42.4374 31.512 42.2294 31.584 41.9254 31.584C41.7654 31.584 41.6134 31.52 41.4694 31.392C41.3254 31.28 41.2534 31.1519 41.2534 31.0079C41.2534 29.3759 41.3734 26.9279 41.6134 23.6639C41.8534 20.4 41.9734 17.952 41.9734 16.3199C41.8774 16.176 41.8294 16.024 41.8294 15.8639C41.8294 15.6719 41.9174 15.5279 42.0934 15.4319C42.2854 15.3199 42.5094 15.2639 42.7654 15.2639C42.9734 15.2639 43.3574 16.0159 43.9174 17.5199C44.4774 19.0239 45.0374 20.728 45.5974 22.632C46.1574 24.536 46.5174 25.912 46.6774 26.76C46.8054 26.328 46.9094 25.9279 46.9894 25.5599L47.1334 24.9839C47.6454 22.7439 48.1574 20.72 48.6694 18.912C48.9734 17.808 49.2694 16.9439 49.5574 16.3199C49.8454 15.6479 50.1094 15.3119 50.3494 15.3119C50.5734 15.3119 50.7734 15.3759 50.9494 15.5039C51.1414 15.616 51.2374 15.768 51.2374 15.9599C51.2374 17.1119 51.2854 18.8399 51.3814 21.1439C51.4934 23.2879 51.5494 24.952 51.5494 26.136L51.5254 27.4079L51.4774 28.68C51.4774 28.872 51.5014 29.16 51.5494 29.544L51.6214 30.384C51.6374 30.528 51.6454 30.6399 51.6454 30.7199C51.6614 30.7999 51.6694 30.848 51.6694 30.864C51.7494 31.072 51.7894 31.224 51.7894 31.32C51.7894 31.592 51.7094 31.832 51.5494 32.04C51.3894 32.248 51.1974 32.3519 50.9734 32.3519Z" fill="white"/>
<path d="M55.2826 31.2719C55.0746 30.4239 54.9706 29.2479 54.9706 27.7439L55.0186 25.608C55.0506 24.968 55.0666 24.256 55.0666 23.472C54.9706 23.248 54.9226 23.048 54.9226 22.872V22.7999C55.0826 22.4959 55.1626 21.808 55.1626 20.736L55.1866 19.632C55.2026 19.28 55.2106 18.8879 55.2106 18.4559C55.2106 17.5119 55.1466 16.768 55.0186 16.224C55.0666 16 55.1466 15.808 55.2586 15.6479C55.3706 15.4719 55.5066 15.3839 55.6666 15.3839H56.7226C57.1706 15.3839 57.5626 15.4879 57.8986 15.696C58.2346 15.8879 58.4906 16.1679 58.6666 16.5359C58.9866 17.1919 59.1466 17.9679 59.1466 18.8639C59.1466 19.5039 59.1386 20.0079 59.1226 20.3759C59.0906 20.84 59.0106 21.264 58.8826 21.648C58.8346 21.856 58.7626 22.0319 58.6666 22.176C58.5866 22.3039 58.4666 22.4639 58.3066 22.6559C58.0826 22.9279 57.7146 23.184 57.2026 23.424C56.9946 23.536 56.7226 23.64 56.3866 23.736V26.304L56.4346 27.84L56.4826 28.584C56.5466 29.48 56.5786 30.24 56.5786 30.864C56.5786 31.056 56.4986 31.216 56.3386 31.344C56.1786 31.488 55.9946 31.5599 55.7866 31.5599L55.2826 31.2719ZM56.4106 22.752C57.3546 22.608 57.8266 21.2559 57.8266 18.6959C57.8266 18.2319 57.8026 17.872 57.7546 17.6159C57.7066 17.424 57.6426 17.272 57.5626 17.1599C57.4826 17.0319 57.3626 16.9279 57.2026 16.8479C57.0266 16.7519 56.8346 16.7039 56.6266 16.7039C56.6266 16.688 56.5386 16.68 56.3626 16.68V18.0479C56.3626 18.992 56.3706 19.832 56.3866 20.568C56.3866 21.4 56.3946 21.944 56.4106 22.2V22.7039V22.752Z" fill="white"/>
<path d="M66.2326 31.32C65.8646 31.32 65.5926 31.264 65.4166 31.152C65.2406 31.04 65.1526 30.832 65.1526 30.528C65.1526 30.048 65.0726 29.232 64.9126 28.08L64.8166 27.576L62.4406 27.216C62.3446 27.5839 62.2086 28.328 62.0326 29.448C61.9366 30.232 61.7846 30.7519 61.5766 31.0079C61.4646 31.1519 61.3046 31.224 61.0966 31.224C60.9046 31.224 60.7286 31.168 60.5686 31.056C60.4086 30.928 60.3286 30.776 60.3286 30.6L60.3766 30.4799L60.4006 30.384C61.4566 26.272 62.2566 22.216 62.8006 18.216C62.8006 18.1519 62.8086 18.048 62.8246 17.904C62.8406 17.744 62.8566 17.52 62.8726 17.232C62.9206 16.64 62.9686 16.168 63.0166 15.8159C63.0806 15.4639 63.1766 15.1999 63.3046 15.024H64.1206C64.3446 15.024 64.5366 15.0799 64.6966 15.1919C64.8566 15.288 64.9366 15.432 64.9366 15.6239C64.9366 16.84 65.1046 18.648 65.4406 21.0479C65.7606 23.512 65.9206 25.24 65.9206 26.232C65.9206 26.328 65.9606 26.576 66.0406 26.976C66.1206 27.344 66.1606 27.5839 66.1606 27.6959C66.1606 27.8079 66.2406 28.288 66.4006 29.136C66.5446 29.904 66.6166 30.4 66.6166 30.624V30.648C66.6166 31 66.4886 31.224 66.2326 31.32ZM64.6486 26.712C64.6006 26.472 64.5766 26.1759 64.5766 25.8239C64.5766 24.3839 64.4486 22.544 64.1926 20.304L63.9526 17.808C63.2646 21.568 62.7926 24.4079 62.5366 26.3279C62.7766 26.4879 63.4806 26.616 64.6486 26.712Z" fill="white"/>
<path d="M75.2284 31.176C75.0364 31.176 74.8924 31.1279 74.7964 31.0319C74.7004 30.9199 74.6284 30.7359 74.5804 30.4799L74.4364 30.024V29.976V29.9039C74.4364 29.3759 73.8844 27.576 72.7804 24.504C71.6924 21.432 70.8364 19.16 70.2124 17.688V29.76L70.3084 29.9279C70.3244 29.9599 70.3564 30.016 70.4044 30.096C70.4524 30.176 70.4764 30.256 70.4764 30.336C70.4764 30.544 70.4044 30.72 70.2604 30.864C70.1164 31.008 69.9404 31.08 69.7324 31.08C69.2204 31.08 68.9644 30.5919 68.9644 29.6159L68.9404 25.512C68.9244 24.28 68.9164 22.9039 68.9164 21.3839C68.9164 20.8719 68.9404 20.128 68.9884 19.1519C69.0364 18.1439 69.0604 17.3999 69.0604 16.92C69.0604 16.168 69.3484 15.576 69.9244 15.1439V15.2879C70.0204 15.2559 70.0844 15.24 70.1164 15.24C70.4844 15.24 70.9484 15.88 71.5084 17.1599C71.9564 18.1839 72.3564 19.2639 72.7084 20.4C73.0764 21.5359 73.5564 23.1519 74.1484 25.2479L74.3884 26.1119C74.7564 27.4079 75.0364 28.336 75.2284 28.896C75.5484 25.456 75.7084 21.392 75.7084 16.7039V16.3919C75.6924 16.2959 75.6844 16.1919 75.6844 16.0799C75.6844 15.5999 75.8764 15.36 76.2604 15.36C76.4844 15.36 76.6524 15.4479 76.7644 15.6239C76.8924 15.8 76.9564 16.024 76.9564 16.2959V18.0959C76.9244 20.5599 76.8284 23.2319 76.6684 26.1119C76.5084 28.992 76.3164 30.6159 76.0924 30.9839C75.6284 31.1119 75.3404 31.176 75.2284 31.176Z" fill="white"/>
<rect x="0.5" y="4.5" width="99" height="45" rx="7.5" stroke="white"/>
</svg>
