<svg width="46" height="14" viewBox="0 0 46 14" fill="none" xmlns="http://www.w3.org/2000/svg">
<path d="M22.2319 2.08802H28.4619V3.18002H23.4079V6.28802H28.1259V7.38002H23.4079V10.908H28.7139V12H22.2319V2.08802Z" fill="#D1091E"/>
<path d="M35.7808 10.838H35.7528C35.5474 11.2113 35.2208 11.5287 34.7728 11.79C34.3341 12.042 33.8208 12.168 33.2328 12.168C32.7754 12.168 32.3461 12.084 31.9448 11.916C31.5434 11.7387 31.1934 11.496 30.8948 11.188C30.6054 10.88 30.3768 10.516 30.2088 10.096C30.0408 9.67602 29.9568 9.21868 29.9568 8.72402C29.9568 8.22935 30.0408 7.77202 30.2088 7.35202C30.3768 6.93202 30.6101 6.56802 30.9088 6.26002C31.2074 5.95202 31.5668 5.71402 31.9868 5.54602C32.4161 5.36868 32.8874 5.28002 33.4008 5.28002C33.8768 5.28002 34.3108 5.37802 34.7028 5.57402C35.1041 5.77002 35.4541 6.04535 35.7528 6.40002H35.7808V1.41602H36.8728V12H35.7808V10.838ZM35.7808 8.72402C35.7808 8.37868 35.7248 8.06135 35.6128 7.77202C35.5101 7.47335 35.3561 7.21668 35.1508 7.00202C34.9454 6.77802 34.6981 6.60535 34.4088 6.48402C34.1288 6.35335 33.8114 6.28802 33.4568 6.28802C33.1021 6.28802 32.7801 6.35335 32.4908 6.48402C32.2108 6.60535 31.9681 6.77802 31.7628 7.00202C31.5574 7.21668 31.3988 7.47335 31.2868 7.77202C31.1841 8.06135 31.1328 8.37868 31.1328 8.72402C31.1328 9.06935 31.1841 9.39135 31.2868 9.69002C31.3988 9.97935 31.5574 10.236 31.7628 10.46C31.9681 10.6747 32.2108 10.8474 32.4908 10.978C32.7801 11.0994 33.1021 11.16 33.4568 11.16C33.8114 11.16 34.1288 11.0994 34.4088 10.978C34.6981 10.8474 34.9454 10.6747 35.1508 10.46C35.3561 10.236 35.5101 9.97935 35.6128 9.69002C35.7248 9.39135 35.7808 9.06935 35.7808 8.72402Z" fill="#D1091E"/>
<path d="M39.005 5.44802H40.097V12H39.005V5.44802ZM38.753 2.88602C38.753 2.67135 38.8277 2.48468 38.977 2.32602C39.1357 2.16735 39.327 2.08802 39.551 2.08802C39.775 2.08802 39.9617 2.16735 40.111 2.32602C40.2697 2.48468 40.349 2.67135 40.349 2.88602C40.349 3.11935 40.2744 3.31068 40.125 3.46002C39.9757 3.60935 39.7844 3.68402 39.551 3.68402C39.3177 3.68402 39.1264 3.60935 38.977 3.46002C38.8277 3.31068 38.753 3.11935 38.753 2.88602Z" fill="#D1091E"/>
<path d="M45.8543 6.37202H43.9223V9.64802C43.9223 9.86268 43.927 10.0633 43.9363 10.25C43.9456 10.4273 43.983 10.586 44.0483 10.726C44.1136 10.8567 44.2116 10.964 44.3423 11.048C44.473 11.1227 44.6596 11.16 44.9023 11.16C45.061 11.16 45.2243 11.1413 45.3923 11.104C45.5603 11.0667 45.719 11.0107 45.8683 10.936L45.9103 11.93C45.7236 12.014 45.5136 12.0747 45.2803 12.112C45.0563 12.1493 44.8416 12.168 44.6363 12.168C44.2443 12.168 43.9316 12.1167 43.6983 12.014C43.465 11.9113 43.283 11.7667 43.1523 11.58C43.0216 11.3933 42.933 11.1647 42.8863 10.894C42.849 10.614 42.8303 10.306 42.8303 9.97002V6.37202H41.4023V5.44802H42.8303V3.58602H43.9223V5.44802H45.8543V6.37202Z" fill="#D1091E"/>
<path d="M1.3244 11.2H1.40008L5.05142 10.4054C5.12254 10.3935 5.18844 10.3606 5.24059 10.3108L11.427 4.12435C11.8789 3.67341 12.1311 3.06006 12.127 2.42168C12.1278 1.77834 11.8765 1.16032 11.427 0.700064C10.9761 0.248142 10.3627 -0.00400067 9.72433 9.12546e-05C9.08186 -0.00559399 8.46561 0.254587 8.02165 0.719003L1.8541 6.90542C1.79971 6.9492 1.76006 7.00862 1.74058 7.07568L0.946022 10.727C0.924331 10.8581 0.966482 10.9917 1.05955 11.0865C1.1294 11.1578 1.2246 11.1986 1.3244 11.2ZM9.72433 0.756844C10.6334 0.756772 11.3703 1.49364 11.3704 2.40267C11.3704 2.409 11.3703 2.41534 11.3703 2.42168C11.3765 2.85473 11.2056 3.27157 10.8973 3.57571L8.5703 1.22977C8.87686 0.92512 9.2921 0.754925 9.72433 0.756844ZM8.04055 1.77845L10.3676 4.10545L4.9757 9.47837L2.6487 7.17027L8.04055 1.77845ZM2.346 7.92706L4.21895 9.8L1.81626 10.3297L2.346 7.92706Z" fill="#D1091E"/>
<path d="M13.3377 13.2432H0.662068C0.45309 13.2432 0.283691 13.4126 0.283691 13.6215C0.283691 13.8305 0.45309 13.9999 0.662068 13.9999H13.3377C13.5466 13.9999 13.716 13.8305 13.716 13.6215C13.716 13.4126 13.5466 13.2432 13.3377 13.2432Z" fill="#D1091E"/>
</svg>
