<svg width="17" height="24" viewBox="0 0 17 24" fill="none" xmlns="http://www.w3.org/2000/svg">
<path d="M3.88183 16.2412L2.9535 16.2865L1.15363 21.4576C1.09628 21.6223 1.22973 21.7907 1.40321 21.7725L3.9261 21.5084C3.99658 21.501 4.06665 21.5254 4.11732 21.5749L5.93096 23.3485C6.05563 23.4704 6.26482 23.4212 6.32213 23.2565L8.13375 18.0516L7.59956 17.5332L3.88183 16.2412Z" fill="#CE011A"/>
<path d="M8.13387 18.0515L8.49994 16.9998L3.31858 15.2378L2.95361 16.2864C4.42492 17.3362 6.2064 17.9789 8.13387 18.0515Z" fill="#EA001C"/>
<path d="M13.1181 16.2412L14.0464 16.2865L15.8463 21.4576C15.9036 21.6223 15.7702 21.7907 15.5967 21.7725L13.0738 21.5084C13.0033 21.501 12.9333 21.5254 12.8826 21.5749L11.069 23.3485C10.9443 23.4704 10.7351 23.4212 10.6778 23.2565L8.86621 18.0516L9.4004 17.5332L13.1181 16.2412Z" fill="#CE011A"/>
<path d="M8.86607 18.0515L8.5 16.9998L13.6814 15.2378L14.0463 16.2864C12.575 17.3362 10.7935 17.9789 8.86607 18.0515Z" fill="#EA001C"/>
<path d="M8.50248 16.47C0.00248135 16.47 0.00604904 8.21347 0.0130923 8.07155C0.236235 3.57623 3.95173 0 8.50248 0C13.0532 0 16.7687 3.57623 16.9919 8.0716C16.9989 8.21351 17.0025 16.47 8.50248 16.47Z" fill="#FFE27A"/>
<path d="M8.5 16.1429C3.94924 16.1429 0.23389 12.5667 0.0107021 8.07129C0.00365888 8.21321 0 8.35604 0 8.49969C0 13.1941 3.80559 16.9997 8.5 16.9997C13.1944 16.9997 17 13.1941 17 8.49969C17 8.35599 16.9963 8.21321 16.9893 8.07129C16.7661 12.5667 13.0508 16.1429 8.5 16.1429Z" fill="#F9CF58"/>
<path d="M8.49971 14.6409C1.817 14.6409 1.80803 8.06959 1.817 7.92791C2.03794 4.42934 4.94543 1.66016 8.49971 1.66016C12.054 1.66016 14.9615 4.42934 15.1824 7.92791C15.1914 8.06955 15.1824 14.6409 8.49971 14.6409Z" fill="#FFBA57"/>
<path d="M8.49991 14.3391C4.94568 14.3391 2.0387 11.5698 1.81775 8.07129C1.80879 8.21298 1.80371 8.35576 1.80371 8.49969C1.80371 12.1979 4.80171 15.1959 8.49991 15.1959C12.1981 15.1959 15.1961 12.1979 15.1961 8.49969C15.1961 8.35572 15.191 8.21298 15.1821 8.07129C14.9611 11.5698 12.0541 14.3391 8.49991 14.3391Z" fill="#FFAC3E"/>
</svg>
