<svg width="20" height="20" viewBox="0 0 20 20" fill="none" xmlns="http://www.w3.org/2000/svg">
<path d="M17.1875 2.1875C17.1133 2.1875 17.0371 2.20117 16.9609 2.23242L5.70312 6.75586H2.5C2.32812 6.75586 2.1875 6.90039 2.1875 7.08008V12.9199C2.1875 13.0996 2.32812 13.2441 2.5 13.2441H4.48633C4.41406 13.4707 4.375 13.7109 4.375 13.9551C4.375 15.2422 5.42578 16.2891 6.71875 16.2891C7.80078 16.2891 8.71289 15.5547 8.98242 14.5625L16.9629 17.7695C17.0391 17.7988 17.1152 17.8145 17.1895 17.8145C17.5195 17.8145 17.8145 17.5371 17.8145 17.166V2.83594C17.8125 2.46484 17.5195 2.1875 17.1875 2.1875ZM6.71875 14.8887C6.20117 14.8887 5.78125 14.4707 5.78125 13.9551C5.78125 13.7363 5.85742 13.5273 5.99609 13.3613L7.6543 14.0273C7.61523 14.5078 7.21094 14.8887 6.71875 14.8887ZM16.4062 16.0293L6.22656 11.9395L5.97461 11.8379H3.59375V8.16211H5.97461L6.22656 8.06055L16.4062 3.9707V16.0293Z" fill="white"/>
</svg>
