<svg width="327" height="64" viewBox="0 0 327 64" fill="none" xmlns="http://www.w3.org/2000/svg">
<rect width="327" height="64" rx="8" fill="#D1091E"/>
<path d="M289 32C289 33.9778 289.586 35.9112 290.685 37.5557C291.784 39.2002 293.346 40.4819 295.173 41.2388C297 41.9957 299.011 42.1937 300.951 41.8079C302.891 41.422 304.673 40.4696 306.071 39.0711C307.47 37.6725 308.422 35.8907 308.808 33.9509C309.194 32.0111 308.996 30.0004 308.239 28.1732C307.482 26.3459 306.2 24.7841 304.556 23.6853C302.911 22.5865 300.978 22 299 22C297.687 22 296.386 22.2587 295.173 22.7612C293.96 23.2638 292.858 24.0003 291.929 24.9289C290.054 26.8043 289 29.3478 289 32V32ZM300.86 28.31L303.72 31.31C303.762 31.3534 303.796 31.4042 303.82 31.46C303.862 31.5071 303.896 31.5612 303.92 31.62C303.973 31.7397 304 31.8691 304 32C304 32.1309 303.973 32.2603 303.92 32.38C303.872 32.5028 303.801 32.6149 303.71 32.71L300.71 35.71C300.522 35.8983 300.266 36.0041 300 36.0041C299.734 36.0041 299.478 35.8983 299.29 35.71C299.102 35.5217 298.996 35.2663 298.996 35C298.996 34.7337 299.102 34.4783 299.29 34.29L300.59 33H295C294.735 33 294.48 32.8946 294.293 32.7071C294.105 32.5196 294 32.2652 294 32C294 31.7348 294.105 31.4804 294.293 31.2929C294.48 31.1054 294.735 31 295 31H300.66L299.41 29.69C299.227 29.4977 299.128 29.2406 299.134 28.9753C299.141 28.7099 299.253 28.458 299.445 28.275C299.637 28.092 299.894 27.9929 300.16 27.9994C300.425 28.006 300.677 28.1177 300.86 28.31V28.31Z" fill="white"/>
<path d="M48.9362 19.5042H50.8082V26.2722H54.2762V28.0002H48.9362V19.5042Z" fill="white"/>
<path d="M60.6015 26.9922C60.3135 27.3602 59.9495 27.6442 59.5095 27.8442C59.0695 28.0442 58.6135 28.1442 58.1415 28.1442C57.6935 28.1442 57.2695 28.0722 56.8695 27.9282C56.4775 27.7842 56.1335 27.5802 55.8375 27.3162C55.5495 27.0442 55.3215 26.7202 55.1535 26.3442C54.9855 25.9682 54.9015 25.5482 54.9015 25.0842C54.9015 24.6202 54.9855 24.2002 55.1535 23.8242C55.3215 23.4482 55.5495 23.1282 55.8375 22.8642C56.1335 22.5922 56.4775 22.3842 56.8695 22.2402C57.2695 22.0962 57.6935 22.0242 58.1415 22.0242C58.5575 22.0242 58.9335 22.0962 59.2695 22.2402C59.6135 22.3842 59.9015 22.5922 60.1335 22.8642C60.3735 23.1282 60.5575 23.4482 60.6855 23.8242C60.8135 24.2002 60.8775 24.6202 60.8775 25.0842V25.6482H56.7015C56.7735 25.9922 56.9295 26.2682 57.1695 26.4762C57.4095 26.6762 57.7055 26.7762 58.0575 26.7762C58.3535 26.7762 58.6015 26.7122 58.8015 26.5842C59.0095 26.4482 59.1895 26.2762 59.3415 26.0682L60.6015 26.9922ZM59.0775 24.4242C59.0855 24.1202 58.9855 23.8602 58.7775 23.6442C58.5695 23.4282 58.3015 23.3202 57.9735 23.3202C57.7735 23.3202 57.5975 23.3522 57.4455 23.4162C57.2935 23.4802 57.1615 23.5642 57.0495 23.6682C56.9455 23.7642 56.8615 23.8802 56.7975 24.0162C56.7415 24.1442 56.7095 24.2802 56.7015 24.4242H59.0775Z" fill="white"/>
<path d="M61.9722 22.1682H63.7002V22.9602H63.7242C63.7802 22.8482 63.8602 22.7362 63.9642 22.6242C64.0682 22.5122 64.1922 22.4122 64.3362 22.3242C64.4802 22.2362 64.6442 22.1642 64.8282 22.1082C65.0122 22.0522 65.2122 22.0242 65.4282 22.0242C65.8842 22.0242 66.2522 22.0962 66.5322 22.2402C66.8122 22.3762 67.0282 22.5682 67.1802 22.8162C67.3402 23.0642 67.4482 23.3562 67.5042 23.6922C67.5602 24.0282 67.5882 24.3922 67.5882 24.7842V28.0002H65.7882V25.1442C65.7882 24.9762 65.7802 24.8042 65.7642 24.6282C65.7562 24.4442 65.7202 24.2762 65.6562 24.1242C65.6002 23.9722 65.5082 23.8482 65.3802 23.7522C65.2602 23.6562 65.0842 23.6082 64.8522 23.6082C64.6202 23.6082 64.4322 23.6522 64.2882 23.7402C64.1442 23.8202 64.0322 23.9322 63.9522 24.0762C63.8802 24.2122 63.8322 24.3682 63.8082 24.5442C63.7842 24.7202 63.7722 24.9042 63.7722 25.0962V28.0002H61.9722V22.1682Z" fill="white"/>
<path d="M74.9828 27.5082C74.9828 28.6122 74.7028 29.4482 74.1428 30.0162C73.5908 30.5922 72.7468 30.8802 71.6108 30.8802C71.0908 30.8802 70.5788 30.8202 70.0748 30.7002C69.5708 30.5882 69.1068 30.3642 68.6828 30.0282L69.6788 28.5402C69.9588 28.7722 70.2508 28.9562 70.5548 29.0922C70.8668 29.2282 71.2068 29.2962 71.5748 29.2962C72.1268 29.2962 72.5308 29.1602 72.7868 28.8882C73.0508 28.6242 73.1828 28.2842 73.1828 27.8682V27.3042H73.1588C72.9508 27.5842 72.6908 27.7842 72.3788 27.9042C72.0748 28.0162 71.7868 28.0722 71.5148 28.0722C71.0828 28.0722 70.6908 28.0002 70.3388 27.8562C69.9868 27.7042 69.6828 27.4962 69.4268 27.2322C69.1788 26.9602 68.9868 26.6402 68.8508 26.2722C68.7148 25.9042 68.6468 25.5002 68.6468 25.0602C68.6468 24.6762 68.7068 24.3002 68.8268 23.9322C68.9548 23.5642 69.1308 23.2402 69.3548 22.9602C69.5868 22.6802 69.8668 22.4562 70.1948 22.2882C70.5228 22.1122 70.8948 22.0242 71.3108 22.0242C71.5668 22.0242 71.7988 22.0522 72.0068 22.1082C72.2228 22.1642 72.4148 22.2362 72.5828 22.3242C72.7508 22.4122 72.8948 22.5122 73.0148 22.6242C73.1348 22.7282 73.2308 22.8322 73.3028 22.9362H73.3268V22.1682H74.9828V27.5082ZM70.4468 25.0482C70.4468 25.2402 70.4828 25.4242 70.5548 25.6002C70.6268 25.7682 70.7268 25.9202 70.8548 26.0562C70.9908 26.1842 71.1428 26.2882 71.3108 26.3682C71.4868 26.4482 71.6788 26.4882 71.8868 26.4882C72.0868 26.4882 72.2748 26.4482 72.4508 26.3682C72.6268 26.2882 72.7788 26.1842 72.9068 26.0562C73.0428 25.9202 73.1468 25.7682 73.2188 25.6002C73.2908 25.4242 73.3268 25.2402 73.3268 25.0482C73.3268 24.8562 73.2908 24.6762 73.2188 24.5082C73.1468 24.3322 73.0428 24.1802 72.9068 24.0522C72.7788 23.9162 72.6268 23.8082 72.4508 23.7282C72.2748 23.6482 72.0868 23.6082 71.8868 23.6082C71.6788 23.6082 71.4868 23.6482 71.3108 23.7282C71.1428 23.8082 70.9908 23.9162 70.8548 24.0522C70.7268 24.1802 70.6268 24.3322 70.5548 24.5082C70.4828 24.6762 70.4468 24.8562 70.4468 25.0482Z" fill="white"/>
<path d="M76.4214 18.9282H78.2214V24.4722L80.2134 22.1682H82.4214L80.1054 24.7962L82.4814 28.0002H80.2134L78.2454 25.0482H78.2214V28.0002H76.4214V18.9282Z" fill="white"/>
<path d="M86.7494 27.2682H86.7254C86.5254 27.5802 86.2574 27.8042 85.9214 27.9402C85.5934 28.0762 85.2454 28.1442 84.8774 28.1442C84.6054 28.1442 84.3414 28.1042 84.0854 28.0242C83.8374 27.9522 83.6174 27.8402 83.4254 27.6882C83.2334 27.5362 83.0814 27.3482 82.9694 27.1242C82.8574 26.9002 82.8014 26.6402 82.8014 26.3442C82.8014 26.0082 82.8614 25.7242 82.9814 25.4922C83.1094 25.2602 83.2774 25.0682 83.4854 24.9162C83.7014 24.7642 83.9454 24.6482 84.2174 24.5682C84.4894 24.4802 84.7694 24.4162 85.0574 24.3762C85.3534 24.3362 85.6454 24.3122 85.9334 24.3042C86.2294 24.2962 86.5014 24.2922 86.7494 24.2922C86.7494 23.9722 86.6334 23.7202 86.4014 23.5362C86.1774 23.3442 85.9094 23.2482 85.5974 23.2482C85.3014 23.2482 85.0294 23.3122 84.7814 23.4402C84.5414 23.5602 84.3254 23.7282 84.1334 23.9442L83.1734 22.9602C83.5094 22.6482 83.9014 22.4162 84.3494 22.2642C84.7974 22.1042 85.2614 22.0242 85.7414 22.0242C86.2694 22.0242 86.7014 22.0922 87.0374 22.2282C87.3814 22.3562 87.6534 22.5482 87.8534 22.8042C88.0614 23.0602 88.2054 23.3762 88.2854 23.7522C88.3654 24.1202 88.4054 24.5482 88.4054 25.0362V28.0002H86.7494V27.2682ZM86.3054 25.4442C86.1694 25.4442 85.9974 25.4522 85.7894 25.4682C85.5894 25.4762 85.3934 25.5082 85.2014 25.5642C85.0174 25.6202 84.8574 25.7042 84.7214 25.8162C84.5934 25.9282 84.5294 26.0842 84.5294 26.2842C84.5294 26.5002 84.6214 26.6602 84.8054 26.7642C84.9894 26.8682 85.1814 26.9202 85.3814 26.9202C85.5574 26.9202 85.7254 26.8962 85.8854 26.8482C86.0534 26.8002 86.2014 26.7322 86.3294 26.6442C86.4574 26.5562 86.5574 26.4442 86.6294 26.3082C86.7094 26.1722 86.7494 26.0122 86.7494 25.8282V25.4442H86.3054Z" fill="white"/>
<path d="M89.7027 22.1682H91.3587V22.9362H91.3827C91.4547 22.8322 91.5467 22.7282 91.6587 22.6242C91.7787 22.5122 91.9147 22.4122 92.0667 22.3242C92.2267 22.2362 92.3987 22.1642 92.5827 22.1082C92.7667 22.0522 92.9627 22.0242 93.1707 22.0242C93.6027 22.0242 93.9947 22.1002 94.3467 22.2522C94.6987 22.3962 94.9987 22.6042 95.2467 22.8762C95.5027 23.1402 95.6987 23.4562 95.8347 23.8242C95.9707 24.1922 96.0387 24.5962 96.0387 25.0362C96.0387 25.4442 95.9747 25.8362 95.8467 26.2122C95.7267 26.5802 95.5507 26.9082 95.3187 27.1962C95.0947 27.4842 94.8187 27.7162 94.4907 27.8922C94.1627 28.0602 93.7907 28.1442 93.3747 28.1442C92.9987 28.1442 92.6467 28.0882 92.3187 27.9762C91.9987 27.8562 91.7347 27.6562 91.5267 27.3762H91.5027V30.7362H89.7027V22.1682ZM91.3587 25.0842C91.3587 25.5242 91.4827 25.8802 91.7307 26.1522C91.9867 26.4242 92.3427 26.5602 92.7987 26.5602C93.2547 26.5602 93.6067 26.4242 93.8547 26.1522C94.1107 25.8802 94.2387 25.5242 94.2387 25.0842C94.2387 24.6442 94.1107 24.2882 93.8547 24.0162C93.6067 23.7442 93.2547 23.6082 92.7987 23.6082C92.3427 23.6082 91.9867 23.7442 91.7307 24.0162C91.4827 24.2882 91.3587 24.6442 91.3587 25.0842Z" fill="white"/>
<path d="M97.1173 22.1682H98.9173V28.0002H97.1173V22.1682ZM96.9733 20.3322C96.9733 20.0442 97.0733 19.8002 97.2733 19.6002C97.4813 19.3922 97.7293 19.2882 98.0173 19.2882C98.3053 19.2882 98.5493 19.3922 98.7493 19.6002C98.9573 19.8002 99.0613 20.0442 99.0613 20.3322C99.0613 20.6202 98.9573 20.8682 98.7493 21.0762C98.5493 21.2762 98.3053 21.3762 98.0173 21.3762C97.7293 21.3762 97.4813 21.2762 97.2733 21.0762C97.0733 20.8682 96.9733 20.6202 96.9733 20.3322Z" fill="white"/>
<path d="M100.21 22.1682H101.938V22.9602H101.962C102.018 22.8482 102.098 22.7362 102.202 22.6242C102.306 22.5122 102.43 22.4122 102.574 22.3242C102.718 22.2362 102.882 22.1642 103.066 22.1082C103.25 22.0522 103.45 22.0242 103.666 22.0242C104.122 22.0242 104.49 22.0962 104.77 22.2402C105.05 22.3762 105.266 22.5682 105.418 22.8162C105.578 23.0642 105.686 23.3562 105.742 23.6922C105.798 24.0282 105.826 24.3922 105.826 24.7842V28.0002H104.026V25.1442C104.026 24.9762 104.018 24.8042 104.002 24.6282C103.994 24.4442 103.958 24.2762 103.894 24.1242C103.838 23.9722 103.746 23.8482 103.618 23.7522C103.498 23.6562 103.322 23.6082 103.09 23.6082C102.858 23.6082 102.67 23.6522 102.526 23.7402C102.382 23.8202 102.27 23.9322 102.19 24.0762C102.118 24.2122 102.07 24.3682 102.046 24.5442C102.022 24.7202 102.01 24.9042 102.01 25.0962V28.0002H100.21V22.1682Z" fill="white"/>
<path d="M110.82 22.1682H112.476V22.9362H112.5C112.572 22.8322 112.664 22.7282 112.776 22.6242C112.896 22.5122 113.032 22.4122 113.184 22.3242C113.344 22.2362 113.516 22.1642 113.7 22.1082C113.884 22.0522 114.08 22.0242 114.288 22.0242C114.72 22.0242 115.112 22.1002 115.464 22.2522C115.816 22.3962 116.116 22.6042 116.364 22.8762C116.62 23.1402 116.816 23.4562 116.952 23.8242C117.088 24.1922 117.156 24.5962 117.156 25.0362C117.156 25.4442 117.092 25.8362 116.964 26.2122C116.844 26.5802 116.668 26.9082 116.436 27.1962C116.212 27.4842 115.936 27.7162 115.608 27.8922C115.28 28.0602 114.908 28.1442 114.492 28.1442C114.116 28.1442 113.764 28.0882 113.436 27.9762C113.116 27.8562 112.852 27.6562 112.644 27.3762H112.62V30.7362H110.82V22.1682ZM112.476 25.0842C112.476 25.5242 112.6 25.8802 112.848 26.1522C113.104 26.4242 113.46 26.5602 113.916 26.5602C114.372 26.5602 114.724 26.4242 114.972 26.1522C115.228 25.8802 115.356 25.5242 115.356 25.0842C115.356 24.6442 115.228 24.2882 114.972 24.0162C114.724 23.7442 114.372 23.6082 113.916 23.6082C113.46 23.6082 113.104 23.7442 112.848 24.0162C112.6 24.2882 112.476 24.6442 112.476 25.0842Z" fill="white"/>
<path d="M118.21 22.1682H120.01V23.1042H120.034C120.226 22.7442 120.454 22.4762 120.718 22.3002C120.982 22.1162 121.314 22.0242 121.714 22.0242C121.818 22.0242 121.922 22.0282 122.026 22.0362C122.13 22.0442 122.226 22.0602 122.314 22.0842V23.7282C122.186 23.6882 122.058 23.6602 121.93 23.6442C121.81 23.6202 121.682 23.6082 121.546 23.6082C121.202 23.6082 120.93 23.6562 120.73 23.7522C120.53 23.8482 120.374 23.9842 120.262 24.1602C120.158 24.3282 120.09 24.5322 120.058 24.7722C120.026 25.0122 120.01 25.2762 120.01 25.5642V28.0002H118.21V22.1682Z" fill="white"/>
<path d="M122.67 25.0842C122.67 24.6202 122.754 24.2002 122.922 23.8242C123.09 23.4482 123.318 23.1282 123.606 22.8642C123.902 22.5922 124.246 22.3842 124.638 22.2402C125.038 22.0962 125.462 22.0242 125.91 22.0242C126.358 22.0242 126.778 22.0962 127.17 22.2402C127.57 22.3842 127.914 22.5922 128.202 22.8642C128.498 23.1282 128.73 23.4482 128.898 23.8242C129.066 24.2002 129.15 24.6202 129.15 25.0842C129.15 25.5482 129.066 25.9682 128.898 26.3442C128.73 26.7202 128.498 27.0442 128.202 27.3162C127.914 27.5802 127.57 27.7842 127.17 27.9282C126.778 28.0722 126.358 28.1442 125.91 28.1442C125.462 28.1442 125.038 28.0722 124.638 27.9282C124.246 27.7842 123.902 27.5802 123.606 27.3162C123.318 27.0442 123.09 26.7202 122.922 26.3442C122.754 25.9682 122.67 25.5482 122.67 25.0842ZM124.47 25.0842C124.47 25.5242 124.594 25.8802 124.842 26.1522C125.098 26.4242 125.454 26.5602 125.91 26.5602C126.366 26.5602 126.718 26.4242 126.966 26.1522C127.222 25.8802 127.35 25.5242 127.35 25.0842C127.35 24.6442 127.222 24.2882 126.966 24.0162C126.718 23.7442 126.366 23.6082 125.91 23.6082C125.454 23.6082 125.098 23.7442 124.842 24.0162C124.594 24.2882 124.47 24.6442 124.47 25.0842Z" fill="white"/>
<path d="M134.674 22.1682H136.474V28.0002H134.674V22.1682ZM134.53 20.3322C134.53 20.0442 134.63 19.8002 134.83 19.6002C135.038 19.3922 135.286 19.2882 135.574 19.2882C135.862 19.2882 136.106 19.3922 136.306 19.6002C136.514 19.8002 136.618 20.0442 136.618 20.3322C136.618 20.6202 136.514 20.8682 136.306 21.0762C136.106 21.2762 135.862 21.3762 135.574 21.3762C135.286 21.3762 135.038 21.2762 134.83 21.0762C134.63 20.8682 134.53 20.6202 134.53 20.3322ZM130.834 23.6082H129.646V22.1682H130.834V21.1362C130.834 20.8162 130.862 20.5162 130.918 20.2362C130.974 19.9482 131.082 19.6962 131.242 19.4802C131.402 19.2642 131.63 19.0962 131.926 18.9762C132.23 18.8482 132.626 18.7842 133.114 18.7842C133.298 18.7842 133.478 18.7922 133.654 18.8082C133.83 18.8242 134.002 18.8522 134.17 18.8922L134.086 20.4162C133.982 20.3762 133.886 20.3482 133.798 20.3322C133.71 20.3082 133.61 20.2962 133.498 20.2962C133.21 20.2962 132.994 20.3602 132.85 20.4882C132.706 20.6082 132.634 20.8602 132.634 21.2442V22.1682H133.966V23.6082H132.634V28.0002H130.834V23.6082Z" fill="white"/>
<path d="M137.793 18.9282H139.593V28.0002H137.793V18.9282Z" fill="white"/>
<path d="M144.461 18.9282H146.261V28.0002H144.461V18.9282Z" fill="white"/>
<path d="M147.338 25.0842C147.338 24.6202 147.422 24.2002 147.59 23.8242C147.758 23.4482 147.986 23.1282 148.274 22.8642C148.57 22.5922 148.914 22.3842 149.306 22.2402C149.706 22.0962 150.13 22.0242 150.578 22.0242C151.026 22.0242 151.446 22.0962 151.838 22.2402C152.238 22.3842 152.582 22.5922 152.87 22.8642C153.166 23.1282 153.398 23.4482 153.566 23.8242C153.734 24.2002 153.818 24.6202 153.818 25.0842C153.818 25.5482 153.734 25.9682 153.566 26.3442C153.398 26.7202 153.166 27.0442 152.87 27.3162C152.582 27.5802 152.238 27.7842 151.838 27.9282C151.446 28.0722 151.026 28.1442 150.578 28.1442C150.13 28.1442 149.706 28.0722 149.306 27.9282C148.914 27.7842 148.57 27.5802 148.274 27.3162C147.986 27.0442 147.758 26.7202 147.59 26.3442C147.422 25.9682 147.338 25.5482 147.338 25.0842ZM149.138 25.0842C149.138 25.5242 149.262 25.8802 149.51 26.1522C149.766 26.4242 150.122 26.5602 150.578 26.5602C151.034 26.5602 151.386 26.4242 151.634 26.1522C151.89 25.8802 152.018 25.5242 152.018 25.0842C152.018 24.6442 151.89 24.2882 151.634 24.0162C151.386 23.7442 151.034 23.6082 150.578 23.6082C150.122 23.6082 149.766 23.7442 149.51 24.0162C149.262 24.2882 149.138 24.6442 149.138 25.0842Z" fill="white"/>
<path d="M161.729 23.8842C161.465 23.5562 161.117 23.3922 160.685 23.3922C160.533 23.3922 160.385 23.4282 160.241 23.5002C160.097 23.5722 160.025 23.6962 160.025 23.8722C160.025 24.0162 160.097 24.1242 160.241 24.1962C160.393 24.2602 160.581 24.3202 160.805 24.3762C161.037 24.4242 161.281 24.4802 161.537 24.5442C161.801 24.6002 162.045 24.6922 162.269 24.8202C162.501 24.9482 162.689 25.1242 162.833 25.3482C162.985 25.5642 163.061 25.8562 163.061 26.2242C163.061 26.6002 162.977 26.9122 162.809 27.1602C162.649 27.4002 162.441 27.5962 162.185 27.7482C161.929 27.8922 161.641 27.9922 161.321 28.0482C161.001 28.1122 160.685 28.1442 160.373 28.1442C159.965 28.1442 159.553 28.0882 159.137 27.9762C158.721 27.8562 158.369 27.6482 158.081 27.3522L159.173 26.1402C159.341 26.3482 159.525 26.5082 159.725 26.6202C159.933 26.7242 160.173 26.7762 160.445 26.7762C160.653 26.7762 160.841 26.7482 161.009 26.6922C161.177 26.6282 161.261 26.5162 161.261 26.3562C161.261 26.2042 161.185 26.0922 161.033 26.0202C160.889 25.9402 160.701 25.8762 160.469 25.8282C160.245 25.7722 160.001 25.7162 159.737 25.6602C159.481 25.5962 159.237 25.5042 159.005 25.3842C158.781 25.2642 158.593 25.0962 158.441 24.8802C158.297 24.6562 158.225 24.3602 158.225 23.9922C158.225 23.6482 158.293 23.3522 158.429 23.1042C158.573 22.8562 158.757 22.6522 158.981 22.4922C159.213 22.3322 159.477 22.2162 159.773 22.1442C160.069 22.0642 160.369 22.0242 160.673 22.0242C161.057 22.0242 161.445 22.0802 161.837 22.1922C162.229 22.3042 162.561 22.5042 162.833 22.7922L161.729 23.8842Z" fill="white"/>
<path d="M169.504 26.9922C169.216 27.3602 168.852 27.6442 168.412 27.8442C167.972 28.0442 167.516 28.1442 167.044 28.1442C166.596 28.1442 166.172 28.0722 165.772 27.9282C165.38 27.7842 165.036 27.5802 164.74 27.3162C164.452 27.0442 164.224 26.7202 164.056 26.3442C163.888 25.9682 163.804 25.5482 163.804 25.0842C163.804 24.6202 163.888 24.2002 164.056 23.8242C164.224 23.4482 164.452 23.1282 164.74 22.8642C165.036 22.5922 165.38 22.3842 165.772 22.2402C166.172 22.0962 166.596 22.0242 167.044 22.0242C167.46 22.0242 167.836 22.0962 168.172 22.2402C168.516 22.3842 168.804 22.5922 169.036 22.8642C169.276 23.1282 169.46 23.4482 169.588 23.8242C169.716 24.2002 169.78 24.6202 169.78 25.0842V25.6482H165.604C165.676 25.9922 165.832 26.2682 166.072 26.4762C166.312 26.6762 166.608 26.7762 166.96 26.7762C167.256 26.7762 167.504 26.7122 167.704 26.5842C167.912 26.4482 168.092 26.2762 168.244 26.0682L169.504 26.9922ZM167.98 24.4242C167.988 24.1202 167.888 23.8602 167.68 23.6442C167.472 23.4282 167.204 23.3202 166.876 23.3202C166.676 23.3202 166.5 23.3522 166.348 23.4162C166.196 23.4802 166.064 23.5642 165.952 23.6682C165.848 23.7642 165.764 23.8802 165.7 24.0162C165.644 24.1442 165.612 24.2802 165.604 24.4242H167.98Z" fill="white"/>
<path d="M170.875 18.9282H172.675V24.4722L174.667 22.1682H176.875L174.559 24.7962L176.935 28.0002H174.667L172.699 25.0482H172.675V28.0002H170.875V18.9282Z" fill="white"/>
<path d="M181.202 27.2682H181.178C180.978 27.5802 180.71 27.8042 180.374 27.9402C180.046 28.0762 179.698 28.1442 179.33 28.1442C179.058 28.1442 178.794 28.1042 178.538 28.0242C178.29 27.9522 178.07 27.8402 177.878 27.6882C177.686 27.5362 177.534 27.3482 177.422 27.1242C177.31 26.9002 177.254 26.6402 177.254 26.3442C177.254 26.0082 177.314 25.7242 177.434 25.4922C177.562 25.2602 177.73 25.0682 177.938 24.9162C178.154 24.7642 178.398 24.6482 178.67 24.5682C178.942 24.4802 179.222 24.4162 179.51 24.3762C179.806 24.3362 180.098 24.3122 180.386 24.3042C180.682 24.2962 180.954 24.2922 181.202 24.2922C181.202 23.9722 181.086 23.7202 180.854 23.5362C180.63 23.3442 180.362 23.2482 180.05 23.2482C179.754 23.2482 179.482 23.3122 179.234 23.4402C178.994 23.5602 178.778 23.7282 178.586 23.9442L177.626 22.9602C177.962 22.6482 178.354 22.4162 178.802 22.2642C179.25 22.1042 179.714 22.0242 180.194 22.0242C180.722 22.0242 181.154 22.0922 181.49 22.2282C181.834 22.3562 182.106 22.5482 182.306 22.8042C182.514 23.0602 182.658 23.3762 182.738 23.7522C182.818 24.1202 182.858 24.5482 182.858 25.0362V28.0002H181.202V27.2682ZM180.758 25.4442C180.622 25.4442 180.45 25.4522 180.242 25.4682C180.042 25.4762 179.846 25.5082 179.654 25.5642C179.47 25.6202 179.31 25.7042 179.174 25.8162C179.046 25.9282 178.982 26.0842 178.982 26.2842C178.982 26.5002 179.074 26.6602 179.258 26.7642C179.442 26.8682 179.634 26.9202 179.834 26.9202C180.01 26.9202 180.178 26.8962 180.338 26.8482C180.506 26.8002 180.654 26.7322 180.782 26.6442C180.91 26.5562 181.01 26.4442 181.082 26.3082C181.162 26.1722 181.202 26.0122 181.202 25.8282V25.4442H180.758Z" fill="white"/>
<path d="M183.988 22.1682H185.788V23.1042H185.812C186.004 22.7442 186.232 22.4762 186.496 22.3002C186.76 22.1162 187.092 22.0242 187.492 22.0242C187.596 22.0242 187.7 22.0282 187.804 22.0362C187.908 22.0442 188.004 22.0602 188.092 22.0842V23.7282C187.964 23.6882 187.836 23.6602 187.708 23.6442C187.588 23.6202 187.46 23.6082 187.324 23.6082C186.98 23.6082 186.708 23.6562 186.508 23.7522C186.308 23.8482 186.152 23.9842 186.04 24.1602C185.936 24.3282 185.868 24.5322 185.836 24.7722C185.804 25.0122 185.788 25.2762 185.788 25.5642V28.0002H183.988V22.1682Z" fill="white"/>
<path d="M192.535 27.2682H192.511C192.311 27.5802 192.043 27.8042 191.707 27.9402C191.379 28.0762 191.031 28.1442 190.663 28.1442C190.391 28.1442 190.127 28.1042 189.871 28.0242C189.623 27.9522 189.403 27.8402 189.211 27.6882C189.019 27.5362 188.867 27.3482 188.755 27.1242C188.643 26.9002 188.587 26.6402 188.587 26.3442C188.587 26.0082 188.647 25.7242 188.767 25.4922C188.895 25.2602 189.063 25.0682 189.271 24.9162C189.487 24.7642 189.731 24.6482 190.003 24.5682C190.275 24.4802 190.555 24.4162 190.843 24.3762C191.139 24.3362 191.431 24.3122 191.719 24.3042C192.015 24.2962 192.287 24.2922 192.535 24.2922C192.535 23.9722 192.419 23.7202 192.187 23.5362C191.963 23.3442 191.695 23.2482 191.383 23.2482C191.087 23.2482 190.815 23.3122 190.567 23.4402C190.327 23.5602 190.111 23.7282 189.919 23.9442L188.959 22.9602C189.295 22.6482 189.687 22.4162 190.135 22.2642C190.583 22.1042 191.047 22.0242 191.527 22.0242C192.055 22.0242 192.487 22.0922 192.823 22.2282C193.167 22.3562 193.439 22.5482 193.639 22.8042C193.847 23.0602 193.991 23.3762 194.071 23.7522C194.151 24.1202 194.191 24.5482 194.191 25.0362V28.0002H192.535V27.2682ZM192.091 25.4442C191.955 25.4442 191.783 25.4522 191.575 25.4682C191.375 25.4762 191.179 25.5082 190.987 25.5642C190.803 25.6202 190.643 25.7042 190.507 25.8162C190.379 25.9282 190.315 26.0842 190.315 26.2842C190.315 26.5002 190.407 26.6602 190.591 26.7642C190.775 26.8682 190.967 26.9202 191.167 26.9202C191.343 26.9202 191.511 26.8962 191.671 26.8482C191.839 26.8002 191.987 26.7322 192.115 26.6442C192.243 26.5562 192.343 26.4442 192.415 26.3082C192.495 26.1722 192.535 26.0122 192.535 25.8282V25.4442H192.091Z" fill="white"/>
<path d="M195.32 22.1682H197.048V22.9602H197.072C197.128 22.8482 197.208 22.7362 197.312 22.6242C197.416 22.5122 197.54 22.4122 197.684 22.3242C197.828 22.2362 197.992 22.1642 198.176 22.1082C198.36 22.0522 198.56 22.0242 198.776 22.0242C199.232 22.0242 199.6 22.0962 199.88 22.2402C200.16 22.3762 200.376 22.5682 200.528 22.8162C200.688 23.0642 200.796 23.3562 200.852 23.6922C200.908 24.0282 200.936 24.3922 200.936 24.7842V28.0002H199.136V25.1442C199.136 24.9762 199.128 24.8042 199.112 24.6282C199.104 24.4442 199.068 24.2762 199.004 24.1242C198.948 23.9722 198.856 23.8482 198.728 23.7522C198.608 23.6562 198.432 23.6082 198.2 23.6082C197.968 23.6082 197.78 23.6522 197.636 23.7402C197.492 23.8202 197.38 23.9322 197.3 24.0762C197.228 24.2122 197.18 24.3682 197.156 24.5442C197.132 24.7202 197.12 24.9042 197.12 25.0962V28.0002H195.32V22.1682Z" fill="white"/>
<path d="M208.33 27.5082C208.33 28.6122 208.05 29.4482 207.49 30.0162C206.938 30.5922 206.094 30.8802 204.958 30.8802C204.438 30.8802 203.926 30.8202 203.422 30.7002C202.918 30.5882 202.454 30.3642 202.03 30.0282L203.026 28.5402C203.306 28.7722 203.598 28.9562 203.902 29.0922C204.214 29.2282 204.554 29.2962 204.922 29.2962C205.474 29.2962 205.878 29.1602 206.134 28.8882C206.398 28.6242 206.53 28.2842 206.53 27.8682V27.3042H206.506C206.298 27.5842 206.038 27.7842 205.726 27.9042C205.422 28.0162 205.134 28.0722 204.862 28.0722C204.43 28.0722 204.038 28.0002 203.686 27.8562C203.334 27.7042 203.03 27.4962 202.774 27.2322C202.526 26.9602 202.334 26.6402 202.198 26.2722C202.062 25.9042 201.994 25.5002 201.994 25.0602C201.994 24.6762 202.054 24.3002 202.174 23.9322C202.302 23.5642 202.478 23.2402 202.702 22.9602C202.934 22.6802 203.214 22.4562 203.542 22.2882C203.87 22.1122 204.242 22.0242 204.658 22.0242C204.914 22.0242 205.146 22.0522 205.354 22.1082C205.57 22.1642 205.762 22.2362 205.93 22.3242C206.098 22.4122 206.242 22.5122 206.362 22.6242C206.482 22.7282 206.578 22.8322 206.65 22.9362H206.674V22.1682H208.33V27.5082ZM203.794 25.0482C203.794 25.2402 203.83 25.4242 203.902 25.6002C203.974 25.7682 204.074 25.9202 204.202 26.0562C204.338 26.1842 204.49 26.2882 204.658 26.3682C204.834 26.4482 205.026 26.4882 205.234 26.4882C205.434 26.4882 205.622 26.4482 205.798 26.3682C205.974 26.2882 206.126 26.1842 206.254 26.0562C206.39 25.9202 206.494 25.7682 206.566 25.6002C206.638 25.4242 206.674 25.2402 206.674 25.0482C206.674 24.8562 206.638 24.6762 206.566 24.5082C206.494 24.3322 206.39 24.1802 206.254 24.0522C206.126 23.9162 205.974 23.8082 205.798 23.7282C205.622 23.6482 205.434 23.6082 205.234 23.6082C205.026 23.6082 204.834 23.6482 204.658 23.7282C204.49 23.8082 204.338 23.9162 204.202 24.0522C204.074 24.1802 203.974 24.3322 203.902 24.5082C203.83 24.6762 203.794 24.8562 203.794 25.0482Z" fill="white"/>
<path d="M218.936 28.0002H217.208V27.2082H217.184C217.12 27.3202 217.036 27.4322 216.932 27.5442C216.836 27.6562 216.716 27.7562 216.572 27.8442C216.428 27.9322 216.264 28.0042 216.08 28.0602C215.896 28.1162 215.696 28.1442 215.48 28.1442C215.024 28.1442 214.652 28.0762 214.364 27.9402C214.084 27.7962 213.864 27.6002 213.704 27.3522C213.552 27.1042 213.448 26.8122 213.392 26.4762C213.344 26.1402 213.32 25.7762 213.32 25.3842V22.1682H215.12V25.0242C215.12 25.1922 215.124 25.3682 215.132 25.5522C215.148 25.7282 215.184 25.8922 215.24 26.0442C215.304 26.1962 215.396 26.3202 215.516 26.4162C215.644 26.5122 215.824 26.5602 216.056 26.5602C216.288 26.5602 216.476 26.5202 216.62 26.4402C216.764 26.3522 216.872 26.2402 216.944 26.1042C217.024 25.9602 217.076 25.8002 217.1 25.6242C217.124 25.4482 217.136 25.2642 217.136 25.0722V22.1682H218.936V28.0002Z" fill="white"/>
<path d="M220.21 22.1682H221.938V22.9602H221.962C222.018 22.8482 222.098 22.7362 222.202 22.6242C222.306 22.5122 222.43 22.4122 222.574 22.3242C222.718 22.2362 222.882 22.1642 223.066 22.1082C223.25 22.0522 223.45 22.0242 223.666 22.0242C224.122 22.0242 224.49 22.0962 224.77 22.2402C225.05 22.3762 225.266 22.5682 225.418 22.8162C225.578 23.0642 225.686 23.3562 225.742 23.6922C225.798 24.0282 225.826 24.3922 225.826 24.7842V28.0002H224.026V25.1442C224.026 24.9762 224.018 24.8042 224.002 24.6282C223.994 24.4442 223.958 24.2762 223.894 24.1242C223.838 23.9722 223.746 23.8482 223.618 23.7522C223.498 23.6562 223.322 23.6082 223.09 23.6082C222.858 23.6082 222.67 23.6522 222.526 23.7402C222.382 23.8202 222.27 23.9322 222.19 24.0762C222.118 24.2122 222.07 24.3682 222.046 24.5442C222.022 24.7202 222.01 24.9042 222.01 25.0962V28.0002H220.21V22.1682Z" fill="white"/>
<path d="M231.073 23.6082H229.489V25.5522C229.489 25.7122 229.497 25.8602 229.513 25.9962C229.529 26.1242 229.565 26.2362 229.621 26.3322C229.677 26.4282 229.761 26.5042 229.873 26.5602C229.993 26.6082 230.149 26.6322 230.341 26.6322C230.437 26.6322 230.561 26.6242 230.713 26.6082C230.873 26.5842 230.993 26.5362 231.073 26.4642V27.9642C230.873 28.0362 230.665 28.0842 230.449 28.1082C230.233 28.1322 230.021 28.1442 229.813 28.1442C229.509 28.1442 229.229 28.1122 228.973 28.0482C228.717 27.9842 228.493 27.8842 228.301 27.7482C228.109 27.6042 227.957 27.4202 227.845 27.1962C227.741 26.9722 227.689 26.7002 227.689 26.3802V23.6082H226.537V22.1682H227.689V20.4402H229.489V22.1682H231.073V23.6082Z" fill="white"/>
<path d="M237.604 28.0002H235.876V27.2082H235.852C235.788 27.3202 235.704 27.4322 235.6 27.5442C235.504 27.6562 235.384 27.7562 235.24 27.8442C235.096 27.9322 234.932 28.0042 234.748 28.0602C234.564 28.1162 234.364 28.1442 234.148 28.1442C233.692 28.1442 233.32 28.0762 233.032 27.9402C232.752 27.7962 232.532 27.6002 232.372 27.3522C232.22 27.1042 232.116 26.8122 232.06 26.4762C232.012 26.1402 231.988 25.7762 231.988 25.3842V22.1682H233.788V25.0242C233.788 25.1922 233.792 25.3682 233.8 25.5522C233.816 25.7282 233.852 25.8922 233.908 26.0442C233.972 26.1962 234.064 26.3202 234.184 26.4162C234.312 26.5122 234.492 26.5602 234.724 26.5602C234.956 26.5602 235.144 26.5202 235.288 26.4402C235.432 26.3522 235.54 26.2402 235.612 26.1042C235.692 25.9602 235.744 25.8002 235.768 25.6242C235.792 25.4482 235.804 25.2642 235.804 25.0722V22.1682H237.604V28.0002Z" fill="white"/>
<path d="M238.878 18.9282H240.678V24.4722L242.67 22.1682H244.878L242.562 24.7962L244.938 28.0002H242.67L240.702 25.0482H240.678V28.0002H238.878V18.9282Z" fill="white"/>
<path d="M48.6362 34.9282H50.4362V40.4722L52.4282 38.1682H54.6362L52.3202 40.7962L54.6962 44.0002H52.4282L50.4602 41.0482H50.4362V44.0002H48.6362V34.9282Z" fill="white"/>
<path d="M55.3282 34.9282H57.1282V44.0002H55.3282V34.9282Z" fill="white"/>
<path d="M62.0814 43.2682H62.0574C61.8574 43.5802 61.5894 43.8042 61.2534 43.9402C60.9254 44.0762 60.5774 44.1442 60.2094 44.1442C59.9374 44.1442 59.6734 44.1042 59.4174 44.0242C59.1694 43.9522 58.9494 43.8402 58.7574 43.6882C58.5654 43.5362 58.4134 43.3482 58.3014 43.1242C58.1894 42.9002 58.1334 42.6402 58.1334 42.3442C58.1334 42.0082 58.1934 41.7242 58.3134 41.4922C58.4414 41.2602 58.6094 41.0682 58.8174 40.9162C59.0334 40.7642 59.2774 40.6482 59.5494 40.5682C59.8214 40.4802 60.1014 40.4162 60.3894 40.3762C60.6854 40.3362 60.9774 40.3122 61.2654 40.3042C61.5614 40.2962 61.8334 40.2922 62.0814 40.2922C62.0814 39.9722 61.9654 39.7202 61.7334 39.5362C61.5094 39.3442 61.2414 39.2482 60.9294 39.2482C60.6334 39.2482 60.3614 39.3122 60.1134 39.4402C59.8734 39.5602 59.6574 39.7282 59.4654 39.9442L58.5054 38.9602C58.8414 38.6482 59.2334 38.4162 59.6814 38.2642C60.1294 38.1042 60.5934 38.0242 61.0734 38.0242C61.6014 38.0242 62.0334 38.0922 62.3694 38.2282C62.7134 38.3562 62.9854 38.5482 63.1854 38.8042C63.3934 39.0602 63.5374 39.3762 63.6174 39.7522C63.6974 40.1202 63.7374 40.5482 63.7374 41.0362V44.0002H62.0814V43.2682ZM61.6374 41.4442C61.5014 41.4442 61.3294 41.4522 61.1214 41.4682C60.9214 41.4762 60.7254 41.5082 60.5334 41.5642C60.3494 41.6202 60.1894 41.7042 60.0534 41.8162C59.9254 41.9282 59.8614 42.0842 59.8614 42.2842C59.8614 42.5002 59.9534 42.6602 60.1374 42.7642C60.3214 42.8682 60.5134 42.9202 60.7134 42.9202C60.8894 42.9202 61.0574 42.8962 61.2174 42.8482C61.3854 42.8002 61.5334 42.7322 61.6614 42.6442C61.7894 42.5562 61.8894 42.4442 61.9614 42.3082C62.0414 42.1722 62.0814 42.0122 62.0814 41.8282V41.4442H61.6374Z" fill="white"/>
<path d="M64.8907 38.1682H66.6907V44.0002H64.8907V38.1682ZM64.7467 36.3322C64.7467 36.0442 64.8467 35.8002 65.0467 35.6002C65.2547 35.3922 65.5027 35.2882 65.7907 35.2882C66.0787 35.2882 66.3227 35.3922 66.5227 35.6002C66.7307 35.8002 66.8347 36.0442 66.8347 36.3322C66.8347 36.6202 66.7307 36.8682 66.5227 37.0762C66.3227 37.2762 66.0787 37.3762 65.7907 37.3762C65.5027 37.3762 65.2547 37.2762 65.0467 37.0762C64.8467 36.8682 64.7467 36.6202 64.7467 36.3322Z" fill="white"/>
<path d="M67.9839 38.1682H69.7119V38.9602H69.7359C69.7919 38.8482 69.8719 38.7362 69.9759 38.6242C70.0799 38.5122 70.2039 38.4122 70.3479 38.3242C70.4919 38.2362 70.6559 38.1642 70.8399 38.1082C71.0239 38.0522 71.2239 38.0242 71.4399 38.0242C71.8479 38.0242 72.2079 38.1082 72.5199 38.2762C72.8399 38.4442 73.0799 38.7082 73.2399 39.0682C73.4479 38.6922 73.6999 38.4242 73.9959 38.2642C74.2919 38.1042 74.6559 38.0242 75.0879 38.0242C75.4799 38.0242 75.8079 38.0922 76.0719 38.2282C76.3439 38.3562 76.5559 38.5362 76.7079 38.7682C76.8679 38.9922 76.9799 39.2602 77.0439 39.5722C77.1159 39.8762 77.1519 40.2042 77.1519 40.5562V44.0002H75.3519V40.6042C75.3519 40.3322 75.2919 40.1002 75.1719 39.9082C75.0599 39.7082 74.8559 39.6082 74.5599 39.6082C74.3519 39.6082 74.1759 39.6442 74.0319 39.7162C73.8959 39.7802 73.7839 39.8722 73.6959 39.9922C73.6159 40.1122 73.5559 40.2522 73.5159 40.4122C73.4839 40.5722 73.4679 40.7402 73.4679 40.9162V44.0002H71.6679V40.9162C71.6679 40.8122 71.6639 40.6842 71.6559 40.5322C71.6479 40.3802 71.6199 40.2362 71.5719 40.1002C71.5239 39.9642 71.4439 39.8482 71.3319 39.7522C71.2279 39.6562 71.0719 39.6082 70.8639 39.6082C70.6319 39.6082 70.4439 39.6522 70.2999 39.7402C70.1559 39.8202 70.0439 39.9322 69.9639 40.0762C69.8919 40.2122 69.8439 40.3682 69.8199 40.5442C69.7959 40.7202 69.7839 40.9042 69.7839 41.0962V44.0002H67.9839V38.1682Z" fill="white"/>
<path d="M81.9761 34.9282H83.7761V40.4722L85.7681 38.1682H87.9761L85.6601 40.7962L88.0361 44.0002H85.7681L83.8001 41.0482H83.7761V44.0002H81.9761V34.9282Z" fill="white"/>
<path d="M88.428 41.0842C88.428 40.6202 88.512 40.2002 88.68 39.8242C88.848 39.4482 89.076 39.1282 89.364 38.8642C89.66 38.5922 90.004 38.3842 90.396 38.2402C90.796 38.0962 91.22 38.0242 91.668 38.0242C92.116 38.0242 92.536 38.0962 92.928 38.2402C93.328 38.3842 93.672 38.5922 93.96 38.8642C94.256 39.1282 94.488 39.4482 94.656 39.8242C94.824 40.2002 94.908 40.6202 94.908 41.0842C94.908 41.5482 94.824 41.9682 94.656 42.3442C94.488 42.7202 94.256 43.0442 93.96 43.3162C93.672 43.5802 93.328 43.7842 92.928 43.9282C92.536 44.0722 92.116 44.1442 91.668 44.1442C91.22 44.1442 90.796 44.0722 90.396 43.9282C90.004 43.7842 89.66 43.5802 89.364 43.3162C89.076 43.0442 88.848 42.7202 88.68 42.3442C88.512 41.9682 88.428 41.5482 88.428 41.0842ZM90.228 41.0842C90.228 41.5242 90.352 41.8802 90.6 42.1522C90.856 42.4242 91.212 42.5602 91.668 42.5602C92.124 42.5602 92.476 42.4242 92.724 42.1522C92.98 41.8802 93.108 41.5242 93.108 41.0842C93.108 40.6442 92.98 40.2882 92.724 40.0162C92.476 39.7442 92.124 39.6082 91.668 39.6082C91.212 39.6082 90.856 39.7442 90.6 40.0162C90.352 40.2882 90.228 40.6442 90.228 41.0842Z" fill="white"/>
<path d="M95.9923 38.1682H97.7923V44.0002H95.9923V38.1682ZM95.8483 36.3322C95.8483 36.0442 95.9483 35.8002 96.1483 35.6002C96.3563 35.3922 96.6043 35.2882 96.8923 35.2882C97.1803 35.2882 97.4243 35.3922 97.6243 35.6002C97.8323 35.8002 97.9363 36.0442 97.9363 36.3322C97.9363 36.6202 97.8323 36.8682 97.6243 37.0762C97.4243 37.2762 97.1803 37.3762 96.8923 37.3762C96.6043 37.3762 96.3563 37.2762 96.1483 37.0762C95.9483 36.8682 95.8483 36.6202 95.8483 36.3322Z" fill="white"/>
<path d="M99.0854 38.1682H100.813V38.9602H100.837C100.893 38.8482 100.973 38.7362 101.077 38.6242C101.181 38.5122 101.305 38.4122 101.449 38.3242C101.593 38.2362 101.757 38.1642 101.941 38.1082C102.125 38.0522 102.325 38.0242 102.541 38.0242C102.997 38.0242 103.365 38.0962 103.645 38.2402C103.925 38.3762 104.141 38.5682 104.293 38.8162C104.453 39.0642 104.561 39.3562 104.617 39.6922C104.673 40.0282 104.701 40.3922 104.701 40.7842V44.0002H102.901V41.1442C102.901 40.9762 102.893 40.8042 102.877 40.6282C102.869 40.4442 102.833 40.2762 102.769 40.1242C102.713 39.9722 102.621 39.8482 102.493 39.7522C102.373 39.6562 102.197 39.6082 101.965 39.6082C101.733 39.6082 101.545 39.6522 101.401 39.7402C101.257 39.8202 101.145 39.9322 101.065 40.0762C100.993 40.2122 100.945 40.3682 100.921 40.5442C100.897 40.7202 100.885 40.9042 100.885 41.0962V44.0002H99.0854V38.1682Z" fill="white"/>
<path d="M105.976 38.1682H107.704V38.9602H107.728C107.784 38.8482 107.864 38.7362 107.968 38.6242C108.072 38.5122 108.196 38.4122 108.34 38.3242C108.484 38.2362 108.648 38.1642 108.832 38.1082C109.016 38.0522 109.216 38.0242 109.432 38.0242C109.888 38.0242 110.256 38.0962 110.536 38.2402C110.816 38.3762 111.032 38.5682 111.184 38.8162C111.344 39.0642 111.452 39.3562 111.508 39.6922C111.564 40.0282 111.592 40.3922 111.592 40.7842V44.0002H109.792V41.1442C109.792 40.9762 109.784 40.8042 109.768 40.6282C109.76 40.4442 109.724 40.2762 109.66 40.1242C109.604 39.9722 109.512 39.8482 109.384 39.7522C109.264 39.6562 109.088 39.6082 108.856 39.6082C108.624 39.6082 108.436 39.6522 108.292 39.7402C108.148 39.8202 108.036 39.9322 107.956 40.0762C107.884 40.2122 107.836 40.3682 107.812 40.5442C107.788 40.7202 107.776 40.9042 107.776 41.0962V44.0002H105.976V38.1682Z" fill="white"/>
<path d="M116.227 44.9482C116.107 45.2602 115.991 45.5362 115.879 45.7762C115.767 46.0162 115.623 46.2162 115.447 46.3762C115.279 46.5442 115.063 46.6682 114.799 46.7482C114.535 46.8362 114.187 46.8802 113.755 46.8802C113.291 46.8802 112.843 46.8082 112.411 46.6642L112.651 45.1882C112.923 45.3082 113.203 45.3682 113.491 45.3682C113.691 45.3682 113.855 45.3442 113.983 45.2962C114.111 45.2562 114.215 45.1922 114.295 45.1042C114.383 45.0242 114.455 44.9242 114.511 44.8042C114.567 44.6842 114.627 44.5442 114.691 44.3842L114.823 44.0482L112.267 38.1682H114.211L115.711 42.0202H115.735L117.019 38.1682H118.867L116.227 44.9482Z" fill="white"/>
<path d="M123.195 43.2682H123.171C122.971 43.5802 122.703 43.8042 122.367 43.9402C122.039 44.0762 121.691 44.1442 121.323 44.1442C121.051 44.1442 120.787 44.1042 120.531 44.0242C120.283 43.9522 120.063 43.8402 119.871 43.6882C119.679 43.5362 119.527 43.3482 119.415 43.1242C119.303 42.9002 119.247 42.6402 119.247 42.3442C119.247 42.0082 119.307 41.7242 119.427 41.4922C119.555 41.2602 119.723 41.0682 119.931 40.9162C120.147 40.7642 120.391 40.6482 120.663 40.5682C120.935 40.4802 121.215 40.4162 121.503 40.3762C121.799 40.3362 122.091 40.3122 122.379 40.3042C122.675 40.2962 122.947 40.2922 123.195 40.2922C123.195 39.9722 123.079 39.7202 122.847 39.5362C122.623 39.3442 122.355 39.2482 122.043 39.2482C121.747 39.2482 121.475 39.3122 121.227 39.4402C120.987 39.5602 120.771 39.7282 120.579 39.9442L119.619 38.9602C119.955 38.6482 120.347 38.4162 120.795 38.2642C121.243 38.1042 121.707 38.0242 122.187 38.0242C122.715 38.0242 123.147 38.0922 123.483 38.2282C123.827 38.3562 124.099 38.5482 124.299 38.8042C124.507 39.0602 124.651 39.3762 124.731 39.7522C124.811 40.1202 124.851 40.5482 124.851 41.0362V44.0002H123.195V43.2682ZM122.751 41.4442C122.615 41.4442 122.443 41.4522 122.235 41.4682C122.035 41.4762 121.839 41.5082 121.647 41.5642C121.463 41.6202 121.303 41.7042 121.167 41.8162C121.039 41.9282 120.975 42.0842 120.975 42.2842C120.975 42.5002 121.067 42.6602 121.251 42.7642C121.435 42.8682 121.627 42.9202 121.827 42.9202C122.003 42.9202 122.171 42.8962 122.331 42.8482C122.499 42.8002 122.647 42.7322 122.775 42.6442C122.903 42.5562 123.003 42.4442 123.075 42.3082C123.155 42.1722 123.195 42.0122 123.195 41.8282V41.4442H122.751Z" fill="white"/>
<path d="M33.1875 24.1875C33.1133 24.1875 33.0371 24.2012 32.9609 24.2324L21.7031 28.7559H18.5C18.3281 28.7559 18.1875 28.9004 18.1875 29.0801V34.9199C18.1875 35.0996 18.3281 35.2441 18.5 35.2441H20.4863C20.4141 35.4707 20.375 35.7109 20.375 35.9551C20.375 37.2422 21.4258 38.2891 22.7188 38.2891C23.8008 38.2891 24.7129 37.5547 24.9824 36.5625L32.9629 39.7695C33.0391 39.7988 33.1152 39.8145 33.1895 39.8145C33.5195 39.8145 33.8145 39.5371 33.8145 39.166V24.8359C33.8125 24.4648 33.5195 24.1875 33.1875 24.1875ZM22.7188 36.8887C22.2012 36.8887 21.7812 36.4707 21.7812 35.9551C21.7812 35.7363 21.8574 35.5273 21.9961 35.3613L23.6543 36.0273C23.6152 36.5078 23.2109 36.8887 22.7188 36.8887V36.8887ZM32.4062 38.0293L22.2266 33.9395L21.9746 33.8379H19.5938V30.1621H21.9746L22.2266 30.0605L32.4062 25.9707V38.0293V38.0293Z" fill="white"/>
</svg>
