<svg width="24" height="28" viewBox="0 0 24 28" fill="none" xmlns="http://www.w3.org/2000/svg">
<mask id="mask0" mask-type="alpha" maskUnits="userSpaceOnUse" x="0" y="0" width="24" height="28">
<path d="M0 6.94285V20.8297L12 27.7726L24 20.8297V6.94285L12 0L0 6.94285Z" fill="black"/>
</mask>
<g mask="url(#mask0)">
<path d="M11.9277 4.55197V-1.34448L-1.7981 6.64214L-0.152606 6.92308L3.86077 9.2091L11.9277 4.55197Z" fill="#FFF7F7"/>
<path d="M19.9946 18.5241C20.4361 18.5619 25.212 21.3712 25.212 21.3712L27.6601 3.23077L11.9277 -1.34448V4.55197L19.9946 9.5V18V18.5241Z" fill="#EBE3E4"/>
<path d="M11.9277 23.0167V28.3545L25.212 21.3712C25.212 21.3712 20.4762 18.5659 19.9946 18.5242C19.513 18.4824 11.9277 23.0167 11.9277 23.0167Z" fill="#FFFEFE"/>
<path d="M-0.152576 6.9231L-2.30615 22.0808L7.00408 31.3381L11.9277 28.3545V23.0167L3.8608 18.5V9.20912L-0.152576 6.9231Z" fill="#EAE9E9"/>
<path fill-rule="evenodd" clip-rule="evenodd" d="M3.86084 18.524V9.209L11.9277 4.55188L19.9946 9.209V18.524L11.9277 23.1811L3.86084 18.524ZM13.2543 12.1504L12.2162 8.9649C12.1964 8.90381 12.1577 8.85056 12.1057 8.8128C12.0538 8.77504 11.9912 8.7547 11.927 8.7547C11.8627 8.7547 11.8002 8.77504 11.7482 8.8128C11.6962 8.85056 11.6576 8.90381 11.6377 8.9649L10.6026 12.1504C10.5823 12.2114 10.5434 12.2644 10.4913 12.3021C10.4393 12.3398 10.3767 12.3601 10.3124 12.3604H6.96349C6.89906 12.3601 6.8362 12.3802 6.78398 12.418C6.73176 12.4557 6.69287 12.5091 6.67293 12.5703C6.65298 12.6316 6.65301 12.6976 6.67301 12.7589C6.69301 12.8201 6.73195 12.8734 6.78421 12.9111L9.49428 14.8793C9.54635 14.9171 9.58512 14.9704 9.60505 15.0316C9.62497 15.0928 9.62503 15.1588 9.60522 15.22L8.57012 18.4055C8.55058 18.4666 8.5508 18.5324 8.57076 18.5933C8.59071 18.6543 8.62938 18.7074 8.68127 18.7452C8.73315 18.7829 8.79562 18.8033 8.85978 18.8035C8.92393 18.8037 8.98652 18.7837 9.03864 18.7463L11.7477 16.7771C11.7997 16.7395 11.8623 16.7192 11.9265 16.7192C11.9907 16.7192 12.0532 16.7395 12.1053 16.7771L14.8153 18.7502C14.8675 18.7877 14.93 18.8077 14.9942 18.8075C15.0584 18.8073 15.1208 18.7869 15.1727 18.7491C15.2246 18.7114 15.2633 18.6583 15.2832 18.5973C15.3032 18.5363 15.3034 18.4706 15.2838 18.4095L14.2448 15.22C14.2257 15.1581 14.2268 15.0916 14.248 15.0304C14.2692 14.9691 14.3094 14.9162 14.3627 14.8793L17.0717 12.9111C17.1239 12.8735 17.1628 12.8202 17.1829 12.7591C17.2029 12.6979 17.203 12.632 17.1832 12.5708C17.1634 12.5096 17.1246 12.4562 17.0726 12.4184C17.0205 12.3806 16.9578 12.3603 16.8934 12.3604H13.5435C13.4793 12.3604 13.4167 12.3401 13.3648 12.3024C13.3128 12.2646 13.2741 12.2114 13.2543 12.1504Z" fill="url(#paint0_linear)"/>
</g>
<defs>
<linearGradient id="paint0_linear" x1="13.4745" y1="25.4278" x2="10.4243" y2="2.63188" gradientUnits="userSpaceOnUse">
<stop stop-color="#D5CFCE"/>
<stop offset="1" stop-color="white"/>
</linearGradient>
</defs>
</svg>
