<svg width="24" height="28" viewBox="0 0 24 28" fill="none" xmlns="http://www.w3.org/2000/svg">
<mask id="mask0" mask-type="alpha" maskUnits="userSpaceOnUse" x="0" y="0" width="24" height="28">
<path d="M0 6.94285V20.8297L12 27.7726L24 20.8297V6.94285L12 0L0 6.94285Z" fill="black"/>
</mask>
<g mask="url(#mask0)">
<path d="M11.9277 4.55197V-1.34448L-1.79803 6.64214L-0.15255 6.92308L3.86083 9.2091L11.9277 4.55197Z" fill="#DA352F"/>
<path d="M19.9946 18.5241C20.4361 18.5619 25.212 21.3712 25.212 21.3712L27.6602 3.23077L11.9277 -1.34448V4.55197L14.416 11.2944L16.7839 15.8296L19.9946 18.5241Z" fill="#EA001C"/>
<path d="M11.9277 23.0167V28.3545L25.212 21.3712C25.212 21.3712 20.4762 18.5659 19.9946 18.5242C19.513 18.4824 11.9277 23.0167 11.9277 23.0167Z" fill="#CE011A"/>
<path d="M-0.152574 6.92307L-2.30615 22.0808L7.00408 31.338L11.9277 28.3545V23.0167L7.2184 10.3079L3.8608 9.20909L-0.152574 6.92307Z" fill="#EA001C"/>
<path d="M3.86078 9.2091V18.5241L11.9277 23.1813L19.9946 18.5241V9.2091L11.9277 4.55197L3.86078 9.2091Z" fill="url(#paint0_linear)"/>
<path d="M12.2162 8.96493L13.2543 12.1504C13.2741 12.2115 13.3128 12.2647 13.3648 12.3024C13.4167 12.3401 13.4793 12.3605 13.5435 12.3604H16.8934C16.9578 12.3604 17.0205 12.3807 17.0726 12.4185C17.1246 12.4563 17.1634 12.5097 17.1832 12.5709C17.203 12.6321 17.2029 12.698 17.1829 12.7592C17.1628 12.8203 17.1239 12.8735 17.0717 12.9112L14.3627 14.8793C14.3094 14.9162 14.2692 14.9692 14.248 15.0304C14.2268 15.0917 14.2257 15.1581 14.2448 15.2201L15.2838 18.4096C15.3034 18.4707 15.3032 18.5364 15.2832 18.5974C15.2633 18.6583 15.2246 18.7115 15.1727 18.7492C15.1208 18.7869 15.0584 18.8074 14.9942 18.8076C14.93 18.8078 14.8675 18.7877 14.8153 18.7503L12.1053 16.7772C12.0532 16.7396 11.9907 16.7193 11.9265 16.7193C11.8623 16.7193 11.7997 16.7396 11.7477 16.7772L9.03861 18.7463C8.98649 18.7838 8.9239 18.8038 8.85975 18.8036C8.79559 18.8034 8.73312 18.783 8.68124 18.7452C8.62935 18.7075 8.59068 18.6544 8.57073 18.5934C8.55077 18.5324 8.55055 18.4667 8.57009 18.4056L9.60519 15.2201C9.625 15.1588 9.62494 15.0929 9.60502 15.0317C9.58509 14.9705 9.54632 14.9172 9.49425 14.8793L6.78418 12.9112C6.73192 12.8735 6.69298 12.8202 6.67298 12.7589C6.65298 12.6977 6.65295 12.6317 6.6729 12.5704C6.69284 12.5091 6.73173 12.4558 6.78395 12.418C6.83617 12.3803 6.89903 12.3601 6.96346 12.3604H10.3124C10.3767 12.3602 10.4393 12.3398 10.4913 12.3022C10.5434 12.2645 10.5823 12.2114 10.6026 12.1504L11.6377 8.96493C11.6576 8.90384 11.6962 8.85059 11.7482 8.81283C11.8002 8.77507 11.8627 8.75473 11.927 8.75473C11.9912 8.75473 12.0538 8.77507 12.1057 8.81283C12.1577 8.85059 12.1964 8.90384 12.2162 8.96493Z" fill="white"/>
</g>
<defs>
<linearGradient id="paint0_linear" x1="13.4744" y1="25.428" x2="10.4243" y2="2.63197" gradientUnits="userSpaceOnUse">
<stop stop-color="#F15441"/>
<stop offset="1" stop-color="#CE011A"/>
</linearGradient>
</defs>
</svg>
