<svg width="171" height="178" viewBox="0 0 171 178" fill="none" xmlns="http://www.w3.org/2000/svg">
<g filter="url(#filter0_d)">
<circle cx="85.0605" cy="84.9253" r="60" fill="white"/>
</g>
<path d="M46.9634 38.5672C21.5789 59.8673 18.2679 97.7127 39.568 123.097C60.8681 148.482 98.7134 151.793 124.098 130.493C149.482 109.192 152.793 71.3471 131.493 45.9626C110.193 20.5781 72.3479 17.2671 46.9634 38.5672ZM119.47 124.977C97.1315 143.721 63.8276 140.807 45.0835 118.469C26.3394 96.1307 29.2531 62.8268 51.5914 44.0827C73.9298 25.3386 107.234 28.2524 125.978 50.5907C144.722 72.929 141.808 106.233 119.47 124.977Z" fill="#E41010"/>
<path d="M65.877 83.84C65.877 81.6 66.0503 79.6933 66.397 78.12C66.7703 76.52 67.2503 75.1866 67.837 74.12C68.4236 73.0266 69.077 72.16 69.797 71.52C70.5436 70.8533 71.2903 70.36 72.037 70.04C72.8103 69.6933 73.5436 69.4666 74.237 69.36C74.957 69.2533 75.5836 69.2 76.117 69.2C76.6503 69.2 77.2636 69.2533 77.957 69.36C78.677 69.4666 79.4103 69.6933 80.157 70.04C80.9303 70.36 81.677 70.8533 82.397 71.52C83.1436 72.16 83.8103 73.0266 84.397 74.12C84.9836 75.1866 85.4503 76.52 85.797 78.12C86.1703 79.6933 86.357 81.6 86.357 83.84C86.357 86.08 86.1703 88 85.797 89.6C85.4503 91.1733 84.9836 92.5066 84.397 93.6C83.8103 94.6666 83.1436 95.5333 82.397 96.2C81.677 96.84 80.9303 97.3333 80.157 97.68C79.4103 98 78.677 98.2133 77.957 98.32C77.2636 98.4266 76.6503 98.48 76.117 98.48C75.5836 98.48 74.957 98.4266 74.237 98.32C73.5436 98.2133 72.8103 98 72.037 97.68C71.2903 97.3333 70.5436 96.84 69.797 96.2C69.077 95.5333 68.4236 94.6666 67.837 93.6C67.2503 92.5066 66.7703 91.1733 66.397 89.6C66.0503 88 65.877 86.08 65.877 83.84ZM70.677 83.84C70.677 84.72 70.7303 85.7466 70.837 86.92C70.9703 88.0666 71.2236 89.16 71.597 90.2C71.9703 91.24 72.517 92.12 73.237 92.84C73.957 93.56 74.917 93.92 76.117 93.92C77.317 93.92 78.277 93.56 78.997 92.84C79.717 92.12 80.2636 91.24 80.637 90.2C81.0103 89.16 81.2503 88.0666 81.357 86.92C81.4903 85.7466 81.557 84.72 81.557 83.84C81.557 82.96 81.4903 81.9466 81.357 80.8C81.2503 79.6266 81.0103 78.52 80.637 77.48C80.2636 76.44 79.717 75.56 78.997 74.84C78.277 74.12 77.317 73.76 76.117 73.76C74.917 73.76 73.957 74.12 73.237 74.84C72.517 75.56 71.9703 76.44 71.597 77.48C71.2236 78.52 70.9703 79.6266 70.837 80.8C70.7303 81.9466 70.677 82.96 70.677 83.84Z" fill="black"/>
<path d="M100.909 84.12C99.9755 82.8133 98.7222 82.16 97.1488 82.16C96.5088 82.16 95.8822 82.32 95.2688 82.64C94.6555 82.96 94.3488 83.48 94.3488 84.2C94.3488 84.7866 94.6022 85.2133 95.1088 85.48C95.6155 85.7466 96.2555 85.9733 97.0288 86.16C97.8022 86.3466 98.6288 86.5466 99.5088 86.76C100.415 86.9466 101.255 87.2533 102.029 87.68C102.802 88.08 103.442 88.64 103.949 89.36C104.455 90.08 104.709 91.0666 104.709 92.32C104.709 93.4666 104.455 94.44 103.949 95.24C103.469 96.0133 102.829 96.64 102.029 97.12C101.255 97.6 100.375 97.9466 99.3888 98.16C98.4022 98.3733 97.4155 98.48 96.4288 98.48C94.9355 98.48 93.5622 98.2666 92.3088 97.84C91.0555 97.4133 89.9355 96.64 88.9488 95.52L92.1488 92.52C92.7622 93.2133 93.4155 93.7866 94.1088 94.24C94.8288 94.6666 95.6955 94.88 96.7088 94.88C97.0555 94.88 97.4155 94.84 97.7888 94.76C98.1622 94.68 98.5088 94.5466 98.8288 94.36C99.1488 94.1733 99.4022 93.9466 99.5888 93.68C99.8022 93.3866 99.9088 93.0533 99.9088 92.68C99.9088 92.0133 99.6555 91.52 99.1488 91.2C98.6422 90.88 98.0022 90.6266 97.2288 90.44C96.4555 90.2266 95.6155 90.04 94.7088 89.88C93.8288 89.6933 93.0022 89.4133 92.2288 89.04C91.4555 88.64 90.8155 88.0933 90.3088 87.4C89.8022 86.7066 89.5488 85.7466 89.5488 84.52C89.5488 83.4533 89.7622 82.5333 90.1888 81.76C90.6422 80.96 91.2288 80.3066 91.9488 79.8C92.6688 79.2933 93.4955 78.92 94.4288 78.68C95.3622 78.44 96.3088 78.32 97.2688 78.32C98.5488 78.32 99.8155 78.5466 101.069 79C102.322 79.4266 103.336 80.1733 104.109 81.24L100.909 84.12Z" fill="black"/>
<defs>
<filter id="filter0_d" x="0.0605469" y="7.92529" width="170" height="170" filterUnits="userSpaceOnUse" color-interpolation-filters="sRGB">
<feFlood flood-opacity="0" result="BackgroundImageFix"/>
<feColorMatrix in="SourceAlpha" type="matrix" values="0 0 0 0 0 0 0 0 0 0 0 0 0 0 0 0 0 0 127 0"/>
<feOffset dy="8"/>
<feGaussianBlur stdDeviation="12.5"/>
<feColorMatrix type="matrix" values="0 0 0 0 0 0 0 0 0 0 0 0 0 0 0 0 0 0 0.1 0"/>
<feBlend mode="normal" in2="BackgroundImageFix" result="effect1_dropShadow"/>
<feBlend mode="normal" in="SourceGraphic" in2="effect1_dropShadow" result="shape"/>
</filter>
</defs>
</svg>
