<svg width="14" height="14" viewBox="0 0 14 14" fill="none" xmlns="http://www.w3.org/2000/svg">
<rect width="14" height="14" rx="4" fill="#D1091E"/>
<g clip-path="url(#clip0)">
<path d="M9.25 6H9V5C9 3.897 8.103 3 7 3C5.897 3 5 3.897 5 5V6H4.75C4.33667 6 4 6.33633 4 6.75V10.25C4 10.6637 4.33667 11 4.75 11H9.25C9.66333 11 10 10.6637 10 10.25V6.75C10 6.33633 9.66333 6 9.25 6ZM5.66667 5C5.66667 4.26467 6.26467 3.66667 7 3.66667C7.73533 3.66667 8.33333 4.26467 8.33333 5V6H5.66667V5ZM7.33333 8.574V9.33333C7.33333 9.51733 7.18433 9.66667 7 9.66667C6.81567 9.66667 6.66667 9.51733 6.66667 9.33333V8.574C6.46833 8.45833 6.33333 8.24567 6.33333 8C6.33333 7.63233 6.63233 7.33333 7 7.33333C7.36767 7.33333 7.66667 7.63233 7.66667 8C7.66667 8.24567 7.53167 8.45833 7.33333 8.574Z" fill="white"/>
</g>
<defs>
<clipPath id="clip0">
<rect width="8" height="8" fill="white" transform="translate(3 3)"/>
</clipPath>
</defs>
</svg>
