<svg width="162" height="185" viewBox="0 0 162 185" fill="none" xmlns="http://www.w3.org/2000/svg">
<rect width="161.815" height="184.288" rx="8" fill="black" fill-opacity="0.7"/>
<g clip-path="url(#clip0)">
<path d="M112.213 30.9542H91.3428C90.3827 30.9542 89.6035 31.7334 89.6035 32.6934C89.6035 33.6534 90.3827 34.4326 91.3428 34.4326H112.213C113.173 34.4326 113.952 33.6534 113.952 32.6934C113.952 31.7334 113.173 30.9542 112.213 30.9542Z" fill="white"/>
<path d="M113.445 31.4655L106.488 24.5087C105.81 23.8304 104.707 23.8304 104.029 24.5087C103.35 25.187 103.35 26.2897 104.029 26.968L109.754 32.6934L104.025 38.4223C103.347 39.1006 103.347 40.2033 104.025 40.8816C104.366 41.2189 104.811 41.3895 105.257 41.3895C105.702 41.3895 106.147 41.2191 106.488 40.8816L113.445 33.9248C114.123 33.2463 114.123 32.1438 113.445 31.4655Z" fill="white"/>
<path d="M66.9942 30.9542H46.124C45.164 30.9542 44.3848 31.7334 44.3848 32.6934C44.3848 33.6534 45.164 34.4326 46.124 34.4326H66.9942C67.9543 34.4326 68.7335 33.6534 68.7335 32.6934C68.7335 31.7334 67.9543 30.9542 66.9942 30.9542Z" fill="white"/>
<path d="M48.5829 32.6932L54.3084 26.9678C54.9867 26.2895 54.9867 25.1868 54.3084 24.5085C53.6301 23.8302 52.5274 23.8302 51.8491 24.5085L44.8925 31.4655C44.2142 32.1438 44.2142 33.2465 44.8925 33.9248L51.8493 40.8816C52.1902 41.2189 52.6354 41.3894 53.0806 41.3894C53.5259 41.3894 53.9711 41.2191 54.3086 40.8781C54.9868 40.1998 54.9868 39.0971 54.3086 38.4189L48.5829 32.6932Z" fill="white"/>
<path d="M110.474 58.781C109.044 58.781 107.712 59.2159 106.606 59.9568C105.653 57.2507 103.068 55.3027 100.038 55.3027C98.6089 55.3027 97.2766 55.7376 96.1705 56.4785C95.2174 53.7723 92.633 51.8244 89.6033 51.8244C88.3373 51.8244 87.1477 52.1653 86.125 52.7601V41.3893C86.125 37.5526 83.0049 34.4325 79.1682 34.4325C75.3315 34.4325 72.2114 37.5526 72.2114 41.3893V70.9554L66.1661 66.4231C62.5834 63.7343 57.4841 64.0927 54.3084 67.265C52.2735 69.2998 52.2735 72.6077 54.3084 74.6426L79.0779 99.4155C82.0345 102.372 85.9685 104 90.1496 104H98.2994C108.846 104 117.43 95.4189 117.43 84.869V65.7378C117.43 61.9011 114.31 58.781 110.474 58.781ZM113.952 84.8688C113.952 93.4987 106.929 100.521 98.2994 100.521H90.1496C86.8938 100.521 83.8363 99.2554 81.5372 96.9561L56.7676 72.1833C56.0893 71.505 56.0893 70.4023 56.7676 69.7241C57.8459 68.6492 59.2859 68.0962 60.733 68.0962C61.9087 68.0962 63.0913 68.4614 64.0826 69.2057L72.9073 75.825C73.4361 76.2215 74.1457 76.2807 74.73 75.9885C75.3178 75.6929 75.6901 75.0911 75.6901 74.4337V41.3893C75.6901 39.4727 77.2483 37.911 79.1684 37.911C81.0885 37.911 82.6467 39.4728 82.6467 41.3893V67.4771C82.6467 68.4371 83.4259 69.2163 84.3859 69.2163C85.346 69.2163 86.1252 68.4371 86.1252 67.4771V58.7812C86.1252 56.8646 87.6834 55.3029 89.6035 55.3029C91.5236 55.3029 93.0818 56.8647 93.0818 58.7812V67.4771C93.0818 68.4371 93.861 69.2163 94.8211 69.2163C95.7811 69.2163 96.5603 68.4371 96.5603 67.4771V62.2595C96.5603 60.3429 98.1186 58.7812 100.039 58.7812C101.959 58.7812 103.517 60.343 103.517 62.2595V67.4771C103.517 68.4371 104.296 69.2163 105.256 69.2163C106.216 69.2163 106.995 68.4371 106.995 67.4771V65.7378C106.995 63.8212 108.554 62.2595 110.474 62.2595C112.394 62.2595 113.952 63.8214 113.952 65.7378V84.8688V84.8688Z" fill="white"/>
</g>
<path d="M34.672 135.264C33.2747 136.011 31.712 136.384 29.984 136.384C29.1093 136.384 28.304 136.245 27.568 135.968C26.8427 135.68 26.2133 135.28 25.68 134.768C25.1573 134.245 24.7467 133.621 24.448 132.896C24.1493 132.171 24 131.365 24 130.48C24 129.573 24.1493 128.752 24.448 128.016C24.7467 127.269 25.1573 126.635 25.68 126.112C26.2133 125.589 26.8427 125.189 27.568 124.912C28.304 124.624 29.1093 124.48 29.984 124.48C30.848 124.48 31.6587 124.587 32.416 124.8C33.1733 125.003 33.8507 125.371 34.448 125.904L32.96 127.408C32.5973 127.056 32.1547 126.784 31.632 126.592C31.12 126.4 30.576 126.304 30 126.304C29.4133 126.304 28.88 126.411 28.4 126.624C27.9307 126.827 27.5253 127.115 27.184 127.488C26.8427 127.851 26.576 128.277 26.384 128.768C26.2027 129.259 26.112 129.787 26.112 130.352C26.112 130.96 26.2027 131.52 26.384 132.032C26.576 132.544 26.8427 132.987 27.184 133.36C27.5253 133.733 27.9307 134.027 28.4 134.24C28.88 134.453 29.4133 134.56 30 134.56C30.512 134.56 30.992 134.512 31.44 134.416C31.8987 134.32 32.304 134.171 32.656 133.968V131.296H30.336V129.472H34.672V135.264Z" fill="white"/>
<path d="M38.4211 132.928C38.4851 133.504 38.7091 133.952 39.0931 134.272C39.4771 134.592 39.9411 134.752 40.4851 134.752C40.9651 134.752 41.3651 134.656 41.6851 134.464C42.0158 134.261 42.3038 134.011 42.5491 133.712L43.9251 134.752C43.4771 135.307 42.9758 135.701 42.4211 135.936C41.8665 136.171 41.2851 136.288 40.6771 136.288C40.1011 136.288 39.5571 136.192 39.0451 136C38.5331 135.808 38.0905 135.536 37.7171 135.184C37.3438 134.832 37.0451 134.411 36.8211 133.92C36.6078 133.419 36.5011 132.864 36.5011 132.256C36.5011 131.648 36.6078 131.099 36.8211 130.608C37.0451 130.107 37.3438 129.68 37.7171 129.328C38.0905 128.976 38.5331 128.704 39.0451 128.512C39.5571 128.32 40.1011 128.224 40.6771 128.224C41.2105 128.224 41.6958 128.32 42.1331 128.512C42.5811 128.693 42.9598 128.96 43.2691 129.312C43.5891 129.664 43.8345 130.101 44.0051 130.624C44.1865 131.136 44.2771 131.728 44.2771 132.4V132.928H38.4211ZM42.3571 131.488C42.3465 130.923 42.1705 130.48 41.8291 130.16C41.4878 129.829 41.0131 129.664 40.4051 129.664C39.8291 129.664 39.3705 129.829 39.0291 130.16C38.6985 130.491 38.4958 130.933 38.4211 131.488H42.3571Z" fill="white"/>
<path d="M50.1686 130.544C49.7953 130.021 49.294 129.76 48.6646 129.76C48.4086 129.76 48.158 129.824 47.9126 129.952C47.6673 130.08 47.5446 130.288 47.5446 130.576C47.5446 130.811 47.646 130.981 47.8486 131.088C48.0513 131.195 48.3073 131.285 48.6166 131.36C48.926 131.435 49.2566 131.515 49.6086 131.6C49.9713 131.675 50.3073 131.797 50.6166 131.968C50.926 132.128 51.182 132.352 51.3846 132.64C51.5873 132.928 51.6886 133.323 51.6886 133.824C51.6886 134.283 51.5873 134.672 51.3846 134.992C51.1926 135.301 50.9366 135.552 50.6166 135.744C50.3073 135.936 49.9553 136.075 49.5606 136.16C49.166 136.245 48.7713 136.288 48.3766 136.288C47.7793 136.288 47.23 136.203 46.7286 136.032C46.2273 135.861 45.7793 135.552 45.3846 135.104L46.6646 133.904C46.91 134.181 47.1713 134.411 47.4486 134.592C47.7366 134.763 48.0833 134.848 48.4886 134.848C48.6273 134.848 48.7713 134.832 48.9206 134.8C49.07 134.768 49.2086 134.715 49.3366 134.64C49.4646 134.565 49.566 134.475 49.6406 134.368C49.726 134.251 49.7686 134.117 49.7686 133.968C49.7686 133.701 49.6673 133.504 49.4646 133.376C49.262 133.248 49.006 133.147 48.6966 133.072C48.3873 132.987 48.0513 132.912 47.6886 132.848C47.3366 132.773 47.006 132.661 46.6966 132.512C46.3873 132.352 46.1313 132.133 45.9286 131.856C45.726 131.579 45.6246 131.195 45.6246 130.704C45.6246 130.277 45.71 129.909 45.8806 129.6C46.062 129.28 46.2966 129.019 46.5846 128.816C46.8726 128.613 47.2033 128.464 47.5766 128.368C47.95 128.272 48.3286 128.224 48.7126 128.224C49.2246 128.224 49.7313 128.315 50.2326 128.496C50.734 128.667 51.1393 128.965 51.4486 129.392L50.1686 130.544Z" fill="white"/>
<path d="M54.718 132.928C54.782 133.504 55.006 133.952 55.39 134.272C55.774 134.592 56.238 134.752 56.782 134.752C57.262 134.752 57.662 134.656 57.982 134.464C58.3127 134.261 58.6007 134.011 58.846 133.712L60.222 134.752C59.774 135.307 59.2727 135.701 58.718 135.936C58.1633 136.171 57.582 136.288 56.974 136.288C56.398 136.288 55.854 136.192 55.342 136C54.83 135.808 54.3873 135.536 54.014 135.184C53.6407 134.832 53.342 134.411 53.118 133.92C52.9047 133.419 52.798 132.864 52.798 132.256C52.798 131.648 52.9047 131.099 53.118 130.608C53.342 130.107 53.6407 129.68 54.014 129.328C54.3873 128.976 54.83 128.704 55.342 128.512C55.854 128.32 56.398 128.224 56.974 128.224C57.5073 128.224 57.9927 128.32 58.43 128.512C58.878 128.693 59.2567 128.96 59.566 129.312C59.886 129.664 60.1313 130.101 60.302 130.624C60.4833 131.136 60.574 131.728 60.574 132.4V132.928H54.718ZM58.654 131.488C58.6433 130.923 58.4673 130.48 58.126 130.16C57.7847 129.829 57.31 129.664 56.702 129.664C56.126 129.664 55.6673 129.829 55.326 130.16C54.9953 130.491 54.7927 130.933 54.718 131.488H58.654Z" fill="white"/>
<path d="M62.3695 128.416H64.2895V129.632H64.3215C64.5348 129.184 64.8388 128.837 65.2335 128.592C65.6282 128.347 66.0815 128.224 66.5935 128.224C66.7108 128.224 66.8228 128.235 66.9295 128.256C67.0468 128.277 67.1642 128.304 67.2815 128.336V130.192C67.1215 130.149 66.9615 130.117 66.8015 130.096C66.6522 130.064 66.5028 130.048 66.3535 130.048C65.9055 130.048 65.5428 130.133 65.2655 130.304C64.9988 130.464 64.7908 130.651 64.6415 130.864C64.5028 131.077 64.4068 131.291 64.3535 131.504C64.3108 131.717 64.2895 131.877 64.2895 131.984V136.096H62.3695V128.416Z" fill="white"/>
<path d="M73.3226 124H75.2426V131.6L78.2026 128.416H80.6666L77.3706 131.904L80.8746 136.096H78.3306L75.2746 132.176H75.2426V136.096H73.3226V124Z" fill="white"/>
<path d="M83.4524 132.928C83.5164 133.504 83.7404 133.952 84.1244 134.272C84.5084 134.592 84.9724 134.752 85.5164 134.752C85.9964 134.752 86.3964 134.656 86.7164 134.464C87.047 134.261 87.335 134.011 87.5804 133.712L88.9564 134.752C88.5084 135.307 88.007 135.701 87.4524 135.936C86.8977 136.171 86.3164 136.288 85.7084 136.288C85.1324 136.288 84.5884 136.192 84.0764 136C83.5644 135.808 83.1217 135.536 82.7484 135.184C82.375 134.832 82.0764 134.411 81.8524 133.92C81.639 133.419 81.5324 132.864 81.5324 132.256C81.5324 131.648 81.639 131.099 81.8524 130.608C82.0764 130.107 82.375 129.68 82.7484 129.328C83.1217 128.976 83.5644 128.704 84.0764 128.512C84.5884 128.32 85.1324 128.224 85.7084 128.224C86.2417 128.224 86.727 128.32 87.1644 128.512C87.6124 128.693 87.991 128.96 88.3004 129.312C88.6204 129.664 88.8657 130.101 89.0364 130.624C89.2177 131.136 89.3084 131.728 89.3084 132.4V132.928H83.4524ZM87.3884 131.488C87.3777 130.923 87.2017 130.48 86.8604 130.16C86.519 129.829 86.0444 129.664 85.4364 129.664C84.8604 129.664 84.4017 129.829 84.0604 130.16C83.7297 130.491 83.527 130.933 83.4524 131.488H87.3884Z" fill="white"/>
<path d="M95.8382 124H97.7583V131.6L100.718 128.416H103.182L99.8863 131.904L103.39 136.096H100.846L97.7903 132.176H97.7583V136.096H95.8382V124Z" fill="white"/>
<path d="M109.232 135.04H109.184C108.907 135.477 108.555 135.797 108.128 136C107.701 136.192 107.232 136.288 106.72 136.288C106.368 136.288 106.021 136.24 105.68 136.144C105.349 136.048 105.051 135.904 104.784 135.712C104.528 135.52 104.32 135.28 104.16 134.992C104 134.704 103.92 134.368 103.92 133.984C103.92 133.568 103.995 133.216 104.144 132.928C104.293 132.629 104.491 132.384 104.736 132.192C104.992 131.989 105.285 131.829 105.616 131.712C105.947 131.595 106.288 131.509 106.64 131.456C107.003 131.392 107.365 131.355 107.728 131.344C108.091 131.323 108.432 131.312 108.752 131.312H109.232V131.104C109.232 130.624 109.067 130.267 108.736 130.032C108.405 129.787 107.984 129.664 107.472 129.664C107.067 129.664 106.688 129.739 106.336 129.888C105.984 130.027 105.68 130.219 105.424 130.464L104.416 129.456C104.843 129.019 105.339 128.704 105.904 128.512C106.48 128.32 107.072 128.224 107.68 128.224C108.224 128.224 108.683 128.288 109.056 128.416C109.429 128.533 109.739 128.688 109.984 128.88C110.229 129.072 110.416 129.296 110.544 129.552C110.683 129.797 110.779 130.048 110.832 130.304C110.896 130.56 110.933 130.811 110.944 131.056C110.955 131.291 110.96 131.499 110.96 131.68V136.096H109.232V135.04ZM109.12 132.656H108.72C108.453 132.656 108.155 132.667 107.824 132.688C107.493 132.709 107.179 132.763 106.88 132.848C106.592 132.923 106.347 133.04 106.144 133.2C105.941 133.349 105.84 133.563 105.84 133.84C105.84 134.021 105.877 134.176 105.952 134.304C106.037 134.421 106.144 134.523 106.272 134.608C106.4 134.693 106.544 134.757 106.704 134.8C106.864 134.832 107.024 134.848 107.184 134.848C107.845 134.848 108.331 134.693 108.64 134.384C108.96 134.064 109.12 133.632 109.12 133.088V132.656Z" fill="white"/>
<path d="M113.026 128.416H114.85V129.648H114.882C115.063 129.264 115.34 128.933 115.714 128.656C116.087 128.368 116.594 128.224 117.234 128.224C117.746 128.224 118.178 128.309 118.53 128.48C118.892 128.651 119.186 128.875 119.41 129.152C119.634 129.429 119.794 129.749 119.89 130.112C119.986 130.475 120.034 130.853 120.034 131.248V136.096H118.114V132.208C118.114 131.995 118.103 131.76 118.082 131.504C118.06 131.237 118.002 130.992 117.906 130.768C117.82 130.533 117.682 130.341 117.49 130.192C117.298 130.032 117.036 129.952 116.706 129.952C116.386 129.952 116.114 130.005 115.89 130.112C115.676 130.219 115.495 130.363 115.346 130.544C115.207 130.725 115.106 130.933 115.042 131.168C114.978 131.403 114.946 131.648 114.946 131.904V136.096H113.026V128.416Z" fill="white"/>
<path d="M127.013 135.04H126.965C126.688 135.477 126.336 135.797 125.909 136C125.483 136.192 125.013 136.288 124.501 136.288C124.149 136.288 123.803 136.24 123.461 136.144C123.131 136.048 122.832 135.904 122.565 135.712C122.309 135.52 122.101 135.28 121.941 134.992C121.781 134.704 121.701 134.368 121.701 133.984C121.701 133.568 121.776 133.216 121.925 132.928C122.075 132.629 122.272 132.384 122.517 132.192C122.773 131.989 123.067 131.829 123.397 131.712C123.728 131.595 124.069 131.509 124.421 131.456C124.784 131.392 125.147 131.355 125.509 131.344C125.872 131.323 126.213 131.312 126.533 131.312H127.013V131.104C127.013 130.624 126.848 130.267 126.517 130.032C126.187 129.787 125.765 129.664 125.253 129.664C124.848 129.664 124.469 129.739 124.117 129.888C123.765 130.027 123.461 130.219 123.205 130.464L122.197 129.456C122.624 129.019 123.12 128.704 123.685 128.512C124.261 128.32 124.853 128.224 125.461 128.224C126.005 128.224 126.464 128.288 126.837 128.416C127.211 128.533 127.52 128.688 127.765 128.88C128.011 129.072 128.197 129.296 128.325 129.552C128.464 129.797 128.56 130.048 128.613 130.304C128.677 130.56 128.715 130.811 128.725 131.056C128.736 131.291 128.741 131.499 128.741 131.68V136.096H127.013V135.04ZM126.901 132.656H126.501C126.235 132.656 125.936 132.667 125.605 132.688C125.275 132.709 124.96 132.763 124.661 132.848C124.373 132.923 124.128 133.04 123.925 133.2C123.723 133.349 123.621 133.563 123.621 133.84C123.621 134.021 123.659 134.176 123.733 134.304C123.819 134.421 123.925 134.523 124.053 134.608C124.181 134.693 124.325 134.757 124.485 134.8C124.645 134.832 124.805 134.848 124.965 134.848C125.627 134.848 126.112 134.693 126.421 134.384C126.741 134.064 126.901 133.632 126.901 133.088V132.656Z" fill="white"/>
<path d="M130.807 128.416H132.631V129.648H132.663C132.844 129.264 133.122 128.933 133.495 128.656C133.868 128.368 134.375 128.224 135.015 128.224C135.527 128.224 135.959 128.309 136.311 128.48C136.674 128.651 136.967 128.875 137.191 129.152C137.415 129.429 137.575 129.749 137.671 130.112C137.767 130.475 137.815 130.853 137.815 131.248V136.096H135.895V132.208C135.895 131.995 135.884 131.76 135.863 131.504C135.842 131.237 135.783 130.992 135.687 130.768C135.602 130.533 135.463 130.341 135.271 130.192C135.079 130.032 134.818 129.952 134.487 129.952C134.167 129.952 133.895 130.005 133.671 130.112C133.458 130.219 133.276 130.363 133.127 130.544C132.988 130.725 132.887 130.933 132.823 131.168C132.759 131.403 132.727 131.648 132.727 131.904V136.096H130.807V128.416Z" fill="white"/>
<path d="M49.1761 158.944H49.1441C48.8667 159.413 48.4934 159.755 48.0241 159.968C47.5547 160.181 47.0481 160.288 46.5041 160.288C45.9067 160.288 45.3734 160.187 44.9041 159.984C44.4454 159.771 44.0507 159.483 43.7201 159.12C43.3894 158.757 43.1387 158.331 42.9681 157.84C42.7974 157.349 42.7121 156.821 42.7121 156.256C42.7121 155.691 42.8027 155.163 42.9841 154.672C43.1654 154.181 43.4161 153.755 43.7361 153.392C44.0667 153.029 44.4614 152.747 44.9201 152.544C45.3787 152.331 45.8801 152.224 46.4241 152.224C46.7867 152.224 47.1067 152.261 47.3841 152.336C47.6614 152.411 47.9067 152.507 48.1201 152.624C48.3334 152.741 48.5147 152.869 48.6641 153.008C48.8134 153.136 48.9361 153.264 49.0321 153.392H49.0801V148H51.0001V160.096H49.1761V158.944ZM44.6321 156.256C44.6321 156.555 44.6801 156.843 44.7761 157.12C44.8827 157.397 45.0321 157.643 45.2241 157.856C45.4267 158.069 45.6667 158.24 45.9441 158.368C46.2214 158.496 46.5361 158.56 46.8881 158.56C47.2401 158.56 47.5547 158.496 47.8321 158.368C48.1094 158.24 48.3441 158.069 48.5361 157.856C48.7387 157.643 48.8881 157.397 48.9841 157.12C49.0907 156.843 49.1441 156.555 49.1441 156.256C49.1441 155.957 49.0907 155.669 48.9841 155.392C48.8881 155.115 48.7387 154.869 48.5361 154.656C48.3441 154.443 48.1094 154.272 47.8321 154.144C47.5547 154.016 47.2401 153.952 46.8881 153.952C46.5361 153.952 46.2214 154.016 45.9441 154.144C45.6667 154.272 45.4267 154.443 45.2241 154.656C45.0321 154.869 44.8827 155.115 44.7761 155.392C44.6801 155.669 44.6321 155.957 44.6321 156.256Z" fill="white"/>
<path d="M57.9742 159.04H57.9262C57.6489 159.477 57.2969 159.797 56.8702 160C56.4435 160.192 55.9742 160.288 55.4622 160.288C55.1102 160.288 54.7635 160.24 54.4222 160.144C54.0915 160.048 53.7929 159.904 53.5262 159.712C53.2702 159.52 53.0622 159.28 52.9022 158.992C52.7422 158.704 52.6622 158.368 52.6622 157.984C52.6622 157.568 52.7369 157.216 52.8862 156.928C53.0355 156.629 53.2329 156.384 53.4782 156.192C53.7342 155.989 54.0275 155.829 54.3582 155.712C54.6889 155.595 55.0302 155.509 55.3822 155.456C55.7449 155.392 56.1075 155.355 56.4702 155.344C56.8329 155.323 57.1742 155.312 57.4942 155.312H57.9742V155.104C57.9742 154.624 57.8089 154.267 57.4782 154.032C57.1475 153.787 56.7262 153.664 56.2142 153.664C55.8089 153.664 55.4302 153.739 55.0782 153.888C54.7262 154.027 54.4222 154.219 54.1662 154.464L53.1582 153.456C53.5849 153.019 54.0809 152.704 54.6462 152.512C55.2222 152.32 55.8142 152.224 56.4222 152.224C56.9662 152.224 57.4249 152.288 57.7982 152.416C58.1715 152.533 58.4809 152.688 58.7262 152.88C58.9715 153.072 59.1582 153.296 59.2862 153.552C59.4249 153.797 59.5209 154.048 59.5742 154.304C59.6382 154.56 59.6755 154.811 59.6862 155.056C59.6969 155.291 59.7022 155.499 59.7022 155.68V160.096H57.9742V159.04ZM57.8622 156.656H57.4622C57.1955 156.656 56.8969 156.667 56.5662 156.688C56.2355 156.709 55.9209 156.763 55.6222 156.848C55.3342 156.923 55.0889 157.04 54.8862 157.2C54.6835 157.349 54.5822 157.563 54.5822 157.84C54.5822 158.021 54.6195 158.176 54.6942 158.304C54.7795 158.421 54.8862 158.523 55.0142 158.608C55.1422 158.693 55.2862 158.757 55.4462 158.8C55.6062 158.832 55.7662 158.848 55.9262 158.848C56.5875 158.848 57.0729 158.693 57.3822 158.384C57.7022 158.064 57.8622 157.632 57.8622 157.088V156.656Z" fill="white"/>
<path d="M61.7679 152.416H63.5919V153.648H63.6239C63.8053 153.264 64.0826 152.933 64.4559 152.656C64.8293 152.368 65.3359 152.224 65.9759 152.224C66.4879 152.224 66.9199 152.309 67.2719 152.48C67.6346 152.651 67.9279 152.875 68.1519 153.152C68.3759 153.429 68.5359 153.749 68.6319 154.112C68.7279 154.475 68.7759 154.853 68.7759 155.248V160.096H66.8559V156.208C66.8559 155.995 66.8453 155.76 66.8239 155.504C66.8026 155.237 66.7439 154.992 66.6479 154.768C66.5626 154.533 66.4239 154.341 66.2319 154.192C66.0399 154.032 65.7786 153.952 65.4479 153.952C65.1279 153.952 64.8559 154.005 64.6319 154.112C64.4186 154.219 64.2373 154.363 64.0879 154.544C63.9493 154.725 63.8479 154.933 63.7839 155.168C63.7199 155.403 63.6879 155.648 63.6879 155.904V160.096H61.7679V152.416Z" fill="white"/>
<path d="M75.6898 148H77.6098V155.6L80.5698 152.416H83.0338L79.7378 155.904L83.2418 160.096H80.6978L77.6418 156.176H77.6098V160.096H75.6898V148Z" fill="white"/>
<path d="M85.8196 156.928C85.8836 157.504 86.1076 157.952 86.4916 158.272C86.8756 158.592 87.3396 158.752 87.8836 158.752C88.3636 158.752 88.7636 158.656 89.0836 158.464C89.4142 158.261 89.7022 158.011 89.9476 157.712L91.3236 158.752C90.8756 159.307 90.3742 159.701 89.8196 159.936C89.2649 160.171 88.6836 160.288 88.0756 160.288C87.4996 160.288 86.9556 160.192 86.4436 160C85.9316 159.808 85.4889 159.536 85.1156 159.184C84.7422 158.832 84.4436 158.411 84.2196 157.92C84.0062 157.419 83.8996 156.864 83.8996 156.256C83.8996 155.648 84.0062 155.099 84.2196 154.608C84.4436 154.107 84.7422 153.68 85.1156 153.328C85.4889 152.976 85.9316 152.704 86.4436 152.512C86.9556 152.32 87.4996 152.224 88.0756 152.224C88.6089 152.224 89.0942 152.32 89.5316 152.512C89.9796 152.693 90.3582 152.96 90.6676 153.312C90.9876 153.664 91.2329 154.101 91.4036 154.624C91.5849 155.136 91.6756 155.728 91.6756 156.4V156.928H85.8196ZM89.7556 155.488C89.7449 154.923 89.5689 154.48 89.2276 154.16C88.8862 153.829 88.4116 153.664 87.8036 153.664C87.2276 153.664 86.7689 153.829 86.4276 154.16C86.0969 154.491 85.8942 154.933 85.8196 155.488H89.7556Z" fill="white"/>
<path d="M98.2054 148H100.125V155.6L103.085 152.416H105.549L102.253 155.904L105.757 160.096H103.213L100.157 156.176H100.125V160.096H98.2054V148Z" fill="white"/>
<path d="M106.831 152.416H108.751V160.096H106.831V152.416ZM106.559 149.808C106.559 149.499 106.671 149.232 106.895 149.008C107.13 148.773 107.423 148.656 107.775 148.656C108.127 148.656 108.421 148.768 108.655 148.992C108.901 149.205 109.023 149.477 109.023 149.808C109.023 150.139 108.901 150.416 108.655 150.64C108.421 150.853 108.127 150.96 107.775 150.96C107.423 150.96 107.13 150.848 106.895 150.624C106.671 150.389 106.559 150.117 106.559 149.808Z" fill="white"/>
<path d="M110.955 152.416H112.875V153.632H112.907C113.121 153.184 113.425 152.837 113.819 152.592C114.214 152.347 114.667 152.224 115.179 152.224C115.297 152.224 115.409 152.235 115.515 152.256C115.633 152.277 115.75 152.304 115.867 152.336V154.192C115.707 154.149 115.547 154.117 115.387 154.096C115.238 154.064 115.089 154.048 114.939 154.048C114.491 154.048 114.129 154.133 113.851 154.304C113.585 154.464 113.377 154.651 113.227 154.864C113.089 155.077 112.993 155.291 112.939 155.504C112.897 155.717 112.875 155.877 112.875 155.984V160.096H110.955V152.416Z" fill="white"/>
<path d="M117.206 152.416H119.126V160.096H117.206V152.416ZM116.934 149.808C116.934 149.499 117.046 149.232 117.27 149.008C117.505 148.773 117.798 148.656 118.15 148.656C118.502 148.656 118.796 148.768 119.03 148.992C119.276 149.205 119.398 149.477 119.398 149.808C119.398 150.139 119.276 150.416 119.03 150.64C118.796 150.853 118.502 150.96 118.15 150.96C117.798 150.96 117.505 150.848 117.27 150.624C117.046 150.389 116.934 150.117 116.934 149.808Z" fill="white"/>
<defs>
<clipPath id="clip0">
<rect width="80" height="80" fill="white" transform="translate(40.9072 24)"/>
</clipPath>
</defs>
</svg>
