<svg width="48" height="48" viewBox="0 0 48 48" fill="none" xmlns="http://www.w3.org/2000/svg">
<circle cx="23.9997" cy="24" r="17.28" fill="white"/>
<path d="M24.8797 24L28.6177 20.2618C28.861 20.0187 28.861 19.6255 28.6177 19.3824C28.3746 19.1392 27.9814 19.1392 27.7383 19.3824L24.0001 23.1205L20.2621 19.3824C20.0188 19.1392 19.6258 19.1392 19.3826 19.3824C19.1394 19.6255 19.1394 20.0187 19.3826 20.2618L23.1207 24L19.3826 27.7381C19.1394 27.9813 19.1394 28.3744 19.3826 28.6176C19.5038 28.7389 19.6632 28.7998 19.8224 28.7998C19.9816 28.7998 20.1408 28.7389 20.2621 28.6176L24.0001 24.8794L27.7383 28.6176C27.8596 28.7389 28.0188 28.7998 28.178 28.7998C28.3372 28.7998 28.4965 28.7389 28.6177 28.6176C28.861 28.3744 28.861 27.9813 28.6177 27.7381L24.8797 24Z" fill="#142DC5"/>
</svg>
