<svg width="24" height="24" viewBox="0 0 24 24" fill="none" xmlns="http://www.w3.org/2000/svg">
<path d="M2.60307 17.007C2.48667 16.8909 2.39431 16.7529 2.33129 16.6011C2.26828 16.4492 2.23584 16.2864 2.23584 16.122C2.23584 15.9576 2.26828 15.7948 2.33129 15.6429C2.39431 15.491 2.48667 15.3531 2.60307 15.237L10.9131 6.92697C11.0056 6.83427 11.1155 6.76072 11.2365 6.71054C11.3574 6.66036 11.4871 6.63453 11.6181 6.63453C11.749 6.63453 11.8787 6.66036 11.9997 6.71054C12.1207 6.76072 12.2306 6.83427 12.3231 6.92697L20.6331 15.237C21.1231 15.727 21.1231 16.517 20.6331 17.007C20.1431 17.497 19.3531 17.497 18.8631 17.007L11.6131 9.76697L4.36307 17.017C3.88307 17.497 3.08307 17.497 2.60307 17.007Z" fill="#0047D0"/>
</svg>
