<svg width="24" height="24" viewBox="0 0 24 24" fill="none" xmlns="http://www.w3.org/2000/svg">
<path d="M16.7067 1.50952L17.0159 1.20028C17.2905 0.925738 17.2905 0.480519 17.0159 0.205925C16.7414 -0.0686215 16.2962 -0.0686215 16.0216 0.205925L14.5153 1.71221C14.3834 1.84407 14.3093 2.02289 14.3093 2.20936C14.3093 2.39583 14.3834 2.57471 14.5153 2.70652L16.0216 4.21275C16.2961 4.4873 16.7412 4.48744 17.0159 4.21275C17.2905 3.93816 17.2905 3.49299 17.0159 3.21839L16.7145 2.91694C19.1432 3.01983 21.0875 5.02758 21.0875 7.48116C21.0875 7.86947 21.4023 8.18429 21.7906 8.18429C22.1789 8.18429 22.4937 7.86947 22.4937 7.48116C22.4937 4.2495 19.9147 1.60918 16.7067 1.50952Z" fill="#0047D0"/>
<path d="M16.5187 6.77813H7.4812C7.09289 6.77813 6.77808 7.09294 6.77808 7.48125V16.5188C6.77808 16.9071 7.09289 17.2219 7.4812 17.2219H16.5187C16.907 17.2219 17.2218 16.9071 17.2218 16.5188V7.48125C17.2218 7.0929 16.9071 6.77813 16.5187 6.77813ZM15.8156 15.8156H8.18433V8.18438H15.8156V15.8156Z" fill="#0047D0"/>
<path d="M7.9784 19.7872C7.7039 19.5127 7.25873 19.5125 6.98404 19.7872C6.70944 20.0618 6.70944 20.507 6.98404 20.7816L7.28549 21.083C4.85676 20.9801 2.91248 18.9724 2.91248 16.5188C2.91248 16.1305 2.59766 15.8157 2.20935 15.8157C1.82104 15.8157 1.50623 16.1305 1.50623 16.5188C1.50623 19.7505 4.08529 22.3908 7.29323 22.4905L6.98399 22.7997C6.7094 23.0743 6.7094 23.5195 6.98399 23.7941C7.25854 24.0686 7.70376 24.0686 7.97835 23.7941L9.48463 22.2878C9.61649 22.1559 9.6906 21.9771 9.6906 21.7906C9.6906 21.6042 9.61654 21.4253 9.48463 21.2935L7.9784 19.7872Z" fill="#0047D0"/>
</svg>
