<svg width="24" height="24" viewBox="0 0 24 24" fill="none" xmlns="http://www.w3.org/2000/svg">
<path d="M2.60307 7.00329C2.48667 7.1194 2.39431 7.25734 2.33129 7.4092C2.26828 7.56107 2.23584 7.72387 2.23584 7.88829C2.23584 8.05271 2.26828 8.21551 2.33129 8.36737C2.39431 8.51924 2.48667 8.65717 2.60307 8.77329L10.9131 17.0833C11.0056 17.176 11.1155 17.2495 11.2365 17.2997C11.3574 17.3499 11.4871 17.3757 11.6181 17.3757C11.749 17.3757 11.8787 17.3499 11.9997 17.2997C12.1207 17.2495 12.2306 17.176 12.3231 17.0833L20.6331 8.77329C21.1231 8.28329 21.1231 7.49329 20.6331 7.00329C20.1431 6.51329 19.3531 6.51329 18.8631 7.00329L11.6131 14.2433L4.36307 6.99329C3.88307 6.51329 3.08307 6.51329 2.60307 7.00329Z" fill="#0047D0"/>
</svg>
