<svg xmlns="http://www.w3.org/2000/svg" width="133" height="60" viewBox="0 0 133 60">
    <g fill="none" fill-rule="evenodd">
        <g fill="#4E4E4E" fill-rule="nonzero">
            <g>
                <path d="M22.896 29.022c2.561 0 5-.014 7.436.023.223 0 .445.325.668.498l-.134.28c-.24.041-.482.078-.723.127-2.18.439-2.727 1.198-2.796 4.002-.038 1.499-.058 3.002.015 4.5.075.582-.253 1.139-.785 1.335-2.802 1.243-5.667 2.15-8.782 2.206-3.245.058-6.415-.208-9.346-1.674C3.692 37.947.985 33.933.217 28.559c-.912-6.264 1.077-11.518 5.514-15.725 2.345-2.224 5.206-3.323 8.435-3.732 3.455-.439 6.434.584 9.345 2.233 1.306.741 2.532.988 3.782-.296v8.826c-.839.462-1.059-.087-1.257-.71-.668-2.08-1.462-4.081-3.048-5.61-1.5-1.466-3.429-2.37-5.48-2.57-3.38-.386-6.23.614-8.56 3.113-2.056 2.21-2.988 4.98-3.418 7.985-.48 3.35-.247 6.618.904 9.782 1.513 4.157 4.098 7.244 8.481 8.122 2.475.514 5.045.14 7.287-1.062.363-.192.652-.903.668-1.386.058-2.764.026-5.533.026-8.507zM61.688 31.37c-3.719 0-7.402 0-11.085.022-.306.033-.58.216-.74.493-.812 1.952-1.606 3.915-2.332 5.9-.649 1.765.241 2.91 2.314 3.011.716.033 1.185.17.92 1.121H43c.912-2.192 1.789-4.278 2.645-6.372 2.044-4.941 4.077-9.89 6.134-14.827 1.54-3.696 3.106-7.38 4.696-11.054.174-.342.482-.584.841-.663.206-.024.566.403.671.708 3.64 9.658 7.263 19.317 10.87 28.977.39 1.041.73 2.105 1.143 3.304-1.342 0-2.625.038-3.9-.035-.244-.014-.561-.432-.67-.734-1.269-3.257-2.492-6.532-3.742-9.85zm-.783-2.17l-4.92-12.26c-1.728 4.236-3.342 8.189-5.006 12.26h9.926zM133 42h-4.367c-1.233-3.27-2.461-6.553-3.725-9.81-.13-.333-.587-.738-.895-.742-3.65-.052-7.298-.033-11.01-.033-.803 2.051-1.651 4.065-2.38 6.127-.77 2.182-.092 3.208 2.12 3.31.723.035 1.168.19.918 1.139H106c.367-.972.691-1.918 1.074-2.837 1.468-3.522 2.969-7.03 4.432-10.555 2.05-4.905 4.063-9.829 6.077-14.743.604-1.46 1.208-2.922 1.861-4.359.112-.236.517-.541.716-.492.324.109.59.356.732.681.854 2.104 1.666 4.231 2.463 6.359 2.005 5.38 4.002 10.763 5.994 16.15 1.192 3.217 2.394 6.427 3.651 9.805zm-14.075-25.064c-1.745 4.29-3.356 8.252-4.99 12.276h9.912l-4.922-12.276zM85 11L90 11 90 42 85 42zM37.844 54.618L37.844 51.092 39 51 39 59.9 37.867 59.9 37.867 56.115 34.195 56.115 34.195 59.905 33 60 33 51.1 34.143 51.1 34.143 54.618zM58 55.538c-.016 1.825-1.132 3.46-2.826 4.139-1.694.679-3.63.267-4.902-1.042-1.271-1.309-1.626-3.256-.899-4.93.728-1.673 2.395-2.742 4.22-2.704 1.187.012 2.32.498 3.148 1.35.828.852 1.28 2 1.258 3.187zm-1.589 0c0-1.853-1.188-3.176-2.872-3.216-1.683-.04-2.93 1.326-2.95 3.144-.022 1.819 1.185 3.177 2.87 3.214 1.687.037 2.939-1.305 2.952-3.134v-.008zM89 56.951c-.024.464-.04.73-.057 1.049H84v-7h4.925v.957h-3.601v1.852h3.601v1.084h-3.601v2.062L89 56.951zM55.788 6c-.494-.238-1.073-.38-1.466-.734-1.552-1.43-3.039-2.928-4.545-4.392C49.562.665 49.377.43 49 0c1.624 0 2.991 0 4.356.015.208.022.392.138.498.313.73 1.801 1.43 3.614 2.146 5.423L55.788 6zM112 .01c.99 0 2.456-.035 3.915.029.28.013.66.359.784.637.774 1.7 1.487 3.423 2.301 5.324-.542-.093-1.074-.036-1.29-.246-1.978-1.92-3.908-3.907-5.71-5.745zM73 52h-2.297v6h-1.378v-5.968h-2.208L67 51h5.887L73 52zM101.357 56.999L105 56.999 105 58 100 58 100 51 101.357 51z" transform="translate(-653 -30) translate(653 30)"/>
            </g>
        </g>
    </g>
</svg>
