<?xml version="1.0" encoding="UTF-8"?>
<svg width="330px" height="330px" viewBox="0 0 330 330" version="1.1" xmlns="http://www.w3.org/2000/svg" xmlns:xlink="http://www.w3.org/1999/xlink">
    <!-- Generator: Sketch 58 (84663) - https://sketch.com -->
    <title>icon-close</title>
    <desc>Created with Sketch.</desc>
    <g id="Page-1" stroke="none" stroke-width="1" fill="none" fill-rule="evenodd">
        <g id="icon-close" fill="#FFFFFF" fill-rule="nonzero">
            <path d="M194.800781,164.769531 L323.011719,36.554688 C331.355469,28.214844 331.355469,14.730469 323.011719,6.390625 C314.671875,-1.949219 301.1875,-1.949219 292.847656,6.390625 L164.632812,134.605469 L36.421875,6.390625 C28.078125,-1.949219 14.597656,-1.949219 6.257812,6.390625 C-2.085938,14.730469 -2.085938,28.214844 6.257812,36.554688 L134.46875,164.769531 L6.257812,292.984375 C-2.085938,301.324219 -2.085938,314.808594 6.257812,323.148438 C10.414062,327.308594 15.878906,329.398438 21.339844,329.398438 C26.800781,329.398438 32.261719,327.308594 36.421875,323.148438 L164.632812,194.933594 L292.847656,323.148438 C297.007812,327.308594 302.46875,329.398438 307.929688,329.398438 C313.390625,329.398438 318.851562,327.308594 323.011719,323.148438 C331.355469,314.808594 331.355469,301.324219 323.011719,292.984375 L194.800781,164.769531 Z" id="Path"></path>
        </g>
    </g>
</svg>