<svg width="100" height="100" viewBox="0 0 100 100" xmlns="http://www.w3.org/2000/svg" xmlns:xlink="http://www.w3.org/1999/xlink"><title>Arrow</title><defs><circle id="b" cx="40" cy="40" r="40"/><filter x="-21.2%" y="-16.2%" width="142.5%" height="142.5%" filterUnits="objectBoundingBox" id="a"><feOffset dy="4" in="SourceAlpha" result="shadowOffsetOuter1"/><feGaussianBlur stdDeviation="5" in="shadowOffsetOuter1" result="shadowBlurOuter1"/><feColorMatrix values="0 0 0 0 0 0 0 0 0 0 0 0 0 0 0 0 0 0 0.5 0" in="shadowBlurOuter1"/></filter><path d="M8.293 5.707a1 1 0 0 1 1.414-1.414l7 7a1 1 0 0 1 0 1.414l-7 7a1 1 0 1 1-1.414-1.414L14.586 12 8.293 5.707z" id="c"/><path d="M16.707 5.707L10.414 12l6.293 6.293a1 1 0 0 1-1.414 1.414l-7-7a1 1 0 0 1 0-1.414l7-7a1 1 0 0 1 1.414 1.414z" id="e"/></defs><g fill="none" fill-rule="evenodd"><g transform="translate(10 6)"><use fill="#000" filter="url(#a)" xlink:href="#b"/><use fill="#FFF" xlink:href="#b"/></g><g transform="translate(50 34)"><path d="M0 0h24v24H0z"/><mask id="d" fill="#fff"><use xlink:href="#c"/></mask><use fill="#3247C6" fill-rule="nonzero" xlink:href="#c"/><g mask="url(#d)" fill="gray"><path d="M0 0h24v24H0z"/></g></g><g transform="translate(26 34)"><path d="M0 0h24v24H0z"/><mask id="f" fill="#fff"><use xlink:href="#e"/></mask><use fill="#3247C6" fill-rule="nonzero" xlink:href="#e"/><g mask="url(#f)" fill="gray"><path d="M0 0h24v24H0z"/></g></g></g></svg>