<svg xmlns="http://www.w3.org/2000/svg" width="157" height="300" viewBox="0 0 157 300">
    <g fill="none" fill-rule="evenodd">
        <g>
            <g>
                <g>
                    <path fill="#D3D3D0" d="M0 0H23.016V38H0z" transform="translate(-1285 -4927) translate(0 4927) translate(1285.892)"/>
                    <path fill="#C2D2D2" d="M23.016 0H46.032V38H23.016z" transform="translate(-1285 -4927) translate(0 4927) translate(1285.892)"/>
                    <path fill="#7B7256" d="M0 37H23.016V75H0z" transform="translate(-1285 -4927) translate(0 4927) translate(1285.892)"/>
                    <path fill="#939A93" d="M23.016 37H46.032V75H23.016z" transform="translate(-1285 -4927) translate(0 4927) translate(1285.892)"/>
                    <path fill="#CFC9C0" d="M0 75H23.016V113H0z" transform="translate(-1285 -4927) translate(0 4927) translate(1285.892)"/>
                    <path fill="#797163" d="M23.016 75H46.032V113H23.016z" transform="translate(-1285 -4927) translate(0 4927) translate(1285.892)"/>
                    <path fill="#B9B5AE" d="M0 113H23.016V151H0z" transform="translate(-1285 -4927) translate(0 4927) translate(1285.892)"/>
                    <path fill="#C5C2BC" d="M23.016 113H46.032V151H23.016z" transform="translate(-1285 -4927) translate(0 4927) translate(1285.892)"/>
                    <path fill="#D6D4D3" d="M0 149H23.016V187H0z" transform="translate(-1285 -4927) translate(0 4927) translate(1285.892)"/>
                    <path fill="#E5E7E6" d="M23.016 149H46.032V187H23.016z" transform="translate(-1285 -4927) translate(0 4927) translate(1285.892)"/>
                    <path fill="#E8E8E7" d="M0 187H23.016V225H0z" transform="translate(-1285 -4927) translate(0 4927) translate(1285.892)"/>
                    <path fill="#A2957F" d="M23.016 187H46.032V225H23.016z" transform="translate(-1285 -4927) translate(0 4927) translate(1285.892)"/>
                    <path fill="#85898E" d="M0 225H23.016V263H0z" transform="translate(-1285 -4927) translate(0 4927) translate(1285.892)"/>
                    <path fill="#C7C1B0" d="M23.016 225H46.032V263H23.016z" transform="translate(-1285 -4927) translate(0 4927) translate(1285.892)"/>
                    <path fill="#DEE4E2" d="M0 262H23.016V300H0z" transform="translate(-1285 -4927) translate(0 4927) translate(1285.892)"/>
                    <path fill="#B2B2AC" d="M23.016 262H46.032V300H23.016z" transform="translate(-1285 -4927) translate(0 4927) translate(1285.892)"/>
                    <path fill="#C8BA8E" d="M44.031 0H67.047V38H44.031z" transform="translate(-1285 -4927) translate(0 4927) translate(1285.892)"/>
                    <path fill="#906D4B" d="M44.031 37H67.047V75H44.031z" transform="translate(-1285 -4927) translate(0 4927) translate(1285.892)"/>
                    <path fill="#C1A586" d="M44.031 75H67.047V113H44.031z" transform="translate(-1285 -4927) translate(0 4927) translate(1285.892)"/>
                    <path fill="#B1986E" d="M44.031 113H67.047V151H44.031z" transform="translate(-1285 -4927) translate(0 4927) translate(1285.892)"/>
                    <path fill="#F1E6D3" d="M44.031 149H67.047V187H44.031z" transform="translate(-1285 -4927) translate(0 4927) translate(1285.892)"/>
                    <path fill="#E9C5B6" d="M44.031 187H67.047V225H44.031z" transform="translate(-1285 -4927) translate(0 4927) translate(1285.892)"/>
                    <path fill="#DBCFC1" d="M44.031 225H67.047V263H44.031z" transform="translate(-1285 -4927) translate(0 4927) translate(1285.892)"/>
                    <path fill="#B5A29B" d="M44.031 262H67.047V300H44.031z" transform="translate(-1285 -4927) translate(0 4927) translate(1285.892)"/>
                    <path fill="#C1AB65" d="M67.047 0H90.06299999999999V38H67.047z" transform="translate(-1285 -4927) translate(0 4927) translate(1285.892)"/>
                    <g>
                        <path fill="#78CFCA" d="M0 0H11.008V38H0z" transform="translate(-1285 -4927) translate(0 4927) translate(1285.892) translate(90.063)"/>
                        <path fill="#006671" d="M11.008 0H22.016V38H11.008z" transform="translate(-1285 -4927) translate(0 4927) translate(1285.892) translate(90.063)"/>
                        <path fill="#45A5A2" d="M0 37H11.008V75H0z" transform="translate(-1285 -4927) translate(0 4927) translate(1285.892) translate(90.063)"/>
                        <path fill="#0095CA" d="M11.008 37H22.016V75H11.008z" transform="translate(-1285 -4927) translate(0 4927) translate(1285.892) translate(90.063)"/>
                        <path fill="#B6D8D9" d="M0 75H11.008V113H0z" transform="translate(-1285 -4927) translate(0 4927) translate(1285.892) translate(90.063)"/>
                        <path fill="#0094AC" d="M11.008 75H22.016V113H11.008z" transform="translate(-1285 -4927) translate(0 4927) translate(1285.892) translate(90.063)"/>
                        <path fill="#7284B8" d="M0 113H11.008V151H0z" transform="translate(-1285 -4927) translate(0 4927) translate(1285.892) translate(90.063)"/>
                        <path fill="#6F7195" d="M11.008 113H22.016V151H11.008z" transform="translate(-1285 -4927) translate(0 4927) translate(1285.892) translate(90.063)"/>
                        <path fill="#C0DFC9" d="M0 149H11.008V187H0z" transform="translate(-1285 -4927) translate(0 4927) translate(1285.892) translate(90.063)"/>
                        <path fill="#89D1D7" d="M11.008 149H22.016V187H11.008z" transform="translate(-1285 -4927) translate(0 4927) translate(1285.892) translate(90.063)"/>
                        <path fill="#46B4A8" d="M0 187H11.008V225H0z" transform="translate(-1285 -4927) translate(0 4927) translate(1285.892) translate(90.063)"/>
                        <path fill="#6CCBA2" d="M11.008 187H22.016V225H11.008z" transform="translate(-1285 -4927) translate(0 4927) translate(1285.892) translate(90.063)"/>
                        <path fill="#1C7B8A" d="M0 225H11.008V263H0z" transform="translate(-1285 -4927) translate(0 4927) translate(1285.892) translate(90.063)"/>
                        <path fill="#0566A6" d="M11.008 225H22.016V263H11.008z" transform="translate(-1285 -4927) translate(0 4927) translate(1285.892) translate(90.063)"/>
                        <path fill="#7FCECA" d="M0 262H11.008V300H0z" transform="translate(-1285 -4927) translate(0 4927) translate(1285.892) translate(90.063)"/>
                        <path fill="#00ADBD" d="M11.008 262H22.016V300H11.008z" transform="translate(-1285 -4927) translate(0 4927) translate(1285.892) translate(90.063)"/>
                        <path fill="#FFC600" d="M22.015 0H33.022999999999996V38H22.015z" transform="translate(-1285 -4927) translate(0 4927) translate(1285.892) translate(90.063)"/>
                        <path fill="#F6C400" d="M22.015 37H33.022999999999996V75H22.015z" transform="translate(-1285 -4927) translate(0 4927) translate(1285.892) translate(90.063)"/>
                        <path fill="#E0DA22" d="M22.015 75H33.022999999999996V113H22.015z" transform="translate(-1285 -4927) translate(0 4927) translate(1285.892) translate(90.063)"/>
                        <path fill="#DA941F" d="M22.015 113H33.022999999999996V151H22.015z" transform="translate(-1285 -4927) translate(0 4927) translate(1285.892) translate(90.063)"/>
                        <path fill="#E2D800" d="M22.015 149H33.022999999999996V187H22.015z" transform="translate(-1285 -4927) translate(0 4927) translate(1285.892) translate(90.063)"/>
                        <path fill="#B29B00" d="M22.015 187H33.022999999999996V225H22.015z" transform="translate(-1285 -4927) translate(0 4927) translate(1285.892) translate(90.063)"/>
                        <path fill="#AF732B" d="M22.015 225H33.022999999999996V263H22.015z" transform="translate(-1285 -4927) translate(0 4927) translate(1285.892) translate(90.063)"/>
                        <path fill="#FE9400" d="M22.015 262H33.022999999999996V300H22.015z" transform="translate(-1285 -4927) translate(0 4927) translate(1285.892) translate(90.063)"/>
                        <path fill="#E7C000" d="M33.023 0H44.031000000000006V38H33.023z" transform="translate(-1285 -4927) translate(0 4927) translate(1285.892) translate(90.063)"/>
                        <path fill="#FE7A00" d="M33.023 37H44.031000000000006V75H33.023z" transform="translate(-1285 -4927) translate(0 4927) translate(1285.892) translate(90.063)"/>
                        <path fill="#E6F87E" d="M33.023 75H44.031000000000006V113H33.023z" transform="translate(-1285 -4927) translate(0 4927) translate(1285.892) translate(90.063)"/>
                        <path fill="#FFE800" d="M33.023 113H44.031000000000006V151H33.023z" transform="translate(-1285 -4927) translate(0 4927) translate(1285.892) translate(90.063)"/>
                        <path fill="#E0B322" d="M33.023 149H44.031000000000006V187H33.023z" transform="translate(-1285 -4927) translate(0 4927) translate(1285.892) translate(90.063)"/>
                        <path fill="#E0693A" d="M33.023 187H44.031000000000006V225H33.023z" transform="translate(-1285 -4927) translate(0 4927) translate(1285.892) translate(90.063)"/>
                        <path fill="#EDBD00" d="M33.023 225H44.031000000000006V263H33.023z" transform="translate(-1285 -4927) translate(0 4927) translate(1285.892) translate(90.063)"/>
                        <path fill="#F70" d="M33.023 262H44.031000000000006V300H33.023z" transform="translate(-1285 -4927) translate(0 4927) translate(1285.892) translate(90.063)"/>
                        <path fill="#C10084" d="M44.031 0H55.039V38H44.031z" transform="translate(-1285 -4927) translate(0 4927) translate(1285.892) translate(90.063)"/>
                        <path fill="#F20000" d="M44.031 37H55.039V75H44.031z" transform="translate(-1285 -4927) translate(0 4927) translate(1285.892) translate(90.063)"/>
                        <path fill="#DF98C1" d="M44.031 75H55.039V113H44.031z" transform="translate(-1285 -4927) translate(0 4927) translate(1285.892) translate(90.063)"/>
                        <path fill="#959696" d="M44.031 113H55.039V151H44.031z" transform="translate(-1285 -4927) translate(0 4927) translate(1285.892) translate(90.063)"/>
                        <path fill="#FB3600" d="M44.031 149H55.039V187H44.031z" transform="translate(-1285 -4927) translate(0 4927) translate(1285.892) translate(90.063)"/>
                        <path fill="#ED8028" d="M44.031 187H55.039V225H44.031z" transform="translate(-1285 -4927) translate(0 4927) translate(1285.892) translate(90.063)"/>
                        <path fill="#FD59B2" d="M44.031 225H55.039V263H44.031z" transform="translate(-1285 -4927) translate(0 4927) translate(1285.892) translate(90.063)"/>
                        <path fill="#FF003F" d="M44.031 262H55.039V300H44.031z" transform="translate(-1285 -4927) translate(0 4927) translate(1285.892) translate(90.063)"/>
                        <path fill="#FF7638" d="M55.038 0H65.045V38H55.038z" transform="translate(-1285 -4927) translate(0 4927) translate(1285.892) translate(90.063)"/>
                        <path fill="#FF0080" d="M55.038 37H65.045V75H55.038z" transform="translate(-1285 -4927) translate(0 4927) translate(1285.892) translate(90.063)"/>
                        <path fill="#FF002D" d="M55.038 75H65.045V113H55.038z" transform="translate(-1285 -4927) translate(0 4927) translate(1285.892) translate(90.063)"/>
                        <path fill="#A00" d="M55.038 113H65.045V151H55.038z" transform="translate(-1285 -4927) translate(0 4927) translate(1285.892) translate(90.063)"/>
                        <path fill="#F71033" d="M55.038 149H65.045V187H55.038z" transform="translate(-1285 -4927) translate(0 4927) translate(1285.892) translate(90.063)"/>
                        <path fill="#F60C3F" d="M55.038 187H65.045V225H55.038z" transform="translate(-1285 -4927) translate(0 4927) translate(1285.892) translate(90.063)"/>
                        <path fill="#FC1D48" d="M55.038 225H65.045V263H55.038z" transform="translate(-1285 -4927) translate(0 4927) translate(1285.892) translate(90.063)"/>
                        <path fill="#E42121" d="M55.038 262H65.045V300H55.038z" transform="translate(-1285 -4927) translate(0 4927) translate(1285.892) translate(90.063)"/>
                    </g>
                    <path fill="#A68A32" d="M67.047 37H90.06299999999999V75H67.047z" transform="translate(-1285 -4927) translate(0 4927) translate(1285.892)"/>
                    <path fill="#A16432" d="M67.047 75H90.06299999999999V113H67.047z" transform="translate(-1285 -4927) translate(0 4927) translate(1285.892)"/>
                    <path fill="#CAB094" d="M67.047 113H90.06299999999999V151H67.047z" transform="translate(-1285 -4927) translate(0 4927) translate(1285.892)"/>
                    <path fill="#E7C99B" d="M67.047 149H90.06299999999999V187H67.047z" transform="translate(-1285 -4927) translate(0 4927) translate(1285.892)"/>
                    <path fill="#EED0B4" d="M67.047 187H90.06299999999999V225H67.047z" transform="translate(-1285 -4927) translate(0 4927) translate(1285.892)"/>
                    <path fill="#C1A37E" d="M67.047 225H90.06299999999999V263H67.047z" transform="translate(-1285 -4927) translate(0 4927) translate(1285.892)"/>
                    <path fill="#DBCAC1" d="M67.047 262H90.06299999999999V300H67.047z" transform="translate(-1285 -4927) translate(0 4927) translate(1285.892)"/>
                </g>
            </g>
        </g>
    </g>
</svg>
