<svg width="156" height="43" viewBox="0 0 156 43" fill="none" xmlns="http://www.w3.org/2000/svg">
<path d="M5.334 0.379883L8.392 10.6099L11.406 0.379883H15.916L10.174 15.9999H6.61L0.802002 0.379883H5.334Z" fill="white"/>
<path d="M17.0803 15.9999V0.379883H21.3703V15.9999H17.0803Z" fill="white"/>
<path d="M24.0627 15.9999V0.379883H31.2347C31.9974 0.379883 32.7014 0.541216 33.3467 0.863883C33.992 1.17188 34.542 1.58255 34.9967 2.09588C35.466 2.59455 35.8327 3.17388 36.0967 3.83388C36.3607 4.47922 36.4927 5.13188 36.4927 5.79188C36.4927 6.70122 36.2947 7.55188 35.8987 8.34388C35.5027 9.12122 34.9527 9.75922 34.2487 10.2579L37.7687 15.9999H32.9287L29.9587 11.2039H28.3527V15.9999H24.0627ZM28.3527 7.46388H31.0587C31.3227 7.46388 31.5647 7.31722 31.7847 7.02388C32.0194 6.73055 32.1367 6.31988 32.1367 5.79188C32.1367 5.24922 32.0047 4.83855 31.7407 4.55988C31.4767 4.26655 31.2127 4.11988 30.9487 4.11988H28.3527V7.46388Z" fill="white"/>
<path d="M50.924 4.11988H46.436V15.9999H42.146V4.11988H37.636V0.379883H50.924V4.11988Z" fill="white"/>
<path d="M59.2845 12.3259C59.7832 12.3259 60.2085 12.2159 60.5605 11.9959C60.9125 11.7759 61.1985 11.4899 61.4185 11.1379C61.6385 10.7712 61.7999 10.3532 61.9025 9.88388C62.0052 9.41455 62.0565 8.92322 62.0565 8.40988V0.379883H66.3465V8.40988C66.3465 9.49522 66.2072 10.5146 65.9285 11.4679C65.6499 12.4066 65.2172 13.2206 64.6305 13.9099C64.0439 14.5992 63.3032 15.1419 62.4085 15.5379C61.5285 15.9339 60.4872 16.1319 59.2845 16.1319C58.0379 16.1319 56.9672 15.9266 56.0725 15.5159C55.1925 15.0906 54.4665 14.5259 53.8945 13.8219C53.3225 13.1179 52.9045 12.3039 52.6405 11.3799C52.3765 10.4412 52.2445 9.45122 52.2445 8.40988V0.379883H56.5345V8.40988C56.5345 8.92322 56.5859 9.42188 56.6885 9.90588C56.7912 10.3752 56.9525 10.7932 57.1725 11.1599C57.3925 11.5119 57.6712 11.7979 58.0085 12.0179C58.3605 12.2232 58.7859 12.3259 59.2845 12.3259Z" fill="white"/>
<path d="M66.6951 15.9999L72.5251 0.379883H76.0011L81.8091 15.9999H77.2771L76.3311 12.9419H72.1731L71.2491 15.9999H66.6951ZM74.2631 4.84588L72.8111 10.0819H75.6491L74.2631 4.84588Z" fill="white"/>
<path d="M82.9729 15.9999V0.379883H87.2629V12.2599H94.3469V15.9999H82.9729Z" fill="white"/>
<path d="M11.802 31.4839C11.362 31.2199 10.9073 30.9852 10.438 30.7799C10.042 30.6039 9.59467 30.4426 9.096 30.2959C8.612 30.1346 8.13534 30.0539 7.666 30.0539C7.28467 30.0539 6.97667 30.1125 6.742 30.2299C6.522 30.3472 6.412 30.5452 6.412 30.8239C6.412 31.0292 6.478 31.1979 6.61 31.3299C6.742 31.4619 6.93267 31.5865 7.182 31.7039C7.43134 31.8065 7.732 31.9092 8.084 32.0119C8.45067 32.1146 8.86133 32.2392 9.316 32.3859C10.0347 32.6059 10.68 32.8479 11.252 33.1119C11.8387 33.3759 12.3373 33.6912 12.748 34.0579C13.1587 34.4099 13.474 34.8425 13.694 35.3559C13.914 35.8692 14.024 36.4925 14.024 37.2259C14.024 38.1646 13.848 38.9565 13.496 39.6019C13.1587 40.2325 12.704 40.7385 12.132 41.1199C11.5747 41.5012 10.9367 41.7799 10.218 41.9559C9.514 42.1172 8.80267 42.1979 8.084 42.1979C7.512 42.1979 6.92534 42.1539 6.324 42.0659C5.72267 41.9779 5.12134 41.8532 4.52 41.6919C3.93334 41.5306 3.36134 41.3399 2.804 41.1199C2.26134 40.8999 1.75534 40.6506 1.286 40.3719L3.134 36.6099C3.64734 36.9326 4.18267 37.2185 4.74 37.4679C5.20934 37.6879 5.73734 37.8859 6.324 38.0619C6.92534 38.2379 7.534 38.3259 8.15 38.3259C8.61934 38.3259 8.942 38.2672 9.118 38.1499C9.30867 38.0179 9.404 37.8492 9.404 37.6439C9.404 37.4239 9.30867 37.2406 9.118 37.0939C8.942 36.9326 8.69267 36.7932 8.37 36.6759C8.04734 36.5585 7.67334 36.4412 7.248 36.3239C6.83734 36.2065 6.39734 36.0672 5.928 35.9059C5.23867 35.6712 4.64467 35.4219 4.146 35.1579C3.64734 34.8792 3.23667 34.5712 2.914 34.2339C2.59134 33.8819 2.34934 33.4859 2.188 33.0459C2.04134 32.6059 1.968 32.0999 1.968 31.5279C1.968 30.6625 2.122 29.8999 2.43 29.2399C2.75267 28.5799 3.18534 28.0299 3.728 27.5899C4.27067 27.1499 4.88667 26.8199 5.576 26.5999C6.28 26.3652 7.02067 26.2479 7.798 26.2479C8.37 26.2479 8.92734 26.3065 9.47 26.4239C10.0127 26.5265 10.5333 26.6659 11.032 26.8419C11.5453 27.0032 12.022 27.1865 12.462 27.3919C12.902 27.5825 13.298 27.7659 13.65 27.9419L11.802 31.4839Z" fill="white"/>
<path d="M15.9201 41.9999V26.3799H22.6521C23.4148 26.3799 24.1188 26.5412 24.7641 26.8639C25.4095 27.1719 25.9595 27.5826 26.4141 28.0959C26.8835 28.5946 27.2501 29.1739 27.5141 29.8339C27.7781 30.4792 27.9101 31.1319 27.9101 31.7919C27.9101 32.4812 27.7855 33.1559 27.5361 33.8159C27.2868 34.4612 26.9348 35.0406 26.4801 35.5539C26.0401 36.0526 25.4975 36.4559 24.8521 36.7639C24.2215 37.0572 23.5248 37.2039 22.7621 37.2039H20.2101V41.9999H15.9201ZM20.2101 33.4639H22.4761C22.7401 33.4639 22.9821 33.3466 23.2021 33.1119C23.4368 32.8626 23.5541 32.4225 23.5541 31.7919C23.5541 31.1466 23.4221 30.7066 23.1581 30.4719C22.8941 30.2372 22.6301 30.1199 22.3661 30.1199H20.2101V33.4639Z" fill="white"/>
<path d="M26.8416 41.9999L32.6716 26.3799H36.1476L41.9556 41.9999H37.4236L36.4776 38.9419H32.3196L31.3956 41.9999H26.8416ZM34.4096 30.8459L32.9576 36.0819H35.7956L34.4096 30.8459Z" fill="white"/>
<path d="M41.6598 34.0579C41.6598 33.1046 41.8285 32.1659 42.1658 31.2419C42.5031 30.3179 42.9945 29.4892 43.6398 28.7559C44.2998 28.0226 45.0918 27.4285 46.0158 26.9739C46.9545 26.5192 48.0178 26.2919 49.2058 26.2919C50.5991 26.2919 51.8165 26.6072 52.8578 27.2379C53.8991 27.8539 54.6691 28.6752 55.1678 29.7019L51.8898 32.0339C51.7578 31.6526 51.5818 31.3372 51.3618 31.0879C51.1565 30.8386 50.9291 30.6405 50.6798 30.4939C50.4305 30.3472 50.1665 30.2446 49.8878 30.1859C49.6091 30.1272 49.3525 30.0979 49.1178 30.0979C48.5751 30.0979 48.1058 30.2226 47.7098 30.4719C47.3285 30.7066 47.0058 31.0219 46.7418 31.4179C46.4925 31.7992 46.3091 32.2392 46.1918 32.7379C46.0745 33.2219 46.0158 33.7059 46.0158 34.1899C46.0158 34.7325 46.0818 35.2532 46.2138 35.7519C46.3605 36.2506 46.5658 36.6906 46.8298 37.0719C47.1085 37.4532 47.4385 37.7612 47.8198 37.9959C48.2158 38.2159 48.6631 38.3259 49.1618 38.3259C49.4111 38.3259 49.6678 38.2966 49.9318 38.2379C50.1958 38.1646 50.4451 38.0545 50.6798 37.9079C50.9291 37.7465 51.1491 37.5485 51.3398 37.3139C51.5451 37.0645 51.7065 36.7639 51.8238 36.4119L55.3218 38.5019C55.1018 39.0739 54.7645 39.5872 54.3098 40.0419C53.8698 40.4966 53.3638 40.8779 52.7918 41.1859C52.2198 41.4939 51.6111 41.7286 50.9658 41.8899C50.3205 42.0512 49.6898 42.1319 49.0738 42.1319C47.9885 42.1319 46.9911 41.9045 46.0818 41.4499C45.1725 40.9805 44.3878 40.3645 43.7278 39.6019C43.0825 38.8392 42.5765 37.9739 42.2098 37.0059C41.8431 36.0379 41.6598 35.0552 41.6598 34.0579Z" fill="white"/>
<path d="M68.0658 38.2599V41.9999H56.9338V26.3799H67.8678V30.1199H61.2238V32.3199H66.8998V35.7959H61.2238V38.2599H68.0658Z" fill="white"/>
<path d="M102.888 15.9997V7.49175H104.544V15.9997H102.888Z" fill="white"/>
<path d="M108.567 16.1197C108.311 16.1197 108.043 16.0997 107.763 16.0597C107.491 16.0197 107.223 15.9637 106.959 15.8917C106.695 15.8197 106.443 15.7317 106.203 15.6277C105.963 15.5237 105.751 15.4077 105.567 15.2797L106.215 14.1877C107.015 14.7077 107.787 14.9677 108.531 14.9677C108.867 14.9677 109.131 14.9077 109.323 14.7877C109.515 14.6677 109.611 14.4957 109.611 14.2717C109.611 14.0477 109.495 13.8837 109.263 13.7797C109.039 13.6677 108.659 13.5477 108.123 13.4197C107.715 13.3237 107.367 13.2237 107.079 13.1197C106.791 13.0157 106.559 12.8957 106.383 12.7597C106.207 12.6237 106.079 12.4677 105.999 12.2917C105.919 12.1157 105.879 11.9077 105.879 11.6677C105.879 11.3477 105.943 11.0597 106.071 10.8037C106.199 10.5477 106.375 10.3317 106.599 10.1557C106.831 9.97175 107.099 9.83175 107.403 9.73575C107.715 9.63975 108.051 9.59175 108.411 9.59175C108.859 9.59175 109.303 9.66375 109.743 9.80775C110.191 9.94375 110.607 10.1317 110.991 10.3717L110.331 11.3677C109.979 11.1437 109.647 10.9837 109.335 10.8877C109.023 10.7837 108.711 10.7317 108.399 10.7317C108.111 10.7317 107.867 10.7877 107.667 10.8997C107.475 11.0117 107.379 11.1917 107.379 11.4397C107.379 11.6557 107.471 11.8117 107.655 11.9077C107.847 12.0037 108.183 12.1117 108.663 12.2317C109.111 12.3437 109.491 12.4557 109.803 12.5677C110.123 12.6797 110.383 12.8077 110.583 12.9517C110.791 13.0957 110.939 13.2637 111.027 13.4557C111.123 13.6397 111.171 13.8637 111.171 14.1277C111.171 14.4317 111.107 14.7077 110.979 14.9557C110.859 15.2037 110.687 15.4157 110.463 15.5917C110.239 15.7597 109.963 15.8917 109.635 15.9877C109.315 16.0757 108.959 16.1197 108.567 16.1197Z" fill="white"/>
<path d="M115.093 16.1197C114.581 16.1197 114.121 16.0317 113.713 15.8557C113.305 15.6797 112.957 15.4437 112.669 15.1477C112.389 14.8437 112.173 14.4957 112.021 14.1037C111.869 13.7117 111.793 13.2997 111.793 12.8677C111.793 12.4277 111.869 12.0117 112.021 11.6197C112.173 11.2277 112.389 10.8837 112.669 10.5877C112.957 10.2837 113.305 10.0437 113.713 9.86775C114.121 9.69175 114.581 9.60375 115.093 9.60375C115.605 9.60375 116.061 9.69175 116.461 9.86775C116.869 10.0437 117.213 10.2837 117.493 10.5877C117.781 10.8837 118.001 11.2277 118.153 11.6197C118.305 12.0117 118.381 12.4277 118.381 12.8677C118.381 13.2997 118.305 13.7117 118.153 14.1037C118.001 14.4957 117.785 14.8437 117.505 15.1477C117.225 15.4437 116.881 15.6797 116.473 15.8557C116.065 16.0317 115.605 16.1197 115.093 16.1197ZM113.449 12.8677C113.449 13.1477 113.489 13.4037 113.569 13.6357C113.657 13.8597 113.773 14.0557 113.917 14.2237C114.069 14.3917 114.245 14.5237 114.445 14.6197C114.645 14.7077 114.861 14.7517 115.093 14.7517C115.325 14.7517 115.541 14.7077 115.741 14.6197C115.941 14.5237 116.113 14.3917 116.257 14.2237C116.409 14.0557 116.525 13.8557 116.605 13.6237C116.693 13.3917 116.737 13.1357 116.737 12.8557C116.737 12.5837 116.693 12.3317 116.605 12.0997C116.525 11.8677 116.409 11.6677 116.257 11.4997C116.113 11.3317 115.941 11.2037 115.741 11.1157C115.541 11.0197 115.325 10.9717 115.093 10.9717C114.861 10.9717 114.645 11.0197 114.445 11.1157C114.245 11.2117 114.069 11.3437 113.917 11.5117C113.773 11.6797 113.657 11.8797 113.569 12.1117C113.489 12.3437 113.449 12.5957 113.449 12.8677Z" fill="white"/>
<path d="M129.211 15.9997H127.603V12.4717C127.603 11.9677 127.515 11.5997 127.339 11.3677C127.163 11.1357 126.923 11.0197 126.619 11.0197C126.307 11.0197 126.011 11.1437 125.731 11.3917C125.451 11.6317 125.251 11.9477 125.131 12.3397V15.9997H123.523V12.4717C123.523 11.9677 123.435 11.5997 123.259 11.3677C123.091 11.1357 122.855 11.0197 122.551 11.0197C122.239 11.0197 121.939 11.1397 121.651 11.3797C121.371 11.6197 121.171 11.9357 121.051 12.3277V15.9997H119.443V9.71175H120.895V10.8757C121.127 10.4677 121.443 10.1557 121.843 9.93975C122.251 9.71575 122.715 9.60375 123.235 9.60375C123.763 9.60375 124.167 9.73175 124.447 9.98775C124.735 10.2437 124.923 10.5597 125.011 10.9357C125.267 10.5037 125.591 10.1757 125.983 9.95175C126.375 9.71975 126.823 9.60375 127.327 9.60375C127.711 9.60375 128.027 9.67575 128.275 9.81975C128.523 9.96375 128.715 10.1517 128.851 10.3837C128.987 10.6157 129.079 10.8797 129.127 11.1757C129.183 11.4717 129.211 11.7717 129.211 12.0757V15.9997Z" fill="white"/>
<path d="M133.515 16.1197C133.011 16.1197 132.555 16.0357 132.147 15.8677C131.739 15.6917 131.391 15.4557 131.103 15.1597C130.815 14.8637 130.591 14.5197 130.431 14.1277C130.279 13.7357 130.203 13.3237 130.203 12.8917C130.203 12.4437 130.279 12.0237 130.431 11.6317C130.583 11.2317 130.803 10.8837 131.091 10.5877C131.379 10.2837 131.727 10.0437 132.135 9.86775C132.551 9.69175 133.015 9.60375 133.527 9.60375C134.039 9.60375 134.495 9.69175 134.895 9.86775C135.303 10.0437 135.647 10.2797 135.927 10.5757C136.215 10.8717 136.431 11.2157 136.575 11.6077C136.727 11.9997 136.803 12.4077 136.803 12.8317C136.803 12.9357 136.799 13.0357 136.791 13.1317C136.791 13.2277 136.783 13.3077 136.767 13.3717H131.907C131.931 13.6197 131.991 13.8397 132.087 14.0317C132.183 14.2237 132.307 14.3877 132.459 14.5237C132.611 14.6597 132.783 14.7637 132.975 14.8357C133.167 14.9077 133.367 14.9437 133.575 14.9437C133.895 14.9437 134.195 14.8677 134.475 14.7157C134.763 14.5557 134.959 14.3477 135.063 14.0917L136.443 14.4757C136.211 14.9557 135.839 15.3517 135.327 15.6637C134.823 15.9677 134.219 16.1197 133.515 16.1197ZM135.147 12.3277C135.107 11.8557 134.931 11.4797 134.619 11.1997C134.315 10.9117 133.943 10.7677 133.503 10.7677C133.287 10.7677 133.083 10.8077 132.891 10.8877C132.707 10.9597 132.543 11.0637 132.399 11.1997C132.255 11.3357 132.135 11.4997 132.039 11.6917C131.951 11.8837 131.899 12.0957 131.883 12.3277H135.147Z" fill="white"/>
<path d="M141.504 15.6757C141.288 15.7717 141.02 15.8677 140.7 15.9637C140.388 16.0597 140.06 16.1077 139.716 16.1077C139.492 16.1077 139.28 16.0797 139.08 16.0237C138.888 15.9677 138.716 15.8797 138.564 15.7597C138.42 15.6317 138.304 15.4717 138.216 15.2797C138.128 15.0797 138.084 14.8397 138.084 14.5597V10.9477H137.268V9.71175H138.084V7.67175H139.692V9.71175H141.024V10.9477H139.692V14.0197C139.692 14.2437 139.752 14.4037 139.872 14.4997C139.992 14.5877 140.136 14.6317 140.304 14.6317C140.472 14.6317 140.636 14.6037 140.796 14.5477C140.956 14.4917 141.084 14.4437 141.18 14.4037L141.504 15.6757Z" fill="white"/>
<path d="M146.05 11.1037C145.562 11.1117 145.126 11.2077 144.742 11.3917C144.358 11.5677 144.082 11.8357 143.914 12.1957V15.9997H142.306V9.71175H143.782V11.0557C143.998 10.6237 144.278 10.2757 144.622 10.0117C144.974 9.74775 145.342 9.61575 145.726 9.61575C145.814 9.61575 145.878 9.61975 145.918 9.62775C145.966 9.62775 146.01 9.63175 146.05 9.63975V11.1037Z" fill="white"/>
<path d="M146.947 15.9997V9.71175H148.555V15.9997H146.947ZM146.947 8.83575V7.23975H148.555V8.83575H146.947Z" fill="white"/>
<path d="M149.598 12.8557C149.598 12.4157 149.674 11.9997 149.826 11.6077C149.978 11.2157 150.198 10.8717 150.486 10.5757C150.774 10.2797 151.122 10.0437 151.53 9.86775C151.938 9.69175 152.398 9.60375 152.91 9.60375C153.598 9.60375 154.182 9.75175 154.662 10.0477C155.15 10.3437 155.514 10.7317 155.754 11.2117L154.182 11.6917C154.046 11.4597 153.866 11.2837 153.642 11.1637C153.418 11.0357 153.17 10.9717 152.898 10.9717C152.666 10.9717 152.45 11.0197 152.25 11.1157C152.05 11.2037 151.874 11.3317 151.722 11.4997C151.578 11.6597 151.462 11.8557 151.374 12.0877C151.294 12.3197 151.254 12.5757 151.254 12.8557C151.254 13.1357 151.298 13.3917 151.386 13.6237C151.474 13.8557 151.59 14.0557 151.734 14.2237C151.886 14.3917 152.062 14.5237 152.262 14.6197C152.462 14.7077 152.674 14.7517 152.898 14.7517C153.186 14.7517 153.45 14.6797 153.69 14.5357C153.938 14.3917 154.11 14.2157 154.206 14.0077L155.778 14.4877C155.562 14.9677 155.206 15.3597 154.71 15.6637C154.214 15.9677 153.618 16.1197 152.922 16.1197C152.41 16.1197 151.95 16.0317 151.542 15.8557C151.134 15.6797 150.786 15.4437 150.498 15.1477C150.21 14.8437 149.986 14.4957 149.826 14.1037C149.674 13.7037 149.598 13.2877 149.598 12.8557Z" fill="white"/>
</svg>
