<svg width="169" height="169" viewBox="0 0 169 169" fill="none" xmlns="http://www.w3.org/2000/svg">
<path opacity="0.3" d="M87.0819 138.956C121.003 138.956 148.501 111.457 148.501 77.5365C148.501 43.6158 121.003 16.1176 87.0819 16.1176C53.1612 16.1176 25.663 43.6158 25.663 77.5365C25.663 111.457 53.1612 138.956 87.0819 138.956Z" fill="#FFDFC6"/>
<g opacity="0.85">
<path opacity="0.85" d="M16.1176 35.9907C16.1176 35.9907 32.7907 42.7304 81.9415 42.9995C131.092 43.2687 158.359 36.9296 158.359 36.9296V104.999C158.359 104.999 89.4088 93.0032 17.1597 104.73L16.1176 35.9907Z" fill="white"/>
<path opacity="0.85" d="M158.359 106.564C158.27 106.564 158.18 106.556 158.092 106.54C157.92 106.511 140.603 103.534 114.712 102.026C90.836 100.635 54.5729 100.242 17.4102 106.274C17.1884 106.31 16.9614 106.298 16.7448 106.239C16.5281 106.179 16.3268 106.073 16.1546 105.929C15.9824 105.785 15.8432 105.605 15.7467 105.402C15.6501 105.199 15.5984 104.978 15.595 104.753L14.5528 36.0142C14.5488 35.756 14.6087 35.5009 14.7272 35.2715C14.8457 35.0421 15.0191 34.8457 15.232 34.6996C15.4448 34.5535 15.6905 34.4623 15.9472 34.4342C16.2038 34.4061 16.4634 34.442 16.7029 34.5386C16.7936 34.5746 21.0233 36.2254 31.0788 37.8873C40.4114 39.4302 56.8106 41.297 81.9494 41.4347C130.302 41.6992 157.733 35.4728 157.999 35.4102C158.229 35.3559 158.468 35.3543 158.698 35.4053C158.928 35.4563 159.144 35.5587 159.329 35.7048C159.514 35.8509 159.664 36.037 159.767 36.2491C159.87 36.4612 159.924 36.6938 159.924 36.9296V104.999C159.924 105.414 159.759 105.812 159.466 106.106C159.172 106.399 158.774 106.564 158.359 106.564ZM84.9288 99.0231C94.8278 99.0231 104.872 99.3173 114.945 99.9041C136.156 101.143 152.667 103.362 157.794 104.16V37.8637C154.926 38.4333 147.875 39.5287 138.768 40.624C126.899 41.0449 107.403 43.7067 81.9322 43.5675C56.4617 43.4282 39.8058 41.5176 30.3402 39.9402C24.0121 38.8855 18.9545 37.8418 16.7153 37.1736L17.6964 103.902C33.7311 101.384 51.8705 99.8243 69.6531 99.2641C74.6928 99.1024 79.7847 99.022 84.9288 99.0231Z" fill="#0FA555"/>
</g>
<path d="M60.4019 149.127L65.7222 127.229L87.1602 128.471L99.8352 126.594L103.904 130.316C103.904 130.316 101.76 134.249 99.4643 140.201C97.1687 146.154 95.1407 149.909 95.1407 149.909L60.4019 149.127Z" fill="#FFF3EA"/>
<path d="M116.474 83.9335L112.667 91.8546L108.13 89.8892L108.129 82.7787L116.474 83.9335Z" fill="#FFDFC6"/>
<path d="M62.7819 144.983C62.7819 144.983 69.3995 136.846 71.1208 136.69C72.8421 136.533 93.9671 134.511 96.1578 133.645C98.3485 132.778 106.642 115.565 106.642 115.565L96.7837 113.843L78.7383 114.882L74.6698 117.449L62.7819 144.983Z" fill="#FFDFC6"/>
<path d="M108.755 106.094C108.755 106.094 110.632 115.014 110.163 119.239C109.693 123.464 111.571 115.327 107.346 124.872C103.121 134.418 91.5416 134.261 91.5416 134.261" fill="#FFDFC6"/>
<path d="M96.3926 149.146V149.127H94.8278C94.8278 148.886 94.9482 146.498 99.12 137.078C101.267 132.227 103.768 128.697 105.777 125.86C107.675 123.181 109.172 121.065 109.385 119.156C109.836 115.105 108.008 106.346 107.989 106.259C107.964 106.157 107.96 106.051 107.977 105.947C107.994 105.844 108.031 105.745 108.087 105.656C108.143 105.567 108.216 105.49 108.302 105.43C108.388 105.371 108.485 105.328 108.588 105.307C108.691 105.285 108.797 105.284 108.9 105.305C109.003 105.325 109.1 105.365 109.187 105.424C109.274 105.483 109.349 105.559 109.406 105.647C109.463 105.735 109.502 105.833 109.52 105.936C109.598 106.306 111.418 115.028 110.941 119.328C110.684 121.639 109.082 123.901 107.054 126.764C105.085 129.543 102.635 133.003 100.55 137.71C96.5381 146.78 96.3926 149.053 96.3926 149.146Z" fill="#B43939"/>
<path d="M106.72 50.6718C106.72 50.6718 108.129 46.475 112.51 44.2843C115.17 42.9526 119.552 45.8491 115.796 55.238C112.285 64.015 106.72 72.2944 106.72 72.2944V50.6718Z" fill="#FFDFC6"/>
<path d="M106.72 73.0768C106.643 73.077 106.566 73.0654 106.492 73.0424C106.332 72.9935 106.191 72.8944 106.092 72.7597C105.992 72.6251 105.938 72.462 105.938 72.2944V50.6718C105.938 50.5872 105.952 50.5032 105.979 50.423C106.04 50.2399 107.543 45.885 112.16 43.5847C112.838 43.2477 113.604 43.1271 114.353 43.239C115.103 43.3509 115.8 43.6901 116.35 44.2107C117.383 45.1605 119.467 48.1665 116.522 55.529C113.022 64.2826 107.426 72.6481 107.37 72.731C107.298 72.8375 107.202 72.9247 107.088 72.985C106.975 73.0453 106.849 73.0768 106.72 73.0768ZM107.503 50.8111V69.6108C109.381 66.5688 112.712 60.8478 115.07 54.9469C117.73 48.3089 115.911 45.932 115.291 45.3624C114.975 45.0553 114.571 44.8539 114.136 44.7861C113.701 44.7182 113.255 44.7873 112.861 44.9837C109.197 46.8145 107.753 50.1632 107.503 50.8111Z" fill="#B43939"/>
<path d="M103.663 27.5408H70.5012C67.3433 27.5408 64.7833 30.1007 64.7833 33.2586V111.487C64.7833 114.645 67.3433 117.205 70.5012 117.205H103.663C106.821 117.205 109.381 114.645 109.381 111.487V33.2586C109.381 30.1007 106.821 27.5408 103.663 27.5408Z" fill="url(#paint0_linear)"/>
<path d="M103.309 30.2009H100.791C100.553 30.2008 100.322 30.2804 100.134 30.427C99.9463 30.5736 99.813 30.7788 99.7553 31.0099L99.4189 32.3416C99.3142 32.7597 99.0723 33.1307 98.7319 33.3951C98.3914 33.6595 97.9722 33.8021 97.5411 33.8H76.7713C76.3416 33.8003 75.9242 33.6569 75.5853 33.3927C75.2465 33.1284 75.0058 32.7584 74.9014 32.3416L74.565 31.0099C74.5073 30.7788 74.374 30.5736 74.1863 30.427C73.9986 30.2804 73.7672 30.2008 73.529 30.2009H70.8548C69.95 30.2009 69.0824 30.5603 68.4426 31.2001C67.8029 31.8398 67.4435 32.7075 67.4435 33.6122V109.725C67.4435 110.63 67.8029 111.497 68.4426 112.137C69.0824 112.777 69.95 113.136 70.8548 113.136H103.309C104.214 113.136 105.081 112.777 105.721 112.137C106.361 111.497 106.72 110.63 106.72 109.725V33.6122C106.72 32.7075 106.361 31.8398 105.721 31.2001C105.081 30.5603 104.214 30.2009 103.309 30.2009Z" fill="#F7F3F0"/>
<path d="M57.9701 152.74C57.9701 152.74 63.6457 131.336 62.8398 127.556C62.8398 127.556 53.0363 121.051 53.0285 119.22C53.0206 117.389 51.2868 104.134 53.2381 101.01C55.1895 97.887 61.6881 88.5779 63.7224 86.1446C65.7567 83.7113 79.84 82.447 83.4735 81.5879C83.4735 81.5879 86.0507 83.6753 84.9945 86.6203C83.9382 89.5653 79.0607 92.9719 73.1144 93.3334L68.0084 102.475C68.0084 102.475 74.6041 106.335 76.8121 109.454C79.02 112.573 78.9277 118.856 78.9277 118.856" fill="#FFDFC6"/>
<path d="M93.7323 31.7658H79.336C79.2115 31.7658 79.0921 31.7163 79.0041 31.6283C78.916 31.5403 78.8666 31.4209 78.8666 31.2963C78.8666 31.1718 78.916 31.0524 79.0041 30.9644C79.0921 30.8764 79.2115 30.8269 79.336 30.8269H93.7323C93.8568 30.8269 93.9762 30.8764 94.0643 30.9644C94.1523 31.0524 94.2018 31.1718 94.2018 31.2963C94.2018 31.4209 94.1523 31.5403 94.0643 31.6283C93.9762 31.7163 93.8568 31.7658 93.7323 31.7658Z" fill="#FFDFC6"/>
<path d="M108.129 75.5806C108.129 75.5806 108.129 69.9473 112.667 68.8519C117.205 67.7565 117.987 68.226 118.926 68.8519C119.865 69.4778 122.369 72.2945 121.586 76.2065C120.804 80.1186 118.457 81.3704 116.579 82.4658C114.701 83.5612 107.503 84.5 108.129 75.5806Z" fill="#FFDFC6"/>
<path d="M113.585 83.9335C112.383 83.956 111.198 83.6434 110.163 83.0306C108.705 82.123 107.033 80.0903 107.346 75.5524C107.356 73.382 108.442 69.0678 112.484 68.0913C117.079 66.9819 118.147 67.3919 119.359 68.2009C120.691 69.0881 123.174 72.2506 122.353 76.3598C121.527 80.4941 118.998 81.965 117.151 83.0384L116.973 83.1417C116.222 83.5799 114.956 83.9335 113.585 83.9335ZM116.745 68.9801C115.962 68.9801 114.77 69.1491 112.85 69.6061C108.975 70.5481 108.911 75.3771 108.911 75.5805C108.911 75.5977 108.911 75.6165 108.911 75.6337C108.698 78.6679 109.398 80.7084 110.992 81.7005C112.798 82.8225 115.305 82.3014 116.186 81.7882L116.366 81.6833C118.131 80.6568 120.132 79.4926 120.821 76.05C121.545 72.4243 119.131 69.9237 118.494 69.4997C118.086 69.2321 117.708 68.9801 116.745 68.9801Z" fill="#B43939"/>
<path d="M108.911 82.7787C108.911 82.7787 116.109 83.5611 120.178 84.3435C124.246 85.1259 122.994 92.0111 121.117 94.2018C119.239 96.3926 107.659 104.686 106.72 104.999C105.938 105.259 102.053 104.015 102.339 99.3141C102.47 97.4044 103.242 95.5949 104.53 94.1784C106.121 92.4007 109.019 89.6842 112.98 88.0991" fill="#FFDFC6"/>
<path d="M106.468 105.813C105.703 105.813 104.66 105.415 103.816 104.766C102.891 104.057 101.367 102.397 101.558 99.2671C101.701 97.1824 102.542 95.2064 103.944 93.6573C105.716 91.6762 108.672 88.9801 112.689 87.373C112.784 87.3322 112.887 87.311 112.992 87.3106C113.096 87.3102 113.199 87.3305 113.295 87.3705C113.391 87.4104 113.478 87.4692 113.551 87.5432C113.625 87.6173 113.682 87.7053 113.721 87.8019C113.76 87.8985 113.779 88.0019 113.777 88.106C113.775 88.2101 113.753 88.3128 113.711 88.4081C113.669 88.5034 113.608 88.5894 113.533 88.661C113.457 88.7326 113.368 88.7884 113.271 88.8251C109.534 90.3195 106.771 92.8451 105.11 94.6995C103.943 95.9878 103.242 97.6313 103.121 99.3657C102.995 101.453 103.796 102.652 104.491 103.293C105.35 104.085 106.259 104.264 106.487 104.254C107.697 103.685 118.763 95.751 120.524 93.698C121.716 92.3069 122.55 88.833 121.826 86.7596C121.499 85.8207 120.912 85.2855 120.032 85.1165C116.042 84.3498 108.9 83.5689 108.828 83.5611C108.625 83.5354 108.439 83.4308 108.312 83.2698C108.185 83.1088 108.126 82.9043 108.148 82.7003C108.171 82.4964 108.272 82.3093 108.431 82.1793C108.589 82.0494 108.793 81.987 108.997 82.0057C109.069 82.0135 116.274 82.8006 120.326 83.5799C121.761 83.8553 122.791 84.777 123.3 86.2401C124.224 88.8877 123.204 92.9688 121.71 94.712C119.782 96.9606 108.162 105.353 106.966 105.742C106.805 105.792 106.637 105.816 106.468 105.813Z" fill="#B43939"/>
<path d="M95.1408 152.413C95.1408 152.413 94.5149 155.856 94.5149 157.733L95.1408 152.413Z" fill="white"/>
<path d="M94.5147 158.516C94.3072 158.516 94.1082 158.433 93.9615 158.287C93.8147 158.14 93.7323 157.941 93.7323 157.733C93.7323 155.807 94.3441 152.413 94.3707 152.274C94.3883 152.172 94.4259 152.075 94.4813 151.988C94.5366 151.9 94.6087 151.825 94.6933 151.766C94.7779 151.707 94.8734 151.665 94.9743 151.643C95.0751 151.621 95.1794 151.619 95.281 151.637C95.3826 151.656 95.4796 151.694 95.5663 151.75C95.653 151.806 95.7278 151.879 95.7863 151.964C95.8449 152.049 95.8859 152.144 95.9073 152.246C95.9286 152.347 95.9297 152.451 95.9105 152.552C95.9105 152.587 95.2971 155.948 95.2971 157.733C95.2971 157.941 95.2147 158.14 95.068 158.287C94.9212 158.433 94.7222 158.516 94.5147 158.516Z" fill="#B43939"/>
<path d="M84.2246 83.184C84.0027 82.8872 83.7493 82.6155 83.4688 82.3734C79.8368 83.2325 65.7519 84.5 63.7177 86.9302C61.6834 89.3603 55.1879 98.6663 53.2334 101.796C51.279 104.926 53.0159 118.173 53.0237 120.006C53.0316 121.838 62.8351 128.341 62.8351 128.341C63.4845 131.388 59.9246 145.88 58.5178 151.391L60.4566 149.498L62.5816 146.055C63.4704 141.204 65.9757 127.363 65.7113 126.589C65.3983 125.65 56.9483 120.33 56.3224 119.078C55.6964 117.826 55.3835 104.994 55.54 103.273C55.6964 101.552 64.7724 88.7203 67.4106 87.2901C70.0489 85.8598 83.4234 83.9288 83.4234 83.9288L84.2246 83.184Z" fill="#FFF3EA"/>
<path d="M57.9701 153.523C57.9024 153.523 57.835 153.514 57.7698 153.496C57.5694 153.443 57.3984 153.312 57.2942 153.133C57.1901 152.954 57.1613 152.74 57.2143 152.54C58.7337 146.811 62.4752 131.601 62.1231 128.014C61.4002 127.526 59.4254 126.179 57.4694 124.699C52.2585 120.755 52.2523 119.721 52.2507 119.222C52.2507 118.876 52.1725 117.993 52.0754 116.875C51.5027 110.302 51.0239 103.084 52.5793 100.6C54.4931 97.5334 60.9839 88.2024 63.1215 85.6502C64.6566 83.8178 70.6654 82.7976 78.3596 81.6537C80.48 81.3407 82.3108 81.0669 83.2935 80.8337C83.4101 80.8066 83.5315 80.8066 83.6481 80.8337C83.7648 80.8608 83.8737 80.9144 83.9664 80.9902C84.0884 81.0904 86.9599 83.4673 85.7315 86.8958C84.6173 90.002 79.6944 93.576 73.5916 94.094L69.0615 102.208C70.8172 103.287 75.5696 106.356 77.4505 109.013C79.7774 112.299 79.7132 118.611 79.7101 118.871C79.7072 119.079 79.6219 119.277 79.4732 119.421C79.3244 119.566 79.1242 119.646 78.9167 119.643C78.7092 119.64 78.5113 119.555 78.3667 119.406C78.222 119.257 78.1424 119.057 78.1453 118.849C78.1453 118.788 78.2047 112.781 76.1736 109.911C74.0893 106.966 67.6782 103.193 67.6141 103.156C67.4375 103.052 67.3084 102.884 67.2546 102.686C67.2008 102.489 67.2264 102.278 67.3261 102.1L72.4259 92.9501C72.4897 92.8354 72.5813 92.7386 72.6923 92.6686C72.8033 92.5986 72.9302 92.5576 73.0612 92.5495C78.5474 92.2162 83.2778 89.0772 84.2527 86.3544C84.9256 84.4766 83.7833 82.9994 83.234 82.4424C82.148 82.6661 80.48 82.9118 78.585 83.195C73.7262 83.918 65.597 85.126 64.317 86.6486C62.3891 88.952 55.9265 98.1781 53.9016 101.424C52.4932 103.68 53.2897 112.833 53.6293 116.74C53.731 117.918 53.8061 118.774 53.8108 119.194C53.8468 119.331 54.2505 120.319 58.5632 123.566C60.9104 125.336 63.2498 126.888 63.2733 126.903C63.4433 127.017 63.5624 127.192 63.605 127.392C64.4265 131.243 59.3127 150.729 58.7259 152.939C58.682 153.106 58.5841 153.254 58.4474 153.359C58.3107 153.465 58.1428 153.522 57.9701 153.523Z" fill="#B43939"/>
<path d="M73.623 86.0131C72.7796 86.0131 72.1458 85.9333 71.9017 85.7518C71.8187 85.6895 71.7638 85.5968 71.7492 85.4941C71.7345 85.3914 71.7612 85.2871 71.8235 85.2041C71.8857 85.1211 71.9784 85.0662 72.0811 85.0515C72.1838 85.0368 72.2882 85.0636 72.3712 85.1258C72.9392 85.4388 78.0561 85.0867 80.9323 84.129C83.3828 83.3122 83.026 81.6253 83.0213 81.6144C82.9981 81.5131 83.016 81.4068 83.0712 81.3187C83.1263 81.2307 83.2142 81.1682 83.3155 81.1449C83.4167 81.1217 83.5231 81.1396 83.6111 81.1948C83.6992 81.25 83.7617 81.3379 83.7849 81.4391C83.7849 81.4626 84.2982 83.8317 81.1795 84.8708C79.2986 85.4983 75.7762 86.0131 73.623 86.0131Z" fill="#010101"/>
<path d="M103.356 74.3287H71.2773C71.1736 74.3287 71.0741 74.2875 71.0007 74.2141C70.9273 74.1407 70.8861 74.0412 70.8861 73.9375V55.9421C70.8861 55.8384 70.9273 55.7389 71.0007 55.6655C71.0741 55.5921 71.1736 55.5509 71.2773 55.5509H103.356C103.46 55.5509 103.559 55.5921 103.633 55.6655C103.706 55.7389 103.747 55.8384 103.747 55.9421V73.9375C103.747 74.0412 103.706 74.1407 103.633 74.2141C103.559 74.2875 103.46 74.3287 103.356 74.3287ZM71.6685 73.5463H102.965V56.3333H71.6685V73.5463Z" fill="#525369"/>
<path d="M103.356 71.8251H71.2773C71.1736 71.8251 71.0741 71.7838 71.0007 71.7105C70.9273 71.6371 70.8861 71.5376 70.8861 71.4339V58.4459C70.8861 58.3421 70.9273 58.2426 71.0007 58.1693C71.0741 58.0959 71.1736 58.0547 71.2773 58.0547H103.356C103.46 58.0547 103.559 58.0959 103.633 58.1693C103.706 58.2426 103.747 58.3421 103.747 58.4459V71.4339C103.747 71.5376 103.706 71.6371 103.633 71.7105C103.559 71.7838 103.46 71.8251 103.356 71.8251ZM71.6685 71.0427H102.965V58.8371H71.6685V71.0427Z" fill="#525369"/>
<path d="M144.728 53.1069C144.985 53.0532 145.243 53.0017 145.5 52.9469L146.263 52.7811C146.499 52.7274 146.742 52.6668 146.983 52.6199C147.319 52.5502 147.657 52.4896 147.993 52.4187C148.305 52.3535 148.616 52.2769 148.927 52.2106C149.152 52.1638 149.377 52.1249 149.601 52.0792C149.704 52.0586 149.803 52.0289 149.905 52.006C149.976 51.9889 150.013 52.006 149.996 52.0883L149.79 53.0166C149.739 53.2452 149.689 53.4739 149.639 53.7082C149.578 53.9906 149.521 54.2741 149.455 54.5565C149.355 55.0034 149.252 55.4504 149.152 55.8963C149.077 56.2244 149.004 56.5536 148.927 56.8817C148.912 56.9503 148.887 57.0166 148.866 57.084C148.845 57.1515 148.806 57.1343 148.768 57.0977C148.643 56.9754 148.519 56.852 148.394 56.7308C148.192 56.5353 147.988 56.341 147.787 56.1443C147.733 56.0917 147.69 56.0917 147.626 56.1443C147.134 56.5079 146.646 56.8783 146.141 57.2235C145.581 57.6058 144.982 57.9314 144.353 58.1952C143.917 58.3781 143.474 58.5496 143.022 58.6902C142.685 58.81 142.334 58.8868 141.976 58.9188C141.713 58.9325 141.452 58.9989 141.189 59C140.918 58.9935 140.649 58.9675 140.382 58.9223C140.196 58.8991 140.013 58.8589 139.835 58.8022C139.511 58.7002 139.211 58.5364 138.954 58.3204C138.697 58.1044 138.487 57.8407 138.336 57.5447C138.121 57.132 138.005 56.6767 138 56.2141C138 55.9603 138 55.7076 138.007 55.4538C138.016 55.3383 138.034 55.2236 138.061 55.1109C138.116 54.8503 138.156 54.585 138.235 54.3312C138.353 53.9643 138.493 53.6065 138.625 53.2452C138.649 53.1789 138.676 53.1126 138.699 53.0452C138.707 53.0138 138.726 52.9864 138.754 52.9679C138.781 52.9494 138.814 52.9411 138.848 52.9446C139.13 52.9446 139.412 52.9446 139.694 52.9446C139.79 52.9446 139.812 52.9766 139.787 53.0509C139.711 53.2704 139.621 53.4876 139.56 53.7105C139.415 54.2318 139.354 54.7645 139.522 55.2869C139.578 55.4636 139.673 55.6262 139.801 55.7632C139.929 55.9001 140.087 56.008 140.263 56.0792C140.663 56.2506 141.08 56.2472 141.504 56.1935C142.032 56.1222 142.544 55.9677 143.021 55.7362C143.326 55.5979 143.635 55.463 143.924 55.2984C144.259 55.1063 144.58 54.8891 144.898 54.6719C145.134 54.5096 145.353 54.329 145.582 54.1586C145.665 54.0969 145.649 54.0443 145.582 53.9883C145.324 53.7402 145.069 53.491 144.813 53.2418C144.778 53.2075 144.746 53.1698 144.713 53.1332L144.728 53.1069Z" fill="#0067B3"/>
<path d="M144 47.1542C144.048 47.113 144.094 47.0684 144.144 47.0327C144.434 46.8332 144.718 46.6214 145.019 46.4419C145.458 46.18 145.905 45.9336 146.357 45.6984C146.592 45.5829 146.835 45.4849 147.083 45.4053C147.381 45.3038 147.682 45.2135 147.986 45.1377C148.492 45.0117 149.015 44.9718 149.534 45.0196C149.863 45.049 150.186 45.1321 150.491 45.2659C150.917 45.4514 151.282 45.7636 151.538 46.1633C151.753 46.4904 151.891 46.8659 151.94 47.259C151.972 47.4361 151.992 47.6153 152 47.7952C152 48.0795 151.975 48.3648 151.952 48.6491C151.939 48.829 151.915 49.0079 151.877 49.1841C151.81 49.4773 151.725 49.766 151.646 50.0558C151.64 50.0815 151.629 50.1049 151.623 50.1305C151.586 50.2688 151.549 50.2955 151.415 50.3234C151.146 50.3802 150.878 50.4482 150.61 50.5095C150.449 50.5452 150.288 50.5731 150.125 50.6099C149.918 50.6556 149.712 50.7091 149.505 50.7559C149.23 50.8183 148.955 50.8763 148.678 50.9376C148.599 50.9554 148.52 50.9822 148.441 51C148.419 51 148.378 51 148.374 50.9822C148.368 50.9552 148.372 50.9267 148.386 50.903C148.617 50.5112 148.823 50.1033 149.001 49.6824C149.167 49.3098 149.288 48.9169 149.36 48.5131C149.44 48.0271 149.467 47.5344 149.231 47.0762C149.098 46.8066 148.872 46.5989 148.598 46.4943C148.444 46.4337 148.284 46.3936 148.12 46.3751C147.737 46.3403 147.351 46.3866 146.985 46.5111C146.748 46.5825 146.515 46.6662 146.286 46.7619C146.023 46.8789 145.769 47.0238 145.51 47.1542C145.469 47.1782 145.424 47.1923 145.377 47.1955C144.956 47.1955 144.533 47.1955 144.111 47.1955C144.078 47.1934 144.045 47.1885 144.013 47.181L144 47.1542Z" fill="#0067B3"/>
<path d="M143 50.0492C143.019 49.6615 143.042 49.3319 143.161 49.0174C143.28 48.7029 143.432 48.4337 143.716 48.242C143.944 48.0918 144.211 48.008 144.487 48.0005C144.762 47.9931 145.034 48.0623 145.27 48.2C145.512 48.3615 145.696 48.5923 145.796 48.8602C145.985 49.3601 146.044 49.8978 145.967 50.4251C145.939 50.7483 145.84 51.0621 145.678 51.346C145.595 51.4917 145.482 51.6197 145.347 51.7225C145.211 51.8254 145.056 51.901 144.89 51.9448C144.608 52.0239 144.307 52.0179 144.028 51.9276C143.752 51.8373 143.518 51.6549 143.367 51.4128C143.185 51.1362 143.075 50.821 143.046 50.4941C143.036 50.3271 143.013 50.1602 143 50.0492ZM145.082 49.9728C145.055 49.7283 145.036 49.4719 144.992 49.2188C144.972 49.0399 144.882 48.8752 144.742 48.7579C144.591 48.6394 144.319 48.6502 144.215 48.8074C144.125 48.9352 144.059 49.0773 144.019 49.2275C143.941 49.5333 143.913 49.8491 143.935 50.1634C143.961 50.4456 143.965 50.7342 144.097 50.9992C144.175 51.1597 144.279 51.2835 144.481 51.2911C144.568 51.2976 144.655 51.2762 144.729 51.2301C144.803 51.184 144.859 51.1158 144.889 51.0358C144.94 50.9396 144.978 50.8371 145 50.731C145.036 50.4854 145.055 50.2377 145.082 49.9728Z" fill="#0067B3"/>
<path d="M140.955 49.6243C141.002 49.5941 141.031 49.5812 141.055 49.5618C141.223 49.4258 141.434 49.3499 141.652 49.3464C141.815 49.3374 141.979 49.3519 142.139 49.3895C142.348 49.4443 142.536 49.5586 142.68 49.718C142.991 50.0616 143.049 50.4666 142.965 50.8866C142.925 51.0958 142.835 51.2925 142.702 51.4601C142.569 51.6277 142.397 51.7613 142.2 51.8495C141.837 52.0201 141.422 52.0467 141.04 51.9239C140.87 51.8771 140.712 51.7964 140.575 51.6867C140.438 51.577 140.326 51.4406 140.245 51.2862C140.031 50.8762 139.954 50.4096 140.027 49.9539C140.067 49.5656 140.209 49.1944 140.439 48.8768C140.642 48.6081 140.911 48.3941 141.22 48.2542C141.607 48.0855 142.025 47.9988 142.448 48C142.537 48 142.579 48.0302 142.577 48.1228C142.577 48.2714 142.577 48.4212 142.577 48.5709C142.577 48.6624 142.542 48.7023 142.445 48.7023C142.174 48.6945 141.903 48.7373 141.648 48.8283C141.491 48.8815 141.348 48.9695 141.23 49.0854C141.113 49.2013 141.024 49.3421 140.97 49.4972C140.962 49.5391 140.957 49.5816 140.955 49.6243ZM142.084 50.6367C142.078 50.5233 142.056 50.4113 142.019 50.3039C141.979 50.2109 141.913 50.131 141.829 50.0738C141.745 50.0165 141.646 49.9842 141.543 49.9808C141.403 49.9673 141.262 50.0051 141.147 50.087C141.033 50.169 140.953 50.2895 140.923 50.4256C140.883 50.6494 140.929 50.8797 141.052 51.0719C141.092 51.1414 141.147 51.201 141.214 51.2463C141.28 51.2916 141.357 51.3213 141.437 51.3333C141.517 51.3452 141.599 51.339 141.676 51.3152C141.753 51.2914 141.824 51.2505 141.883 51.1957C142.035 51.0579 142.065 50.8629 142.084 50.6367Z" fill="#0067B3"/>
<path d="M139.126 49.8879C139.212 49.9116 139.265 49.9213 139.317 49.9397C139.529 50.0111 139.71 50.1428 139.832 50.3151C139.955 50.4874 140.013 50.691 139.998 50.8956C139.982 51.0751 139.916 51.248 139.808 51.3988C139.699 51.5496 139.551 51.6733 139.376 51.7588C139.123 51.891 138.84 51.9685 138.549 51.9854C138.17 52.0205 137.788 51.9923 137.421 51.9023C137.302 51.8732 137.199 51.8278 137.087 51.7944C137.071 51.7917 137.056 51.7858 137.044 51.7772C137.031 51.7687 137.02 51.7577 137.013 51.745C137.005 51.7322 137.001 51.7182 137 51.7038C136.999 51.6894 137.002 51.675 137.008 51.6617C137.068 51.489 137.127 51.3164 137.184 51.1438C137.202 51.0909 137.237 51.0855 137.29 51.1028C137.457 51.1567 137.624 51.2107 137.795 51.2571C138.074 51.3338 138.372 51.3243 138.644 51.2301C138.736 51.1981 138.816 51.1433 138.875 51.0721C138.935 51.0008 138.971 50.9159 138.979 50.8269C138.988 50.738 138.969 50.6487 138.925 50.5691C138.88 50.4895 138.812 50.4228 138.727 50.3766C138.497 50.2523 138.229 50.1978 137.962 50.2213C137.715 50.2278 137.708 50.258 137.712 49.9936C137.712 49.8987 137.712 49.8026 137.712 49.7077C137.712 49.63 137.744 49.5998 137.831 49.5998C138.026 49.5935 138.222 49.5781 138.415 49.5534C138.493 49.5433 138.566 49.5174 138.631 49.4776C138.695 49.4377 138.748 49.3851 138.787 49.3236C138.818 49.2767 138.837 49.2243 138.843 49.17C138.849 49.1157 138.841 49.0609 138.821 49.0094C138.801 48.9579 138.769 48.9111 138.727 48.8721C138.685 48.8332 138.634 48.8032 138.577 48.7841C138.353 48.7028 138.104 48.694 137.874 48.7593C137.733 48.7964 137.594 48.8403 137.458 48.8909C137.328 48.9341 137.301 48.9179 137.269 48.7981C137.237 48.6784 137.199 48.5521 137.158 48.4302C137.118 48.3083 137.138 48.2619 137.251 48.2209C137.846 48.0116 138.442 47.9166 139.07 48.0904C139.348 48.1605 139.584 48.3267 139.727 48.5532C139.775 48.6344 139.807 48.7223 139.821 48.8132C139.866 49.0002 139.841 49.1953 139.75 49.368C139.659 49.5406 139.507 49.681 139.319 49.767C139.252 49.8042 139.188 49.8445 139.126 49.8879Z" fill="#0067B3"/>
<path d="M147.003 49.9963C146.873 50.0084 146.742 49.9909 146.619 49.9449C146.497 49.8989 146.385 49.8255 146.293 49.73C146.194 49.6339 146.116 49.5162 146.066 49.3854C146.015 49.2546 145.994 49.1138 146.002 48.9732C146.001 48.8191 146.038 48.6673 146.108 48.5316C146.178 48.3959 146.281 48.2808 146.405 48.1967C146.563 48.079 146.751 48.0111 146.945 48.0013C147.14 47.9914 147.333 48.0399 147.502 48.1409C147.653 48.2168 147.781 48.3364 147.869 48.4855C147.958 48.6346 148.003 48.8069 147.999 48.9819C148.007 49.1608 147.966 49.3383 147.882 49.4946C147.797 49.6508 147.673 49.7795 147.522 49.8662C147.364 49.9599 147.184 50.005 147.003 49.9963ZM147.023 49.5355C147.276 49.5541 147.481 49.32 147.481 49.0079C147.48 48.8707 147.427 48.7394 147.334 48.6425C147.24 48.5456 147.113 48.4909 146.981 48.4902C146.716 48.4902 146.518 48.7974 146.528 49.0215C146.537 49.2457 146.726 49.5591 147.023 49.5318V49.5355Z" fill="#0067B3"/>
<path d="M100.774 61.4189H73.7028V62.2014H100.774V61.4189Z" fill="#525369"/>
<path d="M100.774 62.9055H73.7028V63.6879H100.774V62.9055Z" fill="#525369"/>
<path d="M100.774 64.3921H73.7028V65.1745H100.774V64.3921Z" fill="#525369"/>
<path d="M100.774 65.8787H73.7028V66.6611H100.774V65.8787Z" fill="#525369"/>
<path d="M85.7518 67.5155H73.7028V68.2979H85.7518V67.5155Z" fill="#525369"/>
<defs>
<linearGradient id="paint0_linear" x1="87.0819" y1="27.5408" x2="87.0819" y2="117.205" gradientUnits="userSpaceOnUse">
<stop stop-color="#B24F5C"/>
<stop offset="1" stop-color="#90314A"/>
</linearGradient>
</defs>
</svg>
