<svg width="146" height="132" viewBox="0 0 146 132" fill="none" xmlns="http://www.w3.org/2000/svg">
<path opacity="0.4" d="M73.5935 131.089C109.649 131.089 138.878 101.861 138.878 65.8049C138.878 29.7492 109.649 0.520325 73.5935 0.520325C37.5379 0.520325 8.30898 29.7492 8.30898 65.8049C8.30898 101.861 37.5379 131.089 73.5935 131.089Z" fill="#FFDFC6"/>
<path d="M0 18.4142C0 16.3984 1.63416 14.7642 3.65 14.7642H142.35C144.366 14.7642 146 16.3984 146 18.4142V36.1301H0V18.4142Z" fill="#2E7CF6"/>
<g opacity="0.85">
<path opacity="0.85" d="M0.456278 113.196V36.5863H145.544V113.195C145.544 114.959 144.114 116.389 142.35 116.389H3.65002C1.88617 116.389 0.456278 114.959 0.456278 113.196Z" fill="#F3F3F3" stroke="#2E7CF6" stroke-width="0.9125"/>
</g>
<path d="M129.79 56.1776C130.081 56.1149 130.372 56.0548 130.663 55.9907L131.526 55.797C131.793 55.7342 132.068 55.6634 132.34 55.6087C132.721 55.5272 133.103 55.4564 133.484 55.3736C133.836 55.2975 134.188 55.208 134.54 55.1306C134.794 55.0758 135.049 55.0304 135.303 54.977C135.419 54.9529 135.531 54.9182 135.646 54.8915C135.726 54.8715 135.769 54.8915 135.749 54.9877L135.516 56.0721C135.459 56.3392 135.402 56.6064 135.346 56.8735C135.276 57.2034 135.212 57.5413 135.137 57.8645C135.024 58.3867 134.907 58.9089 134.794 59.4298C134.71 59.8131 134.627 60.1977 134.54 60.581C134.523 60.6612 134.495 60.7386 134.471 60.8174C134.447 60.8962 134.403 60.8762 134.36 60.8334C134.218 60.6905 134.078 60.5463 133.936 60.4047C133.708 60.1763 133.477 59.9493 133.25 59.7196C133.189 59.6581 133.14 59.6581 133.068 59.7196C132.511 60.1443 131.96 60.577 131.388 60.9804C130.755 61.4293 130.077 61.812 129.365 62.1223C128.872 62.336 128.371 62.5363 127.86 62.7006C127.478 62.8405 127.081 62.9303 126.676 62.9677C126.378 62.9837 126.083 63.0612 125.785 63.0625C125.48 63.0549 125.175 63.0245 124.873 62.9717C124.663 62.9446 124.455 62.8977 124.254 62.8314C123.887 62.7123 123.549 62.5209 123.257 62.2685C122.966 62.0162 122.729 61.708 122.559 61.3623C122.314 60.8801 122.184 60.3482 122.178 59.8077C122.178 59.5112 122.178 59.2161 122.186 58.9196C122.196 58.7846 122.216 58.6506 122.248 58.5189C122.309 58.2144 122.354 57.9045 122.444 57.608C122.577 57.1793 122.736 56.7613 122.885 56.3392C122.913 56.2618 122.943 56.1843 122.969 56.1055C122.978 56.0689 123 56.0369 123.031 56.0153C123.062 55.9936 123.1 55.984 123.137 55.988C123.456 55.988 123.775 55.988 124.095 55.988C124.203 55.988 124.228 56.0254 124.2 56.1122C124.113 56.3686 124.012 56.6224 123.942 56.8828C123.779 57.4918 123.71 58.1142 123.9 58.7246C123.963 58.931 124.071 59.121 124.216 59.2809C124.361 59.4409 124.539 59.5669 124.738 59.6501C125.191 59.8505 125.663 59.8464 126.142 59.7837C126.739 59.7025 127.319 59.5243 127.858 59.2561C128.203 59.0945 128.553 58.9369 128.88 58.7446C129.259 58.5202 129.623 58.2665 129.982 58.0127C130.249 57.8231 130.496 57.612 130.755 57.413C130.85 57.3409 130.831 57.2795 130.755 57.214C130.464 56.9242 130.176 56.6331 129.886 56.3419C129.846 56.3018 129.81 56.2578 129.772 56.215L129.79 56.1776Z" fill="#0067B3"/>
<path d="M128.817 49.0257C128.877 48.9763 128.933 48.9229 128.996 48.8801C129.357 48.6411 129.709 48.3873 130.083 48.1723C130.628 47.8584 131.184 47.5633 131.746 47.2815C132.038 47.143 132.339 47.0256 132.647 46.9302C133.017 46.8087 133.391 46.7005 133.769 46.6097C134.399 46.4586 135.048 46.4108 135.693 46.4681C136.102 46.5033 136.503 46.6029 136.881 46.7633C137.411 46.9855 137.864 47.3595 138.182 47.8384C138.45 48.2303 138.621 48.6803 138.682 49.1512C138.721 49.3635 138.746 49.5781 138.756 49.7937C138.756 50.1342 138.726 50.4761 138.696 50.8167C138.681 51.0323 138.65 51.2466 138.604 51.4578C138.52 51.809 138.414 52.1549 138.317 52.5022C138.309 52.5329 138.296 52.561 138.288 52.5917C138.242 52.7573 138.195 52.7893 138.03 52.8227C137.696 52.8908 137.362 52.9723 137.029 53.0458C136.829 53.0885 136.629 53.1219 136.427 53.166C136.169 53.2207 135.914 53.2848 135.657 53.3409C135.315 53.4157 134.973 53.4852 134.629 53.5586C134.531 53.58 134.433 53.612 134.334 53.6334C134.308 53.6334 134.257 53.6334 134.252 53.6121C134.244 53.5797 134.249 53.5456 134.266 53.5172C134.554 53.0456 134.809 52.5547 135.03 52.0481C135.237 51.6016 135.387 51.1309 135.476 50.6471C135.576 50.0648 135.61 49.4745 135.316 48.9255C135.151 48.6026 134.87 48.3537 134.529 48.2284C134.339 48.1557 134.139 48.1077 133.936 48.0855C133.46 48.0438 132.98 48.0993 132.526 48.2484C132.232 48.3339 131.942 48.4342 131.658 48.5489C131.331 48.6891 131.015 48.8628 130.694 49.019C130.643 49.0477 130.586 49.0646 130.528 49.0684C130.004 49.0684 129.48 49.0684 128.955 49.0684C128.914 49.0659 128.873 49.0601 128.833 49.0511L128.817 49.0257Z" fill="#0067B3"/>
<path d="M128.036 52.5395C128.059 52.0587 128.087 51.65 128.23 51.2601C128.373 50.8701 128.556 50.5362 128.897 50.2985C129.172 50.1122 129.493 50.0083 129.825 49.9991C130.156 49.9899 130.483 50.0757 130.767 50.2464C131.058 50.4467 131.28 50.7329 131.4 51.0651C131.628 51.685 131.699 52.3517 131.606 53.0056C131.572 53.4065 131.453 53.7956 131.259 54.1476C131.158 54.3282 131.022 54.487 130.859 54.6145C130.697 54.742 130.51 54.8357 130.31 54.8901C129.97 54.9881 129.609 54.9807 129.273 54.8688C128.941 54.7568 128.659 54.5306 128.478 54.2304C128.259 53.8874 128.126 53.4965 128.091 53.0911C128.079 52.8841 128.052 52.6771 128.036 52.5395ZM130.542 52.4447C130.508 52.1415 130.485 51.8237 130.433 51.5098C130.409 51.288 130.301 51.0837 130.131 50.9382C129.95 50.7913 129.623 50.8046 129.498 50.9996C129.39 51.158 129.31 51.3343 129.262 51.5205C129.168 51.8998 129.134 52.2913 129.161 52.6811C129.193 53.031 129.197 53.389 129.356 53.7175C129.45 53.9165 129.575 54.0701 129.818 54.0795C129.923 54.0876 130.028 54.061 130.117 54.0039C130.205 53.9467 130.273 53.8621 130.309 53.7629C130.371 53.6437 130.416 53.5165 130.443 53.385C130.485 53.0804 130.508 52.7733 130.542 52.4447Z" fill="#0067B3"/>
<path d="M125.18 52.0106C125.238 51.9732 125.273 51.9572 125.302 51.9332C125.508 51.7645 125.765 51.6704 126.031 51.6661C126.231 51.6549 126.432 51.6729 126.627 51.7195C126.882 51.7875 127.112 51.9292 127.288 52.1268C127.669 52.5529 127.739 53.0551 127.637 53.5759C127.588 53.8353 127.478 54.0792 127.315 54.287C127.152 54.4949 126.942 54.6605 126.702 54.7699C126.258 54.9814 125.75 55.0144 125.283 54.8621C125.076 54.8041 124.882 54.704 124.715 54.568C124.548 54.4319 124.411 54.2629 124.312 54.0714C124.05 53.563 123.957 52.9844 124.045 52.4193C124.094 51.9379 124.268 51.4776 124.549 51.0838C124.797 50.7507 125.126 50.4852 125.504 50.3118C125.976 50.1025 126.488 49.9952 127.005 49.9966C127.113 49.9966 127.165 50.034 127.162 50.1489C127.162 50.3332 127.162 50.5188 127.162 50.7045C127.162 50.818 127.12 50.8674 127.001 50.8674C126.669 50.8577 126.339 50.9108 126.027 51.0236C125.835 51.0897 125.66 51.1987 125.517 51.3424C125.373 51.4862 125.264 51.6608 125.198 51.853C125.188 51.905 125.182 51.9577 125.18 52.0106ZM126.56 53.2661C126.553 53.1254 126.526 52.9865 126.48 52.8534C126.432 52.7381 126.351 52.639 126.248 52.568C126.145 52.497 126.024 52.457 125.899 52.4527C125.727 52.4359 125.555 52.4828 125.415 52.5845C125.275 52.6861 125.177 52.8355 125.14 53.0043C125.092 53.2817 125.148 53.5673 125.298 53.8056C125.347 53.8918 125.414 53.9658 125.496 54.0219C125.578 54.0781 125.671 54.115 125.769 54.1298C125.867 54.1446 125.967 54.1369 126.061 54.1073C126.156 54.0778 126.242 54.0272 126.314 53.9592C126.5 53.7883 126.536 53.5465 126.56 53.2661Z" fill="#0067B3"/>
<path d="M122.68 52.3379C122.776 52.3673 122.837 52.3793 122.894 52.402C123.132 52.4904 123.335 52.6534 123.473 52.8667C123.61 53.08 123.675 53.332 123.658 53.5853C123.64 53.8074 123.567 54.0215 123.445 54.2082C123.323 54.3948 123.157 54.548 122.961 54.6538C122.677 54.8174 122.359 54.9134 122.032 54.9342C121.608 54.9777 121.179 54.9428 120.768 54.8314C120.634 54.7953 120.518 54.7392 120.392 54.6978C120.375 54.6944 120.358 54.6872 120.344 54.6766C120.33 54.666 120.318 54.6524 120.309 54.6366C120.301 54.6209 120.296 54.6035 120.295 54.5857C120.294 54.5678 120.297 54.55 120.304 54.5336C120.371 54.3199 120.437 54.1062 120.502 53.8925C120.522 53.827 120.561 53.8204 120.621 53.8417C120.808 53.9085 120.995 53.9753 121.187 54.0327C121.499 54.1277 121.834 54.1159 122.139 53.9993C122.242 53.9597 122.332 53.8919 122.399 53.8037C122.466 53.7155 122.506 53.6104 122.516 53.5003C122.525 53.3902 122.504 53.2796 122.454 53.1811C122.404 53.0825 122.327 53 122.233 52.9429C121.974 52.7889 121.673 52.7215 121.374 52.7506C121.098 52.7586 121.09 52.796 121.094 52.4688C121.094 52.3512 121.094 52.2324 121.094 52.1148C121.094 52.0187 121.13 51.9813 121.227 51.9813C121.447 51.9735 121.665 51.9544 121.883 51.9239C121.969 51.9114 122.052 51.8793 122.124 51.8299C122.196 51.7806 122.256 51.7155 122.3 51.6394C122.334 51.5814 122.356 51.5164 122.362 51.4492C122.369 51.382 122.361 51.3142 122.338 51.2504C122.316 51.1867 122.28 51.1287 122.233 51.0805C122.185 51.0323 122.128 50.9952 122.065 50.9716C121.813 50.8709 121.534 50.8601 121.275 50.9409C121.117 50.9868 120.961 51.0412 120.809 51.1038C120.664 51.1572 120.633 51.1372 120.597 50.989C120.561 50.8407 120.518 50.6844 120.473 50.5335C120.427 50.3826 120.45 50.3252 120.577 50.2744C121.245 50.0153 121.912 49.8978 122.617 50.1128C122.929 50.1996 123.194 50.4054 123.355 50.6858C123.408 50.7862 123.444 50.8951 123.46 51.0077C123.51 51.2391 123.482 51.4806 123.38 51.6943C123.278 51.908 123.108 52.0818 122.897 52.1883C122.822 52.2343 122.75 52.2842 122.68 52.3379Z" fill="#0067B3"/>
<path d="M133.214 51.972C133.069 51.9851 132.922 51.9661 132.785 51.9165C132.648 51.8669 132.523 51.7878 132.419 51.6848C132.308 51.5812 132.221 51.4543 132.165 51.3132C132.109 51.1722 132.084 51.0204 132.093 50.8688C132.093 50.7026 132.134 50.5388 132.212 50.3925C132.291 50.2462 132.406 50.1221 132.545 50.0314C132.722 49.9045 132.932 49.8313 133.15 49.8206C133.367 49.81 133.584 49.8623 133.772 49.9713C133.942 50.053 134.085 50.182 134.184 50.3428C134.283 50.5036 134.333 50.6894 134.329 50.8781C134.338 51.071 134.292 51.2625 134.198 51.431C134.103 51.5994 133.964 51.7382 133.795 51.8317C133.619 51.9328 133.417 51.9814 133.214 51.972ZM133.237 51.4751C133.52 51.4952 133.75 51.2427 133.75 50.9062C133.749 50.7582 133.689 50.6166 133.584 50.5121C133.48 50.4076 133.338 50.3486 133.19 50.3479C132.893 50.3479 132.672 50.6791 132.682 50.9209C132.693 51.1626 132.904 51.5005 133.237 51.4711V51.4751Z" fill="#0067B3"/>
<path d="M9.14376 32.1921C8.50506 32.1921 7.88071 32.0027 7.34965 31.6479C6.81858 31.293 6.40467 30.7887 6.16025 30.1986C5.91583 29.6085 5.85188 28.9592 5.97649 28.3328C6.10109 27.7064 6.40865 27.1309 6.86028 26.6793C7.31191 26.2277 7.88732 25.9201 8.51375 25.7955C9.14018 25.6709 9.78949 25.7349 10.3796 25.9793C10.9697 26.2237 11.474 26.6376 11.8288 27.1687C12.1837 27.6997 12.3731 28.3241 12.3731 28.9628C12.3731 29.8193 12.0329 30.6406 11.4272 31.2463C10.8216 31.8519 10.0002 32.1921 9.14376 32.1921ZM9.14376 26.0026C8.55829 26.0026 7.98596 26.1762 7.49915 26.5015C7.01235 26.8267 6.63293 27.2891 6.40888 27.83C6.18483 28.3709 6.12621 28.9661 6.24043 29.5403C6.35465 30.1145 6.63658 30.642 7.05057 31.056C7.46457 31.47 7.99203 31.7519 8.56625 31.8661C9.14048 31.9803 9.73568 31.9217 10.2766 31.6977C10.8175 31.4736 11.2798 31.0942 11.6051 30.6074C11.9304 30.1206 12.104 29.5483 12.104 28.9628C12.104 28.1777 11.7921 27.4247 11.237 26.8696C10.6818 26.3145 9.92886 26.0026 9.14376 26.0026Z" fill="url(#paint0_linear)" fill-opacity="0.9"/>
<path d="M9.14391 32.1921C8.20202 32.1921 7.46197 30.7739 7.46197 28.9628C7.46197 27.1517 8.20202 25.7335 9.14391 25.7335C10.0858 25.7335 10.8258 27.1517 10.8258 28.9628C10.8258 30.7739 10.0858 32.1921 9.14391 32.1921ZM9.14391 26.0026C8.37829 26.0026 7.73108 27.3589 7.73108 28.9628C7.73108 30.5667 8.37829 31.923 9.14391 31.923C9.90953 31.923 10.5567 30.5667 10.5567 28.9628C10.5567 27.3589 9.90953 26.0026 9.14391 26.0026Z" fill="url(#paint1_linear)" fill-opacity="0.9"/>
<path d="M9.14376 30.2586C7.33265 30.2586 5.91444 29.6894 5.91444 28.9628C5.91444 28.2362 7.33265 27.6684 9.14376 27.6684C10.9549 27.6684 12.3731 28.2362 12.3731 28.9628C12.3731 29.6894 10.9549 30.2586 9.14376 30.2586ZM9.14376 27.9375C7.39455 27.9375 6.18355 28.4757 6.18355 28.9628C6.18355 29.4499 7.39455 29.9895 9.14376 29.9895C10.893 29.9895 12.104 29.4513 12.104 28.9628C12.104 28.4744 10.893 27.9375 9.14376 27.9375Z" fill="url(#paint2_linear)" fill-opacity="0.9"/>
<path d="M6.78675 20.4024C7.25717 20.4024 7.63853 20.0211 7.63853 19.5506C7.63853 19.0802 7.25717 18.6989 6.78675 18.6989C6.31633 18.6989 5.93497 19.0802 5.93497 19.5506C5.93497 20.0211 6.31633 20.4024 6.78675 20.4024Z" fill="url(#paint3_linear)" fill-opacity="0.9"/>
<path d="M11.216 20.4024C11.6865 20.4024 12.0678 20.0211 12.0678 19.5506C12.0678 19.0802 11.6865 18.6989 11.216 18.6989C10.7456 18.6989 10.3643 19.0802 10.3643 19.5506C10.3643 20.0211 10.7456 20.4024 11.216 20.4024Z" fill="url(#paint4_linear)" fill-opacity="0.9"/>
<path d="M15.3045 20.4024C15.7749 20.4024 16.1562 20.0211 16.1562 19.5506C16.1562 19.0802 15.7749 18.6989 15.3045 18.6989C14.834 18.6989 14.4527 19.0802 14.4527 19.5506C14.4527 20.0211 14.834 20.4024 15.3045 20.4024Z" fill="url(#paint5_linear)" fill-opacity="0.9"/>
<path d="M69.9192 64.1984C70.9004 63.0298 72.1202 62.3399 73.6772 62.517C75.2343 62.6942 76.3331 63.5391 77.0043 64.994C77.1661 64.8475 77.3143 64.7197 77.4557 64.5851C77.8432 64.2084 78.3049 63.9166 78.8115 63.7283C79.318 63.54 79.8583 63.4593 80.3977 63.4914C81.3961 63.5339 82.3422 63.9498 83.0485 64.6567C83.5732 65.1558 83.8219 65.8083 84.057 66.459C84.5425 67.7997 84.999 69.1507 85.4556 70.4999C86.0399 72.2273 86.6259 73.953 87.1847 75.6872C87.5663 76.8797 87.9257 78.0722 88.2528 79.2647C88.5935 80.5048 88.5935 81.7706 88.4487 83.0431C88.3715 83.7953 88.2168 84.5374 87.9871 85.2578C87.6491 86.2173 87.2093 87.1379 86.6753 88.0039C85.7503 89.5626 84.4369 90.7296 82.9139 91.6836C82.1782 92.1124 81.3956 92.4553 80.5817 92.7057C79.1422 93.1997 77.6857 93.6665 76.253 94.1503C75.3501 94.4676 74.4008 94.6329 73.4438 94.6392C72.5128 94.6367 71.586 94.5118 70.6875 94.2678C69.3911 93.9118 68.231 93.2457 67.0436 92.6478C65.0249 91.6256 63.0113 90.5831 60.9909 89.5558C60.1391 89.1214 59.3333 88.6189 58.7439 87.8523C58.3657 87.3582 58.0216 86.8301 57.6894 86.3191C57.2764 85.6232 57.0006 84.8547 56.8768 84.055C56.6403 82.8642 56.6805 81.635 56.9943 80.4622C57.0841 80.1727 57.1981 79.8912 57.335 79.6207C57.8308 78.5679 58.3282 77.5151 58.841 76.4708C58.902 76.3571 58.9378 76.2317 58.946 76.1029C58.9543 75.9742 58.9347 75.8452 58.8887 75.7247C58.4832 74.5117 58.0965 73.2937 57.7132 72.0757C57.5357 71.5025 57.4955 70.8956 57.5957 70.304C57.6264 70.1554 57.6768 70.0116 57.7456 69.8764C57.8938 69.5629 58.059 69.258 58.2055 68.9445C58.565 68.1745 59.1953 67.7112 59.9483 67.3909C60.6837 67.0533 61.506 66.9532 62.3009 67.1047C62.3688 67.1115 62.437 67.1149 62.5053 67.1149C62.6757 67.1336 62.754 67.0553 62.72 66.89C62.6532 66.4688 62.7039 66.0373 62.8665 65.643C63.1578 64.8083 63.5615 64.0502 64.3094 63.5051C65.021 62.971 65.8881 62.685 66.7778 62.6908C67.3277 62.6878 67.872 62.802 68.3743 63.0259C68.8766 63.2497 69.3254 63.578 69.6909 63.9889C69.7369 64.04 69.7863 64.0877 69.8357 64.1354C69.8459 64.1456 69.8715 64.1609 69.9192 64.1984ZM59.7779 78.464C59.5173 79.0125 59.2669 79.4861 59.0624 79.9972C58.8615 80.4912 58.7026 81.0012 58.5871 81.5219C58.4721 82.1552 58.4687 82.8038 58.5769 83.4384C58.7042 84.3577 59.0399 85.2357 59.5582 86.0056C60.1459 86.8841 60.9574 87.5899 61.9091 88.0499C64.8579 89.5115 67.8 90.9885 70.7437 92.4587C70.8727 92.5352 71.0121 92.5926 71.1577 92.629C71.6466 92.7091 72.1389 92.7823 72.6346 92.8283C73.6217 92.9326 74.6196 92.8329 75.5665 92.5353C76.9651 92.0856 78.3671 91.6393 79.7589 91.1623C80.6499 90.8573 81.5374 90.5251 82.3228 89.9868C83.3251 89.3178 84.1998 88.4749 84.9053 87.4979C85.5878 86.5597 86.0893 85.5025 86.384 84.3804C86.5337 83.805 86.643 83.2198 86.7111 82.6292C86.7946 81.8558 86.8321 81.0687 86.6379 80.3072C86.4011 79.3737 86.1268 78.4504 85.8338 77.5287C85.3789 76.0739 84.9053 74.6327 84.4352 73.1727C84.0859 72.0961 83.7401 71.016 83.3704 69.9462C83.0008 68.8764 82.6328 67.8594 82.241 66.8253C82.1381 66.5024 81.9731 66.2026 81.7555 65.9429C81.0383 65.195 79.5221 64.9344 78.6277 65.9429C78.1729 66.4539 77.8799 67.0434 78.0042 67.7571C78.069 68.1353 78.1746 68.5084 78.2632 68.8832C78.3006 69.0431 78.29 69.2105 78.2327 69.3645C78.1755 69.5184 78.0741 69.652 77.9412 69.7486C77.8228 69.8553 77.6752 69.9242 77.5173 69.9464C77.3595 69.9685 77.1986 69.943 77.0554 69.873C76.759 69.7571 76.6806 69.4914 76.5903 69.2443C76.1661 68.0893 75.7743 66.9241 75.3382 65.7742C75.2244 65.4411 75.0356 65.1386 74.7862 64.8901C74.0247 64.2086 73.0622 64.0383 72.0486 64.6345C71.3859 65.0195 70.9107 65.9309 71.0691 66.6788C71.2156 67.3602 71.4098 68.0331 71.6023 68.7043C71.8186 69.4573 72.0691 70.2 72.2837 70.9547C72.3118 71.0585 72.3174 71.1671 72.3001 71.2732C72.2827 71.3793 72.2428 71.4805 72.1831 71.5699C72.1234 71.6593 72.0452 71.7349 71.9539 71.7916C71.8625 71.8483 71.76 71.8847 71.6534 71.8985C71.3451 71.9598 71.098 71.8286 70.8459 71.7009C70.7774 71.6636 70.7243 71.6032 70.696 71.5305C70.4575 70.8491 70.2343 70.1523 69.9958 69.4658C69.5648 68.2256 69.1441 66.9854 68.6892 65.7521C68.2344 64.5187 66.5308 64.1064 65.4712 64.8304C65.0286 65.1552 64.7105 65.6217 64.57 66.1524C64.495 66.3477 64.4749 66.5598 64.5121 66.7657C64.9806 68.3602 65.4797 69.9462 65.9567 71.5356C66.1078 72.0399 66.2378 72.5509 66.3468 73.0688C66.415 73.3874 66.1765 73.7315 65.8085 73.8525C65.4831 73.9632 65.0606 73.9002 64.9107 73.6361C64.7244 73.3172 64.5638 72.9839 64.4303 72.6395C64.1152 71.815 63.8375 70.9769 63.524 70.1523C63.2498 69.4283 62.306 68.8082 61.5309 68.827C61.1745 68.8263 60.8233 68.9132 60.5085 69.0802C60.1936 69.2472 59.9246 69.489 59.7251 69.7844C59.4014 70.2477 59.214 70.7673 59.3844 71.3516C59.6059 72.1114 59.8239 72.8729 60.0658 73.6276C60.4713 74.9053 60.8989 76.1829 61.306 77.4538C61.6604 78.5696 61.9977 79.6939 62.3452 80.8132C62.3853 80.927 62.396 81.0492 62.3764 81.1683C62.3567 81.2874 62.3073 81.3997 62.2328 81.4946C61.8784 81.9767 60.984 81.9358 60.7558 81.2799C60.5173 80.5985 60.2703 79.9171 60.0301 79.2238C59.9295 78.9802 59.8699 78.7519 59.7779 78.464Z" fill="#D71920"/>
<path d="M59.778 78.464C59.8699 78.7519 59.9364 78.975 60.0147 79.205C60.255 79.8864 60.502 80.5679 60.7405 81.2612C60.9687 81.9171 61.8631 81.958 62.2174 81.4759C62.292 81.3809 62.3414 81.2687 62.3611 81.1496C62.3807 81.0304 62.37 80.9083 62.3299 80.7944C61.9892 79.6752 61.6485 78.5508 61.2907 77.435C60.8836 76.1574 60.456 74.8797 60.0505 73.6088C59.812 72.8542 59.594 72.0927 59.3691 71.3329C59.1988 70.7486 59.393 70.229 59.7098 69.7656C59.9093 69.4702 60.1783 69.2284 60.4932 69.0615C60.8081 68.8945 61.1592 68.8075 61.5156 68.8082C62.2907 68.7895 63.2345 69.4096 63.5087 70.1336C63.8222 70.9581 64.0999 71.7963 64.415 72.6208C64.5485 72.9652 64.7091 73.2984 64.8954 73.6174C65.0453 73.8814 65.4678 73.9444 65.7932 73.8337C66.1526 73.7128 66.3997 73.3686 66.3315 73.0501C66.218 72.5345 66.0879 72.0234 65.9414 71.5169C65.4644 69.9241 64.9653 68.338 64.4968 66.7469C64.4596 66.5411 64.4797 66.3289 64.5547 66.1337C64.6952 65.603 65.0133 65.1364 65.4559 64.8117C66.5155 64.0877 68.231 64.5136 68.6739 65.7333C69.1168 66.9531 69.5495 68.2069 69.9805 69.4471C70.219 70.1285 70.4422 70.8252 70.6807 71.5118C70.709 71.5845 70.7621 71.6448 70.8306 71.6821C71.0827 71.8099 71.3297 71.9411 71.6381 71.8797C71.7447 71.866 71.8472 71.8295 71.9386 71.7728C72.0299 71.7162 72.1081 71.6406 72.1678 71.5512C72.2275 71.4617 72.2674 71.3606 72.2848 71.2545C72.3021 71.1483 72.2965 71.0397 72.2684 70.936C72.0589 70.1813 71.8084 69.4385 71.587 68.6856C71.3945 68.0144 71.2003 67.3432 71.0538 66.66C70.8953 65.9173 71.3706 65.0059 72.0333 64.6158C73.0554 64.0264 74.0094 64.1899 74.7709 64.8713C75.0202 65.1198 75.2091 65.4223 75.3229 65.7555C75.759 66.9054 76.1508 68.0706 76.575 69.2256C76.6653 69.4726 76.7453 69.7367 77.0401 69.8542C77.1833 69.9242 77.3442 69.9498 77.502 69.9276C77.6599 69.9055 77.8075 69.8366 77.9259 69.7298C78.0588 69.6333 78.1602 69.4997 78.2174 69.3457C78.2747 69.1918 78.2853 69.0244 78.2479 68.8644C78.1576 68.4897 78.0537 68.1166 77.9889 67.7384C77.8646 67.0246 78.1593 66.4352 78.6124 65.9241C79.5068 64.9139 81.023 65.1746 81.7402 65.9241C81.9578 66.1839 82.1227 66.4836 82.2257 66.8066C82.6175 67.84 82.994 68.8804 83.3551 69.9275C83.7248 70.9973 84.0706 72.0773 84.4199 73.154C84.89 74.6054 85.3636 76.05 85.8185 77.51C86.1047 78.4316 86.3857 79.3549 86.6225 80.2885C86.8167 81.05 86.7793 81.837 86.6958 82.6104C86.6276 83.2011 86.5184 83.7862 86.3687 84.3617C86.074 85.4837 85.5725 86.541 84.89 87.4792C84.1845 88.4562 83.3098 89.2991 82.3074 89.9681C81.5221 90.5064 80.6346 90.8386 79.7436 91.1435C78.3518 91.6205 76.9498 92.0668 75.5512 92.5166C74.6043 92.8141 73.6064 92.9139 72.6193 92.8096C72.1236 92.7636 71.6313 92.6903 71.1424 92.6103C70.9968 92.5739 70.8574 92.5165 70.7284 92.4399C67.7847 90.9697 64.8426 89.4928 61.8938 88.0311C60.9421 87.5711 60.1305 86.8654 59.5429 85.9869C59.0245 85.217 58.6889 84.3389 58.5616 83.4196C58.4534 82.785 58.4568 82.1365 58.5718 81.5031C58.6873 80.9825 58.8462 80.4724 59.0471 79.9784C59.2601 79.4912 59.5173 79.0125 59.778 78.464Z" fill="#FFDDE3"/>
<path d="M74.3381 92.4723C73.8424 92.4263 73.3501 92.3531 72.8612 92.273C72.7156 92.2366 72.5762 92.1792 72.4472 92.1027C69.5035 90.6325 66.5614 89.1555 63.6126 87.6939C62.6609 87.2339 61.8494 86.5281 61.2617 85.6496C60.7434 84.8797 60.4077 84.0017 60.2804 83.0823C60.1722 82.4478 60.1756 81.7992 60.2906 81.1658C60.3383 80.9376 60.3997 80.7093 60.461 80.4844C60.3094 80.0534 60.1561 79.6327 60.0062 79.1948C59.9278 78.97 59.8613 78.7417 59.7694 78.4538C59.5087 79.0023 59.2583 79.4759 59.0539 79.987C58.853 80.481 58.694 80.991 58.5786 81.5117C58.4636 82.145 58.4601 82.7936 58.5684 83.4282C58.6957 84.3475 59.0313 85.2256 59.5496 85.9954C60.1373 86.874 60.9489 87.5797 61.9005 88.0397C64.8494 89.5013 67.7914 90.9783 70.7351 92.4485C70.8641 92.525 71.0036 92.5824 71.1491 92.6188C71.638 92.6989 72.1303 92.7722 72.6261 92.8182C73.6131 92.9224 74.611 92.8227 75.5579 92.5251L75.6618 92.4928C75.2208 92.5229 74.778 92.5161 74.3381 92.4723Z" fill="#D71920" fill-opacity="0.29"/>
<path d="M60.0505 73.6089C60.456 74.8865 60.8836 76.1642 61.2907 77.4334C61.4815 78.0341 61.6683 78.6361 61.8512 79.2391C62.0488 79.7996 62.2481 80.3584 62.444 80.9205C62.6723 81.5764 63.5667 81.6173 63.921 81.1352C63.9956 81.0402 64.045 80.928 64.0646 80.8089C64.0843 80.6898 64.0736 80.5676 64.0334 80.4538C63.6927 79.3345 63.352 78.2102 62.9943 77.0926C62.5871 75.8167 62.1595 74.5373 61.7541 73.2682C61.5156 72.5135 61.2975 71.752 61.0727 70.9922C60.9023 70.4079 61.0965 69.8883 61.4134 69.425C61.564 69.2069 61.7513 69.0167 61.967 68.8628C61.8197 68.8241 61.6678 68.8058 61.5156 68.8083C61.1592 68.8076 60.808 68.8945 60.4932 69.0615C60.1783 69.2284 59.9093 69.4703 59.7098 69.7657C59.3861 70.229 59.1988 70.7486 59.3691 71.3329C59.5889 72.0927 59.812 72.861 60.0505 73.6089Z" fill="#D71920" fill-opacity="0.29"/>
<path d="M56.6774 75.2C56.6774 75.2 36.4784 74.0075 33.5091 79.2885C33.5091 79.2885 33.1463 80.6956 33.6215 81.7433L30.8618 81.8711L35.8259 86.1487L40.5635 81.4265L38.1121 81.6462C38.1121 81.6462 36.136 78.2067 45.1802 77.1488C54.2243 76.0909 56.6928 76.297 56.6928 76.297L56.6774 75.2Z" fill="#0FA555"/>
<path d="M88.5645 75.2C88.5645 75.2 108.764 74.0075 111.733 79.2885C111.733 79.2885 112.096 80.6956 111.62 81.7433L114.38 81.8711L109.416 86.1487L104.678 81.4265L107.13 81.6462C107.13 81.6462 109.106 78.2067 100.062 77.1488C91.0176 76.0909 88.5492 76.297 88.5492 76.297L88.5645 75.2Z" fill="#0FA555"/>
<rect x="16.7202" y="26.6341" width="122.465" height="4.50238" fill="white"/>
<rect x="7.12199" y="41.9422" width="11.8699" height="26.1138" fill="white"/>
<rect x="9.49598" y="60.9341" width="7.12195" height="1.18699" fill="#D71920"/>
<rect x="9.49598" y="48.4707" width="7.12195" height="1.18699" fill="#D71920"/>
<rect x="13.6504" y="45.5032" width="7.12195" height="1.18699" transform="rotate(90 13.6504 45.5032)" fill="#D71920"/>
<defs>
<linearGradient id="paint0_linear" x1="6.111" y1="25.7335" x2="13.0388" y2="26.4823" gradientUnits="userSpaceOnUse">
<stop stop-color="white"/>
<stop offset="0.848958" stop-color="#FFF1E6"/>
</linearGradient>
<linearGradient id="paint1_linear" x1="7.56435" y1="25.7335" x2="11.2032" y2="25.9383" gradientUnits="userSpaceOnUse">
<stop stop-color="white"/>
<stop offset="0.848958" stop-color="#FFF1E6"/>
</linearGradient>
<linearGradient id="paint2_linear" x1="6.11101" y1="27.6684" x2="12.645" y2="29.4295" gradientUnits="userSpaceOnUse">
<stop stop-color="white"/>
<stop offset="0.848958" stop-color="#FFF1E6"/>
</linearGradient>
<linearGradient id="paint3_linear" x1="5.98682" y1="18.6989" x2="7.8141" y2="18.8964" gradientUnits="userSpaceOnUse">
<stop stop-color="white"/>
<stop offset="0.848958" stop-color="#FFF1E6"/>
</linearGradient>
<linearGradient id="paint4_linear" x1="10.4161" y1="18.6989" x2="12.2434" y2="18.8964" gradientUnits="userSpaceOnUse">
<stop stop-color="white"/>
<stop offset="0.848958" stop-color="#FFF1E6"/>
</linearGradient>
<linearGradient id="paint5_linear" x1="14.5045" y1="18.6989" x2="16.3318" y2="18.8964" gradientUnits="userSpaceOnUse">
<stop stop-color="white"/>
<stop offset="0.848958" stop-color="#FFF1E6"/>
</linearGradient>
</defs>
</svg>
