<svg width="40" height="40" viewBox="0 0 40 40" fill="none" xmlns="http://www.w3.org/2000/svg">
<path d="M29.9055 17.7064V11.1849C29.9055 10.6858 29.5547 10.2624 29.0771 10.168L20.4573 5.13885C20.14 4.95372 19.7491 4.95372 19.4319 5.13885L10.6071 10.2876C10.2899 10.4726 10.0945 10.8147 10.0945 11.1849V17.7064C6.69433 18.7875 2.5 21.0187 2.5 24.6189C2.5 27.7084 5.74105 30.3923 11.2025 31.8557L10.7951 33.741C10.6203 34.5494 11.4131 35.2333 12.1777 34.9242L17.3047 32.8518C17.9829 32.5777 18.1687 31.6916 17.6553 31.1635L13.8271 27.2259C13.2576 26.6402 12.2677 26.9265 12.0939 27.7311L11.6406 29.8286C7.31318 28.6503 4.55078 26.6351 4.55078 24.6189C4.55078 22.8681 6.64846 21.0995 10.0945 19.8894V21.4824C10.0945 21.8526 10.2899 22.1947 10.6071 22.3797L19.4873 27.5608C19.8046 27.7459 20.1954 27.7459 20.5127 27.5608L29.3929 22.3797C29.7101 22.1946 29.9055 21.8526 29.9055 21.4824V19.8894C33.3515 21.0995 35.4492 22.8681 35.4492 24.6189C35.4492 28.4561 27.1095 30.404 23.014 30.7453C22.4496 30.7924 22.0299 31.293 22.0764 31.8633C22.1226 32.428 22.612 32.8577 23.1827 32.8107C28.5217 32.3647 37.5 30.0333 37.5 24.6189C37.5 21.0184 33.3045 18.7871 29.9055 17.7064ZM13.693 30.045L15.113 31.5057L13.2112 32.2745L13.693 30.045ZM19.9446 7.23269L26.7739 11.2173C25.9402 11.7037 20.5564 14.8448 20 15.1694C19.393 14.8153 14.0815 11.7164 13.1706 11.1849L19.9446 7.23269ZM12.1452 12.9797L18.9746 16.9642V24.8687L12.1452 20.8841V12.9797ZM27.8548 20.8841L21.0254 24.8687V16.9642L27.8548 12.9797V20.8841Z" fill="#383838"/>
<path d="M37.5 12.5002C37.5 8.35764 34.1421 5 30.0001 5C25.8579 5 22.5 8.35764 22.5 12.5002C22.5 16.6421 25.8579 20 30.0001 20C34.1421 20 37.5 16.6421 37.5 12.5002Z" fill="#D1091E"/>
<path d="M27.5 10.8207C27.5 10.5069 27.6016 10.1891 27.805 9.86707C28.0083 9.54508 28.305 9.27841 28.695 9.06703C29.085 8.85571 29.54 8.75 30.06 8.75C30.5433 8.75 30.97 8.8384 31.34 9.01502C31.71 9.19173 31.9958 9.43199 32.1975 9.73579C32.3991 10.0397 32.5 10.3699 32.5 10.7265C32.5 11.0073 32.4425 11.2534 32.3275 11.4646C32.2125 11.676 32.0758 11.8585 31.9175 12.012C31.7591 12.1656 31.475 12.424 31.065 12.7873C30.9516 12.8897 30.8607 12.9797 30.7925 13.0573C30.7241 13.1349 30.6733 13.2059 30.64 13.2703C30.6066 13.3347 30.5807 13.3991 30.5625 13.4635C30.5441 13.5279 30.5166 13.641 30.48 13.8028C30.4166 14.1463 30.2183 14.318 29.885 14.318C29.7116 14.318 29.5658 14.2619 29.4475 14.1496C29.3291 14.0373 29.27 13.8706 29.27 13.6493C29.27 13.3719 29.3133 13.1316 29.4 12.9285C29.4866 12.7254 29.6016 12.547 29.745 12.3935C29.8883 12.2399 30.0816 12.0575 30.325 11.8461C30.5383 11.6612 30.6925 11.5216 30.7875 11.4275C30.8825 11.3334 30.9625 11.2286 31.0275 11.1129C31.0925 10.9974 31.125 10.8719 31.125 10.7365C31.125 10.4723 31.0258 10.2494 30.8275 10.0677C30.6291 9.88612 30.3733 9.79524 30.06 9.79524C29.6933 9.79524 29.4233 9.88689 29.25 10.0702C29.0766 10.2535 28.93 10.5235 28.81 10.8801C28.6966 11.2534 28.4816 11.4399 28.165 11.4399C27.9782 11.4399 27.8207 11.3747 27.6925 11.2442C27.5641 11.1138 27.5 10.9726 27.5 10.8207ZM29.94 16.25C29.7366 16.25 29.5591 16.1847 29.4075 16.0543C29.2558 15.9239 29.18 15.7414 29.18 15.5069C29.18 15.2989 29.2533 15.1239 29.4 14.9818C29.5466 14.8399 29.7266 14.7688 29.94 14.7688C30.15 14.7688 30.3266 14.8399 30.47 14.9818C30.6133 15.1239 30.685 15.2989 30.685 15.5069C30.685 15.7381 30.61 15.9198 30.46 16.0519C30.31 16.1839 30.1367 16.25 29.94 16.25Z" fill="white"/>
</svg>
