<?xml version="1.0" encoding="UTF-8"?>
<svg width="114px" height="94px" viewBox="0 0 114 94" version="1.1" xmlns="http://www.w3.org/2000/svg" xmlns:xlink="http://www.w3.org/1999/xlink">
    <!-- Generator: Sketch 58 (84663) - https://sketch.com -->
    <title>gyro</title>
    <desc>Created with Sketch.</desc>
    <g id="Page-1" stroke="none" stroke-width="1" fill="none" fill-rule="evenodd">
        <g id="gyro" fill="#9B928F">
            <path d="M56.2366,0.128065 C56.2366,0.198501 56.0648,0.256131 55.8549,0.256131 C55.645,0.256131 55.4732,0.31376 55.4732,0.384196 C55.4732,0.454632 55.3587,0.512262 55.2188,0.512262 C55.0788,0.512262 54.9643,0.569891 54.9643,0.640327 C54.9643,0.710763 54.8498,0.768392 54.7098,0.768392 C54.5699,0.768392 54.4554,0.826022 54.4554,0.896458 C54.4554,0.966894 54.3409,1.02452 54.2009,1.02452 C54.0609,1.02452 53.9464,1.08215 53.9464,1.15259 C53.9464,1.22302 53.8319,1.28065 53.692,1.28065 C53.552,1.28065 53.4375,1.33828 53.4375,1.40872 C53.4375,1.47916 53.323,1.53678 53.183,1.53678 C53.0431,1.53678 52.9286,1.59441 52.9286,1.66485 C52.9286,1.73529 52.8141,1.79292 52.6741,1.79292 C52.5342,1.79292 52.4196,1.85054 52.4196,1.92098 C52.4196,1.99142 52.3051,2.04905 52.1652,2.04905 C52.0252,2.04905 51.9107,2.10668 51.9107,2.17711 C51.9107,2.24755 51.7962,2.30518 51.6563,2.30518 C51.5163,2.30518 51.4018,2.36281 51.4018,2.43324 C51.4018,2.50368 51.2873,2.56131 51.1473,2.56131 C51.0074,2.56131 50.8929,2.61894 50.8929,2.68937 C50.8929,2.75981 50.7784,2.81744 50.6384,2.81744 C50.4984,2.81744 50.3839,2.87507 50.3839,2.9455 C50.3839,3.01594 50.2694,3.07357 50.1295,3.07357 C49.9895,3.07357 49.875,3.1312 49.875,3.20163 C49.875,3.27207 49.7605,3.3297 49.6205,3.3297 C49.4806,3.3297 49.3661,3.38733 49.3661,3.45777 C49.3661,3.5282 49.2516,3.58583 49.1116,3.58583 C48.9717,3.58583 48.8571,3.64346 48.8571,3.7139 C48.8571,3.78433 48.7426,3.84196 48.6027,3.84196 C48.4627,3.84196 48.3482,3.89959 48.3482,3.97003 C48.3482,4.04046 48.2337,4.09809 48.0938,4.09809 C47.9538,4.09809 47.8393,4.15572 47.8393,4.22616 C47.8393,4.29659 47.7248,4.35422 47.5848,4.35422 C47.4449,4.35422 47.3304,4.41185 47.3304,4.48229 C47.3304,4.55272 47.2159,4.61035 47.0759,4.61035 C46.9359,4.61035 46.8214,4.66798 46.8214,4.73842 C46.8214,4.80886 46.7069,4.86649 46.567,4.86649 C46.427,4.86649 46.3125,4.92411 46.3125,4.99455 C46.3125,5.06499 46.198,5.12262 46.058,5.12262 C45.9181,5.12262 45.8036,5.18024 45.8036,5.25068 C45.8036,5.32112 45.6891,5.37875 45.5491,5.37875 C45.4092,5.37875 45.2946,5.43638 45.2946,5.50681 C45.2946,5.57725 45.1801,5.63488 45.0402,5.63488 C44.9002,5.63488 44.7857,5.69251 44.7857,5.76294 C44.7857,5.83338 44.6712,5.89101 44.5313,5.89101 C44.3913,5.89101 44.2768,5.94864 44.2768,6.01907 C44.2768,6.08951 44.1623,6.14714 44.0223,6.14714 C43.8824,6.14714 43.7679,6.20477 43.7679,6.2752 C43.7679,6.34564 43.6534,6.40327 43.5134,6.40327 C43.3734,6.40327 43.2589,6.4609 43.2589,6.53133 C43.2589,6.60177 43.1444,6.6594 43.0045,6.6594 C42.8645,6.6594 42.75,6.71703 42.75,6.78747 C42.75,6.8579 42.6355,6.91553 42.4955,6.91553 C42.3556,6.91553 42.2411,6.97316 42.2411,7.0436 C42.2411,7.11403 42.1266,7.17166 41.9866,7.17166 C41.8467,7.17166 41.7321,7.22929 41.7321,7.29973 C41.7321,7.37016 41.6176,7.42779 41.4777,7.42779 C41.3377,7.42779 41.2232,7.48542 41.2232,7.55586 C41.2232,7.62629 41.1087,7.68392 40.9688,7.68392 C40.8288,7.68392 40.7143,7.74155 40.7143,7.81199 C40.7143,7.88242 40.5998,7.94005 40.4598,7.94005 C40.3199,7.94005 40.2054,7.99768 40.2054,8.06812 C40.2054,8.13856 40.0909,8.19619 39.9509,8.19619 C39.8109,8.19619 39.6964,8.25381 39.6964,8.32425 C39.6964,8.39469 39.5819,8.45232 39.442,8.45232 C39.302,8.45232 39.1875,8.50994 39.1875,8.58038 C39.1875,8.65082 39.073,8.70845 38.933,8.70845 C38.7931,8.70845 38.6786,8.76608 38.6786,8.83651 C38.6786,8.90695 38.5641,8.96458 38.4241,8.96458 C38.2842,8.96458 38.1696,9.02221 38.1696,9.09264 C38.1696,9.16308 38.0551,9.22071 37.9152,9.22071 C37.7752,9.22071 37.6607,9.27834 37.6607,9.34877 C37.6607,9.41921 37.5462,9.47684 37.4062,9.47684 C37.2663,9.47684 37.1518,9.53447 37.1518,9.6049 C37.1518,9.67534 37.0373,9.73297 36.8973,9.73297 C36.7574,9.73297 36.6429,9.7906 36.6429,9.86104 C36.6429,9.93147 36.5284,9.9891 36.3884,9.9891 C36.2484,9.9891 36.1339,10.0467 36.1339,10.1172 C36.1339,10.1876 36.0194,10.2452 35.8795,10.2452 C35.7395,10.2452 35.625,10.3029 35.625,10.3733 C35.625,10.4437 35.5105,10.5014 35.3705,10.5014 C35.2306,10.5014 35.1161,10.559 35.1161,10.6294 C35.1161,10.6999 35.0016,10.7575 34.8616,10.7575 C34.7217,10.7575 34.6071,10.8151 34.6071,10.8856 C34.6071,10.956 34.4926,11.0136 34.3527,11.0136 C34.2127,11.0136 34.0982,11.0713 34.0982,11.1417 C34.0982,11.2121 33.9837,11.2698 33.8438,11.2698 C33.7038,11.2698 33.5893,11.3274 33.5893,11.3978 C33.5893,11.4683 33.4748,11.5259 33.3348,11.5259 C33.1949,11.5259 33.0804,11.5835 33.0804,11.654 C33.0804,11.7244 32.9659,11.782 32.8259,11.782 C32.6859,11.782 32.5714,11.8396 32.5714,11.9101 C32.5714,11.9805 32.4569,12.0381 32.317,12.0381 C32.177,12.0381 32.0625,12.0958 32.0625,12.1662 C32.0625,12.2366 31.948,12.2943 31.808,12.2943 C31.6681,12.2943 31.5536,12.3519 31.5536,12.4223 C31.5536,12.4928 31.4662,12.5504 31.3594,12.5504 C31.1226,12.5504 30.0268,13.6303 30.0268,13.8635 C30.0268,13.9554 29.9123,14.1137 29.7723,14.2153 C29.6324,14.3168 29.5179,14.5357 29.5179,14.7018 C29.5179,14.8867 29.3205,15.1946 29.0089,15.4959 L28.5,15.9881 L28.5,17.7271 L28.5,19.4659 L28.1183,19.4659 C27.9084,19.4659 27.7366,19.5236 27.7366,19.594 C27.7366,19.6644 27.5648,19.7221 27.3549,19.7221 C27.145,19.7221 26.9732,19.7797 26.9732,19.8501 C26.9732,19.9206 26.8587,19.9782 26.7188,19.9782 C26.5788,19.9782 26.4643,20.0358 26.4643,20.1063 C26.4643,20.1767 26.2925,20.2343 26.0826,20.2343 C25.8727,20.2343 25.7009,20.292 25.7009,20.3624 C25.7009,20.4328 25.5864,20.4905 25.4464,20.4905 C25.3065,20.4905 25.192,20.5481 25.192,20.6185 C25.192,20.689 25.0202,20.7466 24.8103,20.7466 C24.6003,20.7466 24.4286,20.8042 24.4286,20.8747 C24.4286,20.9451 24.3141,21.0027 24.1741,21.0027 C24.0342,21.0027 23.9196,21.0604 23.9196,21.1308 C23.9196,21.2012 23.8051,21.2589 23.6652,21.2589 C23.5252,21.2589 23.4107,21.3165 23.4107,21.3869 C23.4107,21.4574 23.2962,21.515 23.1563,21.515 C23.0163,21.515 22.9018,21.5726 22.9018,21.6431 C22.9018,21.7135 22.7873,21.7711 22.6473,21.7711 C22.5074,21.7711 22.3929,21.8287 22.3929,21.8992 C22.3929,21.9696 22.2783,22.0272 22.1384,22.0272 C21.9984,22.0272 21.8839,22.0849 21.8839,22.1553 C21.8839,22.2257 21.7694,22.2834 21.6295,22.2834 C21.4895,22.2834 21.375,22.341 21.375,22.4114 C21.375,22.4819 21.2605,22.5395 21.1205,22.5395 C20.9806,22.5395 20.8661,22.5971 20.8661,22.6676 C20.8661,22.738 20.7516,22.7956 20.6116,22.7956 C20.4717,22.7956 20.3571,22.8533 20.3571,22.9237 C20.3571,22.9941 20.2426,23.0518 20.1027,23.0518 C19.9627,23.0518 19.8482,23.1094 19.8482,23.1798 C19.8482,23.2503 19.7337,23.3079 19.5938,23.3079 C19.4538,23.3079 19.3393,23.3655 19.3393,23.436 C19.3393,23.5064 19.2248,23.564 19.0848,23.564 C18.9449,23.564 18.8304,23.6217 18.8304,23.6921 C18.8304,23.7625 18.7284,23.8202 18.604,23.8202 C18.4795,23.8202 18.2951,23.9354 18.1942,24.0763 C18.0933,24.2172 17.9089,24.3324 17.7844,24.3324 C17.66,24.3324 17.558,24.3901 17.558,24.4605 C17.558,24.5309 17.4561,24.5886 17.3317,24.5886 C17.2071,24.5886 17.0228,24.7038 16.9219,24.8447 C16.821,24.9856 16.6492,25.1008 16.5402,25.1008 C16.4311,25.1008 16.2594,25.2161 16.1585,25.3569 C16.0576,25.4978 15.8732,25.6131 15.7487,25.6131 C15.6242,25.6131 15.5223,25.6707 15.5223,25.7411 C15.5223,25.8116 15.4308,25.8692 15.3189,25.8692 C15.207,25.8692 14.955,26.0421 14.7589,26.2534 C14.5629,26.4647 14.3234,26.6376 14.2271,26.6376 C14.1307,26.6376 13.9692,26.7529 13.8683,26.8937 C13.7674,27.0346 13.606,27.1499 13.5095,27.1499 C13.4132,27.1499 13.1737,27.3228 12.9777,27.5341 C12.7816,27.7454 12.5537,27.9183 12.4713,27.9183 C12.389,27.9183 12.1016,28.1488 11.8326,28.4305 C11.5636,28.7123 11.2787,28.9428 11.1994,28.9428 C11.12,28.9428 10.7179,29.2886 10.3058,29.7112 C9.8937,30.1338 9.49534,30.4796 9.42065,30.4796 C9.24316,30.4796 6.87054,32.8677 6.87054,33.0464 C6.87054,33.1216 6.52701,33.5225 6.10714,33.9373 C5.68728,34.3521 5.34375,34.7581 5.34375,34.8393 C5.34375,34.9206 5.17199,35.1487 4.96205,35.346 C4.75212,35.5434 4.58036,35.7844 4.58036,35.8814 C4.58036,35.9784 4.46585,36.1409 4.32589,36.2425 C4.18594,36.3441 4.07143,36.5169 4.07143,36.6267 C4.07143,36.7365 3.95692,36.9093 3.81696,37.0109 C3.67701,37.1125 3.5625,37.2853 3.5625,37.3951 C3.5625,37.5048 3.44799,37.6777 3.30804,37.7793 C3.16808,37.8808 3.05357,38.0664 3.05357,38.1918 C3.05357,38.317 2.99632,38.4196 2.92634,38.4196 C2.85636,38.4196 2.79911,38.5349 2.79911,38.6757 C2.79911,38.8166 2.74185,38.9319 2.67188,38.9319 C2.6019,38.9319 2.54464,39.0471 2.54464,39.188 C2.54464,39.3289 2.48739,39.4441 2.41741,39.4441 C2.34743,39.4441 2.29018,39.5594 2.29018,39.7003 C2.29018,39.8411 2.23292,39.9564 2.16295,39.9564 C2.09297,39.9564 2.03571,40.0717 2.03571,40.2125 C2.03571,40.3534 1.97846,40.4687 1.90848,40.4687 C1.8385,40.4687 1.78125,40.5839 1.78125,40.7248 C1.78125,40.8657 1.724,40.9809 1.65402,40.9809 C1.58404,40.9809 1.52679,41.1538 1.52679,41.3651 C1.52679,41.5764 1.46953,41.7493 1.39955,41.7493 C1.32958,41.7493 1.27232,41.8646 1.27232,42.0054 C1.27232,42.1463 1.21507,42.2616 1.14509,42.2616 C1.07511,42.2616 1.01786,42.4921 1.01786,42.7738 C1.01786,43.0556 0.960603,43.2861 0.890625,43.2861 C0.820647,43.2861 0.763393,43.459 0.763393,43.6703 C0.763393,43.8816 0.706138,44.0545 0.636161,44.0545 C0.566183,44.0545 0.508929,44.3426 0.508929,44.6948 C0.508929,45.047 0.451674,45.3351 0.381696,45.3351 C0.310955,45.3351 0.254464,45.6767 0.254464,46.1035 C0.254464,46.5304 0.197973,46.8719 0.127232,46.8719 C0.0477121,46.8719 0,47.6403 0,48.921 C0,50.2016 0.0477121,50.97 0.127232,50.97 C0.197973,50.97 0.254464,51.3116 0.254464,51.7384 C0.254464,52.1653 0.310955,52.5068 0.381696,52.5068 C0.451674,52.5068 0.508929,52.795 0.508929,53.1471 C0.508929,53.4993 0.566183,53.7875 0.636161,53.7875 C0.706138,53.7875 0.763393,53.9604 0.763393,54.1717 C0.763393,54.383 0.820647,54.5559 0.890625,54.5559 C0.960603,54.5559 1.01786,54.7864 1.01786,55.0681 C1.01786,55.3499 1.07511,55.5804 1.14509,55.5804 C1.21507,55.5804 1.27232,55.6956 1.27232,55.8365 C1.27232,55.9774 1.32958,56.0926 1.39955,56.0926 C1.46953,56.0926 1.52679,56.2655 1.52679,56.4768 C1.52679,56.6881 1.58404,56.861 1.65402,56.861 C1.724,56.861 1.78125,56.9763 1.78125,57.1172 C1.78125,57.258 1.8385,57.3733 1.90848,57.3733 C1.97846,57.3733 2.03571,57.4886 2.03571,57.6294 C2.03571,57.7703 2.09297,57.8856 2.16295,57.8856 C2.23292,57.8856 2.29018,58.0008 2.29018,58.1417 C2.29018,58.2826 2.34743,58.3978 2.41741,58.3978 C2.48739,58.3978 2.54464,58.5131 2.54464,58.6539 C2.54464,58.7948 2.6019,58.9101 2.67188,58.9101 C2.74185,58.9101 2.79911,59.0253 2.79911,59.1662 C2.79911,59.3071 2.85636,59.4223 2.92634,59.4223 C2.99632,59.4223 3.05357,59.5249 3.05357,59.6502 C3.05357,59.7755 3.16808,59.9611 3.30804,60.0627 C3.44799,60.1642 3.5625,60.3371 3.5625,60.4469 C3.5625,60.5566 3.67701,60.7295 3.81696,60.8311 C3.95692,60.9326 4.07143,61.1055 4.07143,61.2153 C4.07143,61.325 4.18594,61.4979 4.32589,61.5995 C4.46585,61.701 4.58036,61.8635 4.58036,61.9606 C4.58036,62.0575 4.75212,62.2986 4.96205,62.4959 C5.17199,62.6933 5.34375,62.9213 5.34375,63.0027 C5.34375,63.0839 5.68728,63.4898 6.10714,63.9046 C6.52701,64.3194 6.87054,64.7203 6.87054,64.7955 C6.87054,64.9738 9.49801,67.6185 9.67524,67.6185 C9.74993,67.6185 10.1482,67.9643 10.5603,68.3869 C10.9724,68.8095 11.3757,69.1553 11.4564,69.1553 C11.5372,69.1553 11.7638,69.3282 11.9598,69.5395 C12.1559,69.7508 12.3849,69.9237 12.4688,69.9237 C12.5526,69.9237 12.7816,70.0966 12.9777,70.3079 C13.1737,70.5192 13.4028,70.6921 13.4866,70.6921 C13.5705,70.6921 13.7995,70.865 13.9955,71.0763 C14.1916,71.2876 14.4311,71.4605 14.5274,71.4605 C14.6238,71.4605 14.7853,71.5757 14.8862,71.7166 C14.9871,71.8575 15.1588,71.9727 15.2679,71.9727 C15.3769,71.9727 15.5487,72.088 15.6496,72.2289 C15.7504,72.3698 15.9348,72.485 16.0594,72.485 C16.1838,72.485 16.2857,72.5426 16.2857,72.6131 C16.2857,72.6835 16.3876,72.7411 16.5121,72.7411 C16.6366,72.7411 16.821,72.8564 16.9219,72.9973 C17.0228,73.1381 17.2071,73.2534 17.3317,73.2534 C17.4561,73.2534 17.558,73.311 17.558,73.3815 C17.558,73.4519 17.66,73.5095 17.7844,73.5095 C17.9089,73.5095 18.0933,73.6248 18.1942,73.7657 C18.2951,73.9065 18.4795,74.0218 18.604,74.0218 C18.7284,74.0218 18.8304,74.0794 18.8304,74.1499 C18.8304,74.2203 18.9449,74.2779 19.0848,74.2779 C19.2248,74.2779 19.3393,74.3356 19.3393,74.406 C19.3393,74.4764 19.4538,74.5341 19.5938,74.5341 C19.7337,74.5341 19.8482,74.5917 19.8482,74.6621 C19.8482,74.7326 19.9501,74.7902 20.0746,74.7902 C20.1991,74.7902 20.3835,74.9054 20.4844,75.0463 C20.5853,75.1872 20.7696,75.3025 20.8942,75.3025 C21.0186,75.3025 21.1205,75.3601 21.1205,75.4305 C21.1205,75.501 21.235,75.5586 21.375,75.5586 C21.515,75.5586 21.6295,75.6162 21.6295,75.6866 C21.6295,75.7571 21.744,75.8147 21.8839,75.8147 C22.0239,75.8147 22.1384,75.8723 22.1384,75.9428 C22.1384,76.0132 22.3102,76.0708 22.5201,76.0708 C22.73,76.0708 22.9018,76.1285 22.9018,76.1989 C22.9018,76.2693 23.0163,76.327 23.1563,76.327 C23.2962,76.327 23.4107,76.3846 23.4107,76.455 C23.4107,76.5255 23.5252,76.5831 23.6652,76.5831 C23.8051,76.5831 23.9196,76.6407 23.9196,76.7112 C23.9196,76.7816 24.0342,76.8392 24.1741,76.8392 C24.3141,76.8392 24.4286,76.8969 24.4286,76.9673 C24.4286,77.0377 24.6003,77.0954 24.8103,77.0954 C25.0202,77.0954 25.192,77.153 25.192,77.2234 C25.192,77.2939 25.3065,77.3515 25.4464,77.3515 C25.5864,77.3515 25.7009,77.4091 25.7009,77.4796 C25.7009,77.55 25.8154,77.6076 25.9554,77.6076 C26.0953,77.6076 26.2098,77.6653 26.2098,77.7357 C26.2098,77.8061 26.3816,77.8638 26.5915,77.8638 C26.8015,77.8638 26.9732,77.9214 26.9732,77.9918 C26.9732,78.0623 27.145,78.1199 27.3549,78.1199 C27.5648,78.1199 27.7366,78.1775 27.7366,78.248 C27.7366,78.3184 27.8511,78.376 27.9911,78.376 C28.131,78.376 28.2455,78.4336 28.2455,78.5041 C28.2455,78.5745 28.4173,78.6321 28.6272,78.6321 C28.8372,78.6321 29.0089,78.6898 29.0089,78.7602 C29.0089,78.8307 29.1807,78.8883 29.3906,78.8883 C29.6006,78.8883 29.7723,78.9459 29.7723,79.0163 C29.7723,79.0868 29.9441,79.1444 30.154,79.1444 C30.364,79.1444 30.5357,79.202 30.5357,79.2725 C30.5357,79.3429 30.7647,79.4005 31.0446,79.4005 C31.3246,79.4005 31.5536,79.4582 31.5536,79.5286 C31.5536,79.599 31.7253,79.6567 31.9353,79.6567 C32.1452,79.6567 32.317,79.7143 32.317,79.7847 C32.317,79.8552 32.546,79.9128 32.8259,79.9128 C33.1058,79.9128 33.3348,79.9704 33.3348,80.0409 C33.3348,80.1113 33.5638,80.1689 33.8438,80.1689 C34.1237,80.1689 34.3527,80.2266 34.3527,80.297 C34.3527,80.3674 34.5817,80.4251 34.8616,80.4251 C35.1415,80.4251 35.3705,80.4827 35.3705,80.5531 C35.3705,80.6236 35.6568,80.6812 36.0067,80.6812 C36.3566,80.6812 36.6429,80.7388 36.6429,80.8093 C36.6429,80.8797 36.9291,80.9373 37.279,80.9373 C37.6289,80.9373 37.9152,80.995 37.9152,81.0654 C37.9152,81.1385 38.2969,81.1935 38.8058,81.1935 C39.3147,81.1935 39.6964,81.2484 39.6964,81.3215 C39.6964,81.3984 40.2054,81.4496 40.9688,81.4496 C41.7321,81.4496 42.2411,81.5008 42.2411,81.5777 C42.2411,81.6586 43.1317,81.7057 44.6585,81.7057 C45.9881,81.7057 47.0759,81.7354 47.0759,81.7718 C47.0759,81.808 45.759,83.1614 44.1496,84.7793 C42.5401,86.3971 41.2232,87.8082 41.2232,87.9148 C41.2232,88.0217 41.166,88.109 41.096,88.109 C41.026,88.109 40.9688,88.2819 40.9688,88.4932 C40.9688,88.7045 40.9115,88.8774 40.8415,88.8774 C40.7673,88.8774 40.7143,89.3042 40.7143,89.9019 C40.7143,90.4996 40.7673,90.9264 40.8415,90.9264 C40.9115,90.9264 40.9688,91.0993 40.9688,91.3106 C40.9688,91.5219 41.026,91.6948 41.096,91.6948 C41.166,91.6948 41.2232,91.7825 41.2232,91.8897 C41.2232,92.1433 42.5589,93.4877 42.8108,93.4877 C42.9173,93.4877 43.0045,93.5454 43.0045,93.6158 C43.0045,93.6862 43.1762,93.7439 43.3862,93.7439 C43.5961,93.7439 43.7679,93.8015 43.7679,93.8719 C43.7679,93.9466 44.1919,94 44.7857,94 C45.3795,94 45.8036,93.9466 45.8036,93.8719 C45.8036,93.8015 45.9753,93.7439 46.1853,93.7439 C46.3952,93.7439 46.567,93.6862 46.567,93.6158 C46.567,93.5454 46.653,93.4877 46.7581,93.4877 C47.008,93.4877 60.5625,79.8444 60.5625,79.5929 C60.5625,79.4871 60.6198,79.4005 60.6897,79.4005 C60.7597,79.4005 60.817,79.2277 60.817,79.0163 C60.817,78.805 60.8742,78.6321 60.9442,78.6321 C61.0184,78.6321 61.0714,78.2053 61.0714,77.6076 C61.0714,77.0099 61.0184,76.5831 60.9442,76.5831 C60.8742,76.5831 60.817,76.4102 60.817,76.1989 C60.817,75.9876 60.7597,75.8147 60.6897,75.8147 C60.6198,75.8147 60.5625,75.7281 60.5625,75.6224 C60.5625,75.3708 47.008,61.7275 46.7581,61.7275 C46.653,61.7275 46.567,61.6699 46.567,61.5995 C46.567,61.529 46.3952,61.4714 46.1853,61.4714 C45.9753,61.4714 45.8036,61.4138 45.8036,61.3433 C45.8036,61.2687 45.3795,61.2153 44.7857,61.2153 C44.1919,61.2153 43.7679,61.2687 43.7679,61.3433 C43.7679,61.4138 43.5961,61.4714 43.3862,61.4714 C43.1762,61.4714 43.0045,61.529 43.0045,61.5995 C43.0045,61.6699 42.9173,61.7275 42.8108,61.7275 C42.5589,61.7275 41.2232,63.072 41.2232,63.3255 C41.2232,63.4327 41.166,63.5204 41.096,63.5204 C41.026,63.5204 40.9688,63.6933 40.9688,63.9046 C40.9688,64.1159 40.9115,64.2888 40.8415,64.2888 C40.7673,64.2888 40.7143,64.7157 40.7143,65.3133 C40.7143,65.911 40.7673,66.3379 40.8415,66.3379 C40.9115,66.3379 40.9688,66.5108 40.9688,66.7221 C40.9688,66.9334 41.026,67.1063 41.096,67.1063 C41.166,67.1063 41.2232,67.1936 41.2232,67.3004 C41.2232,67.4071 42.5401,68.8181 44.1496,70.436 C45.759,72.0538 47.0759,73.4072 47.0759,73.4435 C47.0759,73.4798 45.8736,73.5095 44.404,73.5095 C42.7076,73.5095 41.7321,73.4628 41.7321,73.3815 C41.7321,73.3083 41.3504,73.2534 40.8415,73.2534 C40.3326,73.2534 39.9509,73.1985 39.9509,73.1253 C39.9509,73.0541 39.6116,72.9973 39.1875,72.9973 C38.7634,72.9973 38.4241,72.9404 38.4241,72.8692 C38.4241,72.7988 38.1378,72.7411 37.7879,72.7411 C37.4381,72.7411 37.1518,72.6835 37.1518,72.6131 C37.1518,72.5426 36.9228,72.485 36.6429,72.485 C36.3629,72.485 36.1339,72.4274 36.1339,72.3569 C36.1339,72.2865 35.9049,72.2289 35.625,72.2289 C35.3451,72.2289 35.1161,72.1712 35.1161,72.1008 C35.1161,72.0304 34.9443,71.9727 34.7344,71.9727 C34.5244,71.9727 34.3527,71.9151 34.3527,71.8447 C34.3527,71.7742 34.1237,71.7166 33.8438,71.7166 C33.5638,71.7166 33.3348,71.659 33.3348,71.5886 C33.3348,71.5181 33.1631,71.4605 32.9531,71.4605 C32.7432,71.4605 32.5714,71.4029 32.5714,71.3324 C32.5714,71.262 32.3997,71.2044 32.1897,71.2044 C31.9798,71.2044 31.808,71.1467 31.808,71.0763 C31.808,71.0059 31.6363,70.9482 31.4263,70.9482 C31.2164,70.9482 31.0446,70.8906 31.0446,70.8202 C31.0446,70.7497 30.9301,70.6921 30.7902,70.6921 C30.6502,70.6921 30.5357,70.6345 30.5357,70.564 C30.5357,70.4936 30.364,70.436 30.154,70.436 C29.9441,70.436 29.7723,70.3783 29.7723,70.3079 C29.7723,70.2375 29.6578,70.1798 29.5179,70.1798 C29.3779,70.1798 29.2634,70.1222 29.2634,70.0518 C29.2634,69.9813 29.0916,69.9237 28.8817,69.9237 C28.6718,69.9237 28.5,69.8661 28.5,69.7956 C28.5,69.7252 28.3855,69.6676 28.2455,69.6676 C28.1056,69.6676 27.9911,69.6099 27.9911,69.5395 C27.9911,69.4691 27.8193,69.4114 27.6094,69.4114 C27.3994,69.4114 27.2277,69.3538 27.2277,69.2834 C27.2277,69.2129 27.1132,69.1553 26.9732,69.1553 C26.8333,69.1553 26.7188,69.0977 26.7188,69.0272 C26.7188,68.9568 26.6042,68.8992 26.4643,68.8992 C26.3243,68.8992 26.2098,68.8416 26.2098,68.7711 C26.2098,68.7007 26.0953,68.6431 25.9554,68.6431 C25.8154,68.6431 25.7009,68.5854 25.7009,68.515 C25.7009,68.4445 25.5864,68.3869 25.4464,68.3869 C25.3065,68.3869 25.192,68.3293 25.192,68.2589 C25.192,68.1884 25.0775,68.1308 24.9375,68.1308 C24.7975,68.1308 24.683,68.0732 24.683,68.0027 C24.683,67.9323 24.5685,67.8747 24.4286,67.8747 C24.2886,67.8747 24.1741,67.817 24.1741,67.7466 C24.1741,67.6762 24.0596,67.6185 23.9196,67.6185 C23.7797,67.6185 23.6652,67.5609 23.6652,67.4905 C23.6652,67.42 23.5507,67.3624 23.4107,67.3624 C23.2708,67.3624 23.1563,67.3048 23.1563,67.2343 C23.1563,67.1639 23.0543,67.1063 22.9299,67.1063 C22.8053,67.1063 22.621,66.991 22.5201,66.8501 C22.4192,66.7093 22.2348,66.594 22.1103,66.594 C21.9858,66.594 21.8839,66.5364 21.8839,66.4659 C21.8839,66.3955 21.7694,66.3379 21.6295,66.3379 C21.4895,66.3379 21.375,66.2802 21.375,66.2098 C21.375,66.1394 21.2731,66.0817 21.1487,66.0817 C21.0241,66.0817 20.8397,65.9665 20.7388,65.8256 C20.6379,65.6847 20.4662,65.5695 20.3571,65.5695 C20.2481,65.5695 20.0763,65.4542 19.9754,65.3133 C19.8746,65.1725 19.7028,65.0572 19.5938,65.0572 C19.4847,65.0572 19.313,64.942 19.2121,64.8011 C19.1112,64.6602 18.9497,64.545 18.8533,64.545 C18.7569,64.545 18.5175,64.3721 18.3214,64.1608 C18.1254,63.9495 17.8963,63.7766 17.8125,63.7766 C17.7287,63.7766 17.4996,63.6037 17.3036,63.3924 C17.1075,63.1811 16.8785,63.0082 16.7946,63.0082 C16.7108,63.0082 16.4818,62.8353 16.2857,62.624 C16.0897,62.4127 15.8657,62.2398 15.7882,62.2398 C15.6043,62.2398 11.9598,58.5715 11.9598,58.3863 C11.9598,58.3083 11.7881,58.0829 11.5781,57.8856 C11.3682,57.6882 11.1964,57.4472 11.1964,57.3502 C11.1964,57.2532 11.0819,57.0907 10.942,56.9891 C10.802,56.8875 10.6875,56.7147 10.6875,56.6049 C10.6875,56.4952 10.573,56.3223 10.433,56.2207 C10.2931,56.1192 10.1786,55.9336 10.1786,55.8082 C10.1786,55.683 10.1213,55.5804 10.0513,55.5804 C9.98136,55.5804 9.92411,55.4651 9.92411,55.3242 C9.92411,55.1834 9.86685,55.0681 9.79688,55.0681 C9.7269,55.0681 9.66964,54.9529 9.66964,54.812 C9.66964,54.6711 9.61239,54.5559 9.54241,54.5559 C9.47243,54.5559 9.41518,54.4406 9.41518,54.2997 C9.41518,54.1589 9.35792,54.0436 9.28795,54.0436 C9.21797,54.0436 9.16072,53.9283 9.16072,53.7875 C9.16072,53.6466 9.10346,53.5313 9.03348,53.5313 C8.9635,53.5313 8.90625,53.3584 8.90625,53.1471 C8.90625,52.9358 8.849,52.7629 8.77902,52.7629 C8.70904,52.7629 8.65179,52.5901 8.65179,52.3787 C8.65179,52.1674 8.59453,51.9945 8.52455,51.9945 C8.45458,51.9945 8.39732,51.7064 8.39732,51.3542 C8.39732,51.002 8.34007,50.7139 8.27009,50.7139 C8.19133,50.7139 8.14286,50.0309 8.14286,48.921 C8.14286,47.811 8.19133,47.1281 8.27009,47.1281 C8.34007,47.1281 8.39732,46.8399 8.39732,46.4877 C8.39732,46.1356 8.45458,45.8474 8.52455,45.8474 C8.59453,45.8474 8.65179,45.6745 8.65179,45.4632 C8.65179,45.2519 8.70904,45.079 8.77902,45.079 C8.849,45.079 8.90625,44.9638 8.90625,44.8229 C8.90625,44.682 8.9635,44.5668 9.03348,44.5668 C9.10346,44.5668 9.16072,44.3939 9.16072,44.1826 C9.16072,43.9713 9.21797,43.7984 9.28795,43.7984 C9.35792,43.7984 9.41518,43.6831 9.41518,43.5422 C9.41518,43.4014 9.47243,43.2861 9.54241,43.2861 C9.61239,43.2861 9.66964,43.1708 9.66964,43.03 C9.66964,42.8891 9.7269,42.7738 9.79688,42.7738 C9.86685,42.7738 9.92411,42.6713 9.92411,42.546 C9.92411,42.4206 10.0386,42.2351 10.1786,42.1335 C10.3185,42.032 10.433,41.8591 10.433,41.7493 C10.433,41.6396 10.5475,41.4667 10.6875,41.3651 C10.8275,41.2636 10.942,41.1011 10.942,41.004 C10.942,40.907 11.1137,40.666 11.3237,40.4687 C11.5336,40.2713 11.7054,40.0461 11.7054,39.9682 C11.7054,39.7833 16.3682,35.0899 16.5519,35.0899 C16.6292,35.0899 16.853,34.917 17.0491,34.7057 C17.2452,34.4944 17.4742,34.3215 17.558,34.3215 C17.6419,34.3215 17.8709,34.1486 18.067,33.9373 C18.263,33.726 18.5025,33.5531 18.5988,33.5531 C18.6952,33.5531 18.8567,33.4379 18.9576,33.297 C19.0585,33.1561 19.2302,33.0409 19.3393,33.0409 C19.4483,33.0409 19.6201,32.9256 19.721,32.7847 C19.8219,32.6439 19.9936,32.5286 20.1027,32.5286 C20.2117,32.5286 20.3835,32.4133 20.4844,32.2725 C20.5853,32.1316 20.757,32.0163 20.8661,32.0163 C20.9751,32.0163 21.1469,31.9011 21.2478,31.7602 C21.3487,31.6193 21.533,31.5041 21.6576,31.5041 C21.782,31.5041 21.8839,31.4465 21.8839,31.376 C21.8839,31.3056 21.9858,31.248 22.1103,31.248 C22.2348,31.248 22.4192,31.1327 22.5201,30.9918 C22.621,30.851 22.8053,30.7357 22.9299,30.7357 C23.0543,30.7357 23.1563,30.6781 23.1563,30.6076 C23.1563,30.5372 23.2708,30.4796 23.4107,30.4796 C23.5507,30.4796 23.6652,30.4219 23.6652,30.3515 C23.6652,30.2811 23.7797,30.2234 23.9196,30.2234 C24.0596,30.2234 24.1741,30.1658 24.1741,30.0954 C24.1741,30.0249 24.2886,29.9673 24.4286,29.9673 C24.5685,29.9673 24.683,29.9097 24.683,29.8392 C24.683,29.7688 24.7975,29.7112 24.9375,29.7112 C25.0775,29.7112 25.192,29.6535 25.192,29.5831 C25.192,29.5127 25.3065,29.455 25.4464,29.455 C25.5864,29.455 25.7009,29.3974 25.7009,29.327 C25.7009,29.2565 25.8154,29.1989 25.9554,29.1989 C26.0953,29.1989 26.2098,29.1413 26.2098,29.0708 C26.2098,29.0004 26.3243,28.9428 26.4643,28.9428 C26.6042,28.9428 26.7188,28.8851 26.7188,28.8147 C26.7188,28.7443 26.8333,28.6866 26.9732,28.6866 C27.1132,28.6866 27.2277,28.629 27.2277,28.5586 C27.2277,28.4881 27.3994,28.4305 27.6094,28.4305 C27.8193,28.4305 27.9911,28.3729 27.9911,28.3025 C27.9911,28.232 28.1056,28.1744 28.2455,28.1744 C28.4975,28.1744 28.5,28.2598 28.5,36.8828 C28.5,42.6031 28.5436,45.5913 28.6272,45.5913 C28.6972,45.5913 28.7545,45.7642 28.7545,45.9755 C28.7545,46.1868 28.8117,46.3597 28.8817,46.3597 C28.9517,46.3597 29.0089,46.4749 29.0089,46.6158 C29.0089,46.7567 29.0662,46.8719 29.1362,46.8719 C29.2061,46.8719 29.2634,46.9603 29.2634,47.0683 C29.2634,47.3232 30.0874,48.1526 30.3407,48.1526 C30.4479,48.1526 30.5357,48.2102 30.5357,48.2807 C30.5357,48.3511 30.6502,48.4087 30.7902,48.4087 C30.9301,48.4087 31.0446,48.4663 31.0446,48.5368 C31.0446,48.6072 31.1592,48.6648 31.2991,48.6648 C31.4391,48.6648 31.5536,48.7225 31.5536,48.7929 C31.5536,48.8633 31.6681,48.921 31.808,48.921 C31.948,48.921 32.0625,48.9786 32.0625,49.049 C32.0625,49.1195 32.177,49.1771 32.317,49.1771 C32.4569,49.1771 32.5714,49.2347 32.5714,49.3052 C32.5714,49.3756 32.6859,49.4332 32.8259,49.4332 C32.9659,49.4332 33.0804,49.4909 33.0804,49.5613 C33.0804,49.6317 33.1949,49.6894 33.3348,49.6894 C33.4748,49.6894 33.5893,49.747 33.5893,49.8174 C33.5893,49.8879 33.7038,49.9455 33.8438,49.9455 C33.9837,49.9455 34.0982,50.0031 34.0982,50.0736 C34.0982,50.144 34.2127,50.2016 34.3527,50.2016 C34.4926,50.2016 34.6071,50.2593 34.6071,50.3297 C34.6071,50.4001 34.7217,50.4578 34.8616,50.4578 C35.0016,50.4578 35.1161,50.5154 35.1161,50.5858 C35.1161,50.6563 35.2306,50.7139 35.3705,50.7139 C35.5105,50.7139 35.625,50.7715 35.625,50.842 C35.625,50.9124 35.7395,50.97 35.8795,50.97 C36.0194,50.97 36.1339,51.0277 36.1339,51.0981 C36.1339,51.1685 36.2484,51.2262 36.3884,51.2262 C36.5284,51.2262 36.6429,51.2838 36.6429,51.3542 C36.6429,51.4247 36.7574,51.4823 36.8973,51.4823 C37.0373,51.4823 37.1518,51.5399 37.1518,51.6104 C37.1518,51.6808 37.2663,51.7384 37.4062,51.7384 C37.5462,51.7384 37.6607,51.796 37.6607,51.8665 C37.6607,51.9369 37.7752,51.9945 37.9152,51.9945 C38.0551,51.9945 38.1696,52.0522 38.1696,52.1226 C38.1696,52.1931 38.2842,52.2507 38.4241,52.2507 C38.5641,52.2507 38.6786,52.3083 38.6786,52.3787 C38.6786,52.4492 38.7931,52.5068 38.933,52.5068 C39.073,52.5068 39.1875,52.5644 39.1875,52.6349 C39.1875,52.7053 39.302,52.7629 39.442,52.7629 C39.5819,52.7629 39.6964,52.8206 39.6964,52.891 C39.6964,52.9614 39.8109,53.0191 39.9509,53.0191 C40.0909,53.0191 40.2054,53.0767 40.2054,53.1471 C40.2054,53.2176 40.3199,53.2752 40.4598,53.2752 C40.5998,53.2752 40.7143,53.3328 40.7143,53.4033 C40.7143,53.4737 40.8288,53.5313 40.9688,53.5313 C41.1087,53.5313 41.2232,53.589 41.2232,53.6594 C41.2232,53.7298 41.3377,53.7875 41.4777,53.7875 C41.6176,53.7875 41.7321,53.8451 41.7321,53.9155 C41.7321,53.986 41.8467,54.0436 41.9866,54.0436 C42.1266,54.0436 42.2411,54.1012 42.2411,54.1717 C42.2411,54.2421 42.3556,54.2997 42.4955,54.2997 C42.6355,54.2997 42.75,54.3574 42.75,54.4278 C42.75,54.4982 42.8645,54.5559 43.0045,54.5559 C43.1444,54.5559 43.2589,54.6135 43.2589,54.6839 C43.2589,54.7544 43.3734,54.812 43.5134,54.812 C43.6534,54.812 43.7679,54.8696 43.7679,54.9401 C43.7679,55.0105 43.8824,55.0681 44.0223,55.0681 C44.1623,55.0681 44.2768,55.1257 44.2768,55.1962 C44.2768,55.2666 44.3913,55.3242 44.5313,55.3242 C44.6712,55.3242 44.7857,55.3819 44.7857,55.4523 C44.7857,55.5228 44.9002,55.5804 45.0402,55.5804 C45.1801,55.5804 45.2946,55.638 45.2946,55.7084 C45.2946,55.7789 45.4092,55.8365 45.5491,55.8365 C45.6891,55.8365 45.8036,55.8941 45.8036,55.9646 C45.8036,56.035 45.9181,56.0926 46.058,56.0926 C46.198,56.0926 46.3125,56.1503 46.3125,56.2207 C46.3125,56.2911 46.427,56.3488 46.567,56.3488 C46.7069,56.3488 46.8214,56.4064 46.8214,56.4768 C46.8214,56.5473 46.9359,56.6049 47.0759,56.6049 C47.2159,56.6049 47.3304,56.6625 47.3304,56.733 C47.3304,56.8034 47.4449,56.861 47.5848,56.861 C47.7248,56.861 47.8393,56.9187 47.8393,56.9891 C47.8393,57.0595 47.9538,57.1172 48.0938,57.1172 C48.2337,57.1172 48.3482,57.1748 48.3482,57.2452 C48.3482,57.3157 48.4627,57.3733 48.6027,57.3733 C48.7426,57.3733 48.8571,57.4309 48.8571,57.5014 C48.8571,57.5718 48.9717,57.6294 49.1116,57.6294 C49.2516,57.6294 49.3661,57.6871 49.3661,57.7575 C49.3661,57.8279 49.4806,57.8856 49.6205,57.8856 C49.7605,57.8856 49.875,57.9432 49.875,58.0136 C49.875,58.0841 49.9895,58.1417 50.1295,58.1417 C50.2694,58.1417 50.3839,58.1993 50.3839,58.2698 C50.3839,58.3402 50.4984,58.3978 50.6384,58.3978 C50.7784,58.3978 50.8929,58.4554 50.8929,58.5259 C50.8929,58.5963 51.0074,58.6539 51.1473,58.6539 C51.2873,58.6539 51.4018,58.7116 51.4018,58.782 C51.4018,58.8525 51.5163,58.9101 51.6563,58.9101 C51.7962,58.9101 51.9107,58.9677 51.9107,59.0381 C51.9107,59.1086 52.0252,59.1662 52.1652,59.1662 C52.3051,59.1662 52.4196,59.2238 52.4196,59.2943 C52.4196,59.3647 52.5342,59.4223 52.6741,59.4223 C52.8141,59.4223 52.9286,59.48 52.9286,59.5504 C52.9286,59.6208 53.0431,59.6785 53.183,59.6785 C53.323,59.6785 53.4375,59.7361 53.4375,59.8065 C53.4375,59.877 53.552,59.9346 53.692,59.9346 C53.8319,59.9346 53.9464,59.9922 53.9464,60.0627 C53.9464,60.1331 54.0609,60.1907 54.2009,60.1907 C54.3409,60.1907 54.4554,60.2484 54.4554,60.3188 C54.4554,60.3892 54.5699,60.4469 54.7098,60.4469 C54.8498,60.4469 54.9643,60.5045 54.9643,60.5749 C54.9643,60.6454 55.0788,60.703 55.2188,60.703 C55.3587,60.703 55.4732,60.7606 55.4732,60.8311 C55.4732,60.9015 55.7022,60.9591 55.9821,60.9591 C56.2621,60.9591 56.4911,61.0168 56.4911,61.0872 C56.4911,61.1576 56.6628,61.2153 56.8728,61.2153 C57.0827,61.2153 57.2545,61.1576 57.2545,61.0872 C57.2545,61.0168 57.4835,60.9591 57.7634,60.9591 C58.0433,60.9591 58.2723,60.9015 58.2723,60.8311 C58.2723,60.7606 58.4441,60.703 58.654,60.703 C58.864,60.703 59.0357,60.6454 59.0357,60.5749 C59.0357,60.5045 59.1502,60.4469 59.2902,60.4469 C59.4301,60.4469 59.5446,60.3892 59.5446,60.3188 C59.5446,60.2484 59.6592,60.1907 59.7991,60.1907 C59.9391,60.1907 60.0536,60.1331 60.0536,60.0627 C60.0536,59.9922 60.1681,59.9346 60.308,59.9346 C60.448,59.9346 60.5625,59.877 60.5625,59.8065 C60.5625,59.7361 60.677,59.6785 60.817,59.6785 C60.9569,59.6785 61.0714,59.6208 61.0714,59.5504 C61.0714,59.48 61.1859,59.4223 61.3259,59.4223 C61.4659,59.4223 61.5804,59.3647 61.5804,59.2943 C61.5804,59.2238 61.6949,59.1662 61.8348,59.1662 C61.9748,59.1662 62.0893,59.1086 62.0893,59.0381 C62.0893,58.9677 62.2038,58.9101 62.3438,58.9101 C62.4837,58.9101 62.5982,58.8525 62.5982,58.782 C62.5982,58.7116 62.7127,58.6539 62.8527,58.6539 C62.9926,58.6539 63.1071,58.5963 63.1071,58.5259 C63.1071,58.4554 63.2217,58.3978 63.3616,58.3978 C63.5016,58.3978 63.6161,58.3402 63.6161,58.2698 C63.6161,58.1993 63.7306,58.1417 63.8705,58.1417 C64.0105,58.1417 64.125,58.0841 64.125,58.0136 C64.125,57.9432 64.2395,57.8856 64.3795,57.8856 C64.5194,57.8856 64.6339,57.8279 64.6339,57.7575 C64.6339,57.6871 64.7484,57.6294 64.8884,57.6294 C65.0284,57.6294 65.1429,57.5718 65.1429,57.5014 C65.1429,57.4309 65.2574,57.3733 65.3973,57.3733 C65.5373,57.3733 65.6518,57.3157 65.6518,57.2452 C65.6518,57.1748 65.7663,57.1172 65.9062,57.1172 C66.0462,57.1172 66.1607,57.0595 66.1607,56.9891 C66.1607,56.9187 66.2752,56.861 66.4152,56.861 C66.5551,56.861 66.6696,56.8034 66.6696,56.733 C66.6696,56.6625 66.7842,56.6049 66.9241,56.6049 C67.0641,56.6049 67.1786,56.5473 67.1786,56.4768 C67.1786,56.4064 67.2931,56.3488 67.433,56.3488 C67.573,56.3488 67.6875,56.2911 67.6875,56.2207 C67.6875,56.1503 67.802,56.0926 67.942,56.0926 C68.0819,56.0926 68.1964,56.035 68.1964,55.9646 C68.1964,55.8941 68.3109,55.8365 68.4509,55.8365 C68.5909,55.8365 68.7054,55.7789 68.7054,55.7084 C68.7054,55.638 68.8199,55.5804 68.9598,55.5804 C69.0998,55.5804 69.2143,55.5228 69.2143,55.4523 C69.2143,55.3819 69.3288,55.3242 69.4688,55.3242 C69.6087,55.3242 69.7232,55.2666 69.7232,55.1962 C69.7232,55.1257 69.8377,55.0681 69.9777,55.0681 C70.1176,55.0681 70.2321,55.0105 70.2321,54.9401 C70.2321,54.8696 70.3467,54.812 70.4866,54.812 C70.6266,54.812 70.7411,54.7544 70.7411,54.6839 C70.7411,54.6135 70.8556,54.5559 70.9955,54.5559 C71.1355,54.5559 71.25,54.4982 71.25,54.4278 C71.25,54.3574 71.3645,54.2997 71.5045,54.2997 C71.6444,54.2997 71.7589,54.2421 71.7589,54.1717 C71.7589,54.1012 71.8734,54.0436 72.0134,54.0436 C72.1534,54.0436 72.2679,53.986 72.2679,53.9155 C72.2679,53.8451 72.3824,53.7875 72.5223,53.7875 C72.6623,53.7875 72.7768,53.7298 72.7768,53.6594 C72.7768,53.589 72.8913,53.5313 73.0312,53.5313 C73.1712,53.5313 73.2857,53.4737 73.2857,53.4033 C73.2857,53.3328 73.4002,53.2752 73.5402,53.2752 C73.6801,53.2752 73.7946,53.2176 73.7946,53.1471 C73.7946,53.0767 73.9092,53.0191 74.0491,53.0191 C74.1891,53.0191 74.3036,52.9614 74.3036,52.891 C74.3036,52.8206 74.4181,52.7629 74.558,52.7629 C74.698,52.7629 74.8125,52.7053 74.8125,52.6349 C74.8125,52.5644 74.927,52.5068 75.067,52.5068 C75.2069,52.5068 75.3214,52.4492 75.3214,52.3787 C75.3214,52.3083 75.4359,52.2507 75.5759,52.2507 C75.7159,52.2507 75.8304,52.1931 75.8304,52.1226 C75.8304,52.0522 75.9449,51.9945 76.0848,51.9945 C76.2248,51.9945 76.3393,51.9369 76.3393,51.8665 C76.3393,51.796 76.4538,51.7384 76.5938,51.7384 C76.7337,51.7384 76.8482,51.6808 76.8482,51.6104 C76.8482,51.5399 76.9627,51.4823 77.1027,51.4823 C77.2426,51.4823 77.3571,51.4247 77.3571,51.3542 C77.3571,51.2838 77.4717,51.2262 77.6116,51.2262 C77.7516,51.2262 77.8661,51.1685 77.8661,51.0981 C77.8661,51.0277 77.9806,50.97 78.1205,50.97 C78.2605,50.97 78.375,50.9124 78.375,50.842 C78.375,50.7715 78.4895,50.7139 78.6295,50.7139 C78.7694,50.7139 78.8839,50.6563 78.8839,50.5858 C78.8839,50.5154 78.9984,50.4578 79.1384,50.4578 C79.2784,50.4578 79.3929,50.4001 79.3929,50.3297 C79.3929,50.2593 79.5074,50.2016 79.6473,50.2016 C79.7873,50.2016 79.9018,50.144 79.9018,50.0736 C79.9018,50.0031 80.0163,49.9455 80.1563,49.9455 C80.2962,49.9455 80.4107,49.8879 80.4107,49.8174 C80.4107,49.747 80.5252,49.6894 80.6652,49.6894 C80.8051,49.6894 80.9196,49.6317 80.9196,49.5613 C80.9196,49.4909 81.0342,49.4332 81.1741,49.4332 C81.3141,49.4332 81.4286,49.3756 81.4286,49.3052 C81.4286,49.2347 81.5431,49.1771 81.683,49.1771 C81.823,49.1771 81.9375,49.1195 81.9375,49.049 C81.9375,48.9786 82.052,48.921 82.192,48.921 C82.3319,48.921 82.4464,48.8633 82.4464,48.7929 C82.4464,48.7225 82.5609,48.6648 82.7009,48.6648 C82.8409,48.6648 82.9554,48.6072 82.9554,48.5368 C82.9554,48.4663 83.0573,48.4087 83.1817,48.4087 C83.3063,48.4087 83.4906,48.2935 83.5915,48.1526 C83.6924,48.0117 83.8522,47.8965 83.9468,47.8965 C84.1683,47.8965 84.4821,47.5805 84.4821,47.3576 C84.4821,47.2624 84.5967,47.1016 84.7366,47 C84.8766,46.8984 84.9911,46.7129 84.9911,46.5875 C84.9911,46.4622 85.0483,46.3597 85.1183,46.3597 C85.1883,46.3597 85.2455,46.1868 85.2455,45.9755 C85.2455,45.7642 85.3028,45.5913 85.3728,45.5913 C85.4564,45.5913 85.5,42.6031 85.5,36.8828 C85.5,28.2598 85.5025,28.1744 85.7545,28.1744 C85.8944,28.1744 86.0089,28.232 86.0089,28.3025 C86.0089,28.3729 86.1807,28.4305 86.3906,28.4305 C86.6006,28.4305 86.7723,28.4881 86.7723,28.5586 C86.7723,28.629 86.8868,28.6866 87.0268,28.6866 C87.1667,28.6866 87.2813,28.7443 87.2813,28.8147 C87.2813,28.8851 87.3958,28.9428 87.5357,28.9428 C87.6757,28.9428 87.7902,29.0004 87.7902,29.0708 C87.7902,29.1413 87.9047,29.1989 88.0446,29.1989 C88.1846,29.1989 88.2991,29.2565 88.2991,29.327 C88.2991,29.3974 88.4136,29.455 88.5536,29.455 C88.6935,29.455 88.808,29.5127 88.808,29.5831 C88.808,29.6535 88.9225,29.7112 89.0625,29.7112 C89.2025,29.7112 89.317,29.7688 89.317,29.8392 C89.317,29.9097 89.4315,29.9673 89.5714,29.9673 C89.7114,29.9673 89.8259,30.0249 89.8259,30.0954 C89.8259,30.1658 89.9404,30.2234 90.0804,30.2234 C90.2203,30.2234 90.3348,30.2811 90.3348,30.3515 C90.3348,30.4219 90.4493,30.4796 90.5893,30.4796 C90.7292,30.4796 90.8438,30.5372 90.8438,30.6076 C90.8438,30.6781 90.9457,30.7357 91.0701,30.7357 C91.1947,30.7357 91.379,30.851 91.4799,30.9918 C91.5808,31.1327 91.7652,31.248 91.8897,31.248 C92.0142,31.248 92.1161,31.3056 92.1161,31.376 C92.1161,31.4465 92.218,31.5041 92.3424,31.5041 C92.467,31.5041 92.6513,31.6193 92.7522,31.7602 C92.8531,31.9011 93.0249,32.0163 93.1339,32.0163 C93.243,32.0163 93.4147,32.1316 93.5156,32.2725 C93.6165,32.4133 93.7883,32.5286 93.8973,32.5286 C94.0064,32.5286 94.1781,32.6439 94.279,32.7847 C94.3799,32.9256 94.5517,33.0409 94.6607,33.0409 C94.7698,33.0409 94.9415,33.1561 95.0424,33.297 C95.1433,33.4379 95.3048,33.5531 95.4012,33.5531 C95.4975,33.5531 95.737,33.726 95.933,33.9373 C96.1291,34.1486 96.3581,34.3215 96.442,34.3215 C96.5258,34.3215 96.7548,34.4944 96.9509,34.7057 C97.147,34.917 97.3708,35.0899 97.4481,35.0899 C97.6318,35.0899 102.295,39.7833 102.295,39.9682 C102.295,40.0461 102.466,40.2713 102.676,40.4687 C102.886,40.666 103.058,40.907 103.058,41.004 C103.058,41.1011 103.173,41.2636 103.313,41.3651 C103.452,41.4667 103.567,41.6396 103.567,41.7493 C103.567,41.8591 103.681,42.032 103.821,42.1335 C103.961,42.2351 104.076,42.4206 104.076,42.546 C104.076,42.6713 104.133,42.7738 104.203,42.7738 C104.273,42.7738 104.33,42.8891 104.33,43.03 C104.33,43.1708 104.388,43.2861 104.458,43.2861 C104.528,43.2861 104.585,43.4014 104.585,43.5422 C104.585,43.6831 104.642,43.7984 104.712,43.7984 C104.782,43.7984 104.839,43.9713 104.839,44.1826 C104.839,44.3939 104.897,44.5668 104.967,44.5668 C105.036,44.5668 105.094,44.682 105.094,44.8229 C105.094,44.9638 105.151,45.079 105.221,45.079 C105.291,45.079 105.348,45.2519 105.348,45.4632 C105.348,45.6745 105.405,45.8474 105.475,45.8474 C105.545,45.8474 105.603,46.1356 105.603,46.4877 C105.603,46.8399 105.66,47.1281 105.73,47.1281 C105.809,47.1281 105.857,47.811 105.857,48.921 C105.857,50.0309 105.809,50.7139 105.73,50.7139 C105.66,50.7139 105.603,51.002 105.603,51.3542 C105.603,51.7064 105.545,51.9945 105.475,51.9945 C105.405,51.9945 105.348,52.1674 105.348,52.3787 C105.348,52.5901 105.291,52.7629 105.221,52.7629 C105.151,52.7629 105.094,52.9358 105.094,53.1471 C105.094,53.3584 105.036,53.5313 104.967,53.5313 C104.897,53.5313 104.839,53.6466 104.839,53.7875 C104.839,53.9283 104.782,54.0436 104.712,54.0436 C104.642,54.0436 104.585,54.1589 104.585,54.2997 C104.585,54.4406 104.528,54.5559 104.458,54.5559 C104.388,54.5559 104.33,54.6711 104.33,54.812 C104.33,54.9529 104.273,55.0681 104.203,55.0681 C104.133,55.0681 104.076,55.1707 104.076,55.2959 C104.076,55.4213 103.961,55.6069 103.821,55.7084 C103.681,55.81 103.567,55.9829 103.567,56.0926 C103.567,56.2024 103.452,56.3753 103.313,56.4768 C103.173,56.5784 103.058,56.7513 103.058,56.861 C103.058,56.9708 102.944,57.1437 102.804,57.2452 C102.664,57.3468 102.549,57.5067 102.549,57.6007 C102.549,57.6947 102.206,58.1111 101.786,58.5259 C101.366,58.9407 101.022,59.3418 101.022,59.4173 C101.022,59.597 99.1591,61.4714 98.9804,61.4714 C98.9048,61.4714 98.5641,61.7595 98.2232,62.1117 C97.8824,62.4639 97.5381,62.752 97.4582,62.752 C97.3781,62.752 97.0926,62.9826 96.8237,63.2643 C96.5547,63.546 96.2673,63.7766 96.185,63.7766 C96.1025,63.7766 95.8746,63.9495 95.6786,64.1608 C95.4825,64.3721 95.2431,64.545 95.1467,64.545 C95.0503,64.545 94.8888,64.6602 94.7879,64.8011 C94.6871,64.942 94.5027,65.0572 94.3781,65.0572 C94.2537,65.0572 94.1518,65.1148 94.1518,65.1853 C94.1518,65.2557 94.0499,65.3133 93.9254,65.3133 C93.8009,65.3133 93.6165,65.4286 93.5156,65.5695 C93.4147,65.7104 93.243,65.8256 93.1339,65.8256 C93.0249,65.8256 92.8531,65.9409 92.7522,66.0817 C92.6513,66.2226 92.467,66.3379 92.3424,66.3379 C92.218,66.3379 92.1161,66.3955 92.1161,66.4659 C92.1161,66.5364 92.0142,66.594 91.8897,66.594 C91.7652,66.594 91.5808,66.7093 91.4799,66.8501 C91.379,66.991 91.1947,67.1063 91.0701,67.1063 C90.9457,67.1063 90.8438,67.1639 90.8438,67.2343 C90.8438,67.3048 90.7292,67.3624 90.5893,67.3624 C90.4493,67.3624 90.3348,67.42 90.3348,67.4905 C90.3348,67.5609 90.2203,67.6185 90.0804,67.6185 C89.9404,67.6185 89.8259,67.6762 89.8259,67.7466 C89.8259,67.817 89.7114,67.8747 89.5714,67.8747 C89.4315,67.8747 89.317,67.9323 89.317,68.0027 C89.317,68.0732 89.2025,68.1308 89.0625,68.1308 C88.9225,68.1308 88.808,68.1884 88.808,68.2589 C88.808,68.3293 88.6935,68.3869 88.5536,68.3869 C88.4136,68.3869 88.2991,68.4445 88.2991,68.515 C88.2991,68.5854 88.1846,68.6431 88.0446,68.6431 C87.9047,68.6431 87.7902,68.7007 87.7902,68.7711 C87.7902,68.8416 87.6757,68.8992 87.5357,68.8992 C87.3958,68.8992 87.2813,68.9568 87.2813,69.0272 C87.2813,69.0977 87.1667,69.1553 87.0268,69.1553 C86.8868,69.1553 86.7723,69.2129 86.7723,69.2834 C86.7723,69.3538 86.6578,69.4114 86.5179,69.4114 C86.3779,69.4114 86.2634,69.4691 86.2634,69.5395 C86.2634,69.6099 86.0916,69.6676 85.8817,69.6676 C85.6718,69.6676 85.5,69.7252 85.5,69.7956 C85.5,69.8661 85.3855,69.9237 85.2455,69.9237 C85.1056,69.9237 84.9911,69.9813 84.9911,70.0518 C84.9911,70.1222 84.8193,70.1798 84.6094,70.1798 C84.3994,70.1798 84.2277,70.2375 84.2277,70.3079 C84.2277,70.3783 84.1132,70.436 83.9732,70.436 C83.8333,70.436 83.7188,70.4936 83.7188,70.564 C83.7188,70.6345 83.547,70.6921 83.3371,70.6921 C83.1271,70.6921 82.9554,70.7497 82.9554,70.8202 C82.9554,70.8906 82.7836,70.9482 82.5737,70.9482 C82.3637,70.9482 82.192,71.0059 82.192,71.0763 C82.192,71.1467 82.0202,71.2044 81.8103,71.2044 C81.6003,71.2044 81.4286,71.262 81.4286,71.3324 C81.4286,71.4029 81.2568,71.4605 81.0469,71.4605 C80.8369,71.4605 80.6652,71.5181 80.6652,71.5886 C80.6652,71.659 80.4934,71.7166 80.2835,71.7166 C80.0736,71.7166 79.9018,71.7742 79.9018,71.8447 C79.9018,71.9151 79.6728,71.9727 79.3929,71.9727 C79.113,71.9727 78.8839,72.0304 78.8839,72.1008 C78.8839,72.1712 78.6549,72.2289 78.375,72.2289 C78.0951,72.2289 77.8661,72.2865 77.8661,72.3569 C77.8661,72.4274 77.6371,72.485 77.3571,72.485 C77.0772,72.485 76.8482,72.5426 76.8482,72.6131 C76.8482,72.6835 76.5619,72.7411 76.2121,72.7411 C75.8622,72.7411 75.5759,72.7988 75.5759,72.8692 C75.5759,72.9404 75.2366,72.9973 74.8125,72.9973 C74.3884,72.9973 74.0491,73.0541 74.0491,73.1253 C74.0491,73.1985 73.6674,73.2534 73.1585,73.2534 C72.6496,73.2534 72.2679,73.3083 72.2679,73.3815 C72.2679,73.4519 72.0961,73.5095 71.8862,73.5095 C71.6762,73.5095 71.5045,73.5672 71.5045,73.6376 C71.5045,73.708 71.39,73.7657 71.25,73.7657 C71.11,73.7657 70.9955,73.8233 70.9955,73.8937 C70.9955,73.9642 70.9077,74.0218 70.8005,74.0218 C70.5472,74.0218 69.7232,74.8511 69.7232,75.1061 C69.7232,75.2141 69.666,75.3025 69.596,75.3025 C69.526,75.3025 69.4688,75.4177 69.4688,75.5586 C69.4688,75.6995 69.4115,75.8147 69.3415,75.8147 C69.2715,75.8147 69.2143,75.9876 69.2143,76.1989 C69.2143,76.4102 69.157,76.5831 69.0871,76.5831 C69.0144,76.5831 68.9598,76.9673 68.9598,77.4796 C68.9598,77.9918 69.0144,78.376 69.0871,78.376 C69.157,78.376 69.2143,78.5362 69.2143,78.7319 C69.2143,78.9409 69.3194,79.164 69.4688,79.2725 C69.6087,79.374 69.7232,79.5327 69.7232,79.6252 C69.7232,79.8437 70.5553,80.6812 70.7724,80.6812 C70.8642,80.6812 71.0219,80.7965 71.1228,80.9373 C71.2305,81.0877 71.4522,81.1935 71.6598,81.1935 C71.8542,81.1935 72.0134,81.2511 72.0134,81.3215 C72.0134,81.3984 72.5223,81.4496 73.2857,81.4496 C74.0491,81.4496 74.558,81.3984 74.558,81.3215 C74.558,81.2484 74.9397,81.1935 75.4487,81.1935 C75.9576,81.1935 76.3393,81.1385 76.3393,81.0654 C76.3393,80.995 76.6256,80.9373 76.9754,80.9373 C77.3253,80.9373 77.6116,80.8797 77.6116,80.8093 C77.6116,80.7388 77.8406,80.6812 78.1205,80.6812 C78.4005,80.6812 78.6295,80.6236 78.6295,80.5531 C78.6295,80.4827 78.9157,80.4251 79.2656,80.4251 C79.6155,80.4251 79.9018,80.3674 79.9018,80.297 C79.9018,80.2266 80.0736,80.1689 80.2835,80.1689 C80.4934,80.1689 80.6652,80.1113 80.6652,80.0409 C80.6652,79.9704 80.8942,79.9128 81.1741,79.9128 C81.454,79.9128 81.683,79.8552 81.683,79.7847 C81.683,79.7143 81.8548,79.6567 82.0647,79.6567 C82.2747,79.6567 82.4464,79.599 82.4464,79.5286 C82.4464,79.4582 82.6755,79.4005 82.9554,79.4005 C83.2353,79.4005 83.4643,79.3429 83.4643,79.2725 C83.4643,79.202 83.6361,79.1444 83.846,79.1444 C84.0559,79.1444 84.2277,79.0868 84.2277,79.0163 C84.2277,78.9459 84.3422,78.8883 84.4821,78.8883 C84.6221,78.8883 84.7366,78.8307 84.7366,78.7602 C84.7366,78.6898 84.9084,78.6321 85.1183,78.6321 C85.3282,78.6321 85.5,78.5745 85.5,78.5041 C85.5,78.4336 85.6718,78.376 85.8817,78.376 C86.0916,78.376 86.2634,78.3184 86.2634,78.248 C86.2634,78.1775 86.4352,78.1199 86.6451,78.1199 C86.855,78.1199 87.0268,78.0623 87.0268,77.9918 C87.0268,77.9214 87.1413,77.8638 87.2813,77.8638 C87.4212,77.8638 87.5357,77.8061 87.5357,77.7357 C87.5357,77.6653 87.7075,77.6076 87.9174,77.6076 C88.1273,77.6076 88.2991,77.55 88.2991,77.4796 C88.2991,77.4091 88.4136,77.3515 88.5536,77.3515 C88.6935,77.3515 88.808,77.2939 88.808,77.2234 C88.808,77.153 88.9798,77.0954 89.1897,77.0954 C89.3997,77.0954 89.5714,77.0377 89.5714,76.9673 C89.5714,76.8969 89.6859,76.8392 89.8259,76.8392 C89.9659,76.8392 90.0804,76.7816 90.0804,76.7112 C90.0804,76.6407 90.1949,76.5831 90.3348,76.5831 C90.4748,76.5831 90.5893,76.5255 90.5893,76.455 C90.5893,76.3846 90.7038,76.327 90.8438,76.327 C90.9837,76.327 91.0982,76.2693 91.0982,76.1989 C91.0982,76.1285 91.2127,76.0708 91.3527,76.0708 C91.4926,76.0708 91.6071,76.0132 91.6071,75.9428 C91.6071,75.8723 91.7217,75.8147 91.8616,75.8147 C92.0016,75.8147 92.1161,75.7571 92.1161,75.6866 C92.1161,75.6162 92.2306,75.5586 92.3705,75.5586 C92.5105,75.5586 92.625,75.501 92.625,75.4305 C92.625,75.3601 92.7395,75.3025 92.8795,75.3025 C93.0194,75.3025 93.1339,75.2448 93.1339,75.1744 C93.1339,75.104 93.2484,75.0463 93.3884,75.0463 C93.5284,75.0463 93.6429,74.9887 93.6429,74.9183 C93.6429,74.8478 93.7574,74.7902 93.8973,74.7902 C94.0373,74.7902 94.1518,74.7326 94.1518,74.6621 C94.1518,74.5917 94.2663,74.5341 94.4063,74.5341 C94.5462,74.5341 94.6607,74.4764 94.6607,74.406 C94.6607,74.3356 94.7752,74.2779 94.9152,74.2779 C95.0551,74.2779 95.1696,74.2203 95.1696,74.1499 C95.1696,74.0794 95.2716,74.0218 95.396,74.0218 C95.5206,74.0218 95.7049,73.9065 95.8058,73.7657 C95.9067,73.6248 96.0911,73.5095 96.2156,73.5095 C96.3401,73.5095 96.442,73.4519 96.442,73.3815 C96.442,73.311 96.5439,73.2534 96.6683,73.2534 C96.7929,73.2534 96.9772,73.1381 97.0781,72.9973 C97.179,72.8564 97.3634,72.7411 97.4879,72.7411 C97.6124,72.7411 97.7143,72.6835 97.7143,72.6131 C97.7143,72.5426 97.8162,72.485 97.9406,72.485 C98.0652,72.485 98.2496,72.3698 98.3504,72.2289 C98.4513,72.088 98.6231,71.9727 98.7321,71.9727 C98.8412,71.9727 99.0129,71.8575 99.1138,71.7166 C99.2147,71.5757 99.3865,71.4605 99.4955,71.4605 C99.6046,71.4605 99.7763,71.3452 99.8772,71.2044 C99.9781,71.0635 100.14,70.9482 100.236,70.9482 C100.332,70.9482 100.572,70.7753 100.768,70.564 C100.964,70.3527 101.193,70.1798 101.277,70.1798 C101.361,70.1798 101.59,70.007 101.786,69.7956 C101.982,69.5843 102.209,69.4114 102.29,69.4114 C102.372,69.4114 102.717,69.1233 103.058,68.7711 C103.399,68.4189 103.739,68.1308 103.814,68.1308 C103.994,68.1308 107.893,64.2043 107.893,64.0237 C107.893,63.9471 108.122,63.6631 108.402,63.3924 C108.682,63.1216 108.911,62.8323 108.911,62.7495 C108.911,62.6665 109.082,62.4371 109.292,62.2398 C109.502,62.0424 109.674,61.8014 109.674,61.7045 C109.674,61.6074 109.789,61.4449 109.929,61.3433 C110.069,61.2418 110.183,61.0689 110.183,60.9591 C110.183,60.8494 110.298,60.6765 110.438,60.5749 C110.577,60.4734 110.692,60.2878 110.692,60.1624 C110.692,60.0372 110.749,59.9346 110.819,59.9346 C110.889,59.9346 110.946,59.8193 110.946,59.6785 C110.946,59.5376 111.004,59.4223 111.074,59.4223 C111.144,59.4223 111.201,59.3198 111.201,59.1945 C111.201,59.0691 111.315,58.8836 111.455,58.782 C111.595,58.6805 111.71,58.4949 111.71,58.3695 C111.71,58.2443 111.767,58.1417 111.837,58.1417 C111.907,58.1417 111.964,57.9688 111.964,57.7575 C111.964,57.5462 112.022,57.3733 112.092,57.3733 C112.161,57.3733 112.219,57.258 112.219,57.1172 C112.219,56.9763 112.276,56.861 112.346,56.861 C112.416,56.861 112.473,56.7458 112.473,56.6049 C112.473,56.464 112.53,56.3488 112.6,56.3488 C112.67,56.3488 112.728,56.1759 112.728,55.9646 C112.728,55.7533 112.785,55.5804 112.855,55.5804 C112.925,55.5804 112.982,55.4075 112.982,55.1962 C112.982,54.9849 113.039,54.812 113.109,54.812 C113.179,54.812 113.237,54.5815 113.237,54.2997 C113.237,54.018 113.294,53.7875 113.364,53.7875 C113.434,53.7875 113.491,53.5569 113.491,53.2752 C113.491,52.9935 113.548,52.7629 113.618,52.7629 C113.691,52.7629 113.746,52.3787 113.746,51.8665 C113.746,51.3542 113.8,50.97 113.873,50.97 C113.952,50.97 114,50.2016 114,48.921 C114,47.6403 113.952,46.8719 113.873,46.8719 C113.802,46.8719 113.746,46.5304 113.746,46.1035 C113.746,45.6767 113.689,45.3351 113.618,45.3351 C113.548,45.3351 113.491,45.047 113.491,44.6948 C113.491,44.3426 113.434,44.0545 113.364,44.0545 C113.294,44.0545 113.237,43.8816 113.237,43.6703 C113.237,43.459 113.179,43.2861 113.109,43.2861 C113.039,43.2861 112.982,43.1132 112.982,42.9019 C112.982,42.6906 112.925,42.5177 112.855,42.5177 C112.785,42.5177 112.728,42.3448 112.728,42.1335 C112.728,41.9222 112.67,41.7493 112.6,41.7493 C112.53,41.7493 112.473,41.5764 112.473,41.3651 C112.473,41.1538 112.416,40.9809 112.346,40.9809 C112.276,40.9809 112.219,40.8657 112.219,40.7248 C112.219,40.5839 112.161,40.4687 112.092,40.4687 C112.022,40.4687 111.964,40.3534 111.964,40.2125 C111.964,40.0717 111.907,39.9564 111.837,39.9564 C111.767,39.9564 111.71,39.8411 111.71,39.7003 C111.71,39.5594 111.653,39.4441 111.583,39.4441 C111.513,39.4441 111.455,39.3289 111.455,39.188 C111.455,39.0471 111.398,38.9319 111.328,38.9319 C111.258,38.9319 111.201,38.8166 111.201,38.6757 C111.201,38.5349 111.144,38.4196 111.074,38.4196 C111.004,38.4196 110.946,38.317 110.946,38.1918 C110.946,38.0664 110.832,37.8808 110.692,37.7793 C110.552,37.6777 110.438,37.5048 110.438,37.3951 C110.438,37.2853 110.323,37.1125 110.183,37.0109 C110.043,36.9093 109.929,36.7365 109.929,36.6267 C109.929,36.5169 109.814,36.3441 109.674,36.2425 C109.534,36.1409 109.42,35.9784 109.42,35.8814 C109.42,35.7844 109.248,35.5434 109.038,35.346 C108.828,35.1487 108.656,34.9206 108.656,34.8393 C108.656,34.7581 108.313,34.3521 107.893,33.9373 C107.473,33.5225 107.129,33.1216 107.129,33.0464 C107.129,32.8677 104.757,30.4796 104.579,30.4796 C104.505,30.4796 104.106,30.1338 103.694,29.7112 C103.282,29.2886 102.88,28.9428 102.801,28.9428 C102.721,28.9428 102.436,28.7123 102.167,28.4305 C101.898,28.1488 101.611,27.9183 101.529,27.9183 C101.446,27.9183 101.218,27.7454 101.022,27.5341 C100.826,27.3228 100.587,27.1499 100.49,27.1499 C100.394,27.1499 100.233,27.0346 100.132,26.8937 C100.031,26.7529 99.8693,26.6376 99.7729,26.6376 C99.6766,26.6376 99.4371,26.4647 99.2411,26.2534 C99.045,26.0421 98.793,25.8692 98.6811,25.8692 C98.5692,25.8692 98.4777,25.8116 98.4777,25.7411 C98.4777,25.6707 98.3758,25.6131 98.2513,25.6131 C98.1268,25.6131 97.9424,25.4978 97.8415,25.3569 C97.7406,25.2161 97.5689,25.1008 97.4598,25.1008 C97.3508,25.1008 97.179,24.9856 97.0781,24.8447 C96.9772,24.7038 96.7929,24.5886 96.6683,24.5886 C96.5439,24.5886 96.442,24.5309 96.442,24.4605 C96.442,24.3901 96.3401,24.3324 96.2156,24.3324 C96.0911,24.3324 95.9067,24.2172 95.8058,24.0763 C95.7049,23.9354 95.5206,23.8202 95.396,23.8202 C95.2716,23.8202 95.1696,23.7625 95.1696,23.6921 C95.1696,23.6217 95.0551,23.564 94.9152,23.564 C94.7752,23.564 94.6607,23.5064 94.6607,23.436 C94.6607,23.3655 94.5462,23.3079 94.4063,23.3079 C94.2663,23.3079 94.1518,23.2503 94.1518,23.1798 C94.1518,23.1094 94.0373,23.0518 93.8973,23.0518 C93.7574,23.0518 93.6429,22.9941 93.6429,22.9237 C93.6429,22.8533 93.5284,22.7956 93.3884,22.7956 C93.2484,22.7956 93.1339,22.738 93.1339,22.6676 C93.1339,22.5971 93.0194,22.5395 92.8795,22.5395 C92.7395,22.5395 92.625,22.4819 92.625,22.4114 C92.625,22.341 92.5105,22.2834 92.3705,22.2834 C92.2306,22.2834 92.1161,22.2257 92.1161,22.1553 C92.1161,22.0849 92.0016,22.0272 91.8616,22.0272 C91.7217,22.0272 91.6071,21.9696 91.6071,21.8992 C91.6071,21.8287 91.4926,21.7711 91.3527,21.7711 C91.2127,21.7711 91.0982,21.7135 91.0982,21.6431 C91.0982,21.5726 90.9837,21.515 90.8438,21.515 C90.7038,21.515 90.5893,21.4574 90.5893,21.3869 C90.5893,21.3165 90.4748,21.2589 90.3348,21.2589 C90.1949,21.2589 90.0804,21.2012 90.0804,21.1308 C90.0804,21.0604 89.9659,21.0027 89.8259,21.0027 C89.6859,21.0027 89.5714,20.9451 89.5714,20.8747 C89.5714,20.8042 89.3997,20.7466 89.1897,20.7466 C88.9798,20.7466 88.808,20.689 88.808,20.6185 C88.808,20.5481 88.6935,20.4905 88.5536,20.4905 C88.4136,20.4905 88.2991,20.4328 88.2991,20.3624 C88.2991,20.292 88.1273,20.2343 87.9174,20.2343 C87.7075,20.2343 87.5357,20.1767 87.5357,20.1063 C87.5357,20.0358 87.4212,19.9782 87.2813,19.9782 C87.1413,19.9782 87.0268,19.9206 87.0268,19.8501 C87.0268,19.7797 86.855,19.7221 86.6451,19.7221 C86.4352,19.7221 86.2634,19.6644 86.2634,19.594 C86.2634,19.5236 86.0916,19.4659 85.8817,19.4659 L85.5,19.4659 L85.5,16.9329 C85.5,14.5468 85.4852,14.3892 85.2455,14.2153 C85.1056,14.1137 84.9911,13.955 84.9911,13.8626 C84.9911,13.6291 84.152,12.8065 83.9138,12.8065 C83.8065,12.8065 83.7188,12.7489 83.7188,12.6785 C83.7188,12.608 83.6042,12.5504 83.4643,12.5504 C83.3243,12.5504 83.2098,12.4928 83.2098,12.4223 C83.2098,12.3519 83.0953,12.2943 82.9554,12.2943 C82.8154,12.2943 82.7009,12.2366 82.7009,12.1662 C82.7009,12.0958 82.5864,12.0381 82.4464,12.0381 C82.3065,12.0381 82.192,11.9805 82.192,11.9101 C82.192,11.8396 82.0775,11.782 81.9375,11.782 C81.7975,11.782 81.683,11.7244 81.683,11.654 C81.683,11.5835 81.5685,11.5259 81.4286,11.5259 C81.2886,11.5259 81.1741,11.4683 81.1741,11.3978 C81.1741,11.3274 81.0596,11.2698 80.9196,11.2698 C80.7797,11.2698 80.6652,11.2121 80.6652,11.1417 C80.6652,11.0713 80.5507,11.0136 80.4107,11.0136 C80.2708,11.0136 80.1563,10.956 80.1563,10.8856 C80.1563,10.8151 80.0417,10.7575 79.9018,10.7575 C79.7618,10.7575 79.6473,10.6999 79.6473,10.6294 C79.6473,10.559 79.5328,10.5014 79.3929,10.5014 C79.2529,10.5014 79.1384,10.4437 79.1384,10.3733 C79.1384,10.3029 79.0239,10.2452 78.8839,10.2452 C78.744,10.2452 78.6295,10.1876 78.6295,10.1172 C78.6295,10.0467 78.515,9.9891 78.375,9.9891 C78.235,9.9891 78.1205,9.93147 78.1205,9.86104 C78.1205,9.7906 78.006,9.73297 77.8661,9.73297 C77.7261,9.73297 77.6116,9.67534 77.6116,9.6049 C77.6116,9.53447 77.4971,9.47684 77.3571,9.47684 C77.2172,9.47684 77.1027,9.41921 77.1027,9.34877 C77.1027,9.27834 76.9882,9.22071 76.8482,9.22071 C76.7083,9.22071 76.5938,9.16308 76.5938,9.09264 C76.5938,9.02221 76.4792,8.96458 76.3393,8.96458 C76.1993,8.96458 76.0848,8.90695 76.0848,8.83651 C76.0848,8.76608 75.9703,8.70845 75.8304,8.70845 C75.6904,8.70845 75.5759,8.65082 75.5759,8.58038 C75.5759,8.50994 75.4614,8.45232 75.3214,8.45232 C75.1815,8.45232 75.067,8.39469 75.067,8.32425 C75.067,8.25381 74.9525,8.19619 74.8125,8.19619 C74.6725,8.19619 74.558,8.13856 74.558,8.06812 C74.558,7.99768 74.4435,7.94005 74.3036,7.94005 C74.1636,7.94005 74.0491,7.88242 74.0491,7.81199 C74.0491,7.74155 73.9346,7.68392 73.7946,7.68392 C73.6547,7.68392 73.5402,7.62629 73.5402,7.55586 C73.5402,7.48542 73.4257,7.42779 73.2857,7.42779 C73.1458,7.42779 73.0312,7.37016 73.0312,7.29973 C73.0312,7.22929 72.9167,7.17166 72.7768,7.17166 C72.6368,7.17166 72.5223,7.11403 72.5223,7.0436 C72.5223,6.97316 72.4078,6.91553 72.2679,6.91553 C72.1279,6.91553 72.0134,6.8579 72.0134,6.78747 C72.0134,6.71703 71.8989,6.6594 71.7589,6.6594 C71.619,6.6594 71.5045,6.60177 71.5045,6.53133 C71.5045,6.4609 71.39,6.40327 71.25,6.40327 C71.11,6.40327 70.9955,6.34564 70.9955,6.2752 C70.9955,6.20477 70.881,6.14714 70.7411,6.14714 C70.6011,6.14714 70.4866,6.08951 70.4866,6.01907 C70.4866,5.94864 70.3721,5.89101 70.2321,5.89101 C70.0922,5.89101 69.9777,5.83338 69.9777,5.76294 C69.9777,5.69251 69.8632,5.63488 69.7232,5.63488 C69.5833,5.63488 69.4688,5.57725 69.4688,5.50681 C69.4688,5.43638 69.3542,5.37875 69.2143,5.37875 C69.0743,5.37875 68.9598,5.32112 68.9598,5.25068 C68.9598,5.18024 68.8453,5.12262 68.7054,5.12262 C68.5654,5.12262 68.4509,5.06499 68.4509,4.99455 C68.4509,4.92411 68.3364,4.86649 68.1964,4.86649 C68.0565,4.86649 67.942,4.80886 67.942,4.73842 C67.942,4.66798 67.8275,4.61035 67.6875,4.61035 C67.5475,4.61035 67.433,4.55272 67.433,4.48229 C67.433,4.41185 67.3185,4.35422 67.1786,4.35422 C67.0386,4.35422 66.9241,4.29659 66.9241,4.22616 C66.9241,4.15572 66.8096,4.09809 66.6696,4.09809 C66.5297,4.09809 66.4152,4.04046 66.4152,3.97003 C66.4152,3.89959 66.3007,3.84196 66.1607,3.84196 C66.0208,3.84196 65.9062,3.78433 65.9062,3.7139 C65.9062,3.64346 65.7917,3.58583 65.6518,3.58583 C65.5118,3.58583 65.3973,3.5282 65.3973,3.45777 C65.3973,3.38733 65.2828,3.3297 65.1429,3.3297 C65.0029,3.3297 64.8884,3.27207 64.8884,3.20163 C64.8884,3.1312 64.7739,3.07357 64.6339,3.07357 C64.494,3.07357 64.3795,3.01594 64.3795,2.9455 C64.3795,2.87507 64.265,2.81744 64.125,2.81744 C63.985,2.81744 63.8705,2.75981 63.8705,2.68937 C63.8705,2.61894 63.756,2.56131 63.6161,2.56131 C63.4761,2.56131 63.3616,2.50368 63.3616,2.43324 C63.3616,2.36281 63.2471,2.30518 63.1071,2.30518 C62.9672,2.30518 62.8527,2.24755 62.8527,2.17711 C62.8527,2.10668 62.7382,2.04905 62.5982,2.04905 C62.4583,2.04905 62.3438,1.99142 62.3438,1.92098 C62.3438,1.85054 62.2292,1.79292 62.0893,1.79292 C61.9493,1.79292 61.8348,1.73529 61.8348,1.66485 C61.8348,1.59441 61.7203,1.53678 61.5804,1.53678 C61.4404,1.53678 61.3259,1.47916 61.3259,1.40872 C61.3259,1.33828 61.2114,1.28065 61.0714,1.28065 C60.9315,1.28065 60.817,1.22302 60.817,1.15259 C60.817,1.08215 60.7025,1.02452 60.5625,1.02452 C60.4225,1.02452 60.308,0.966894 60.308,0.896458 C60.308,0.826022 60.1935,0.768392 60.0536,0.768392 C59.9136,0.768392 59.7991,0.710763 59.7991,0.640327 C59.7991,0.569891 59.6846,0.512262 59.5446,0.512262 C59.4047,0.512262 59.2902,0.454632 59.2902,0.384196 C59.2902,0.31376 59.1184,0.256131 58.9085,0.256131 C58.6986,0.256131 58.5268,0.198501 58.5268,0.128065 C58.5268,0.0521226 58.0602,0 57.3817,0 C56.7032,0 56.2366,0.0521226 56.2366,0.128065 Z M57.2545,8.58038 C57.2545,8.65082 57.369,8.70845 57.5089,8.70845 C57.6489,8.70845 57.7634,8.76608 57.7634,8.83651 C57.7634,8.90695 57.8779,8.96458 58.0179,8.96458 C58.1578,8.96458 58.2723,9.02221 58.2723,9.09264 C58.2723,9.16308 58.3868,9.22071 58.5268,9.22071 C58.6667,9.22071 58.7813,9.27834 58.7813,9.34877 C58.7813,9.41921 58.8958,9.47684 59.0357,9.47684 C59.1757,9.47684 59.2902,9.53447 59.2902,9.6049 C59.2902,9.67534 59.4047,9.73297 59.5446,9.73297 C59.6846,9.73297 59.7991,9.7906 59.7991,9.86104 C59.7991,9.93147 59.9136,9.9891 60.0536,9.9891 C60.1935,9.9891 60.308,10.0467 60.308,10.1172 C60.308,10.1876 60.4225,10.2452 60.5625,10.2452 C60.7025,10.2452 60.817,10.3029 60.817,10.3733 C60.817,10.4437 60.9315,10.5014 61.0714,10.5014 C61.2114,10.5014 61.3259,10.559 61.3259,10.6294 C61.3259,10.6999 61.4404,10.7575 61.5804,10.7575 C61.7203,10.7575 61.8348,10.8151 61.8348,10.8856 C61.8348,10.956 61.9493,11.0136 62.0893,11.0136 C62.2292,11.0136 62.3438,11.0713 62.3438,11.1417 C62.3438,11.2121 62.4583,11.2698 62.5982,11.2698 C62.7382,11.2698 62.8527,11.3274 62.8527,11.3978 C62.8527,11.4683 62.9672,11.5259 63.1071,11.5259 C63.2471,11.5259 63.3616,11.5835 63.3616,11.654 C63.3616,11.7244 63.4761,11.782 63.6161,11.782 C63.756,11.782 63.8705,11.8396 63.8705,11.9101 C63.8705,11.9805 63.985,12.0381 64.125,12.0381 C64.265,12.0381 64.3795,12.0958 64.3795,12.1662 C64.3795,12.2366 64.494,12.2943 64.6339,12.2943 C64.7739,12.2943 64.8884,12.3519 64.8884,12.4223 C64.8884,12.4928 65.0029,12.5504 65.1429,12.5504 C65.2828,12.5504 65.3973,12.608 65.3973,12.6785 C65.3973,12.7489 65.5118,12.8065 65.6518,12.8065 C65.7917,12.8065 65.9062,12.8642 65.9062,12.9346 C65.9062,13.005 66.0208,13.0627 66.1607,13.0627 C66.3007,13.0627 66.4152,13.1203 66.4152,13.1907 C66.4152,13.2612 66.5297,13.3188 66.6696,13.3188 C66.8096,13.3188 66.9241,13.3764 66.9241,13.4469 C66.9241,13.5173 67.0386,13.5749 67.1786,13.5749 C67.3185,13.5749 67.433,13.6326 67.433,13.703 C67.433,13.7734 67.5475,13.8311 67.6875,13.8311 C67.8275,13.8311 67.942,13.8887 67.942,13.9591 C67.942,14.0296 68.0565,14.0872 68.1964,14.0872 C68.3364,14.0872 68.4509,14.1448 68.4509,14.2153 C68.4509,14.2857 68.5654,14.3433 68.7054,14.3433 C68.8453,14.3433 68.9598,14.401 68.9598,14.4714 C68.9598,14.5418 69.0743,14.5995 69.2143,14.5995 C69.3542,14.5995 69.4688,14.6571 69.4688,14.7275 C69.4688,14.798 69.5833,14.8556 69.7232,14.8556 C69.8632,14.8556 69.9777,14.9132 69.9777,14.9837 C69.9777,15.0541 70.0922,15.1117 70.2321,15.1117 C70.3721,15.1117 70.4866,15.1693 70.4866,15.2398 C70.4866,15.3102 70.6011,15.3678 70.7411,15.3678 C70.881,15.3678 70.9955,15.4255 70.9955,15.4959 C70.9955,15.5663 71.11,15.624 71.25,15.624 C71.39,15.624 71.5045,15.6816 71.5045,15.752 C71.5045,15.8225 71.619,15.8801 71.7589,15.8801 C71.9285,15.8801 72.0134,15.9655 72.0134,16.1362 C72.0134,16.307 71.9285,16.3924 71.7589,16.3924 C71.619,16.3924 71.5045,16.45 71.5045,16.5204 C71.5045,16.5909 71.39,16.6485 71.25,16.6485 C71.11,16.6485 70.9955,16.7061 70.9955,16.7766 C70.9955,16.847 70.881,16.9046 70.7411,16.9046 C70.6011,16.9046 70.4866,16.9623 70.4866,17.0327 C70.4866,17.1031 70.3721,17.1608 70.2321,17.1608 C70.0922,17.1608 69.9777,17.2184 69.9777,17.2888 C69.9777,17.3593 69.8632,17.4169 69.7232,17.4169 C69.5833,17.4169 69.4688,17.4745 69.4688,17.545 C69.4688,17.6154 69.3542,17.673 69.2143,17.673 C69.0743,17.673 68.9598,17.7307 68.9598,17.8011 C68.9598,17.8715 68.8453,17.9292 68.7054,17.9292 C68.5654,17.9292 68.4509,17.9868 68.4509,18.0572 C68.4509,18.1277 68.3364,18.1853 68.1964,18.1853 C68.0565,18.1853 67.942,18.2429 67.942,18.3134 C67.942,18.3838 67.8275,18.4414 67.6875,18.4414 C67.5475,18.4414 67.433,18.499 67.433,18.5695 C67.433,18.6399 67.3185,18.6975 67.1786,18.6975 C67.0386,18.6975 66.9241,18.7552 66.9241,18.8256 C66.9241,18.896 66.8096,18.9537 66.6696,18.9537 C66.5297,18.9537 66.4152,19.0113 66.4152,19.0817 C66.4152,19.1522 66.3007,19.2098 66.1607,19.2098 C66.0208,19.2098 65.9062,19.2674 65.9062,19.3379 C65.9062,19.4083 65.7917,19.4659 65.6518,19.4659 C65.5118,19.4659 65.3973,19.5236 65.3973,19.594 C65.3973,19.6644 65.2828,19.7221 65.1429,19.7221 C65.0029,19.7221 64.8884,19.7797 64.8884,19.8501 C64.8884,19.9206 64.7739,19.9782 64.6339,19.9782 C64.494,19.9782 64.3795,20.0358 64.3795,20.1063 C64.3795,20.1767 64.265,20.2343 64.125,20.2343 C63.985,20.2343 63.8705,20.292 63.8705,20.3624 C63.8705,20.4328 63.756,20.4905 63.6161,20.4905 C63.4761,20.4905 63.3616,20.5481 63.3616,20.6185 C63.3616,20.689 63.2471,20.7466 63.1071,20.7466 C62.9672,20.7466 62.8527,20.8042 62.8527,20.8747 C62.8527,20.9451 62.7382,21.0027 62.5982,21.0027 C62.4583,21.0027 62.3438,21.0604 62.3438,21.1308 C62.3438,21.2012 62.2292,21.2589 62.0893,21.2589 C61.9493,21.2589 61.8348,21.3165 61.8348,21.3869 C61.8348,21.4574 61.7203,21.515 61.5804,21.515 C61.4404,21.515 61.3259,21.5726 61.3259,21.6431 C61.3259,21.7135 61.2114,21.7711 61.0714,21.7711 C60.9315,21.7711 60.817,21.8287 60.817,21.8992 C60.817,21.9696 60.7025,22.0272 60.5625,22.0272 C60.4225,22.0272 60.308,22.0849 60.308,22.1553 C60.308,22.2257 60.1935,22.2834 60.0536,22.2834 C59.9136,22.2834 59.7991,22.341 59.7991,22.4114 C59.7991,22.4819 59.6846,22.5395 59.5446,22.5395 C59.4047,22.5395 59.2902,22.5971 59.2902,22.6676 C59.2902,22.738 59.1757,22.7956 59.0357,22.7956 C58.8958,22.7956 58.7813,22.8533 58.7813,22.9237 C58.7813,22.9941 58.6667,23.0518 58.5268,23.0518 C58.3868,23.0518 58.2723,23.1094 58.2723,23.1798 C58.2723,23.2503 58.1578,23.3079 58.0179,23.3079 C57.8779,23.3079 57.7634,23.3655 57.7634,23.436 C57.7634,23.5064 57.6489,23.564 57.5089,23.564 C57.369,23.564 57.2545,23.6217 57.2545,23.6921 C57.2545,23.7625 57.14,23.8202 57,23.8202 C56.86,23.8202 56.7455,23.7625 56.7455,23.6921 C56.7455,23.6217 56.631,23.564 56.4911,23.564 C56.3511,23.564 56.2366,23.5064 56.2366,23.436 C56.2366,23.3655 56.1221,23.3079 55.9821,23.3079 C55.8422,23.3079 55.7277,23.2503 55.7277,23.1798 C55.7277,23.1094 55.6132,23.0518 55.4732,23.0518 C55.3333,23.0518 55.2188,22.9941 55.2188,22.9237 C55.2188,22.8533 55.1042,22.7956 54.9643,22.7956 C54.8243,22.7956 54.7098,22.738 54.7098,22.6676 C54.7098,22.5971 54.5953,22.5395 54.4554,22.5395 C54.3154,22.5395 54.2009,22.4819 54.2009,22.4114 C54.2009,22.341 54.0864,22.2834 53.9464,22.2834 C53.8065,22.2834 53.692,22.2257 53.692,22.1553 C53.692,22.0849 53.5775,22.0272 53.4375,22.0272 C53.2975,22.0272 53.183,21.9696 53.183,21.8992 C53.183,21.8287 53.0685,21.7711 52.9286,21.7711 C52.7886,21.7711 52.6741,21.7135 52.6741,21.6431 C52.6741,21.5726 52.5596,21.515 52.4196,21.515 C52.2797,21.515 52.1652,21.4574 52.1652,21.3869 C52.1652,21.3165 52.0507,21.2589 51.9107,21.2589 C51.7708,21.2589 51.6563,21.2012 51.6563,21.1308 C51.6563,21.0604 51.5417,21.0027 51.4018,21.0027 C51.2618,21.0027 51.1473,20.9451 51.1473,20.8747 C51.1473,20.8042 51.0328,20.7466 50.8929,20.7466 C50.7529,20.7466 50.6384,20.689 50.6384,20.6185 C50.6384,20.5481 50.5239,20.4905 50.3839,20.4905 C50.244,20.4905 50.1295,20.4328 50.1295,20.3624 C50.1295,20.292 50.015,20.2343 49.875,20.2343 C49.735,20.2343 49.6205,20.1767 49.6205,20.1063 C49.6205,20.0358 49.506,19.9782 49.3661,19.9782 C49.2261,19.9782 49.1116,19.9206 49.1116,19.8501 C49.1116,19.7797 48.9971,19.7221 48.8571,19.7221 C48.7172,19.7221 48.6027,19.6644 48.6027,19.594 C48.6027,19.5236 48.4882,19.4659 48.3482,19.4659 C48.2083,19.4659 48.0938,19.4083 48.0938,19.3379 C48.0938,19.2674 47.9792,19.2098 47.8393,19.2098 C47.6993,19.2098 47.5848,19.1522 47.5848,19.0817 C47.5848,19.0113 47.4703,18.9537 47.3304,18.9537 C47.1904,18.9537 47.0759,18.896 47.0759,18.8256 C47.0759,18.7552 46.9614,18.6975 46.8214,18.6975 C46.6815,18.6975 46.567,18.6399 46.567,18.5695 C46.567,18.499 46.4525,18.4414 46.3125,18.4414 C46.1725,18.4414 46.058,18.3838 46.058,18.3134 C46.058,18.2429 45.9435,18.1853 45.8036,18.1853 C45.6636,18.1853 45.5491,18.1277 45.5491,18.0572 C45.5491,17.9868 45.4346,17.9292 45.2946,17.9292 C45.1547,17.9292 45.0402,17.8715 45.0402,17.8011 C45.0402,17.7307 44.9257,17.673 44.7857,17.673 C44.6458,17.673 44.5313,17.6154 44.5313,17.545 C44.5313,17.4745 44.4167,17.4169 44.2768,17.4169 C44.1368,17.4169 44.0223,17.3593 44.0223,17.2888 C44.0223,17.2184 43.9078,17.1608 43.7679,17.1608 C43.6279,17.1608 43.5134,17.1031 43.5134,17.0327 C43.5134,16.9623 43.3989,16.9046 43.2589,16.9046 C43.119,16.9046 43.0045,16.847 43.0045,16.7766 C43.0045,16.7061 42.89,16.6485 42.75,16.6485 C42.61,16.6485 42.4955,16.5909 42.4955,16.5204 C42.4955,16.45 42.381,16.3924 42.2411,16.3924 C42.0715,16.3924 41.9866,16.307 41.9866,16.1362 C41.9866,15.9655 42.0715,15.8801 42.2411,15.8801 C42.381,15.8801 42.4955,15.8225 42.4955,15.752 C42.4955,15.6816 42.61,15.624 42.75,15.624 C42.89,15.624 43.0045,15.5663 43.0045,15.4959 C43.0045,15.4255 43.119,15.3678 43.2589,15.3678 C43.3989,15.3678 43.5134,15.3102 43.5134,15.2398 C43.5134,15.1693 43.6279,15.1117 43.7679,15.1117 C43.9078,15.1117 44.0223,15.0541 44.0223,14.9837 C44.0223,14.9132 44.1368,14.8556 44.2768,14.8556 C44.4167,14.8556 44.5313,14.798 44.5313,14.7275 C44.5313,14.6571 44.6458,14.5995 44.7857,14.5995 C44.9257,14.5995 45.0402,14.5418 45.0402,14.4714 C45.0402,14.401 45.1547,14.3433 45.2946,14.3433 C45.4346,14.3433 45.5491,14.2857 45.5491,14.2153 C45.5491,14.1448 45.6636,14.0872 45.8036,14.0872 C45.9435,14.0872 46.058,14.0296 46.058,13.9591 C46.058,13.8887 46.1725,13.8311 46.3125,13.8311 C46.4525,13.8311 46.567,13.7734 46.567,13.703 C46.567,13.6326 46.6815,13.5749 46.8214,13.5749 C46.9614,13.5749 47.0759,13.5173 47.0759,13.4469 C47.0759,13.3764 47.1904,13.3188 47.3304,13.3188 C47.4703,13.3188 47.5848,13.2612 47.5848,13.1907 C47.5848,13.1203 47.6993,13.0627 47.8393,13.0627 C47.9792,13.0627 48.0938,13.005 48.0938,12.9346 C48.0938,12.8642 48.2083,12.8065 48.3482,12.8065 C48.4882,12.8065 48.6027,12.7489 48.6027,12.6785 C48.6027,12.608 48.7172,12.5504 48.8571,12.5504 C48.9971,12.5504 49.1116,12.4928 49.1116,12.4223 C49.1116,12.3519 49.2261,12.2943 49.3661,12.2943 C49.506,12.2943 49.6205,12.2366 49.6205,12.1662 C49.6205,12.0958 49.735,12.0381 49.875,12.0381 C50.015,12.0381 50.1295,11.9805 50.1295,11.9101 C50.1295,11.8396 50.244,11.782 50.3839,11.782 C50.5239,11.782 50.6384,11.7244 50.6384,11.654 C50.6384,11.5835 50.7529,11.5259 50.8929,11.5259 C51.0328,11.5259 51.1473,11.4683 51.1473,11.3978 C51.1473,11.3274 51.2618,11.2698 51.4018,11.2698 C51.5417,11.2698 51.6563,11.2121 51.6563,11.1417 C51.6563,11.0713 51.7708,11.0136 51.9107,11.0136 C52.0507,11.0136 52.1652,10.956 52.1652,10.8856 C52.1652,10.8151 52.2797,10.7575 52.4196,10.7575 C52.5596,10.7575 52.6741,10.6999 52.6741,10.6294 C52.6741,10.559 52.7886,10.5014 52.9286,10.5014 C53.0685,10.5014 53.183,10.4437 53.183,10.3733 C53.183,10.3029 53.2975,10.2452 53.4375,10.2452 C53.5775,10.2452 53.692,10.1876 53.692,10.1172 C53.692,10.0467 53.8065,9.9891 53.9464,9.9891 C54.0864,9.9891 54.2009,9.93147 54.2009,9.86104 C54.2009,9.7906 54.3154,9.73297 54.4554,9.73297 C54.5953,9.73297 54.7098,9.67534 54.7098,9.6049 C54.7098,9.53447 54.8243,9.47684 54.9643,9.47684 C55.1042,9.47684 55.2188,9.41921 55.2188,9.34877 C55.2188,9.27834 55.3333,9.22071 55.4732,9.22071 C55.6132,9.22071 55.7277,9.16308 55.7277,9.09264 C55.7277,9.02221 55.8422,8.96458 55.9821,8.96458 C56.1221,8.96458 56.2366,8.90695 56.2366,8.83651 C56.2366,8.76608 56.3511,8.70845 56.4911,8.70845 C56.631,8.70845 56.7455,8.65082 56.7455,8.58038 C56.7455,8.50994 56.86,8.45232 57,8.45232 C57.14,8.45232 57.2545,8.50994 57.2545,8.58038 Z M36.8973,22.9237 C36.8973,22.9941 37.0118,23.0518 37.1518,23.0518 C37.2917,23.0518 37.4062,23.1094 37.4062,23.1798 C37.4062,23.2503 37.5208,23.3079 37.6607,23.3079 C37.8007,23.3079 37.9152,23.3655 37.9152,23.436 C37.9152,23.5064 38.0297,23.564 38.1696,23.564 C38.3096,23.564 38.4241,23.6217 38.4241,23.6921 C38.4241,23.7625 38.5386,23.8202 38.6786,23.8202 C38.8185,23.8202 38.933,23.8778 38.933,23.9482 C38.933,24.0187 39.0475,24.0763 39.1875,24.0763 C39.3275,24.0763 39.442,24.1339 39.442,24.2044 C39.442,24.2748 39.5565,24.3324 39.6964,24.3324 C39.8364,24.3324 39.9509,24.3901 39.9509,24.4605 C39.9509,24.5309 40.0654,24.5886 40.2054,24.5886 C40.3453,24.5886 40.4598,24.6462 40.4598,24.7166 C40.4598,24.7871 40.5743,24.8447 40.7143,24.8447 C40.8542,24.8447 40.9688,24.9023 40.9688,24.9728 C40.9688,25.0432 41.0833,25.1008 41.2232,25.1008 C41.3632,25.1008 41.4777,25.1584 41.4777,25.2289 C41.4777,25.2993 41.5922,25.3569 41.7321,25.3569 C41.8721,25.3569 41.9866,25.4146 41.9866,25.485 C41.9866,25.5554 42.1011,25.6131 42.2411,25.6131 C42.381,25.6131 42.4955,25.6707 42.4955,25.7411 C42.4955,25.8116 42.61,25.8692 42.75,25.8692 C42.89,25.8692 43.0045,25.9268 43.0045,25.9973 C43.0045,26.0677 43.119,26.1253 43.2589,26.1253 C43.3989,26.1253 43.5134,26.183 43.5134,26.2534 C43.5134,26.3238 43.6279,26.3815 43.7679,26.3815 C43.9078,26.3815 44.0223,26.4391 44.0223,26.5095 C44.0223,26.58 44.1368,26.6376 44.2768,26.6376 C44.4167,26.6376 44.5313,26.6952 44.5313,26.7657 C44.5313,26.8361 44.6458,26.8937 44.7857,26.8937 C44.9257,26.8937 45.0402,26.9514 45.0402,27.0218 C45.0402,27.0922 45.1547,27.1499 45.2946,27.1499 C45.4346,27.1499 45.5491,27.2075 45.5491,27.2779 C45.5491,27.3484 45.6636,27.406 45.8036,27.406 C45.9435,27.406 46.058,27.4636 46.058,27.5341 C46.058,27.6045 46.1725,27.6621 46.3125,27.6621 C46.4525,27.6621 46.567,27.7198 46.567,27.7902 C46.567,27.8606 46.6815,27.9183 46.8214,27.9183 C46.9614,27.9183 47.0759,27.9759 47.0759,28.0463 C47.0759,28.1168 47.1904,28.1744 47.3304,28.1744 C47.4703,28.1744 47.5848,28.232 47.5848,28.3025 C47.5848,28.3729 47.6993,28.4305 47.8393,28.4305 C47.9792,28.4305 48.0938,28.4881 48.0938,28.5586 C48.0938,28.629 48.2083,28.6866 48.3482,28.6866 C48.4882,28.6866 48.6027,28.7443 48.6027,28.8147 C48.6027,28.8851 48.7172,28.9428 48.8571,28.9428 C48.9971,28.9428 49.1116,29.0004 49.1116,29.0708 C49.1116,29.1413 49.2261,29.1989 49.3661,29.1989 C49.506,29.1989 49.6205,29.2565 49.6205,29.327 C49.6205,29.3974 49.735,29.455 49.875,29.455 C50.015,29.455 50.1295,29.5127 50.1295,29.5831 C50.1295,29.6535 50.244,29.7112 50.3839,29.7112 C50.5239,29.7112 50.6384,29.7688 50.6384,29.8392 C50.6384,29.9097 50.7529,29.9673 50.8929,29.9673 C51.0328,29.9673 51.1473,30.0249 51.1473,30.0954 C51.1473,30.1658 51.2618,30.2234 51.4018,30.2234 C51.5417,30.2234 51.6563,30.2811 51.6563,30.3515 C51.6563,30.4219 51.7708,30.4796 51.9107,30.4796 C52.0507,30.4796 52.1652,30.5372 52.1652,30.6076 C52.1652,30.6781 52.2551,30.7357 52.3651,30.7357 C52.9403,30.7357 52.9286179,30.5268 52.9286179,40.7797 C52.9286179,47.1464 52.8851,50.4578 52.8013,50.4578 C52.7314,50.4578 52.6741,50.4001 52.6741,50.3297 C52.6741,50.2593 52.5596,50.2016 52.4196,50.2016 C52.2797,50.2016 52.1652,50.144 52.1652,50.0736 C52.1652,50.0031 52.0507,49.9455 51.9107,49.9455 C51.7708,49.9455 51.6563,49.8879 51.6563,49.8174 C51.6563,49.747 51.5417,49.6894 51.4018,49.6894 C51.2618,49.6894 51.1473,49.6317 51.1473,49.5613 C51.1473,49.4909 51.0328,49.4332 50.8929,49.4332 C50.7529,49.4332 50.6384,49.3756 50.6384,49.3052 C50.6384,49.2347 50.5239,49.1771 50.3839,49.1771 C50.244,49.1771 50.1295,49.1195 50.1295,49.049 C50.1295,48.9786 50.015,48.921 49.875,48.921 C49.735,48.921 49.6205,48.8633 49.6205,48.7929 C49.6205,48.7225 49.506,48.6648 49.3661,48.6648 C49.2261,48.6648 49.1116,48.6072 49.1116,48.5368 C49.1116,48.4663 48.9971,48.4087 48.8571,48.4087 C48.7172,48.4087 48.6027,48.3511 48.6027,48.2807 C48.6027,48.2102 48.4882,48.1526 48.3482,48.1526 C48.2083,48.1526 48.0938,48.095 48.0938,48.0245 C48.0938,47.9541 47.9792,47.8965 47.8393,47.8965 C47.6993,47.8965 47.5848,47.8388 47.5848,47.7684 C47.5848,47.698 47.4703,47.6403 47.3304,47.6403 C47.1904,47.6403 47.0759,47.5827 47.0759,47.5123 C47.0759,47.4418 46.9614,47.3842 46.8214,47.3842 C46.6815,47.3842 46.567,47.3266 46.567,47.2561 C46.567,47.1857 46.4525,47.1281 46.3125,47.1281 C46.1725,47.1281 46.058,47.0704 46.058,47 C46.058,46.9296 45.9435,46.8719 45.8036,46.8719 C45.6636,46.8719 45.5491,46.8143 45.5491,46.7439 C45.5491,46.6734 45.4346,46.6158 45.2946,46.6158 C45.1547,46.6158 45.0402,46.5582 45.0402,46.4877 C45.0402,46.4173 44.9257,46.3597 44.7857,46.3597 C44.6458,46.3597 44.5313,46.302 44.5313,46.2316 C44.5313,46.1612 44.4167,46.1035 44.2768,46.1035 C44.1368,46.1035 44.0223,46.0459 44.0223,45.9755 C44.0223,45.905 43.9078,45.8474 43.7679,45.8474 C43.6279,45.8474 43.5134,45.7898 43.5134,45.7193 C43.5134,45.6489 43.3989,45.5913 43.2589,45.5913 C43.119,45.5913 43.0045,45.5336 43.0045,45.4632 C43.0045,45.3928 42.89,45.3351 42.75,45.3351 C42.61,45.3351 42.4955,45.2775 42.4955,45.2071 C42.4955,45.1366 42.381,45.079 42.2411,45.079 C42.1011,45.079 41.9866,45.0214 41.9866,44.951 C41.9866,44.8805 41.8721,44.8229 41.7321,44.8229 C41.5922,44.8229 41.4777,44.7653 41.4777,44.6948 C41.4777,44.6244 41.3632,44.5668 41.2232,44.5668 C41.0833,44.5668 40.9688,44.5091 40.9688,44.4387 C40.9688,44.3683 40.8542,44.3106 40.7143,44.3106 C40.5743,44.3106 40.4598,44.253 40.4598,44.1826 C40.4598,44.1121 40.3453,44.0545 40.2054,44.0545 C40.0654,44.0545 39.9509,43.9969 39.9509,43.9264 C39.9509,43.856 39.8364,43.7984 39.6964,43.7984 C39.5565,43.7984 39.442,43.7407 39.442,43.6703 C39.442,43.5999 39.3275,43.5422 39.1875,43.5422 C39.0475,43.5422 38.933,43.4846 38.933,43.4142 C38.933,43.3437 38.8185,43.2861 38.6786,43.2861 C38.5386,43.2861 38.4241,43.2285 38.4241,43.158 C38.4241,43.0876 38.3096,43.03 38.1696,43.03 C38.0297,43.03 37.9152,42.9723 37.9152,42.9019 C37.9152,42.8315 37.8007,42.7738 37.6607,42.7738 C37.5208,42.7738 37.4062,42.7162 37.4062,42.6458 C37.4062,42.5753 37.3163,42.5177 37.2064,42.5177 C36.6312,42.5177 36.6428821,42.7266 36.6428821,32.4737 C36.6428821,26.107 36.6864,22.7956 36.7701,22.7956 C36.8401,22.7956 36.8973,22.8533 36.8973,22.9237 Z M77.3571183,32.4737 C77.3571183,42.7266 77.3689,42.5177 76.7936,42.5177 C76.6837,42.5177 76.5938,42.5753 76.5938,42.6458 C76.5938,42.7162 76.4792,42.7738 76.3393,42.7738 C76.1993,42.7738 76.0848,42.8315 76.0848,42.9019 C76.0848,42.9723 75.9703,43.03 75.8304,43.03 C75.6904,43.03 75.5759,43.0876 75.5759,43.158 C75.5759,43.2285 75.4614,43.2861 75.3214,43.2861 C75.1815,43.2861 75.067,43.3437 75.067,43.4142 C75.067,43.4846 74.9525,43.5422 74.8125,43.5422 C74.6725,43.5422 74.558,43.5999 74.558,43.6703 C74.558,43.7407 74.4435,43.7984 74.3036,43.7984 C74.1636,43.7984 74.0491,43.856 74.0491,43.9264 C74.0491,43.9969 73.9346,44.0545 73.7946,44.0545 C73.6547,44.0545 73.5402,44.1121 73.5402,44.1826 C73.5402,44.253 73.4257,44.3106 73.2857,44.3106 C73.1458,44.3106 73.0312,44.3683 73.0312,44.4387 C73.0312,44.5091 72.9167,44.5668 72.7768,44.5668 C72.6368,44.5668 72.5223,44.6244 72.5223,44.6948 C72.5223,44.7653 72.4078,44.8229 72.2679,44.8229 C72.1279,44.8229 72.0134,44.8805 72.0134,44.951 C72.0134,45.0214 71.8989,45.079 71.7589,45.079 C71.619,45.079 71.5045,45.1366 71.5045,45.2071 C71.5045,45.2775 71.39,45.3351 71.25,45.3351 C71.11,45.3351 70.9955,45.3928 70.9955,45.4632 C70.9955,45.5336 70.881,45.5913 70.7411,45.5913 C70.6011,45.5913 70.4866,45.6489 70.4866,45.7193 C70.4866,45.7898 70.3721,45.8474 70.2321,45.8474 C70.0922,45.8474 69.9777,45.905 69.9777,45.9755 C69.9777,46.0459 69.8632,46.1035 69.7232,46.1035 C69.5833,46.1035 69.4688,46.1612 69.4688,46.2316 C69.4688,46.302 69.3542,46.3597 69.2143,46.3597 C69.0743,46.3597 68.9598,46.4173 68.9598,46.4877 C68.9598,46.5582 68.8453,46.6158 68.7054,46.6158 C68.5654,46.6158 68.4509,46.6734 68.4509,46.7439 C68.4509,46.8143 68.3364,46.8719 68.1964,46.8719 C68.0565,46.8719 67.942,46.9296 67.942,47 C67.942,47.0704 67.8275,47.1281 67.6875,47.1281 C67.5475,47.1281 67.433,47.1857 67.433,47.2561 C67.433,47.3266 67.3185,47.3842 67.1786,47.3842 C67.0386,47.3842 66.9241,47.4418 66.9241,47.5123 C66.9241,47.5827 66.8096,47.6403 66.6696,47.6403 C66.5297,47.6403 66.4152,47.698 66.4152,47.7684 C66.4152,47.8388 66.3007,47.8965 66.1607,47.8965 C66.0208,47.8965 65.9062,47.9541 65.9062,48.0245 C65.9062,48.095 65.7917,48.1526 65.6518,48.1526 C65.5118,48.1526 65.3973,48.2102 65.3973,48.2807 C65.3973,48.3511 65.2828,48.4087 65.1429,48.4087 C65.0029,48.4087 64.8884,48.4663 64.8884,48.5368 C64.8884,48.6072 64.7739,48.6648 64.6339,48.6648 C64.494,48.6648 64.3795,48.7225 64.3795,48.7929 C64.3795,48.8633 64.265,48.921 64.125,48.921 C63.985,48.921 63.8705,48.9786 63.8705,49.049 C63.8705,49.1195 63.756,49.1771 63.6161,49.1771 C63.4761,49.1771 63.3616,49.2347 63.3616,49.3052 C63.3616,49.3756 63.2471,49.4332 63.1071,49.4332 C62.9672,49.4332 62.8527,49.4909 62.8527,49.5613 C62.8527,49.6317 62.7382,49.6894 62.5982,49.6894 C62.4583,49.6894 62.3438,49.747 62.3438,49.8174 C62.3438,49.8879 62.2292,49.9455 62.0893,49.9455 C61.9493,49.9455 61.8348,50.0031 61.8348,50.0736 C61.8348,50.144 61.7203,50.2016 61.5804,50.2016 C61.4404,50.2016 61.3259,50.2593 61.3259,50.3297 C61.3259,50.4001 61.2686,50.4578 61.1987,50.4578 C61.1149,50.4578 61.0713821,47.1464 61.0713821,40.7797 C61.0713821,30.5268 61.0597,30.7357 61.6349,30.7357 C61.7449,30.7357 61.8348,30.6781 61.8348,30.6076 C61.8348,30.5372 61.9493,30.4796 62.0893,30.4796 C62.2292,30.4796 62.3438,30.4219 62.3438,30.3515 C62.3438,30.2811 62.4583,30.2234 62.5982,30.2234 C62.7382,30.2234 62.8527,30.1658 62.8527,30.0954 C62.8527,30.0249 62.9672,29.9673 63.1071,29.9673 C63.2471,29.9673 63.3616,29.9097 63.3616,29.8392 C63.3616,29.7688 63.4761,29.7112 63.6161,29.7112 C63.756,29.7112 63.8705,29.6535 63.8705,29.5831 C63.8705,29.5127 63.985,29.455 64.125,29.455 C64.265,29.455 64.3795,29.3974 64.3795,29.327 C64.3795,29.2565 64.494,29.1989 64.6339,29.1989 C64.7739,29.1989 64.8884,29.1413 64.8884,29.0708 C64.8884,29.0004 65.0029,28.9428 65.1429,28.9428 C65.2828,28.9428 65.3973,28.8851 65.3973,28.8147 C65.3973,28.7443 65.5118,28.6866 65.6518,28.6866 C65.7917,28.6866 65.9062,28.629 65.9062,28.5586 C65.9062,28.4881 66.0208,28.4305 66.1607,28.4305 C66.3007,28.4305 66.4152,28.3729 66.4152,28.3025 C66.4152,28.232 66.5297,28.1744 66.6696,28.1744 C66.8096,28.1744 66.9241,28.1168 66.9241,28.0463 C66.9241,27.9759 67.0386,27.9183 67.1786,27.9183 C67.3185,27.9183 67.433,27.8606 67.433,27.7902 C67.433,27.7198 67.5475,27.6621 67.6875,27.6621 C67.8275,27.6621 67.942,27.6045 67.942,27.5341 C67.942,27.4636 68.0565,27.406 68.1964,27.406 C68.3364,27.406 68.4509,27.3484 68.4509,27.2779 C68.4509,27.2075 68.5654,27.1499 68.7054,27.1499 C68.8453,27.1499 68.9598,27.0922 68.9598,27.0218 C68.9598,26.9514 69.0743,26.8937 69.2143,26.8937 C69.3542,26.8937 69.4688,26.8361 69.4688,26.7657 C69.4688,26.6952 69.5833,26.6376 69.7232,26.6376 C69.8632,26.6376 69.9777,26.58 69.9777,26.5095 C69.9777,26.4391 70.0922,26.3815 70.2321,26.3815 C70.3721,26.3815 70.4866,26.3238 70.4866,26.2534 C70.4866,26.183 70.6011,26.1253 70.7411,26.1253 C70.881,26.1253 70.9955,26.0677 70.9955,25.9973 C70.9955,25.9268 71.11,25.8692 71.25,25.8692 C71.39,25.8692 71.5045,25.8116 71.5045,25.7411 C71.5045,25.6707 71.619,25.6131 71.7589,25.6131 C71.8989,25.6131 72.0134,25.5554 72.0134,25.485 C72.0134,25.4146 72.1279,25.3569 72.2679,25.3569 C72.4078,25.3569 72.5223,25.2993 72.5223,25.2289 C72.5223,25.1584 72.6368,25.1008 72.7768,25.1008 C72.9167,25.1008 73.0312,25.0432 73.0312,24.9728 C73.0312,24.9023 73.1458,24.8447 73.2857,24.8447 C73.4257,24.8447 73.5402,24.7871 73.5402,24.7166 C73.5402,24.6462 73.6547,24.5886 73.7946,24.5886 C73.9346,24.5886 74.0491,24.5309 74.0491,24.4605 C74.0491,24.3901 74.1636,24.3324 74.3036,24.3324 C74.4435,24.3324 74.558,24.2748 74.558,24.2044 C74.558,24.1339 74.6725,24.0763 74.8125,24.0763 C74.9525,24.0763 75.067,24.0187 75.067,23.9482 C75.067,23.8778 75.1815,23.8202 75.3214,23.8202 C75.4614,23.8202 75.5759,23.7625 75.5759,23.6921 C75.5759,23.6217 75.6904,23.564 75.8304,23.564 C75.9703,23.564 76.0848,23.5064 76.0848,23.436 C76.0848,23.3655 76.1993,23.3079 76.3393,23.3079 C76.4792,23.3079 76.5938,23.2503 76.5938,23.1798 C76.5938,23.1094 76.7083,23.0518 76.8482,23.0518 C76.9882,23.0518 77.1027,22.9941 77.1027,22.9237 C77.1027,22.8533 77.1599,22.7956 77.2299,22.7956 C77.3136,22.7956 77.3571183,26.107 77.3571183,32.4737 Z" id="Shape"></path>
        </g>
    </g>
</svg>