<svg width="24" height="24" viewBox="0 0 24 24" fill="none" xmlns="http://www.w3.org/2000/svg">
<path d="M6.24286 15.223C5.87614 14.8564 5.73803 15.0406 5.65646 15.1223C3.54469 17.234 1.6699 22.3294 2.66102 21.8317C6.26911 20.0201 6.87029 20.5595 8.98199 18.4479C9.06363 18.3662 9.25135 18.2317 8.87395 17.8542L6.24286 15.223Z" fill="#D1091E"/>
<path d="M16.8304 14.7384C16.7483 14.4774 16.9204 14.3516 16.9928 14.2735C20.9937 9.96036 23.5364 4.2139 21.6521 2.33222C19.7777 0.460687 14.2003 3.07389 9.88207 7.04012C9.79664 7.11868 9.62825 7.26747 9.32702 7.20467L7.98161 6.88477C7.60807 6.79607 7.08025 6.94517 6.80873 7.21629L1.87202 12.1457C1.6005 12.4169 1.68872 12.6875 2.06808 12.747L5.63864 13.3073C6.01801 13.3668 6.55052 13.1937 6.82198 12.9225C6.82198 12.9225 7.00621 12.7381 7.19131 12.9228C8.21252 13.9424 10.1102 15.8373 11.0831 16.8089C11.2765 17.0019 11.0913 17.1856 11.0913 17.1856C10.8197 17.4568 10.6464 17.9884 10.706 18.3672L11.2671 21.9325C11.3267 22.3115 11.5977 22.3996 11.8692 22.1284L16.806 17.1988C17.0774 16.9277 17.2268 16.4008 17.1379 16.0278L16.8304 14.7384ZM15.7252 8.36984C14.889 7.53489 14.889 6.18131 15.7252 5.34649C16.5613 4.51154 17.9168 4.51154 18.753 5.34649C19.5891 6.18125 19.5891 7.53489 18.753 8.36977C17.9168 9.20472 16.5612 9.20472 15.7252 8.36984Z" fill="#D1091E"/>
</svg>
