<svg width="24" height="31" viewBox="0 0 24 31" fill="none" xmlns="http://www.w3.org/2000/svg">
<path d="M12.0001 6.39216C10.4616 6.39216 9.21021 5.13369 9.21021 3.58695C9.21021 2.04021 10.4618 0.781738 12.0001 0.781738C13.5384 0.781738 14.7901 2.04009 14.7901 3.58695C14.7901 5.13381 13.5384 6.39216 12.0001 6.39216ZM12.0001 1.19287C10.6872 1.19287 9.619 2.26681 9.619 3.58695C9.619 4.90709 10.6871 5.98103 12.0001 5.98103C13.313 5.98103 14.3812 4.90697 14.3812 3.58695C14.3812 2.26681 13.3129 1.19287 12.0001 1.19287Z" fill="white"/>
<path d="M12 6.6593C10.3151 6.6593 8.94434 5.28093 8.94434 3.58673C8.94434 1.89253 10.3151 0.51416 12 0.51416C13.6849 0.51416 15.0556 1.89253 15.0556 3.58661C15.0556 5.28081 13.6848 6.6593 12 6.6593ZM12 1.45989C10.8336 1.45989 9.88465 2.41393 9.88465 3.58661C9.88465 4.75941 10.8336 5.71345 12 5.71345C13.1664 5.71345 14.1153 4.75941 14.1153 3.58661C14.1153 2.41393 13.1664 1.45989 12 1.45989Z" fill="#BF0102"/>
<path d="M12.6959 4.7419H11.2888C11.0769 4.7419 10.905 4.56901 10.905 4.35584V3.74983C10.905 3.53666 11.0769 3.36377 11.2888 3.36377H12.6959C12.9078 3.36377 13.0796 3.53666 13.0796 3.74983V4.35584C13.0796 4.56913 12.9078 4.7419 12.6959 4.7419Z" fill="#FFB6B9"/>
<g opacity="0.6">
<g opacity="0.6">
<g opacity="0.6">
<path opacity="0.6" d="M11.3775 4.05367C11.3775 3.93508 11.4732 3.83883 11.5912 3.83883H13.0796V3.74971C13.0796 3.53654 12.9078 3.36377 12.6958 3.36377H11.2889C11.0769 3.36377 10.905 3.53654 10.905 3.74971V4.35596C10.905 4.56913 11.0769 4.7419 11.2889 4.7419H11.3775V4.05367Z" fill="white"/>
</g>
</g>
</g>
<path d="M12.696 5.06854H11.2889C10.8982 5.06854 10.5803 4.74878 10.5803 4.35583V3.74982C10.5803 3.35687 10.8982 3.03711 11.2889 3.03711H12.696C13.0867 3.03711 13.4046 3.35687 13.4046 3.74982V4.35583C13.4045 4.74878 13.0866 5.06854 12.696 5.06854ZM11.2889 3.69029C11.2564 3.69029 11.2298 3.71691 11.2298 3.7497V4.35571C11.2298 4.3885 11.2563 4.41512 11.2889 4.41512H12.696C12.7285 4.41512 12.7551 4.3885 12.7551 4.35571V3.7497C12.7551 3.71691 12.7286 3.69029 12.696 3.69029H11.2889Z" fill="#BF0102"/>
<path d="M12.6978 4.74219H11.2612V7.10787H12.6978V4.74219Z" fill="#FFB6B9"/>
<path d="M12.6976 7.4345H11.2611C11.0817 7.4345 10.9363 7.28823 10.9363 7.10786V4.74218C10.9363 4.5618 11.0817 4.41553 11.2611 4.41553H12.6976C12.877 4.41553 13.0224 4.5618 13.0224 4.74218V7.10786C13.0223 7.28823 12.8769 7.4345 12.6976 7.4345ZM11.5858 6.78121H12.3728V5.06894H11.5858V6.78121Z" fill="#BF0102"/>
<g opacity="0.3">
<g opacity="0.3">
<g opacity="0.3">
<g opacity="0.3">
<path opacity="0.3" d="M12.6975 4.74219H11.261V7.10787H12.6975V4.74219Z" fill="#BF0102"/>
</g>
</g>
</g>
</g>
<path d="M20.092 8.15561L21.6131 9.66313C21.7629 9.81155 22.0039 9.80976 22.1515 9.65921L22.8988 8.89695C23.0466 8.74628 23.0448 8.50364 22.8949 8.35511L21.3738 6.84747C21.2241 6.69905 20.9831 6.70084 20.8355 6.85139L20.0882 7.61365C19.9405 7.76444 19.9422 8.00707 20.092 8.15561Z" fill="#FFB6B9"/>
<g opacity="0.6">
<g opacity="0.6">
<g opacity="0.6">
<path opacity="0.6" d="M20.2045 8.26691L20.8353 7.62336C20.983 7.47269 21.2242 7.47103 21.3739 7.61944L22.7825 9.01539L22.8989 8.89656C23.0466 8.74589 23.0449 8.50349 22.895 8.35496L21.3741 6.84755C21.2243 6.69902 20.9831 6.70081 20.8355 6.85148L20.0882 7.61373C19.9405 7.7644 19.9422 8.00681 20.092 8.15534L20.2045 8.26691Z" fill="white"/>
</g>
</g>
</g>
<path d="M21.8808 10.14C21.6914 10.14 21.5021 10.0682 21.3569 9.92445L19.8359 8.41693C19.6939 8.27612 19.6148 8.08802 19.6133 7.88744C19.6119 7.68687 19.6882 7.49758 19.8283 7.35475L20.5756 6.59237C20.8645 6.29769 21.3379 6.29436 21.6309 6.58477L23.1519 8.0923C23.294 8.2331 23.373 8.42108 23.3746 8.62178C23.376 8.82236 23.2997 9.01164 23.1596 9.15447L22.4123 9.91685C22.2665 10.0655 22.0736 10.14 21.8808 10.14ZM21.1071 7.10451C21.1032 7.10451 21.0993 7.10605 21.0962 7.10902L20.3489 7.87128C20.3476 7.87259 20.3446 7.8758 20.3446 7.8821C20.3446 7.88839 20.3477 7.89148 20.349 7.89291L21.87 9.40044C21.8759 9.40626 21.8856 9.40626 21.8915 9.4002L22.6388 8.63794C22.6401 8.63663 22.6432 8.63342 22.6432 8.62713C22.6432 8.62083 22.64 8.61774 22.6387 8.61631L21.1177 7.10878C21.1148 7.10593 21.1109 7.10451 21.1071 7.10451Z" fill="#BF0102"/>
<path d="M18.6983 10.0964L19.7214 11.1104L21.3722 9.42462L20.349 8.41067L18.6983 10.0964Z" fill="#FFB6B9"/>
<path d="M19.7219 11.4782C19.6292 11.4782 19.5366 11.443 19.4654 11.3725L18.4423 10.3585C18.3732 10.2901 18.334 10.1967 18.3333 10.0991C18.3326 10.0016 18.3705 9.9077 18.4386 9.83819L20.0902 8.1535C20.2321 8.00889 20.4634 8.00722 20.6071 8.14981L21.6302 9.16374C21.6993 9.23219 21.7385 9.32558 21.7392 9.42314C21.7399 9.52069 21.702 9.61456 21.6339 9.68408L19.9823 11.3688C19.9107 11.4416 19.8163 11.4782 19.7219 11.4782ZM19.2161 10.0927L19.7182 10.5904L20.8563 9.42932L20.3542 8.93168L19.2161 10.0927Z" fill="#BF0102"/>
<g opacity="0.3">
<g opacity="0.3">
<g opacity="0.3">
<g opacity="0.3">
<path opacity="0.3" d="M18.6986 10.0969L19.7217 11.1108L21.3724 9.42511L20.3493 8.41115L18.6986 10.0969Z" fill="#BF0102"/>
</g>
</g>
</g>
</g>
<path d="M3.76691 8.23178L2.24595 9.7393C2.09618 9.88772 1.85522 9.88593 1.70758 9.73538L0.960266 8.973C0.812504 8.82234 0.814276 8.57969 0.964163 8.43116L2.48513 6.92364C2.6349 6.77523 2.87585 6.77701 3.0235 6.92756L3.77081 7.68982C3.91857 7.84049 3.9168 8.08313 3.76691 8.23178Z" fill="#FFB6B9"/>
<g opacity="0.6">
<g opacity="0.6">
<g opacity="0.6">
<path opacity="0.6" d="M1.66867 9.03222C1.52102 8.88155 1.52268 8.63915 1.67256 8.49062L3.13495 7.0412L3.02356 6.9276C2.87592 6.77693 2.63473 6.77527 2.48496 6.92368L0.963875 8.43121C0.813987 8.57974 0.812333 8.82214 0.959977 8.97281L1.70729 9.73507C1.85493 9.88574 2.09612 9.8874 2.24589 9.73899L2.3046 9.68088L1.66867 9.03222Z" fill="white"/>
</g>
</g>
</g>
<path d="M1.97844 10.2166C1.78556 10.2166 1.59279 10.1421 1.44692 9.99346L0.699608 9.23109C0.559523 9.08826 0.483221 8.89909 0.484639 8.69839C0.486056 8.49782 0.565075 8.30972 0.707167 8.16891L2.22813 6.66138C2.52106 6.37098 2.99458 6.37442 3.28349 6.66899L4.0308 7.43137C4.17089 7.57419 4.24719 7.76336 4.24577 7.96406C4.24435 8.16463 4.16534 8.35273 4.02324 8.49354L2.50228 10.0011C2.35711 10.1448 2.16778 10.2166 1.97844 10.2166ZM2.75221 7.181C2.74831 7.181 2.74453 7.18243 2.74158 7.1854L1.22049 8.69293C1.2192 8.69424 1.21601 8.69744 1.21601 8.70374C1.21601 8.71004 1.21908 8.71325 1.22038 8.71455L1.96769 9.47693C1.9736 9.48299 1.98328 9.48299 1.98919 9.47705L3.51015 7.96941C3.51157 7.9681 3.51464 7.96501 3.51476 7.95859C3.51476 7.95229 3.51169 7.94909 3.51039 7.94778L2.76308 7.18552C2.76 7.18255 2.75611 7.181 2.75221 7.181ZM3.76682 8.23141H3.76741H3.76682Z" fill="#BF0102"/>
<path d="M3.50896 8.488L2.48584 9.50195L4.13657 11.1877L5.15969 10.1737L3.50896 8.488Z" fill="#FFB6B9"/>
<path d="M4.13728 11.5541C4.04291 11.5541 3.94854 11.5175 3.87696 11.4445L2.22524 9.7597C2.15709 9.69019 2.11929 9.59632 2.11988 9.49876C2.12059 9.40121 2.1598 9.30781 2.2289 9.23937L3.25201 8.22544C3.39576 8.08297 3.62714 8.08451 3.76888 8.22924L5.42048 9.91393C5.48864 9.98345 5.52643 10.0773 5.52584 10.1749C5.52513 10.2724 5.48592 10.3657 5.41682 10.4343L4.39383 11.4482C4.32272 11.5188 4.22989 11.5541 4.13728 11.5541ZM3.00279 9.50518L4.14094 10.6662L4.64305 10.1686L3.5049 9.00754L3.00279 9.50518Z" fill="#BF0102"/>
<g opacity="0.3">
<g opacity="0.3">
<g opacity="0.3">
<g opacity="0.3">
<path opacity="0.3" d="M3.50896 8.48751L2.48584 9.50146L4.13657 11.1872L5.15969 10.1732L3.50896 8.48751Z" fill="#BF0102"/>
</g>
</g>
</g>
</g>
<path d="M12 29.9747C18.4255 29.9747 23.6344 24.7373 23.6344 18.2767C23.6344 11.816 18.4255 6.57861 12 6.57861C5.57458 6.57861 0.365723 11.816 0.365723 18.2767C0.365723 24.7373 5.57458 29.9747 12 29.9747Z" fill="#FFB6B9"/>
<g opacity="0.3">
<g opacity="0.3">
<g opacity="0.3">
<path opacity="0.3" d="M1.54614 23.4141C1.56705 23.4571 1.58796 23.5 1.60945 23.5426C1.58807 23.5 1.56705 23.4571 1.54614 23.4141Z" fill="#BF0102"/>
</g>
</g>
</g>
<g opacity="0.3">
<g opacity="0.3">
<g opacity="0.3">
<path opacity="0.3" d="M1.44214 23.1953C1.4621 23.2387 1.48253 23.2817 1.50297 23.3248C1.48253 23.2818 1.46222 23.2387 1.44214 23.1953Z" fill="#BF0102"/>
</g>
</g>
</g>
<g opacity="0.3">
<g opacity="0.3">
<g opacity="0.3">
<path opacity="0.3" d="M1.81982 23.9424C1.84286 23.9841 1.86636 24.0254 1.88975 24.0668C1.86636 24.0254 1.84286 23.9841 1.81982 23.9424Z" fill="#BF0102"/>
</g>
</g>
</g>
<g opacity="0.3">
<g opacity="0.3">
<g opacity="0.3">
<path opacity="0.3" d="M1.65137 23.625C1.69259 23.7054 1.73464 23.7854 1.77763 23.8648C1.73476 23.7854 1.69259 23.7054 1.65137 23.625Z" fill="#BF0102"/>
</g>
</g>
</g>
<g opacity="0.3">
<g opacity="0.3">
<g opacity="0.3">
<path opacity="0.3" d="M1.93872 24.1528C1.96234 24.1937 1.9862 24.2343 2.0103 24.275C1.9862 24.2343 1.96234 24.1937 1.93872 24.1528Z" fill="#BF0102"/>
</g>
</g>
</g>
<g opacity="0.3">
<g opacity="0.3">
<g opacity="0.3">
<path opacity="0.3" d="M3.74194 26.5156C3.77124 26.5452 3.80041 26.5748 3.82994 26.6041C3.80041 26.5748 3.77112 26.5452 3.74194 26.5156Z" fill="#BF0102"/>
</g>
</g>
</g>
<g opacity="0.3">
<g opacity="0.3">
<g opacity="0.3">
<path opacity="0.3" d="M11.656 29.9692C11.6828 29.9701 11.7096 29.9709 11.7366 29.9715C11.7096 29.9709 11.6828 29.97 11.656 29.9692Z" fill="#BF0102"/>
</g>
</g>
</g>
<g opacity="0.3">
<g opacity="0.3">
<g opacity="0.3">
<path opacity="0.3" d="M11.1201 29.9414C11.1414 29.943 11.1628 29.9443 11.184 29.9457C11.1628 29.9441 11.1414 29.943 11.1201 29.9414Z" fill="#BF0102"/>
</g>
</g>
</g>
<g opacity="0.3">
<g opacity="0.3">
<g opacity="0.3">
<path opacity="0.3" d="M10.8032 29.9131C10.8231 29.9151 10.8429 29.9175 10.8629 29.9194C10.8429 29.9174 10.8232 29.9151 10.8032 29.9131Z" fill="#BF0102"/>
</g>
</g>
</g>
<g opacity="0.3">
<g opacity="0.3">
<g opacity="0.3">
<path opacity="0.3" d="M10.519 29.8809C10.5475 29.8845 10.576 29.8881 10.6046 29.8916C10.576 29.8881 10.5475 29.8845 10.519 29.8809Z" fill="#BF0102"/>
</g>
</g>
</g>
<g opacity="0.3">
<g opacity="0.3">
<g opacity="0.3">
<path opacity="0.3" d="M3.66027 26.4318C3.63086 26.4014 3.60157 26.371 3.57251 26.3403C3.60157 26.3711 3.63086 26.4015 3.66027 26.4318Z" fill="#BF0102"/>
</g>
</g>
</g>
<g opacity="0.3">
<g opacity="0.3">
<g opacity="0.3">
<path opacity="0.3" d="M2.06152 24.3594C2.08621 24.4 2.11078 24.4407 2.13582 24.4809C2.11066 24.4407 2.08609 24.3999 2.06152 24.3594Z" fill="#BF0102"/>
</g>
</g>
</g>
<g opacity="0.3">
<g opacity="0.3">
<g opacity="0.3">
<path opacity="0.3" d="M11.3826 29.9585C11.4115 29.96 11.4404 29.9613 11.4693 29.9627C11.4403 29.9613 11.4114 29.9599 11.3826 29.9585Z" fill="#BF0102"/>
</g>
</g>
</g>
<g opacity="0.3">
<g opacity="0.3">
<g opacity="0.3">
<path opacity="0.3" d="M23.5156 17.1844C23.5171 17.179 23.5185 17.1738 23.5199 17.1685C23.5185 17.1737 23.5171 17.179 23.5156 17.1844Z" fill="#BF0102"/>
</g>
</g>
</g>
<g opacity="0.3">
<g opacity="0.3">
<g opacity="0.3">
<path opacity="0.3" d="M23.4619 17.3712C23.4635 17.3661 23.4649 17.361 23.4665 17.356C23.4649 17.361 23.4633 17.3661 23.4619 17.3712Z" fill="#BF0102"/>
</g>
</g>
</g>
<g opacity="0.3">
<g opacity="0.3">
<g opacity="0.3">
<path opacity="0.3" d="M2.1709 24.5356C2.22169 24.6161 2.27342 24.6958 2.3261 24.775C2.27342 24.6959 2.22169 24.6161 2.1709 24.5356Z" fill="#BF0102"/>
</g>
</g>
</g>
<g opacity="0.3">
<g opacity="0.3">
<g opacity="0.3">
<path opacity="0.3" d="M3.35986 26.1099C3.40357 26.1585 3.4475 26.2067 3.49191 26.2546C3.44762 26.2067 3.40357 26.1585 3.35986 26.1099Z" fill="#BF0102"/>
</g>
</g>
</g>
<g opacity="0.3">
<g opacity="0.3">
<g opacity="0.3">
<path opacity="0.3" d="M1.3779 22.6008C3.27329 26.4759 7.23805 29.1431 11.823 29.1431C18.2096 29.1431 23.3933 23.9688 23.4559 17.5621V17.562C22.7359 19.5326 20.9365 21.7486 16.8479 23.4826C8.92698 26.8417 2.90135 22.6777 0.502197 18.7487C0.583106 20.2326 0.939695 21.6425 1.52023 22.9284C1.47133 22.82 1.42361 22.7109 1.3779 22.6008Z" fill="#BF0102"/>
</g>
</g>
</g>
<g opacity="0.3">
<g opacity="0.3">
<g opacity="0.3">
<path opacity="0.3" d="M3.18042 25.9048C3.20853 25.9377 3.23664 25.9706 3.26511 26.0032C3.23664 25.9707 3.20865 25.9377 3.18042 25.9048Z" fill="#BF0102"/>
</g>
</g>
</g>
<g opacity="0.3">
<g opacity="0.3">
<g opacity="0.3">
<path opacity="0.3" d="M10.2593 29.8442C10.286 29.8483 10.3128 29.852 10.3396 29.8559C10.3128 29.852 10.286 29.8483 10.2593 29.8442Z" fill="#BF0102"/>
</g>
</g>
</g>
<g opacity="0.3">
<g opacity="0.3">
<g opacity="0.3">
<path opacity="0.3" d="M23.4023 17.5556C23.4033 17.5529 23.4042 17.5501 23.4051 17.5474C23.4041 17.5501 23.4033 17.5529 23.4023 17.5556Z" fill="#BF0102"/>
</g>
</g>
</g>
<g opacity="0.3">
<g opacity="0.3">
<g opacity="0.3">
<path opacity="0.3" d="M2.38184 24.8594C2.4077 24.8975 2.43392 24.9355 2.46026 24.9733C2.43392 24.9355 2.4077 24.8975 2.38184 24.8594Z" fill="#BF0102"/>
</g>
</g>
</g>
<g opacity="0.3">
<g opacity="0.3">
<g opacity="0.3">
<path opacity="0.3" d="M2.51978 25.0571C2.54635 25.0946 2.57281 25.1319 2.59974 25.1689C2.57281 25.1319 2.54623 25.0946 2.51978 25.0571Z" fill="#BF0102"/>
</g>
</g>
</g>
<g opacity="0.3">
<g opacity="0.3">
<g opacity="0.3">
<path opacity="0.3" d="M3.02393 25.7183C3.05204 25.7524 3.08015 25.7865 3.10861 25.8202C3.08015 25.7863 3.05192 25.7524 3.02393 25.7183Z" fill="#BF0102"/>
</g>
</g>
</g>
<g opacity="0.3">
<g opacity="0.3">
<g opacity="0.3">
<path opacity="0.3" d="M2.87231 25.5298C2.89984 25.5648 2.92783 25.5994 2.95582 25.6341C2.92783 25.5994 2.89984 25.5647 2.87231 25.5298Z" fill="#BF0102"/>
</g>
</g>
</g>
<g opacity="0.3">
<g opacity="0.3">
<g opacity="0.3">
<path opacity="0.3" d="M2.66089 25.2524C2.70884 25.3172 2.75739 25.3814 2.80652 25.4451C2.75727 25.3814 2.70873 25.3172 2.66089 25.2524Z" fill="#BF0102"/>
</g>
</g>
</g>
<g opacity="0.3">
<g opacity="0.3">
<g opacity="0.3">
<path opacity="0.3" d="M4.53247 27.2461C4.56153 27.2706 4.59047 27.2952 4.61988 27.3194C4.59047 27.2953 4.56153 27.2707 4.53247 27.2461Z" fill="#BF0102"/>
</g>
</g>
</g>
<g opacity="0.3">
<g opacity="0.3">
<g opacity="0.3">
<path opacity="0.3" d="M5.87012 28.2207C5.9 28.2394 5.93012 28.2579 5.96012 28.2763C5.93012 28.258 5.9 28.2395 5.87012 28.2207Z" fill="#BF0102"/>
</g>
</g>
</g>
<g opacity="0.3">
<g opacity="0.3">
<g opacity="0.3">
<path opacity="0.3" d="M5.66211 28.0879C5.68998 28.1061 5.7181 28.1239 5.74609 28.142C5.7181 28.124 5.68998 28.1062 5.66211 28.0879Z" fill="#BF0102"/>
</g>
</g>
</g>
<g opacity="0.3">
<g opacity="0.3">
<g opacity="0.3">
<path opacity="0.3" d="M5.39746 27.9087C5.42238 27.926 5.44719 27.9436 5.47223 27.9607C5.44707 27.9436 5.42238 27.926 5.39746 27.9087Z" fill="#BF0102"/>
</g>
</g>
</g>
<g opacity="0.3">
<g opacity="0.3">
<g opacity="0.3">
<path opacity="0.3" d="M5.18335 27.7568C5.21311 27.7786 5.243 27.8003 5.273 27.8217C5.243 27.8002 5.21311 27.7785 5.18335 27.7568Z" fill="#BF0102"/>
</g>
</g>
</g>
<g opacity="0.3">
<g opacity="0.3">
<g opacity="0.3">
<path opacity="0.3" d="M6.08691 28.3525C6.11491 28.3692 6.14278 28.3859 6.17101 28.4024C6.14278 28.386 6.11491 28.3692 6.08691 28.3525Z" fill="#BF0102"/>
</g>
</g>
</g>
<g opacity="0.3">
<g opacity="0.3">
<g opacity="0.3">
<path opacity="0.3" d="M6.37354 28.5181C6.39373 28.5294 6.41417 28.5402 6.43448 28.5512C6.41429 28.5402 6.39385 28.5294 6.37354 28.5181Z" fill="#BF0102"/>
</g>
</g>
</g>
<g opacity="0.3">
<g opacity="0.3">
<g opacity="0.3">
<path opacity="0.3" d="M10.0061 29.8032C10.0125 29.8043 10.0189 29.8053 10.0254 29.8063C10.0189 29.8052 10.0125 29.8043 10.0061 29.8032Z" fill="#BF0102"/>
</g>
</g>
</g>
<g opacity="0.3">
<g opacity="0.3">
<g opacity="0.3">
<path opacity="0.3" d="M6.59009 28.6353C6.61891 28.6505 6.64796 28.6654 6.6769 28.6805C6.64785 28.6654 6.61891 28.6505 6.59009 28.6353Z" fill="#BF0102"/>
</g>
</g>
</g>
<g opacity="0.3">
<g opacity="0.3">
<g opacity="0.3">
<path opacity="0.3" d="M3.9209 26.6934C3.96247 26.7336 4.00417 26.7738 4.04634 26.8135C4.00417 26.7738 3.96236 26.7336 3.9209 26.6934Z" fill="#BF0102"/>
</g>
</g>
</g>
<g opacity="0.3">
<g opacity="0.3">
<g opacity="0.3">
<path opacity="0.3" d="M4.98511 27.6094C5.01475 27.632 5.04464 27.6543 5.07464 27.6766C5.04464 27.6543 5.01475 27.632 4.98511 27.6094Z" fill="#BF0102"/>
</g>
</g>
</g>
<g opacity="0.3">
<g opacity="0.3">
<g opacity="0.3">
<path opacity="0.3" d="M4.77661 27.4468C4.80756 27.4715 4.83886 27.4957 4.87004 27.5202C4.83886 27.4959 4.80756 27.4715 4.77661 27.4468Z" fill="#BF0102"/>
</g>
</g>
</g>
<g opacity="0.3">
<g opacity="0.3">
<g opacity="0.3">
<path opacity="0.3" d="M4.34399 27.084C4.374 27.1104 4.40411 27.1366 4.43435 27.1626C4.40411 27.1366 4.374 27.1105 4.34399 27.084Z" fill="#BF0102"/>
</g>
</g>
</g>
<g opacity="0.3">
<g opacity="0.3">
<g opacity="0.3">
<path opacity="0.3" d="M4.16309 26.9224C4.19202 26.949 4.22144 26.9751 4.25061 27.0014C4.22144 26.9751 4.19214 26.9489 4.16309 26.9224Z" fill="#BF0102"/>
</g>
</g>
</g>
<g opacity="0.3">
<g opacity="0.3">
<g opacity="0.3">
<path opacity="0.3" d="M8.87036 29.5459C8.89021 29.5515 8.90993 29.5573 8.92978 29.5628C8.90993 29.5572 8.89021 29.5514 8.87036 29.5459Z" fill="#BF0102"/>
</g>
</g>
</g>
<g opacity="0.3">
<g opacity="0.3">
<g opacity="0.3">
<path opacity="0.3" d="M8.60205 29.4673C8.63052 29.476 8.65898 29.4848 8.68756 29.4932C8.65898 29.4848 8.63052 29.476 8.60205 29.4673Z" fill="#BF0102"/>
</g>
</g>
</g>
<g opacity="0.3">
<g opacity="0.3">
<g opacity="0.3">
<path opacity="0.3" d="M9.17041 29.626C9.19297 29.6317 9.21576 29.6369 9.23844 29.6425C9.21576 29.637 9.19297 29.6317 9.17041 29.626Z" fill="#BF0102"/>
</g>
</g>
</g>
<g opacity="0.3">
<g opacity="0.3">
<g opacity="0.3">
<path opacity="0.3" d="M9.41895 29.6855C9.44741 29.692 9.47588 29.6984 9.50434 29.7046C9.47588 29.6984 9.44741 29.6921 9.41895 29.6855Z" fill="#BF0102"/>
</g>
</g>
</g>
<g opacity="0.3">
<g opacity="0.3">
<g opacity="0.3">
<path opacity="0.3" d="M8.35767 29.3901C8.3853 29.3993 8.41306 29.4082 8.44082 29.4171C8.41318 29.4081 8.3853 29.3993 8.35767 29.3901Z" fill="#BF0102"/>
</g>
</g>
</g>
<g opacity="0.3">
<g opacity="0.3">
<g opacity="0.3">
<path opacity="0.3" d="M9.67896 29.7417C9.70494 29.747 9.73093 29.7524 9.75703 29.7576C9.73104 29.7525 9.70506 29.747 9.67896 29.7417Z" fill="#BF0102"/>
</g>
</g>
</g>
<g opacity="0.3">
<g opacity="0.3">
<g opacity="0.3">
<path opacity="0.3" d="M7.81299 29.1934C7.83945 29.2036 7.8659 29.214 7.89248 29.2241C7.8659 29.214 7.83956 29.2037 7.81299 29.1934Z" fill="#BF0102"/>
</g>
</g>
</g>
<g opacity="0.3">
<g opacity="0.3">
<g opacity="0.3">
<path opacity="0.3" d="M7.34131 28.999C7.36659 29.0102 7.3921 29.0209 7.41749 29.0318C7.3921 29.0209 7.36659 29.0102 7.34131 28.999Z" fill="#BF0102"/>
</g>
</g>
</g>
<g opacity="0.3">
<g opacity="0.3">
<g opacity="0.3">
<path opacity="0.3" d="M7.05859 28.8696C7.08033 28.8798 7.10182 28.8904 7.12356 28.9005C7.10182 28.8904 7.08033 28.88 7.05859 28.8696Z" fill="#BF0102"/>
</g>
</g>
</g>
<g opacity="0.3">
<g opacity="0.3">
<g opacity="0.3">
<path opacity="0.3" d="M7.57153 29.0972C7.60047 29.1092 7.62953 29.1211 7.65858 29.1328C7.62953 29.1211 7.60047 29.1092 7.57153 29.0972Z" fill="#BF0102"/>
</g>
</g>
</g>
<g opacity="0.3">
<g opacity="0.3">
<g opacity="0.3">
<path opacity="0.3" d="M6.81372 28.7505C6.84266 28.765 6.8716 28.7796 6.90077 28.7939C6.8716 28.7795 6.84266 28.765 6.81372 28.7505Z" fill="#BF0102"/>
</g>
</g>
</g>
<g opacity="0.3">
<g opacity="0.3">
<g opacity="0.3">
<path opacity="0.3" d="M8.12134 29.3086C8.13445 29.3132 8.14756 29.3176 8.16067 29.3221C8.14756 29.3176 8.13433 29.3132 8.12134 29.3086Z" fill="#BF0102"/>
</g>
</g>
</g>
<g opacity="0.45">
<g opacity="0.45">
<g opacity="0.45">
<path opacity="0.45" d="M5.55605 8.80199C5.55605 8.80199 3.81185 9.54702 2.57636 11.4148C1.34088 13.2826 2.8648 13.7554 5.36388 11.4148C7.86295 9.07421 6.70046 8.19468 5.55605 8.80199Z" fill="white"/>
</g>
</g>
</g>
<g opacity="0.45">
<g opacity="0.45">
<g opacity="0.45">
<path opacity="0.45" d="M2.63654 14.6706C2.77075 14.2037 2.6317 13.7532 2.32597 13.6642C2.02024 13.5753 1.66359 13.8816 1.52939 14.3485C1.39518 14.8154 1.53422 15.266 1.83995 15.3549C2.14569 15.4438 2.50233 15.1375 2.63654 14.6706Z" fill="white"/>
</g>
</g>
</g>
<path d="M12 30.3423C5.3832 30.3423 0 24.9296 0 18.2764C0 11.6231 5.3832 6.21045 12 6.21045C18.6168 6.21045 24 11.6231 24 18.2764C24 24.9296 18.6168 30.3423 12 30.3423ZM12 6.94609C5.78645 6.94609 0.731367 12.0288 0.731367 18.2764C0.731367 24.5239 5.78645 29.6067 12 29.6067C18.2136 29.6067 23.2686 24.5239 23.2686 18.2764C23.2686 12.0288 18.2136 6.94609 12 6.94609Z" fill="#BF0102"/>
<g opacity="0.6">
<g opacity="0.6">
<g opacity="0.6">
<path opacity="0.6" d="M4.70421 10.8979C0.520818 14.9616 0.945795 20.5856 4.95308 24.7561C8.96036 28.9267 14.4998 29.2871 18.6831 25.2234C22.8664 21.1597 23.7116 15.4053 20.0562 11.4515C17.9963 9.22356 14.9644 8.62492 12.0001 8.61114C9.31341 8.59878 6.69303 8.96595 4.70421 10.8979ZM19.0787 24.2877C15.7035 28.3296 9.73638 28.8786 5.75059 25.5138C1.7648 22.1491 1.26967 16.1447 4.6448 12.1028C8.01993 8.06086 13.9871 7.51189 17.9729 10.8766C21.9586 14.2414 22.4537 20.2457 19.0787 24.2877Z" fill="white"/>
</g>
</g>
</g>
<path d="M12 27.9422C17.309 27.9422 21.6128 23.6148 21.6128 18.2768C21.6128 12.9387 17.309 8.61133 12 8.61133C6.691 8.61133 2.38721 12.9387 2.38721 18.2768C2.38721 23.6148 6.691 27.9422 12 27.9422Z" fill="#FFB6B9"/>
<path d="M12 28.2688C6.52039 28.2688 2.0625 23.7864 2.0625 18.2768C2.0625 12.7671 6.52051 8.28467 12 8.28467C17.4794 8.28467 21.9375 12.7671 21.9375 18.2768C21.9375 23.7864 17.4794 28.2688 12 28.2688ZM12 8.93797C6.87852 8.93797 2.7119 13.1274 2.7119 18.2768C2.7119 23.4261 6.87852 27.6155 12 27.6155C17.1214 27.6155 21.2881 23.4261 21.2881 18.2768C21.2881 13.1274 17.1214 8.93797 12 8.93797Z" fill="#BF0102"/>
<path d="M12 26.4718C16.5012 26.4718 20.1502 22.8028 20.1502 18.2769C20.1502 13.751 16.5012 10.082 12 10.082C7.49881 10.082 3.84985 13.751 3.84985 18.2769C3.84985 22.8028 7.49881 26.4718 12 26.4718Z" fill="white"/>
<path d="M12 26.5014C7.48967 26.5014 3.82031 22.8119 3.82031 18.2768C3.82031 13.7418 7.48967 10.0522 12 10.0522C16.5103 10.0522 20.1797 13.7418 20.1797 18.2768C20.1797 22.8119 16.5102 26.5014 12 26.5014ZM12 10.1117C7.52227 10.1117 3.87937 13.7745 3.87937 18.2768C3.87937 22.7791 7.52227 26.442 12 26.442C16.4777 26.442 20.1206 22.7791 20.1206 18.2768C20.1206 13.7745 16.4777 10.1117 12 10.1117Z" fill="#BF0102"/>
<path d="M12 26.4718C16.5012 26.4718 20.1502 22.8028 20.1502 18.2769C20.1502 13.751 16.5012 10.082 12 10.082C7.49881 10.082 3.84985 13.751 3.84985 18.2769C3.84985 22.8028 7.49881 26.4718 12 26.4718Z" fill="white"/>
<path d="M12 26.5014C7.48967 26.5014 3.82031 22.8119 3.82031 18.2768C3.82031 13.7418 7.48967 10.0522 12 10.0522C16.5103 10.0522 20.1797 13.7418 20.1797 18.2768C20.1797 22.8119 16.5102 26.5014 12 26.5014ZM12 10.1117C7.52227 10.1117 3.87937 13.7745 3.87937 18.2768C3.87937 22.7791 7.52227 26.442 12 26.442C16.4777 26.442 20.1206 22.7791 20.1206 18.2768C20.1206 13.7745 16.4777 10.1117 12 10.1117Z" fill="#BF0102"/>
<g opacity="0.3">
<g opacity="0.3">
<g opacity="0.3">
<path opacity="0.3" d="M12.0001 9.76074C7.32248 9.76074 3.53052 13.5735 3.53052 18.2767C3.53052 22.9799 7.32248 26.7926 12.0001 26.7926C16.6777 26.7926 20.4696 22.9799 20.4696 18.2767C20.4696 13.5735 16.6777 9.76074 12.0001 9.76074ZM12.0001 26.0901C7.87833 26.0901 4.53686 22.421 4.53686 18.2767C4.53686 14.1323 7.87821 10.3905 12.0001 10.3905C16.1218 10.3905 19.4633 14.1323 19.4633 18.2767C19.4632 22.421 16.1218 26.0901 12.0001 26.0901Z" fill="#BF0102"/>
</g>
</g>
</g>
<g opacity="0.3">
<g opacity="0.3">
<g opacity="0.3">
<path opacity="0.3" d="M11.9999 8.61133C7.0236 8.61133 2.9895 13.2732 2.9895 18.2766C2.9895 23.2802 7.0236 27.9421 11.9999 27.9421C16.9762 27.9421 21.0103 23.2802 21.0103 18.2766C21.0102 13.2731 16.9762 8.61133 11.9999 8.61133ZM11.9999 26.7926C7.32231 26.7926 3.53035 22.9798 3.53035 18.2766C3.53035 13.5734 7.32231 9.76072 11.9999 9.76072C16.6775 9.76072 20.4694 13.5734 20.4694 18.2766C20.4694 22.9798 16.6775 26.7926 11.9999 26.7926Z" fill="#BF0102"/>
</g>
</g>
</g>
<path d="M11.9999 27.0482C7.18988 27.0482 3.27661 23.1134 3.27661 18.277C3.27661 13.4406 7.18988 9.50586 11.9999 9.50586C16.8099 9.50586 20.7231 13.4406 20.7231 18.277C20.7231 23.1134 16.8099 27.0482 11.9999 27.0482ZM11.9999 10.0403C7.4828 10.0403 3.80801 13.7353 3.80801 18.2769C3.80801 22.8185 7.4828 26.5135 11.9999 26.5135C16.5169 26.5135 20.1917 22.8185 20.1917 18.2769C20.1917 13.7353 16.5168 10.0403 11.9999 10.0403Z" fill="#BF0102"/>
<path d="M11.9999 19.3612C12.5954 19.3612 13.0782 18.8758 13.0782 18.277C13.0782 17.6783 12.5954 17.1929 11.9999 17.1929C11.4044 17.1929 10.9216 17.6783 10.9216 18.277C10.9216 18.8758 11.4044 19.3612 11.9999 19.3612Z" fill="#C9CCD2"/>
<path d="M12.0001 19.3901C11.7164 19.3901 11.4328 19.2815 11.2168 19.0644C11.0076 18.854 10.8923 18.5743 10.8923 18.2769C10.8923 17.9793 11.0076 17.6996 11.2168 17.4893C11.6487 17.055 12.3514 17.055 12.7835 17.4893C12.9927 17.6996 13.1079 17.9795 13.1079 18.2769C13.1079 18.5744 12.9927 18.8541 12.7835 19.0644C12.5674 19.2815 12.2838 19.3901 12.0001 19.3901ZM12.0001 17.2228C11.7315 17.2228 11.4631 17.3256 11.2586 17.5311C11.0605 17.7303 10.9514 17.9951 10.9514 18.2768C10.9514 18.5584 11.0605 18.8232 11.2586 19.0224C11.6675 19.4335 12.3329 19.4335 12.7418 19.0224C12.9399 18.8232 13.049 18.5584 13.049 18.2768C13.049 17.9951 12.9399 17.7303 12.7418 17.5311C12.5372 17.3256 12.2687 17.2228 12.0001 17.2228Z" fill="#BF0102"/>
<path d="M12.0002 19.6056C11.6616 19.6056 11.3231 19.476 11.0654 19.2169C10.8157 18.9659 10.6782 18.632 10.6782 18.2769C10.6782 17.9217 10.8157 17.588 11.0654 17.3369C11.5809 16.8187 12.4195 16.8187 12.9349 17.3369C13.1846 17.588 13.3221 17.9219 13.3221 18.2769C13.3221 18.6321 13.1846 18.9659 12.9349 19.2169C12.6772 19.476 12.3387 19.6056 12.0002 19.6056ZM12.0002 17.4382C11.7864 17.4382 11.5727 17.52 11.4101 17.6836C11.2525 17.842 11.1657 18.0527 11.1657 18.2768C11.1657 18.5009 11.2524 18.7115 11.4101 18.87C11.7355 19.1972 12.2649 19.1972 12.5903 18.87C12.7478 18.7116 12.8346 18.5009 12.8346 18.2768C12.8346 18.0527 12.7479 17.8421 12.5903 17.6836C12.4275 17.52 12.2138 17.4382 12.0002 17.4382Z" fill="#BF0102"/>
<path d="M9.10948 14.8664L10.7072 16.4701L11.5098 17.2682L12.3068 18.0719H11.7972L15.7451 14.1117C15.8834 13.973 16.1074 13.9732 16.2454 14.1123C16.3833 14.2515 16.3837 14.4761 16.2454 14.6148L12.3067 18.5844C12.1663 18.7259 11.9384 18.7262 11.7977 18.585L11.7971 18.5844L10.9978 17.7831L10.204 16.9761L8.60903 15.3696C8.47095 15.2306 8.47118 15.0053 8.6095 14.8665C8.74781 14.7276 8.9714 14.7274 9.10948 14.8664Z" fill="#BF0102"/>
<path d="M16.7293 13.7663C16.667 13.7663 16.6045 13.7423 16.557 13.6944C16.4618 13.5987 16.4618 13.4434 16.557 13.3476L17.8078 12.0898C17.903 11.9941 18.0574 11.9942 18.1525 12.09C18.2477 12.1857 18.2477 12.341 18.1525 12.4368L16.9017 13.6946C16.8541 13.7425 16.7917 13.7663 16.7293 13.7663Z" fill="#BF0102"/>
<path d="M18.4304 16.671C18.3244 16.671 18.2268 16.6008 18.1962 16.4931C18.1592 16.3629 18.234 16.2272 18.3636 16.1899L20.0643 15.7005C20.1935 15.6631 20.3287 15.7386 20.3656 15.8688C20.4026 15.9991 20.3278 16.1348 20.1983 16.1721L18.4975 16.6615C18.4752 16.6679 18.4526 16.671 18.4304 16.671Z" fill="#BF0102"/>
<path d="M20.2056 20.5827C20.186 20.5827 20.1661 20.5803 20.1464 20.5754L18.4301 20.1443C18.2996 20.1115 18.2201 19.9784 18.2527 19.847C18.2853 19.7155 18.4174 19.6357 18.5482 19.6685L20.2645 20.0996C20.395 20.1324 20.4745 20.2655 20.4419 20.3969C20.4143 20.5082 20.3148 20.5827 20.2056 20.5827Z" fill="#BF0102"/>
<path d="M17.9802 24.5348C17.9178 24.5348 17.8554 24.511 17.8078 24.4631L16.557 23.2053C16.4618 23.1095 16.4618 22.9542 16.557 22.8585C16.6522 22.7627 16.8065 22.7627 16.9017 22.8583L18.1525 24.1161C18.2477 24.2119 18.2477 24.3672 18.1525 24.463C18.105 24.511 18.0425 24.5348 17.9802 24.5348Z" fill="#BF0102"/>
<path d="M14.1301 26.7515C14.0218 26.7515 13.923 26.6784 13.8944 26.5681L13.4488 24.8466C13.4149 24.7156 13.493 24.5817 13.6233 24.5476C13.7533 24.5133 13.8867 24.592 13.9206 24.7231L14.3661 26.4445C14.4 26.5755 14.3219 26.7095 14.1917 26.7436C14.1711 26.7489 14.1504 26.7515 14.1301 26.7515Z" fill="#BF0102"/>
<path d="M9.73486 26.7149C9.71324 26.7149 9.69127 26.7121 9.66942 26.7059C9.53973 26.6697 9.4639 26.5344 9.49993 26.404L9.97381 24.6903C10.0098 24.5598 10.1445 24.4835 10.2741 24.5198C10.4037 24.556 10.4796 24.6912 10.4435 24.8217L9.96967 26.5354C9.93955 26.6439 9.84163 26.7149 9.73486 26.7149Z" fill="#BF0102"/>
<path d="M6.01985 24.5348C5.95749 24.5348 5.89501 24.5108 5.84752 24.463C5.75232 24.3672 5.75232 24.2119 5.84752 24.1161L7.09836 22.8583C7.19356 22.7627 7.34794 22.7627 7.44302 22.8585C7.53822 22.9542 7.53822 23.1095 7.44302 23.2053L6.19218 24.4631C6.14458 24.511 6.08222 24.5348 6.01985 24.5348Z" fill="#BF0102"/>
<path d="M3.77141 20.4882C3.66109 20.4882 3.56105 20.4123 3.53447 20.2997C3.50341 20.1679 3.58432 20.0358 3.7153 20.0044L5.43636 19.5931C5.56735 19.5618 5.69881 19.6433 5.72987 19.7751C5.76094 19.9068 5.68003 20.039 5.54904 20.0703L3.82799 20.4816C3.80909 20.4861 3.79007 20.4882 3.77141 20.4882Z" fill="#BF0102"/>
<path d="M5.55657 16.7193C5.53495 16.7193 5.51298 16.7165 5.49113 16.7103L3.78685 16.2335C3.65716 16.1972 3.58133 16.062 3.61736 15.9315C3.65338 15.8011 3.78804 15.7246 3.91761 15.761L5.62189 16.2378C5.75158 16.2741 5.82741 16.4093 5.79138 16.5398C5.76126 16.6483 5.66334 16.7193 5.55657 16.7193Z" fill="#BF0102"/>
<path d="M7.27069 13.7663C7.20833 13.7663 7.14596 13.7424 7.09836 13.6945L5.84752 12.4368C5.75232 12.341 5.75232 12.1857 5.84752 12.0899C5.94272 11.9941 6.09698 11.9941 6.19218 12.0898L7.44302 13.3475C7.53822 13.4433 7.53822 13.5986 7.44302 13.6944C7.39554 13.7423 7.33317 13.7663 7.27069 13.7663Z" fill="#BF0102"/>
<path d="M10.2127 12.0411C10.1059 12.0411 10.0079 11.9699 9.97786 11.8613L9.50528 10.1472C9.46926 10.0168 9.54532 9.88155 9.67501 9.84542C9.80506 9.80918 9.93912 9.8857 9.97514 10.0162L10.4477 11.7302C10.4837 11.8607 10.4077 11.9959 10.278 12.032C10.2561 12.0381 10.2342 12.0411 10.2127 12.0411Z" fill="#BF0102"/>
<path d="M13.6519 12.0048C13.6319 12.0048 13.6117 12.0023 13.5915 11.9972C13.4611 11.9637 13.3824 11.8302 13.4155 11.6989L13.8525 9.97525C13.8858 9.84407 14.0186 9.76469 14.1488 9.7982C14.2792 9.83171 14.358 9.96515 14.3248 10.0965L13.8879 11.8201C13.8598 11.9309 13.7607 12.0048 13.6519 12.0048Z" fill="#BF0102"/>
<path d="M5.08425 18.5644C4.95031 18.5644 4.84141 18.4555 4.84058 18.3206C4.83975 18.1852 4.94818 18.0748 5.08283 18.074L13.9283 18.02C13.9288 18.02 13.9294 18.02 13.9299 18.02C14.0638 18.02 14.1727 18.1289 14.1735 18.2637C14.1744 18.3992 14.0659 18.5096 13.9313 18.5104L5.08579 18.5644C5.08531 18.5644 5.08472 18.5644 5.08425 18.5644Z" fill="#BF0102"/>
<g opacity="0.35">
<g opacity="0.35">
<g opacity="0.35">
<path opacity="0.35" d="M16.3388 14.3277C16.2008 14.1885 15.9768 14.1883 15.8384 14.3271L12.1461 18.031L11.6032 17.4835L10.8006 16.6854L9.20287 15.0817C9.06479 14.9427 8.8412 14.9429 8.70301 15.0817C8.5647 15.2205 8.56458 15.4458 8.70253 15.5848L10.2976 17.1913L11.0913 17.9983L11.3435 18.251L5.17621 18.2887C5.04156 18.2895 4.93302 18.3999 4.93384 18.5352C4.93467 18.6701 5.04369 18.779 5.17763 18.779C5.17822 18.779 5.17869 18.779 5.17917 18.779L11.8295 18.7383L11.8906 18.7995L11.8912 18.8001C12.0318 18.9413 12.2598 18.941 12.4002 18.7995L12.4648 18.7344L14.0246 18.7249C14.1592 18.7241 14.2678 18.6137 14.2669 18.4783C14.2661 18.3435 14.1571 18.2346 14.0231 18.2346C14.0225 18.2346 14.0221 18.2346 14.0216 18.2346L12.9543 18.2412L16.3388 14.8301C16.4771 14.6914 16.4767 14.4668 16.3388 14.3277Z" fill="#BF0102"/>
</g>
</g>
</g>
<g opacity="0.45">
<g opacity="0.45">
<g opacity="0.45">
<path opacity="0.45" d="M8.38731 10.9355C7.8806 11.1883 7.40176 11.4892 6.96143 11.838L19.2514 22.0159C19.5063 21.5174 19.7113 20.9889 19.8613 20.4378L8.38731 10.9355Z" fill="white"/>
</g>
</g>
</g>
<g opacity="0.45">
<g opacity="0.45">
<g opacity="0.45">
<path opacity="0.45" d="M15.3797 25.7333C16.0482 25.4263 16.669 25.0324 17.2261 24.5638L5.47635 13.3643C5.10488 13.8623 4.78916 14.4047 4.53687 14.9813L15.3797 25.7333Z" fill="white"/>
</g>
</g>
</g>
<g opacity="0.3">
<g opacity="0.3">
<g opacity="0.3">
<path opacity="0.3" d="M12.6974 3.58691C12.6974 3.58691 12.4132 4.5387 10.9958 4.41987L11.173 4.59799H12.9198V3.83894L12.6974 3.58691Z" fill="#BF0102"/>
</g>
</g>
</g>
<g opacity="0.3">
<g opacity="0.3">
<g opacity="0.3">
<path opacity="0.3" d="M2.80247 7.10742C2.80247 7.10742 3.13827 8.47533 1.75195 9.59466L1.87597 9.76066L3.70239 8.13098L3.76144 7.4778L2.80247 7.10742Z" fill="#BF0102"/>
</g>
</g>
</g>
<g opacity="0.3">
<g opacity="0.3">
<g opacity="0.3">
<path opacity="0.3" d="M22.7655 8.67242C22.7655 8.67242 21.6263 8.93277 20.2089 7.74512L20.1204 8.07177L21.7186 9.73638L22.4253 9.38003L22.7655 8.67242Z" fill="#BF0102"/>
</g>
</g>
</g>
</svg>
