<svg width="97" height="34" viewBox="0 0 97 34" fill="none" xmlns="http://www.w3.org/2000/svg">
<path d="M6.7166 2.02287C7.45299 3.71879 8.70484 5.28072 10.0492 6.6985C9.67755 7.32938 9.06618 7.83646 8.64319 8.4436C6.6481 10.8603 5.76273 14.4013 6.47685 17.5829C7.04541 20.5965 8.18937 23.4304 10.169 25.9488C10.2752 20.7898 12.0751 16.26 16.0002 13.0226C17.1989 12.195 18.3977 11.3928 19.7917 11.1571C20.63 12.7777 21.6293 14.3116 22.7749 15.736C22.7939 15.7705 22.8045 15.8088 22.8058 15.8481C22.8072 15.8873 22.7992 15.9263 22.7825 15.9619C22.7659 15.9976 22.741 16.0288 22.71 16.0532C22.6789 16.0776 22.6425 16.0944 22.6036 16.1023C18.8669 16.0107 15.1353 18.9108 13.8013 22.2754C13.224 23.6755 12.9245 25.1726 12.9193 26.6848C12.969 26.8307 13.106 26.734 13.1797 26.7035L22.9667 20.4099C23.4616 18.2053 25.1416 15.9582 27.4415 15.2595C29.7243 14.5811 32.4866 15.1323 33.9679 17.1334C34.3909 17.6303 34.6255 18.1883 34.9012 18.7344L34.6889 19.0498L29.9795 23.12C29.9675 23.3015 30.2089 23.254 30.322 23.3099C31.2673 23.5236 32.2596 23.3636 33.0877 22.8639L42.9055 14.4454L44.7585 12.8462C45.1935 12.8462 45.5069 13.204 45.8596 13.4194C47.2766 14.5227 48.2179 16.1173 48.4935 17.8813C48.5104 17.9043 48.5318 17.9236 48.5563 17.9383C48.5809 17.953 48.6082 17.9626 48.6366 17.9668C48.6649 17.9709 48.6939 17.9693 48.7216 17.9622C48.7494 17.9551 48.7755 17.9426 48.7983 17.9254C50.8003 16.6162 52.7542 15.1798 54.7459 13.8468C54.8743 13.4652 54.8914 13.0412 55.0182 12.6596C57.587 10.2565 60.9092 8.95067 64.3925 9.85968C66.0742 10.4092 67.6018 11.9914 68.071 13.7094C68.1446 13.8145 68.2714 13.7348 68.3553 13.7094L72.0081 11.4521C72.58 11.0129 72.7239 10.3193 73.1948 9.8071C74.9382 7.50067 77.7193 6.31014 80.5484 7.01055C81.5091 7.20727 82.3517 7.64991 83.1823 8.11459C83.4768 7.77541 83.2713 7.08686 83.8519 7.00376C85.364 7.00376 86.8916 7.06143 88.3729 6.96306L88.4123 7.08347L87.5817 10.7738C87.5623 11.1051 87.6343 11.4355 87.79 11.7295C87.9456 12.0234 88.1791 12.2699 88.4654 12.4426C88.8198 12.719 89.3216 12.719 89.7583 12.6511C90.1402 12.5477 90.4656 12.2272 90.7858 11.988C91.6078 12.4307 92.399 12.9344 93.2039 13.4092C93.7673 13.3431 94.353 13.3668 94.8633 13.1464L94.9798 13.1786C95.2422 13.7599 95.5978 14.2954 96.033 14.7643L95.8617 14.9186L87.9259 16.3703L76.6918 18.5919L57.503 22.306L57.3695 22.4874L56.9499 24.7498L56.7786 24.8329C55.4223 25.0873 54.0763 25.3722 52.7063 25.5893C52.7217 24.8702 53.0248 24.2766 52.9392 23.6203C50.7763 23.8543 48.7298 24.3139 46.6594 24.6972L32.8428 27.4225L1.72633 33.4159C1.59275 33.365 1.69893 33.2259 1.74516 33.1581C2.66479 32.1643 3.36178 31.0603 3.69573 29.7663C5.06574 29.4441 6.5111 29.188 7.91537 28.9014C8.34521 28.7962 8.79389 28.7691 9.19805 28.5893C4.25572 23.8136 0.553255 18.2443 0.179926 11.7998C-0.0409888 7.84833 1.53624 4.60744 4.28997 2.03983C4.85457 1.51644 5.50338 1.09 6.2097 0.778076C6.42719 1.15287 6.53165 1.61077 6.72346 2.01948L6.7166 2.02287ZM72.0201 13.7467C71.9516 13.7213 71.9053 13.7671 71.8488 13.7806L67.2096 16.818C67.0948 17.3268 66.6719 17.6863 66.4492 18.1612L73.9484 16.6484C73.4141 16.3552 72.9591 15.9386 72.6222 15.434C72.2853 14.9294 72.0764 14.3518 72.0132 13.7501L72.0201 13.7467ZM62.7519 14.5981C62.6012 14.1368 62.1851 13.723 61.7895 13.4431C61.1473 13.0259 60.1369 12.9802 59.505 13.4431C58.8782 13.9892 58.8491 14.9695 59.1334 15.6851C59.2956 16.0515 59.5478 16.3718 59.8669 16.6171C60.186 16.8623 60.562 17.0247 60.9606 17.0893C61.2687 17.1316 61.5827 17.0924 61.8705 16.9756C62.1584 16.8589 62.4099 16.6687 62.5995 16.4246C62.7731 16.1541 62.8777 15.8459 62.9043 15.5265C62.9308 15.2072 62.8785 14.8862 62.7519 14.5913V14.5981ZM58.325 18.4054H58.2052C58.0048 18.7446 58.0099 19.1787 57.9106 19.5671L58.0202 19.6943L59.8012 19.3907L59.9297 19.2822C59.3318 19.1254 58.7812 18.8274 58.325 18.4139V18.4054ZM84.6978 14.6472C84.1584 14.6082 83.8775 14.0554 83.3929 13.9163L83.0846 14.6031C83.0401 14.8016 82.7593 14.9118 82.8089 15.1289C83.4717 15.0203 84.1567 14.9152 84.6927 14.6472H84.6978ZM54.1534 16.8553H54.0352L49.6563 19.6163C49.2915 19.8927 48.8531 20.0284 48.5329 20.3658C48.3253 20.731 48.1532 21.1149 48.0191 21.5123C49.8703 21.2155 51.6976 20.8339 53.5146 20.454C53.8965 19.3398 53.977 18.0441 54.1482 16.8553H54.1534ZM42.1024 19.0922L41.7599 18.502C41.7205 18.481 41.6772 18.4685 41.6326 18.4653C41.588 18.4621 41.5433 18.4683 41.5013 18.4834L35.5075 23.6203L35.4218 23.8289C37.1498 23.5219 38.8863 23.2472 40.5799 22.8385C40.4755 22.6078 40.2374 22.3789 40.1535 22.1228C39.936 20.9866 41.33 21.3902 41.7821 20.6287C41.9536 20.4155 42.072 20.1653 42.1277 19.8984C42.1833 19.6314 42.1746 19.3552 42.1024 19.0922ZM24.2322 24.0443C23.7647 23.661 23.6329 22.9029 22.9838 22.8453L16.0807 27.353L25.5783 25.5282L25.9448 25.4112C25.3813 24.9889 24.7289 24.6039 24.2322 24.0409V24.0443ZM30.4196 19.8825C30.2483 19.7129 30.0976 19.484 29.8288 19.4891C28.8012 19.2567 27.8011 19.6061 27.2411 20.4659C27.0002 20.9739 26.9593 21.5526 27.1264 22.0889C27.188 22.2443 27.3067 22.371 27.4586 22.4433L30.387 20.0233L30.4196 19.8825ZM79.586 11.8354C79.3706 11.3852 79.0087 11.0197 78.5584 10.7975C77.9351 10.5177 77.1405 10.5737 76.637 11.0655C76.2157 11.4606 76.1232 12.1983 76.3305 12.7207C76.476 13.3465 77.0977 13.8688 77.6868 14.0469C77.9761 14.1356 78.2842 14.1448 78.5784 14.0734C78.8725 14.002 79.1415 13.8527 79.3565 13.6416C79.7761 13.1803 79.8309 12.3866 79.5791 11.8354" fill="#221E1F"/>
</svg>
