<svg width="135" height="37" viewBox="0 0 135 37" fill="none" xmlns="http://www.w3.org/2000/svg">
<path d="M124.408 19.6202L126.516 14.0902L128.623 19.6202H124.408ZM128.707 10.9492H124.326L118.204 25.9435H121.999L123.393 22.2842H129.638L131.033 25.9435H134.826L128.707 10.9492ZM97.8123 23.3366C95.3412 23.3366 93.3454 21.1068 93.3454 18.3552C93.3454 15.6036 95.3466 13.3738 97.8123 13.3738C100.278 13.3738 102.279 15.6036 102.279 18.3552C102.279 21.1068 100.276 23.3366 97.8123 23.3366ZM97.8123 10.4346C96.2458 10.4349 94.7146 10.8998 93.4123 11.7703C92.11 12.6408 91.0951 13.878 90.4959 15.3253C89.8966 16.7727 89.74 18.3652 90.0459 19.9015C90.3517 21.4378 91.1062 22.849 92.214 23.9565C93.3218 25.0641 94.7331 25.8183 96.2695 26.1237C97.8059 26.4292 99.3984 26.2722 100.846 25.6727C102.293 25.0732 103.53 24.0579 104.4 22.7554C105.27 21.4529 105.735 19.9217 105.735 18.3552C105.734 16.2543 104.899 14.2397 103.414 12.7544C101.928 11.269 99.9131 10.4346 97.8123 10.4346ZM66.5533 23.3366C64.0858 23.3366 62.0865 21.1068 62.0865 18.3552C62.0865 15.6036 64.0876 13.3738 66.5533 13.3738C69.019 13.3738 71.0202 15.6036 71.0202 18.3552C71.0202 21.1068 69.019 23.3366 66.5533 23.3366ZM66.5533 10.4346C64.9868 10.4349 63.4556 10.8998 62.1533 11.7703C60.851 12.6408 59.8361 13.878 59.2369 15.3253C58.6377 16.7727 58.4811 18.3652 58.7869 19.9015C59.0927 21.4378 59.8472 22.849 60.955 23.9565C62.0628 25.0641 63.4741 25.8183 65.0105 26.1237C66.5469 26.4292 68.1394 26.2722 69.5866 25.6727C71.0338 25.0732 72.2707 24.0579 73.141 22.7554C74.0112 21.4529 74.4757 19.9217 74.4757 18.3552C74.4757 17.3149 74.2708 16.2848 73.8726 15.3237C73.4745 14.3626 72.8909 13.4894 72.1552 12.7538C71.4195 12.0183 70.5461 11.4349 69.5849 11.037C68.6238 10.639 67.5936 10.4343 66.5533 10.4346ZM86.1324 10.9492L82.2516 17.0241L78.3672 10.9492H74.5722L80.5792 20.3528V25.9435H83.9222V20.3528L89.9238 10.9492H86.1324ZM119.008 10.9492H106.183V13.824H110.932V25.9435H114.277V13.824H119.005L119.008 10.9492ZM45.1143 13.824H49.8634V25.9435H53.2064V13.824H57.9412V10.9492H45.1143V13.824Z" fill="white"/>
<path d="M18.1797 9.50195C10.7004 9.50195 4.9346 13.3095 4.9346 18.4982C4.9346 23.6869 10.7004 27.4926 18.1797 27.4926C25.659 27.4926 31.423 23.6815 31.423 18.5C31.423 13.3184 25.659 9.50195 18.1797 9.50195ZM26.2736 13.7383C26.2736 14.9283 24.3707 15.8484 21.3208 16.2165C21.0349 13.3685 20.2112 11.4942 19.1552 10.7938C22.4071 10.9957 26.2736 12.1499 26.2736 13.7383ZM18.1797 23.3527C17.1202 23.3527 16.2536 21.7 16.1857 18.5107C16.8218 18.5631 17.4864 18.5893 18.1797 18.5893C18.8712 18.5893 19.5376 18.5625 20.1737 18.5107C20.1058 21.7 19.2392 23.3527 18.1797 23.3527ZM18.1797 16.3845C17.5269 16.3845 16.9057 16.3654 16.3161 16.3273C16.6056 14.4191 17.3292 12.8503 18.1797 12.8503C19.0302 12.8503 19.7538 14.4191 20.0433 16.3273C19.4596 16.369 18.8384 16.3904 18.1797 16.3916V16.3845ZM17.2023 10.792C16.1428 11.4906 15.3191 13.3667 15.0332 16.2165C11.9833 15.8484 10.0804 14.9283 10.0804 13.7383C10.0858 12.1445 13.9523 10.9957 17.2023 10.792ZM7.1841 18.1426C7.18178 16.8836 7.58807 15.6579 8.34191 14.6495C8.63672 16.3577 11.1274 17.8299 14.9314 18.3695V18.5C14.9314 22.6613 15.8998 25.345 17.2309 26.1919C11.6027 25.8345 7.1841 22.3486 7.1841 18.1426ZM19.1284 26.1829C20.4596 25.336 21.428 22.6523 21.428 18.491C21.428 18.4482 21.428 18.4053 21.428 18.3642C25.2337 17.8281 27.7227 16.3523 28.0193 14.6442C28.7729 15.6544 29.178 16.8822 29.1735 18.1426C29.1735 22.3486 24.7567 25.8345 19.1284 26.1829Z" fill="white"/>
</svg>
