<svg width="284" height="108" viewBox="0 0 284 108" fill="none" xmlns="http://www.w3.org/2000/svg">
<g filter="url(#filter0_di)">
<path d="M22 24.276C22 20.1322 25.1642 16.6743 29.2917 16.3074L44 15L223.5 16.9555H254C258.418 16.9555 262 20.5372 262 24.9555V68.9841C262 72.8334 259.259 76.137 255.475 76.8469L244.731 78.8628C244.245 78.9541 243.751 79 243.256 79H63.5L29.3511 76.2209C25.1982 75.8829 22 72.4139 22 68.2473V24.276Z" fill="url(#paint0_linear)"/>
</g>
<g filter="url(#filter1_i)">
<path d="M102.938 37.2695L102.391 41.3906C102.202 41.3385 102.013 41.3027 101.824 41.2832C101.635 41.2637 101.447 41.2539 101.258 41.2539C100.776 41.2539 100.317 41.319 99.8809 41.4492C99.4447 41.5729 99.0573 41.765 98.7188 42.0254C98.3867 42.2858 98.1198 42.6113 97.918 43.002C97.7227 43.3926 97.625 43.8516 97.625 44.3789C97.625 44.7174 97.6771 45.0104 97.7812 45.2578C97.8919 45.5052 98.0449 45.7103 98.2402 45.873C98.4355 46.0358 98.6667 46.1562 98.9336 46.2344C99.2005 46.3125 99.4935 46.3516 99.8125 46.3516C100.053 46.3516 100.304 46.3255 100.564 46.2734C100.825 46.2214 101.082 46.153 101.336 46.0684C101.59 45.9837 101.837 45.8861 102.078 45.7754C102.319 45.6647 102.54 45.5508 102.742 45.4336L102.352 50.0234C102.098 50.1536 101.821 50.2708 101.521 50.375C101.229 50.4727 100.926 50.5605 100.613 50.6387C100.301 50.7103 99.9883 50.7656 99.6758 50.8047C99.3633 50.8438 99.0638 50.8633 98.7773 50.8633C97.9505 50.8633 97.179 50.7103 96.4629 50.4043C95.7467 50.0983 95.125 49.6784 94.5977 49.1445C94.0703 48.6107 93.6536 47.9824 93.3477 47.2598C93.0482 46.5306 92.8984 45.7461 92.8984 44.9062C92.8984 43.793 93.0579 42.7448 93.377 41.7617C93.696 40.7721 94.1647 39.9062 94.7832 39.1641C95.4017 38.4219 96.1667 37.8359 97.0781 37.4062C97.9961 36.9766 99.0508 36.7617 100.242 36.7617C100.691 36.7617 101.15 36.7975 101.619 36.8691C102.094 36.9408 102.534 37.0742 102.938 37.2695Z" fill="#EB5D14"/>
<path d="M115.867 50.1602L111.023 50.7852L110.438 48.5781H108.211L107.723 50.7852L102.742 50.2969L106.629 37.2891L112.059 37.0156L115.867 50.1602ZM110.086 45.5898L109.344 42.1914L108.621 45.5898H110.086Z" fill="#EB5D14"/>
<path d="M127.518 41.5859C127.518 42.0938 127.472 42.556 127.381 42.9727C127.296 43.3828 127.16 43.7604 126.971 44.1055C126.782 44.4505 126.538 44.7695 126.238 45.0625C125.939 45.3555 125.577 45.6354 125.154 45.9023L127.479 50.043L123.084 50.9023L121.58 46.7422L120.369 46.7812L120.193 50.8438H115.994C116.027 49.3594 116.056 47.8815 116.082 46.4102C116.115 44.9388 116.15 43.4609 116.189 41.9766C116.202 41.2279 116.215 40.4857 116.229 39.75C116.242 39.0143 116.268 38.2721 116.307 37.5234C116.762 37.3542 117.212 37.2142 117.654 37.1035C118.097 36.9928 118.54 36.9082 118.982 36.8496C119.432 36.7845 119.884 36.7422 120.34 36.7227C120.802 36.6966 121.274 36.6836 121.756 36.6836C122.498 36.6836 123.214 36.7878 123.904 36.9961C124.601 37.1979 125.216 37.5039 125.75 37.9141C126.284 38.3242 126.71 38.8353 127.029 39.4473C127.355 40.0592 127.518 40.7721 127.518 41.5859ZM123.143 41.8984C123.143 41.625 123.104 41.3743 123.025 41.1465C122.954 40.9186 122.843 40.7233 122.693 40.5605C122.55 40.3913 122.368 40.2611 122.146 40.1699C121.932 40.0723 121.678 40.0234 121.385 40.0234C121.255 40.0234 121.128 40.0332 121.004 40.0527C120.88 40.0658 120.76 40.0885 120.643 40.1211L120.486 43.7539H120.721C121.001 43.7539 121.284 43.7181 121.57 43.6465C121.863 43.5749 122.124 43.4642 122.352 43.3145C122.586 43.1647 122.775 42.9727 122.918 42.7383C123.068 42.5039 123.143 42.224 123.143 41.8984Z" fill="#EB5D14"/>
<path d="M140.516 50.1602L135.672 50.7852L135.086 48.5781H132.859L132.371 50.7852L127.391 50.2969L131.277 37.2891L136.707 37.0156L140.516 50.1602ZM134.734 45.5898L133.992 42.1914L133.27 45.5898H134.734Z" fill="#EB5D14"/>
<path d="M159.725 36.7617L158.826 51.0977L154.373 51.293L154.412 43.7344L152.4 49.8281H150.682L149.139 44.3789L149.119 50.707L144.607 50.8438L144.803 37.3477L149.822 37.1523L151.814 43.6172L154.471 36.7617H159.725Z" fill="#EB5D14"/>
<path d="M172.586 50.1602L167.742 50.7852L167.156 48.5781H164.93L164.441 50.7852L159.461 50.2969L163.348 37.2891L168.777 37.0156L172.586 50.1602ZM166.805 45.5898L166.062 42.1914L165.34 45.5898H166.805Z" fill="#EB5D14"/>
<path d="M177.889 37.25L177.205 50.5508L173.084 50.7656L172.693 37.5234L177.889 37.25Z" fill="#EB5D14"/>
<path d="M190.809 46.0586C190.809 46.7943 190.799 47.5234 190.779 48.2461C190.766 48.9622 190.743 49.6849 190.711 50.4141L185.086 50.3164C185.281 49.1641 185.451 48.015 185.594 46.8691C185.737 45.7168 185.809 44.5547 185.809 43.3828C185.809 43.2982 185.805 43.1615 185.799 42.9727C185.792 42.7839 185.779 42.5723 185.76 42.3379C185.74 42.097 185.711 41.8529 185.672 41.6055C185.639 41.3516 185.59 41.1204 185.525 40.9121C185.467 40.7038 185.392 40.5345 185.301 40.4043C185.216 40.2676 185.112 40.1992 184.988 40.1992C184.767 40.1992 184.578 40.2643 184.422 40.3945C184.272 40.5247 184.145 40.694 184.041 40.9023C183.943 41.1042 183.865 41.332 183.807 41.5859C183.748 41.8398 183.702 42.0938 183.67 42.3477C183.644 42.6016 183.624 42.8424 183.611 43.0703C183.605 43.2917 183.602 43.474 183.602 43.6172C183.569 44.7695 183.543 45.9154 183.523 47.0547C183.504 48.1875 183.478 49.3333 183.445 50.4922L178.465 50.707C178.595 48.4089 178.719 46.1237 178.836 43.8516C178.96 41.5794 179.057 39.2943 179.129 36.9961L183.738 36.7617L183.699 38.3242C183.882 38.1029 184.077 37.8945 184.285 37.6992C184.5 37.5039 184.728 37.3379 184.969 37.2012C185.21 37.0579 185.464 36.9473 185.73 36.8691C186.004 36.7845 186.29 36.7422 186.59 36.7422C187.143 36.7422 187.628 36.8333 188.045 37.0156C188.462 37.1979 188.82 37.4453 189.119 37.7578C189.419 38.0703 189.669 38.4414 189.871 38.8711C190.073 39.2943 190.236 39.7467 190.359 40.2285C190.483 40.7103 190.577 41.2148 190.643 41.7422C190.708 42.263 190.75 42.7773 190.77 43.2852C190.796 43.793 190.809 44.2845 190.809 44.7598C190.809 45.235 190.809 45.668 190.809 46.0586Z" fill="#EB5D14"/>
</g>
<defs>
<filter id="filter0_di" x="0" y="0" width="284" height="108" filterUnits="userSpaceOnUse" color-interpolation-filters="sRGB">
<feFlood flood-opacity="0" result="BackgroundImageFix"/>
<feColorMatrix in="SourceAlpha" type="matrix" values="0 0 0 0 0 0 0 0 0 0 0 0 0 0 0 0 0 0 127 0"/>
<feOffset dy="7"/>
<feGaussianBlur stdDeviation="11"/>
<feColorMatrix type="matrix" values="0 0 0 0 0.815686 0 0 0 0 0.00784314 0 0 0 0 0 0 0 0 0.2 0"/>
<feBlend mode="normal" in2="BackgroundImageFix" result="effect1_dropShadow"/>
<feBlend mode="normal" in="SourceGraphic" in2="effect1_dropShadow" result="shape"/>
<feColorMatrix in="SourceAlpha" type="matrix" values="0 0 0 0 0 0 0 0 0 0 0 0 0 0 0 0 0 0 127 0" result="hardAlpha"/>
<feOffset dy="1"/>
<feGaussianBlur stdDeviation="6"/>
<feComposite in2="hardAlpha" operator="arithmetic" k2="-1" k3="1"/>
<feColorMatrix type="matrix" values="0 0 0 0 0.875 0 0 0 0 0.348696 0 0 0 0 0.182292 0 0 0 0.5 0"/>
<feBlend mode="normal" in2="shape" result="effect2_innerShadow"/>
</filter>
<filter id="filter1_i" x="92.8984" y="36.6836" width="97.9102" height="15.6094" filterUnits="userSpaceOnUse" color-interpolation-filters="sRGB">
<feFlood flood-opacity="0" result="BackgroundImageFix"/>
<feBlend mode="normal" in="SourceGraphic" in2="BackgroundImageFix" result="shape"/>
<feColorMatrix in="SourceAlpha" type="matrix" values="0 0 0 0 0 0 0 0 0 0 0 0 0 0 0 0 0 0 127 0" result="hardAlpha"/>
<feOffset dy="1"/>
<feGaussianBlur stdDeviation="1.5"/>
<feComposite in2="hardAlpha" operator="arithmetic" k2="-1" k3="1"/>
<feColorMatrix type="matrix" values="0 0 0 0 0.819608 0 0 0 0 0.00784314 0 0 0 0 0 0 0 0 0.5 0"/>
<feBlend mode="normal" in2="shape" result="effect1_innerShadow"/>
</filter>
<linearGradient id="paint0_linear" x1="136.5" y1="83.2861" x2="136.5" y2="13.8623" gradientUnits="userSpaceOnUse">
<stop stop-color="#D09B8A"/>
<stop offset="1" stop-color="#F8E4DE"/>
</linearGradient>
</defs>
</svg>
