<svg width="284" height="108" viewBox="0 0 284 108" fill="none" xmlns="http://www.w3.org/2000/svg">
<g filter="url(#filter0_di)">
<path d="M22 24.276C22 20.1322 25.1642 16.6743 29.2917 16.3074L44 15L223.5 16.9555H254C258.418 16.9555 262 20.5372 262 24.9555V68.9841C262 72.8334 259.259 76.137 255.475 76.8469L244.731 78.8628C244.245 78.9541 243.751 79 243.256 79H63.5L29.3511 76.2209C25.1982 75.8829 22 72.4139 22 68.2473V24.276Z" fill="url(#paint0_linear)"/>
</g>
<g filter="url(#filter1_di)">
<path d="M104.344 36.7617L103.445 51.0977L98.9922 51.293L99.0312 43.7344L97.0195 49.8281H95.3008L93.7578 44.3789L93.7383 50.707L89.2266 50.8438L89.4219 37.3477L94.4414 37.1523L96.4336 43.6172L99.0898 36.7617H104.344Z" fill="white"/>
<path d="M116.707 37.25C116.414 39.5417 116.163 41.8236 115.955 44.0957C115.747 46.3613 115.548 48.6432 115.359 50.9414L111.355 51.2344L111.531 49.7305C111.401 49.8802 111.248 50.0104 111.072 50.1211C110.903 50.2318 110.721 50.3229 110.525 50.3945C110.33 50.4596 110.128 50.5085 109.92 50.541C109.712 50.5671 109.513 50.5768 109.324 50.5703C108.882 50.5638 108.465 50.4792 108.074 50.3164C107.684 50.1471 107.326 49.9258 107 49.6523C106.674 49.3724 106.382 49.0501 106.121 48.6855C105.861 48.3145 105.639 47.9271 105.457 47.5234C105.281 47.1133 105.145 46.6966 105.047 46.2734C104.956 45.8503 104.91 45.4401 104.91 45.043C104.91 44.457 104.92 43.8516 104.939 43.2266C104.965 42.5951 105.008 41.9635 105.066 41.332C105.125 40.7005 105.2 40.0755 105.291 39.457C105.389 38.8385 105.509 38.2461 105.652 37.6797C106.447 37.7188 107.244 37.7546 108.045 37.7871C108.846 37.8197 109.643 37.8294 110.438 37.8164C110.288 38.3828 110.138 38.9525 109.988 39.5254C109.845 40.0918 109.715 40.6647 109.598 41.2441C109.48 41.8171 109.386 42.3932 109.314 42.9727C109.243 43.5521 109.207 44.138 109.207 44.7305C109.207 44.8672 109.214 45.0625 109.227 45.3164C109.24 45.5703 109.272 45.821 109.324 46.0684C109.383 46.3158 109.467 46.5339 109.578 46.7227C109.695 46.9049 109.858 46.9961 110.066 46.9961C110.314 46.9961 110.535 46.8919 110.73 46.6836C110.926 46.4688 111.098 46.1823 111.248 45.8242C111.398 45.4661 111.525 45.0527 111.629 44.584C111.74 44.1152 111.831 43.627 111.902 43.1191C111.98 42.6048 112.042 42.0872 112.088 41.5664C112.133 41.0456 112.166 40.5573 112.186 40.1016C112.212 39.6393 112.228 39.2259 112.234 38.8613C112.247 38.4967 112.254 38.2135 112.254 38.0117C112.254 37.8815 112.251 37.7546 112.244 37.6309C112.238 37.5072 112.228 37.3802 112.215 37.25C112.638 37.263 113.058 37.2728 113.475 37.2793C113.891 37.2858 114.311 37.2891 114.734 37.2891C115.06 37.2891 115.385 37.2891 115.711 37.2891C116.043 37.2826 116.375 37.2695 116.707 37.25Z" fill="white"/>
<path d="M125.857 45.8242L125.447 50.1602L117.225 50.8047L117.537 36.8594H122.615L121.893 45.8242H125.857Z" fill="white"/>
<path d="M138.631 50.1602L133.787 50.7852L133.201 48.5781H130.975L130.486 50.7852L125.506 50.2969L129.393 37.2891L134.822 37.0156L138.631 50.1602ZM132.85 45.5898L132.107 42.1914L131.385 45.5898H132.85Z" fill="white"/>
<path d="M143.934 37.25L143.25 50.5508L139.129 50.7656L138.738 37.5234L143.934 37.25Z" fill="white"/>
<path d="M163.738 36.7617L162.84 51.0977L158.387 51.293L158.426 43.7344L156.414 49.8281H154.695L153.152 44.3789L153.133 50.707L148.621 50.8438L148.816 37.3477L153.836 37.1523L155.828 43.6172L158.484 36.7617H163.738Z" fill="white"/>
<path d="M176.6 50.1602L171.756 50.7852L171.17 48.5781H168.943L168.455 50.7852L163.475 50.2969L167.361 37.2891L172.791 37.0156L176.6 50.1602ZM170.818 45.5898L170.076 42.1914L169.354 45.5898H170.818Z" fill="white"/>
<path d="M181.902 37.25L181.219 50.5508L177.098 50.7656L176.707 37.5234L181.902 37.25Z" fill="white"/>
<path d="M194.822 46.0586C194.822 46.7943 194.812 47.5234 194.793 48.2461C194.78 48.9622 194.757 49.6849 194.725 50.4141L189.1 50.3164C189.295 49.1641 189.464 48.015 189.607 46.8691C189.751 45.7168 189.822 44.5547 189.822 43.3828C189.822 43.2982 189.819 43.1615 189.812 42.9727C189.806 42.7839 189.793 42.5723 189.773 42.3379C189.754 42.097 189.725 41.8529 189.686 41.6055C189.653 41.3516 189.604 41.1204 189.539 40.9121C189.48 40.7038 189.406 40.5345 189.314 40.4043C189.23 40.2676 189.126 40.1992 189.002 40.1992C188.781 40.1992 188.592 40.2643 188.436 40.3945C188.286 40.5247 188.159 40.694 188.055 40.9023C187.957 41.1042 187.879 41.332 187.82 41.5859C187.762 41.8398 187.716 42.0938 187.684 42.3477C187.658 42.6016 187.638 42.8424 187.625 43.0703C187.618 43.2917 187.615 43.474 187.615 43.6172C187.583 44.7695 187.557 45.9154 187.537 47.0547C187.518 48.1875 187.492 49.3333 187.459 50.4922L182.479 50.707C182.609 48.4089 182.732 46.1237 182.85 43.8516C182.973 41.5794 183.071 39.2943 183.143 36.9961L187.752 36.7617L187.713 38.3242C187.895 38.1029 188.09 37.8945 188.299 37.6992C188.514 37.5039 188.742 37.3379 188.982 37.2012C189.223 37.0579 189.477 36.9473 189.744 36.8691C190.018 36.7845 190.304 36.7422 190.604 36.7422C191.157 36.7422 191.642 36.8333 192.059 37.0156C192.475 37.1979 192.833 37.4453 193.133 37.7578C193.432 38.0703 193.683 38.4414 193.885 38.8711C194.087 39.2943 194.249 39.7467 194.373 40.2285C194.497 40.7103 194.591 41.2148 194.656 41.7422C194.721 42.263 194.764 42.7773 194.783 43.2852C194.809 43.793 194.822 44.2845 194.822 44.7598C194.822 45.235 194.822 45.668 194.822 46.0586Z" fill="white"/>
</g>
<defs>
<filter id="filter0_di" x="0" y="0" width="284" height="108" filterUnits="userSpaceOnUse" color-interpolation-filters="sRGB">
<feFlood flood-opacity="0" result="BackgroundImageFix"/>
<feColorMatrix in="SourceAlpha" type="matrix" values="0 0 0 0 0 0 0 0 0 0 0 0 0 0 0 0 0 0 127 0"/>
<feOffset dy="7"/>
<feGaussianBlur stdDeviation="11"/>
<feColorMatrix type="matrix" values="0 0 0 0 0.815686 0 0 0 0 0.00784314 0 0 0 0 0 0 0 0 0.3 0"/>
<feBlend mode="normal" in2="BackgroundImageFix" result="effect1_dropShadow"/>
<feBlend mode="normal" in="SourceGraphic" in2="effect1_dropShadow" result="shape"/>
<feColorMatrix in="SourceAlpha" type="matrix" values="0 0 0 0 0 0 0 0 0 0 0 0 0 0 0 0 0 0 127 0" result="hardAlpha"/>
<feOffset dy="1"/>
<feGaussianBlur stdDeviation="6"/>
<feComposite in2="hardAlpha" operator="arithmetic" k2="-1" k3="1"/>
<feColorMatrix type="matrix" values="0 0 0 0 0.983333 0 0 0 0 0.282708 0 0 0 0 0.312522 0 0 0 1 0"/>
<feBlend mode="normal" in2="shape" result="effect2_innerShadow"/>
</filter>
<filter id="filter1_di" x="87.2266" y="36.7422" width="109.596" height="18.5508" filterUnits="userSpaceOnUse" color-interpolation-filters="sRGB">
<feFlood flood-opacity="0" result="BackgroundImageFix"/>
<feColorMatrix in="SourceAlpha" type="matrix" values="0 0 0 0 0 0 0 0 0 0 0 0 0 0 0 0 0 0 127 0"/>
<feOffset dy="2"/>
<feGaussianBlur stdDeviation="1"/>
<feColorMatrix type="matrix" values="0 0 0 0 0.580392 0 0 0 0 0.117647 0 0 0 0 0.0352941 0 0 0 0.5 0"/>
<feBlend mode="normal" in2="BackgroundImageFix" result="effect1_dropShadow"/>
<feBlend mode="normal" in="SourceGraphic" in2="effect1_dropShadow" result="shape"/>
<feColorMatrix in="SourceAlpha" type="matrix" values="0 0 0 0 0 0 0 0 0 0 0 0 0 0 0 0 0 0 127 0" result="hardAlpha"/>
<feOffset dy="1"/>
<feGaussianBlur stdDeviation="1.5"/>
<feComposite in2="hardAlpha" operator="arithmetic" k2="-1" k3="1"/>
<feColorMatrix type="matrix" values="0 0 0 0 0.819608 0 0 0 0 0.00784314 0 0 0 0 0 0 0 0 0.5 0"/>
<feBlend mode="normal" in2="shape" result="effect2_innerShadow"/>
</filter>
<linearGradient id="paint0_linear" x1="136.5" y1="83.2861" x2="136.5" y2="13.8623" gradientUnits="userSpaceOnUse">
<stop stop-color="#E94F0D"/>
<stop offset="1" stop-color="#ED9E27"/>
</linearGradient>
</defs>
</svg>
