<svg width="284" height="108" viewBox="0 0 284 108" fill="none" xmlns="http://www.w3.org/2000/svg">
<g filter="url(#filter0_di)">
<path d="M22 24.276C22 20.1322 25.1642 16.6743 29.2917 16.3074L44 15L223.5 16.9555H254C258.418 16.9555 262 20.5372 262 24.9555V68.9841C262 72.8334 259.259 76.137 255.475 76.8469L244.731 78.8628C244.245 78.9541 243.751 79 243.256 79H63.5L29.3511 76.2209C25.1982 75.8829 22 72.4139 22 68.2473V24.276Z" fill="url(#paint0_linear)"/>
</g>
<g filter="url(#filter1_i)">
<path d="M79.8027 41.6055C79.8027 42.237 79.7083 42.7969 79.5195 43.2852C79.3307 43.7734 79.0703 44.1999 78.7383 44.5645C78.4128 44.929 78.0286 45.2383 77.5859 45.4922C77.1432 45.7461 76.668 45.9544 76.1602 46.1172C75.6589 46.2734 75.138 46.3906 74.5977 46.4688C74.0573 46.5404 73.5267 46.5794 73.0059 46.5859V51.1367H68.4551C68.4551 49.6458 68.4583 48.1615 68.4648 46.6836C68.4714 45.2057 68.4811 43.7148 68.4941 42.2109C68.5072 41.4167 68.5104 40.6224 68.5039 39.8281C68.4974 39.0339 68.5137 38.2331 68.5527 37.4258C69.3861 37.1784 70.2194 36.9928 71.0527 36.8691C71.8861 36.7454 72.7454 36.6836 73.6309 36.6836C74.1322 36.6836 74.6335 36.7259 75.1348 36.8105C75.6361 36.8887 76.1146 37.0156 76.5703 37.1914C77.0326 37.3672 77.459 37.5885 77.8496 37.8555C78.2467 38.1159 78.5885 38.4284 78.875 38.793C79.1615 39.1576 79.3861 39.5742 79.5488 40.043C79.7181 40.5052 79.8027 41.026 79.8027 41.6055ZM75.4668 41.9375C75.4668 41.5143 75.3366 41.1855 75.0762 40.9512C74.8223 40.7103 74.4902 40.5898 74.0801 40.5898C73.9434 40.5898 73.8001 40.6029 73.6504 40.6289C73.5072 40.6484 73.3704 40.6745 73.2402 40.707L73.123 43.5586C73.2142 43.5716 73.3021 43.5781 73.3867 43.5781C73.4714 43.5781 73.5592 43.5781 73.6504 43.5781C73.8848 43.5781 74.1094 43.5391 74.3242 43.4609C74.5456 43.3828 74.7409 43.2721 74.9102 43.1289C75.0794 42.9792 75.2129 42.8066 75.3105 42.6113C75.4147 42.4095 75.4668 42.1849 75.4668 41.9375Z" fill="#EB5D14"/>
<path d="M85.4375 37.25L84.7539 50.5508L80.6328 50.7656L80.2422 37.5234L85.4375 37.25Z" fill="#EB5D14"/>
<path d="M94.8027 45.8242L94.3926 50.1602L86.1699 50.8047L86.4824 36.8594H91.5605L90.8379 45.8242H94.8027Z" fill="#EB5D14"/>
<path d="M100.359 37.25L99.6758 50.5508L95.5547 50.7656L95.1641 37.5234L100.359 37.25Z" fill="#EB5D14"/>
<path d="M112.752 50.6094L107.869 50.8438L107.83 46.7227H105.584L105.447 51H101.072L101.443 37.2695L106.092 37.4844L105.799 44.4961H107.967L107.986 37.1523L112.439 37.2695L112.752 50.6094Z" fill="#EB5D14"/>
<path d="M129.373 49.0078C129.067 49.3919 128.689 49.7272 128.24 50.0137C127.791 50.3001 127.309 50.5378 126.795 50.7266C126.281 50.9154 125.753 51.0553 125.213 51.1465C124.673 51.2441 124.158 51.293 123.67 51.293C122.726 51.293 121.857 51.1237 121.062 50.7852C120.268 50.4466 119.581 49.9811 119.002 49.3887C118.429 48.7897 117.98 48.0866 117.654 47.2793C117.329 46.472 117.166 45.6029 117.166 44.6719C117.166 43.9622 117.247 43.2689 117.41 42.5918C117.573 41.9082 117.804 41.2669 118.104 40.668C118.41 40.0625 118.781 39.5091 119.217 39.0078C119.653 38.5 120.148 38.0638 120.701 37.6992C121.255 37.3346 121.86 37.0514 122.518 36.8496C123.175 36.6478 123.878 36.5469 124.627 36.5469C124.907 36.5469 125.206 36.5599 125.525 36.5859C125.844 36.6055 126.16 36.6445 126.473 36.7031C126.792 36.7552 127.101 36.8301 127.4 36.9277C127.7 37.0254 127.973 37.1458 128.221 37.2891L127.947 41.0195C127.583 40.8828 127.205 40.7917 126.814 40.7461C126.43 40.694 126.053 40.668 125.682 40.668C125.161 40.668 124.673 40.7493 124.217 40.9121C123.768 41.0684 123.374 41.2962 123.035 41.5957C122.703 41.8952 122.439 42.2598 122.244 42.6895C122.049 43.1191 121.951 43.6042 121.951 44.1445C121.951 44.4831 121.997 44.8118 122.088 45.1309C122.179 45.4434 122.316 45.7233 122.498 45.9707C122.687 46.2116 122.918 46.4069 123.191 46.5566C123.471 46.7064 123.794 46.7812 124.158 46.7812C124.406 46.7812 124.66 46.7487 124.92 46.6836C125.187 46.6185 125.415 46.5078 125.604 46.3516L125.643 45.5898L123.299 45.5508L123.416 42.6211C124.386 42.5885 125.356 42.5625 126.326 42.543C127.296 42.5169 128.273 42.4844 129.256 42.4453L129.373 49.0078Z" fill="#EB5D14"/>
<path d="M142.439 50.1602L137.596 50.7852L137.01 48.5781H134.783L134.295 50.7852L129.314 50.2969L133.201 37.2891L138.631 37.0156L142.439 50.1602ZM136.658 45.5898L135.916 42.1914L135.193 45.5898H136.658Z" fill="#EB5D14"/>
<path d="M159.715 44.3789C159.715 45.3099 159.686 46.2376 159.627 47.1621C159.568 48.0866 159.5 49.0143 159.422 49.9453L154.402 50.1797C154.552 49.0469 154.686 47.9141 154.803 46.7812C154.926 45.6419 154.988 44.5026 154.988 43.3633C154.988 43.2917 154.985 43.168 154.979 42.9922C154.972 42.8099 154.959 42.6048 154.939 42.377C154.926 42.1491 154.904 41.9147 154.871 41.6738C154.845 41.4264 154.806 41.2018 154.754 41C154.708 40.7917 154.65 40.6224 154.578 40.4922C154.507 40.362 154.422 40.2969 154.324 40.2969C154.096 40.2969 153.917 40.3848 153.787 40.5605C153.657 40.7298 153.559 40.9349 153.494 41.1758C153.436 41.4167 153.4 41.6641 153.387 41.918C153.374 42.1654 153.367 42.3672 153.367 42.5234C153.367 42.7969 153.374 43.0703 153.387 43.3438C153.4 43.6172 153.406 43.8971 153.406 44.1836C153.406 45.1927 153.38 46.1986 153.328 47.2012C153.283 48.2038 153.224 49.2096 153.152 50.2188L148.523 50.3945C148.673 49.2617 148.803 48.1322 148.914 47.0059C149.031 45.873 149.09 44.737 149.09 43.5977C149.09 43.526 149.087 43.3958 149.08 43.207C149.074 43.0182 149.061 42.8066 149.041 42.5723C149.028 42.3379 149.005 42.0938 148.973 41.8398C148.94 41.5859 148.898 41.3548 148.846 41.1465C148.8 40.9316 148.742 40.7559 148.67 40.6191C148.598 40.4824 148.51 40.4141 148.406 40.4141C148.243 40.4141 148.107 40.4792 147.996 40.6094C147.885 40.7331 147.794 40.8958 147.723 41.0977C147.658 41.2995 147.605 41.5241 147.566 41.7715C147.534 42.0124 147.508 42.25 147.488 42.4844C147.475 42.7188 147.465 42.9368 147.459 43.1387C147.459 43.334 147.456 43.4805 147.449 43.5781L147.234 50.707H142.312C142.417 49.6068 142.521 48.5033 142.625 47.3965C142.736 46.2897 142.83 45.1862 142.908 44.0859C142.993 42.9792 143.061 41.8724 143.113 40.7656C143.165 39.6589 143.191 38.5521 143.191 37.4453L147.84 37.25L147.82 38.3828C147.964 38.2005 148.126 38.0182 148.309 37.8359C148.491 37.6471 148.683 37.4811 148.885 37.3379C149.093 37.1882 149.311 37.0677 149.539 36.9766C149.773 36.8854 150.014 36.8398 150.262 36.8398C150.581 36.8398 150.867 36.8659 151.121 36.918C151.375 36.9635 151.603 37.0449 151.805 37.1621C152.013 37.2793 152.195 37.4421 152.352 37.6504C152.508 37.8522 152.645 38.1094 152.762 38.4219C152.97 38.194 153.178 37.9824 153.387 37.7871C153.602 37.5918 153.826 37.4258 154.061 37.2891C154.295 37.1458 154.549 37.0352 154.822 36.957C155.096 36.8789 155.398 36.8398 155.73 36.8398C156.362 36.8398 156.899 36.9635 157.342 37.2109C157.785 37.4518 158.152 37.7741 158.445 38.1777C158.745 38.5814 158.976 39.0436 159.139 39.5645C159.308 40.0853 159.435 40.6257 159.52 41.1855C159.604 41.7454 159.656 42.3021 159.676 42.8555C159.702 43.4089 159.715 43.9167 159.715 44.3789Z" fill="#EB5D14"/>
<path d="M171.512 43.1094C171.512 43.6758 171.473 44.2422 171.395 44.8086C170.281 44.8802 169.174 44.9974 168.074 45.1602C166.974 45.3164 165.874 45.4727 164.773 45.6289C164.943 46.0977 165.206 46.472 165.564 46.752C165.929 47.0319 166.362 47.1719 166.863 47.1719C167.124 47.1719 167.407 47.123 167.713 47.0254C168.025 46.9277 168.335 46.8073 168.641 46.6641C168.947 46.5143 169.24 46.3548 169.52 46.1855C169.799 46.0163 170.04 45.8633 170.242 45.7266L169.773 50.1602C169.52 50.3555 169.243 50.5215 168.943 50.6582C168.65 50.7949 168.344 50.9056 168.025 50.9902C167.706 51.0749 167.384 51.1367 167.059 51.1758C166.733 51.2148 166.414 51.2344 166.102 51.2344C165.457 51.2344 164.868 51.1465 164.334 50.9707C163.8 50.7949 163.315 50.5508 162.879 50.2383C162.449 49.9193 162.072 49.5449 161.746 49.1152C161.421 48.6855 161.15 48.2168 160.936 47.709C160.721 47.2012 160.558 46.6641 160.447 46.0977C160.337 45.5312 160.281 44.9583 160.281 44.3789C160.281 43.7734 160.337 43.168 160.447 42.5625C160.558 41.957 160.724 41.3743 160.945 40.8145C161.173 40.2546 161.456 39.737 161.795 39.2617C162.14 38.7799 162.54 38.36 162.996 38.002C163.452 37.6439 163.966 37.3639 164.539 37.1621C165.118 36.9603 165.757 36.8594 166.453 36.8594C167.033 36.8594 167.56 36.9408 168.035 37.1035C168.517 37.2598 168.943 37.4811 169.314 37.7676C169.692 38.0475 170.018 38.3828 170.291 38.7734C170.571 39.1641 170.799 39.5938 170.975 40.0625C171.157 40.5247 171.29 41.0163 171.375 41.5371C171.466 42.0514 171.512 42.5755 171.512 43.1094ZM167.605 42.6016C167.605 42.4193 167.586 42.2337 167.547 42.0449C167.508 41.8496 167.443 41.6738 167.352 41.5176C167.267 41.3613 167.153 41.2344 167.01 41.1367C166.867 41.0326 166.688 40.9805 166.473 40.9805C166.212 40.9805 165.981 41.0521 165.779 41.1953C165.584 41.332 165.415 41.5078 165.271 41.7227C165.128 41.931 165.011 42.1589 164.92 42.4062C164.829 42.6536 164.76 42.8815 164.715 43.0898L167.605 42.8164V42.6016Z" fill="#EB5D14"/>
<path d="M184.646 45.4336L184.236 49.7695L176.014 50.4141C176.053 48.1419 176.095 45.8828 176.141 43.6367C176.193 41.3906 176.255 39.1315 176.326 36.8594H181.404C181.255 38.2852 181.111 39.7109 180.975 41.1367C180.838 42.556 180.74 43.9883 180.682 45.4336C180.988 45.4466 181.29 45.4531 181.59 45.4531C181.889 45.4531 182.192 45.4531 182.498 45.4531C182.863 45.4531 183.221 45.4499 183.572 45.4434C183.924 45.4368 184.282 45.4336 184.646 45.4336Z" fill="#EB5D14"/>
<path d="M197.42 50.1602L192.576 50.7852L191.99 48.5781H189.764L189.275 50.7852L184.295 50.2969L188.182 37.2891L193.611 37.0156L197.42 50.1602ZM191.639 45.5898L190.896 42.1914L190.174 45.5898H191.639Z" fill="#EB5D14"/>
<path d="M202.723 37.25L202.039 50.5508L197.918 50.7656L197.527 37.5234L202.723 37.25Z" fill="#EB5D14"/>
<path d="M215.643 46.0586C215.643 46.7943 215.633 47.5234 215.613 48.2461C215.6 48.9622 215.577 49.6849 215.545 50.4141L209.92 50.3164C210.115 49.1641 210.285 48.015 210.428 46.8691C210.571 45.7168 210.643 44.5547 210.643 43.3828C210.643 43.2982 210.639 43.1615 210.633 42.9727C210.626 42.7839 210.613 42.5723 210.594 42.3379C210.574 42.097 210.545 41.8529 210.506 41.6055C210.473 41.3516 210.424 41.1204 210.359 40.9121C210.301 40.7038 210.226 40.5345 210.135 40.4043C210.05 40.2676 209.946 40.1992 209.822 40.1992C209.601 40.1992 209.412 40.2643 209.256 40.3945C209.106 40.5247 208.979 40.694 208.875 40.9023C208.777 41.1042 208.699 41.332 208.641 41.5859C208.582 41.8398 208.536 42.0938 208.504 42.3477C208.478 42.6016 208.458 42.8424 208.445 43.0703C208.439 43.2917 208.436 43.474 208.436 43.6172C208.403 44.7695 208.377 45.9154 208.357 47.0547C208.338 48.1875 208.312 49.3333 208.279 50.4922L203.299 50.707C203.429 48.4089 203.553 46.1237 203.67 43.8516C203.794 41.5794 203.891 39.2943 203.963 36.9961L208.572 36.7617L208.533 38.3242C208.715 38.1029 208.911 37.8945 209.119 37.6992C209.334 37.5039 209.562 37.3379 209.803 37.2012C210.044 37.0579 210.298 36.9473 210.564 36.8691C210.838 36.7845 211.124 36.7422 211.424 36.7422C211.977 36.7422 212.462 36.8333 212.879 37.0156C213.296 37.1979 213.654 37.4453 213.953 37.7578C214.253 38.0703 214.503 38.4414 214.705 38.8711C214.907 39.2943 215.07 39.7467 215.193 40.2285C215.317 40.7103 215.411 41.2148 215.477 41.7422C215.542 42.263 215.584 42.7773 215.604 43.2852C215.63 43.793 215.643 44.2845 215.643 44.7598C215.643 45.235 215.643 45.668 215.643 46.0586Z" fill="#EB5D14"/>
</g>
<defs>
<filter id="filter0_di" x="0" y="0" width="284" height="108" filterUnits="userSpaceOnUse" color-interpolation-filters="sRGB">
<feFlood flood-opacity="0" result="BackgroundImageFix"/>
<feColorMatrix in="SourceAlpha" type="matrix" values="0 0 0 0 0 0 0 0 0 0 0 0 0 0 0 0 0 0 127 0"/>
<feOffset dy="7"/>
<feGaussianBlur stdDeviation="11"/>
<feColorMatrix type="matrix" values="0 0 0 0 0.815686 0 0 0 0 0.00784314 0 0 0 0 0 0 0 0 0.2 0"/>
<feBlend mode="normal" in2="BackgroundImageFix" result="effect1_dropShadow"/>
<feBlend mode="normal" in="SourceGraphic" in2="effect1_dropShadow" result="shape"/>
<feColorMatrix in="SourceAlpha" type="matrix" values="0 0 0 0 0 0 0 0 0 0 0 0 0 0 0 0 0 0 127 0" result="hardAlpha"/>
<feOffset dy="1"/>
<feGaussianBlur stdDeviation="6"/>
<feComposite in2="hardAlpha" operator="arithmetic" k2="-1" k3="1"/>
<feColorMatrix type="matrix" values="0 0 0 0 0.875 0 0 0 0 0.348696 0 0 0 0 0.182292 0 0 0 0.5 0"/>
<feBlend mode="normal" in2="shape" result="effect2_innerShadow"/>
</filter>
<filter id="filter1_i" x="68.4551" y="36.5469" width="147.188" height="15.7461" filterUnits="userSpaceOnUse" color-interpolation-filters="sRGB">
<feFlood flood-opacity="0" result="BackgroundImageFix"/>
<feBlend mode="normal" in="SourceGraphic" in2="BackgroundImageFix" result="shape"/>
<feColorMatrix in="SourceAlpha" type="matrix" values="0 0 0 0 0 0 0 0 0 0 0 0 0 0 0 0 0 0 127 0" result="hardAlpha"/>
<feOffset dy="1"/>
<feGaussianBlur stdDeviation="1.5"/>
<feComposite in2="hardAlpha" operator="arithmetic" k2="-1" k3="1"/>
<feColorMatrix type="matrix" values="0 0 0 0 0.819608 0 0 0 0 0.00784314 0 0 0 0 0 0 0 0 0.5 0"/>
<feBlend mode="normal" in2="shape" result="effect1_innerShadow"/>
</filter>
<linearGradient id="paint0_linear" x1="136.5" y1="83.2861" x2="136.5" y2="13.8623" gradientUnits="userSpaceOnUse">
<stop stop-color="#D09B8A"/>
<stop offset="1" stop-color="#F8E4DE"/>
</linearGradient>
</defs>
</svg>
