<svg width="284" height="108" viewBox="0 0 284 108" fill="none" xmlns="http://www.w3.org/2000/svg">
<g filter="url(#filter0_di)">
<path d="M22 24.276C22 20.1322 25.1642 16.6743 29.2917 16.3074L44 15L223.5 16.9555H254C258.418 16.9555 262 20.5372 262 24.9555V68.9841C262 72.8334 259.259 76.137 255.475 76.8469L244.731 78.8628C244.245 78.9541 243.751 79 243.256 79H63.5L29.3511 76.2209C25.1982 75.8829 22 72.4139 22 68.2473V24.276Z" fill="url(#paint0_linear)"/>
</g>
<g filter="url(#filter1_di)">
<path d="M89.7051 45.8047C89.7051 46.6966 89.5488 47.4779 89.2363 48.1484C88.9303 48.8125 88.5072 49.3659 87.9668 49.8086C87.4329 50.2513 86.8047 50.5833 86.082 50.8047C85.3659 51.026 84.5944 51.1367 83.7676 51.1367C83.4486 51.1367 83.097 51.0944 82.7129 51.0098C82.3353 50.9251 81.9512 50.821 81.5605 50.6973C81.1699 50.5671 80.7923 50.4303 80.4277 50.2871C80.0697 50.1374 79.7507 49.9974 79.4707 49.8672L79.9004 45.8438C80.4538 46.1758 81.0658 46.4297 81.7363 46.6055C82.4134 46.7747 83.0775 46.8594 83.7285 46.8594C83.8522 46.8594 84.002 46.8561 84.1777 46.8496C84.3535 46.8366 84.5195 46.8073 84.6758 46.7617C84.8385 46.7096 84.9753 46.6348 85.0859 46.5371C85.1966 46.4395 85.252 46.2995 85.252 46.1172C85.252 45.9935 85.2129 45.8893 85.1348 45.8047C85.0566 45.7135 84.9557 45.6419 84.832 45.5898C84.7083 45.5312 84.5684 45.4889 84.4121 45.4629C84.2559 45.4303 84.1029 45.4076 83.9531 45.3945C83.8034 45.3815 83.6634 45.375 83.5332 45.375C83.403 45.375 83.2988 45.375 83.2207 45.375C82.6608 45.375 82.1497 45.2773 81.6875 45.082C81.2318 44.8867 80.8379 44.6165 80.5059 44.2715C80.1803 43.9199 79.9264 43.5065 79.7441 43.0312C79.5618 42.5495 79.4707 42.0286 79.4707 41.4688C79.4707 40.7005 79.6237 40.0137 79.9297 39.4082C80.2422 38.7962 80.6556 38.2786 81.1699 37.8555C81.6908 37.4258 82.2865 37.097 82.957 36.8691C83.6276 36.6413 84.321 36.5273 85.0371 36.5273C85.3561 36.5273 85.6849 36.5404 86.0234 36.5664C86.362 36.5859 86.6973 36.625 87.0293 36.6836C87.3678 36.7422 87.6966 36.8171 88.0156 36.9082C88.3346 36.9993 88.6374 37.1133 88.9238 37.25L88.5527 41.2148C88.11 41.0651 87.6445 40.9414 87.1562 40.8438C86.6745 40.7396 86.2025 40.6875 85.7402 40.6875C85.6556 40.6875 85.5449 40.6908 85.4082 40.6973C85.278 40.6973 85.138 40.707 84.9883 40.7266C84.8451 40.7396 84.6986 40.7624 84.5488 40.7949C84.3991 40.8275 84.2656 40.873 84.1484 40.9316C84.0312 40.9837 83.9368 41.0553 83.8652 41.1465C83.7936 41.2376 83.7611 41.3451 83.7676 41.4688C83.7741 41.612 83.8262 41.7292 83.9238 41.8203C84.028 41.9049 84.1582 41.9733 84.3145 42.0254C84.4772 42.071 84.653 42.1035 84.8418 42.123C85.0371 42.1426 85.2292 42.1556 85.418 42.1621C85.6068 42.1621 85.7826 42.1621 85.9453 42.1621C86.1081 42.1556 86.2415 42.1589 86.3457 42.1719C86.8665 42.2044 87.3353 42.3151 87.752 42.5039C88.1686 42.6927 88.5202 42.9434 88.8066 43.2559C89.0996 43.5684 89.321 43.9427 89.4707 44.3789C89.627 44.8086 89.7051 45.2839 89.7051 45.8047Z" fill="white"/>
<path d="M101.229 43.1094C101.229 43.6758 101.189 44.2422 101.111 44.8086C99.998 44.8802 98.8913 44.9974 97.791 45.1602C96.6908 45.3164 95.5905 45.4727 94.4902 45.6289C94.6595 46.0977 94.9232 46.472 95.2812 46.752C95.6458 47.0319 96.0788 47.1719 96.5801 47.1719C96.8405 47.1719 97.1237 47.123 97.4297 47.0254C97.7422 46.9277 98.0514 46.8073 98.3574 46.6641C98.6634 46.5143 98.9564 46.3548 99.2363 46.1855C99.5163 46.0163 99.7572 45.8633 99.959 45.7266L99.4902 50.1602C99.2363 50.3555 98.9596 50.5215 98.6602 50.6582C98.3672 50.7949 98.0612 50.9056 97.7422 50.9902C97.4232 51.0749 97.1009 51.1367 96.7754 51.1758C96.4499 51.2148 96.1309 51.2344 95.8184 51.2344C95.1738 51.2344 94.5846 51.1465 94.0508 50.9707C93.5169 50.7949 93.0319 50.5508 92.5957 50.2383C92.166 49.9193 91.7884 49.5449 91.4629 49.1152C91.1374 48.6855 90.8672 48.2168 90.6523 47.709C90.4375 47.2012 90.2747 46.6641 90.1641 46.0977C90.0534 45.5312 89.998 44.9583 89.998 44.3789C89.998 43.7734 90.0534 43.168 90.1641 42.5625C90.2747 41.957 90.4408 41.3743 90.6621 40.8145C90.89 40.2546 91.1732 39.737 91.5117 39.2617C91.8568 38.7799 92.2572 38.36 92.7129 38.002C93.1686 37.6439 93.6829 37.3639 94.2559 37.1621C94.8353 36.9603 95.4733 36.8594 96.1699 36.8594C96.7493 36.8594 97.2767 36.9408 97.752 37.1035C98.2337 37.2598 98.6602 37.4811 99.0312 37.7676C99.4089 38.0475 99.7344 38.3828 100.008 38.7734C100.288 39.1641 100.516 39.5938 100.691 40.0625C100.874 40.5247 101.007 41.0163 101.092 41.5371C101.183 42.0514 101.229 42.5755 101.229 43.1094ZM97.3223 42.6016C97.3223 42.4193 97.3027 42.2337 97.2637 42.0449C97.2246 41.8496 97.1595 41.6738 97.0684 41.5176C96.9837 41.3613 96.8698 41.2344 96.7266 41.1367C96.5833 41.0326 96.4043 40.9805 96.1895 40.9805C95.929 40.9805 95.6979 41.0521 95.4961 41.1953C95.3008 41.332 95.1315 41.5078 94.9883 41.7227C94.8451 41.931 94.7279 42.1589 94.6367 42.4062C94.5456 42.6536 94.4772 42.8815 94.4316 43.0898L97.3223 42.8164V42.6016Z" fill="white"/>
<path d="M110.438 45.8242L110.027 50.1602L101.805 50.8047L102.117 36.8594H107.195L106.473 45.8242H110.438Z" fill="white"/>
<path d="M123.211 50.1602L118.367 50.7852L117.781 48.5781H115.555L115.066 50.7852L110.086 50.2969L113.973 37.2891L119.402 37.0156L123.211 50.1602ZM117.43 45.5898L116.688 42.1914L115.965 45.5898H117.43Z" fill="white"/>
<path d="M135.535 46.0586C135.535 46.7943 135.525 47.5234 135.506 48.2461C135.493 48.9622 135.47 49.6849 135.438 50.4141L129.812 50.3164C130.008 49.1641 130.177 48.015 130.32 46.8691C130.464 45.7168 130.535 44.5547 130.535 43.3828C130.535 43.2982 130.532 43.1615 130.525 42.9727C130.519 42.7839 130.506 42.5723 130.486 42.3379C130.467 42.097 130.438 41.8529 130.398 41.6055C130.366 41.3516 130.317 41.1204 130.252 40.9121C130.193 40.7038 130.118 40.5345 130.027 40.4043C129.943 40.2676 129.839 40.1992 129.715 40.1992C129.493 40.1992 129.305 40.2643 129.148 40.3945C128.999 40.5247 128.872 40.694 128.768 40.9023C128.67 41.1042 128.592 41.332 128.533 41.5859C128.475 41.8398 128.429 42.0938 128.396 42.3477C128.37 42.6016 128.351 42.8424 128.338 43.0703C128.331 43.2917 128.328 43.474 128.328 43.6172C128.296 44.7695 128.27 45.9154 128.25 47.0547C128.23 48.1875 128.204 49.3333 128.172 50.4922L123.191 50.707C123.322 48.4089 123.445 46.1237 123.562 43.8516C123.686 41.5794 123.784 39.2943 123.855 36.9961L128.465 36.7617L128.426 38.3242C128.608 38.1029 128.803 37.8945 129.012 37.6992C129.227 37.5039 129.454 37.3379 129.695 37.2012C129.936 37.0579 130.19 36.9473 130.457 36.8691C130.73 36.7845 131.017 36.7422 131.316 36.7422C131.87 36.7422 132.355 36.8333 132.771 37.0156C133.188 37.1979 133.546 37.4453 133.846 37.7578C134.145 38.0703 134.396 38.4414 134.598 38.8711C134.799 39.2943 134.962 39.7467 135.086 40.2285C135.21 40.7103 135.304 41.2148 135.369 41.7422C135.434 42.263 135.477 42.7773 135.496 43.2852C135.522 43.793 135.535 44.2845 135.535 44.7598C135.535 45.235 135.535 45.668 135.535 46.0586Z" fill="white"/>
<path d="M145.789 42.9531C145.789 43.3372 145.789 43.7181 145.789 44.0957C145.789 44.4733 145.77 44.8542 145.73 45.2383C145.659 46.0521 145.483 46.8236 145.203 47.5527C144.923 48.2754 144.542 48.9102 144.061 49.457C143.585 50.0039 143.006 50.4368 142.322 50.7559C141.639 51.0749 140.854 51.2344 139.969 51.2344C139.624 51.2344 139.262 51.2051 138.885 51.1465C138.514 51.0879 138.143 51 137.771 50.8828C137.407 50.7656 137.055 50.6224 136.717 50.4531C136.385 50.2773 136.089 50.0755 135.828 49.8477L136.434 45.8047C136.818 46.1758 137.244 46.4785 137.713 46.7129C138.182 46.9408 138.693 47.0547 139.246 47.0547C139.604 47.0547 139.907 47.0026 140.154 46.8984C140.402 46.7943 140.607 46.651 140.77 46.4688C140.932 46.2865 141.059 46.0749 141.15 45.834C141.248 45.5866 141.316 45.3262 141.355 45.0527C141.401 44.7728 141.427 44.4863 141.434 44.1934C141.447 43.9004 141.453 43.6107 141.453 43.3242C141.453 42.2891 141.401 41.2604 141.297 40.2383C141.193 39.2096 141.102 38.181 141.023 37.1523L145.496 36.8594C145.691 38.8906 145.789 40.9219 145.789 42.9531Z" fill="white"/>
<path d="M158.299 37.25C158.006 39.5417 157.755 41.8236 157.547 44.0957C157.339 46.3613 157.14 48.6432 156.951 50.9414L152.947 51.2344L153.123 49.7305C152.993 49.8802 152.84 50.0104 152.664 50.1211C152.495 50.2318 152.312 50.3229 152.117 50.3945C151.922 50.4596 151.72 50.5085 151.512 50.541C151.303 50.5671 151.105 50.5768 150.916 50.5703C150.473 50.5638 150.057 50.4792 149.666 50.3164C149.275 50.1471 148.917 49.9258 148.592 49.6523C148.266 49.3724 147.973 49.0501 147.713 48.6855C147.452 48.3145 147.231 47.9271 147.049 47.5234C146.873 47.1133 146.736 46.6966 146.639 46.2734C146.548 45.8503 146.502 45.4401 146.502 45.043C146.502 44.457 146.512 43.8516 146.531 43.2266C146.557 42.5951 146.6 41.9635 146.658 41.332C146.717 40.7005 146.792 40.0755 146.883 39.457C146.98 38.8385 147.101 38.2461 147.244 37.6797C148.038 37.7188 148.836 37.7546 149.637 37.7871C150.438 37.8197 151.235 37.8294 152.029 37.8164C151.88 38.3828 151.73 38.9525 151.58 39.5254C151.437 40.0918 151.307 40.6647 151.189 41.2441C151.072 41.8171 150.978 42.3932 150.906 42.9727C150.835 43.5521 150.799 44.138 150.799 44.7305C150.799 44.8672 150.805 45.0625 150.818 45.3164C150.831 45.5703 150.864 45.821 150.916 46.0684C150.975 46.3158 151.059 46.5339 151.17 46.7227C151.287 46.9049 151.45 46.9961 151.658 46.9961C151.906 46.9961 152.127 46.8919 152.322 46.6836C152.518 46.4688 152.69 46.1823 152.84 45.8242C152.99 45.4661 153.117 45.0527 153.221 44.584C153.331 44.1152 153.423 43.627 153.494 43.1191C153.572 42.6048 153.634 42.0872 153.68 41.5664C153.725 41.0456 153.758 40.5573 153.777 40.1016C153.803 39.6393 153.82 39.2259 153.826 38.8613C153.839 38.4967 153.846 38.2135 153.846 38.0117C153.846 37.8815 153.842 37.7546 153.836 37.6309C153.829 37.5072 153.82 37.3802 153.807 37.25C154.23 37.263 154.65 37.2728 155.066 37.2793C155.483 37.2858 155.903 37.2891 156.326 37.2891C156.652 37.2891 156.977 37.2891 157.303 37.2891C157.635 37.2826 157.967 37.2695 158.299 37.25Z" fill="white"/>
<path d="M169.227 37.2305L169.129 41.3711L166.219 41.4883L165.867 50.5508L161.746 50.7656L161.375 41.7031L158.465 41.8594L158.582 37.25L169.227 37.2305Z" fill="white"/>
<path d="M181.785 46.0586C181.785 46.7943 181.775 47.5234 181.756 48.2461C181.743 48.9622 181.72 49.6849 181.688 50.4141L176.062 50.3164C176.258 49.1641 176.427 48.015 176.57 46.8691C176.714 45.7168 176.785 44.5547 176.785 43.3828C176.785 43.2982 176.782 43.1615 176.775 42.9727C176.769 42.7839 176.756 42.5723 176.736 42.3379C176.717 42.097 176.688 41.8529 176.648 41.6055C176.616 41.3516 176.567 41.1204 176.502 40.9121C176.443 40.7038 176.368 40.5345 176.277 40.4043C176.193 40.2676 176.089 40.1992 175.965 40.1992C175.743 40.1992 175.555 40.2643 175.398 40.3945C175.249 40.5247 175.122 40.694 175.018 40.9023C174.92 41.1042 174.842 41.332 174.783 41.5859C174.725 41.8398 174.679 42.0938 174.646 42.3477C174.62 42.6016 174.601 42.8424 174.588 43.0703C174.581 43.2917 174.578 43.474 174.578 43.6172C174.546 44.7695 174.52 45.9154 174.5 47.0547C174.48 48.1875 174.454 49.3333 174.422 50.4922L169.441 50.707C169.572 48.4089 169.695 46.1237 169.812 43.8516C169.936 41.5794 170.034 39.2943 170.105 36.9961L174.715 36.7617L174.676 38.3242C174.858 38.1029 175.053 37.8945 175.262 37.6992C175.477 37.5039 175.704 37.3379 175.945 37.2012C176.186 37.0579 176.44 36.9473 176.707 36.8691C176.98 36.7845 177.267 36.7422 177.566 36.7422C178.12 36.7422 178.605 36.8333 179.021 37.0156C179.438 37.1979 179.796 37.4453 180.096 37.7578C180.395 38.0703 180.646 38.4414 180.848 38.8711C181.049 39.2943 181.212 39.7467 181.336 40.2285C181.46 40.7103 181.554 41.2148 181.619 41.7422C181.684 42.263 181.727 42.7773 181.746 43.2852C181.772 43.793 181.785 44.2845 181.785 44.7598C181.785 45.235 181.785 45.668 181.785 46.0586Z" fill="white"/>
<path d="M194.344 37.7773L189.754 45.2773L189.891 50.8047H184.871L184.988 45.3164L181.414 38.0703L186.395 37.4453L187.957 41.6641L189.656 37.4453L194.344 37.7773Z" fill="white"/>
<path d="M205.086 50.1602L200.242 50.7852L199.656 48.5781H197.43L196.941 50.7852L191.961 50.2969L195.848 37.2891L201.277 37.0156L205.086 50.1602ZM199.305 45.5898L198.562 42.1914L197.84 45.5898H199.305Z" fill="white"/>
</g>
<defs>
<filter id="filter0_di" x="0" y="0" width="284" height="108" filterUnits="userSpaceOnUse" color-interpolation-filters="sRGB">
<feFlood flood-opacity="0" result="BackgroundImageFix"/>
<feColorMatrix in="SourceAlpha" type="matrix" values="0 0 0 0 0 0 0 0 0 0 0 0 0 0 0 0 0 0 127 0"/>
<feOffset dy="7"/>
<feGaussianBlur stdDeviation="11"/>
<feColorMatrix type="matrix" values="0 0 0 0 0.815686 0 0 0 0 0.00784314 0 0 0 0 0 0 0 0 0.3 0"/>
<feBlend mode="normal" in2="BackgroundImageFix" result="effect1_dropShadow"/>
<feBlend mode="normal" in="SourceGraphic" in2="effect1_dropShadow" result="shape"/>
<feColorMatrix in="SourceAlpha" type="matrix" values="0 0 0 0 0 0 0 0 0 0 0 0 0 0 0 0 0 0 127 0" result="hardAlpha"/>
<feOffset dy="1"/>
<feGaussianBlur stdDeviation="6"/>
<feComposite in2="hardAlpha" operator="arithmetic" k2="-1" k3="1"/>
<feColorMatrix type="matrix" values="0 0 0 0 0.983333 0 0 0 0 0.282708 0 0 0 0 0.312522 0 0 0 1 0"/>
<feBlend mode="normal" in2="shape" result="effect2_innerShadow"/>
</filter>
<filter id="filter1_di" x="77.4707" y="36.5273" width="129.615" height="18.707" filterUnits="userSpaceOnUse" color-interpolation-filters="sRGB">
<feFlood flood-opacity="0" result="BackgroundImageFix"/>
<feColorMatrix in="SourceAlpha" type="matrix" values="0 0 0 0 0 0 0 0 0 0 0 0 0 0 0 0 0 0 127 0"/>
<feOffset dy="2"/>
<feGaussianBlur stdDeviation="1"/>
<feColorMatrix type="matrix" values="0 0 0 0 0.580392 0 0 0 0 0.117647 0 0 0 0 0.0352941 0 0 0 0.5 0"/>
<feBlend mode="normal" in2="BackgroundImageFix" result="effect1_dropShadow"/>
<feBlend mode="normal" in="SourceGraphic" in2="effect1_dropShadow" result="shape"/>
<feColorMatrix in="SourceAlpha" type="matrix" values="0 0 0 0 0 0 0 0 0 0 0 0 0 0 0 0 0 0 127 0" result="hardAlpha"/>
<feOffset dy="1"/>
<feGaussianBlur stdDeviation="1.5"/>
<feComposite in2="hardAlpha" operator="arithmetic" k2="-1" k3="1"/>
<feColorMatrix type="matrix" values="0 0 0 0 0.819608 0 0 0 0 0.00784314 0 0 0 0 0 0 0 0 0.5 0"/>
<feBlend mode="normal" in2="shape" result="effect2_innerShadow"/>
</filter>
<linearGradient id="paint0_linear" x1="136.5" y1="83.2861" x2="136.5" y2="13.8623" gradientUnits="userSpaceOnUse">
<stop stop-color="#E94F0D"/>
<stop offset="1" stop-color="#ED9E27"/>
</linearGradient>
</defs>
</svg>
