<svg width="975" height="547" viewBox="0 0 975 547" fill="none" xmlns="http://www.w3.org/2000/svg">
<mask id="path-1-inside-1" fill="white">
<path fill-rule="evenodd" clip-rule="evenodd" d="M63.0001 0H203L211 32H763L771 0H911L919 32H943L943 56L975 64V204L943 212V335L975 343V483L943 491L943 515H919L911 547H771L763 515H211L203 547H63.0001L55.0001 515H31.0001V490.75L-6.46929e-06 483L0 343L31.0001 335.25V211.75L-6.46929e-06 204L0 64L31.0001 56.25V32H55.0001L63.0001 0Z"/>
</mask>
<path fill-rule="evenodd" clip-rule="evenodd" d="M63.0001 0H203L211 32H763L771 0H911L919 32H943L943 56L975 64V204L943 212V335L975 343V483L943 491L943 515H919L911 547H771L763 515H211L203 547H63.0001L55.0001 515H31.0001V490.75L-6.46929e-06 483L0 343L31.0001 335.25V211.75L-6.46929e-06 204L0 64L31.0001 56.25V32H55.0001L63.0001 0Z" fill="black" fill-opacity="0.7"/>
<path d="M203 0L203.97 -0.242536L203.781 -1H203V0ZM63.0001 0V-1H62.2194L62.03 -0.242536L63.0001 0ZM211 32L210.03 32.2425L210.219 33H211V32ZM763 32V33H763.781L763.97 32.2425L763 32ZM771 0V-1H770.219L770.03 -0.242536L771 0ZM911 0L911.97 -0.242536L911.781 -1H911V0ZM919 32L918.03 32.2425L918.219 33H919V32ZM943 32L944 32V31H943V32ZM943 56L942 56V56.7808L942.757 56.9701L943 56ZM975 64H976V63.2192L975.243 63.0299L975 64ZM975 204L975.243 204.97L976 204.781V204H975ZM943 212L942.757 211.03L942 211.219V212H943ZM943 335H942V335.781L942.757 335.97L943 335ZM975 343H976V342.219L975.243 342.03L975 343ZM975 483L975.243 483.97L976 483.781V483H975ZM943 491L942.757 490.03L942 490.219V491H943ZM943 515V516H944V515H943ZM919 515V514H918.219L918.03 514.757L919 515ZM911 547V548H911.781L911.97 547.243L911 547ZM771 547L770.03 547.243L770.219 548H771V547ZM763 515L763.97 514.757L763.781 514H763V515ZM211 515V514H210.219L210.03 514.757L211 515ZM203 547V548H203.781L203.97 547.243L203 547ZM63.0001 547L62.03 547.243L62.2194 548H63.0001V547ZM55.0001 515L55.9703 514.757L55.7809 514H55.0001V515ZM31.0001 515H30.0001V516H31.0001V515ZM31.0001 490.75H32.0001V489.969L31.2427 489.78L31.0001 490.75ZM-6.46929e-06 483H-1.00001L-1.00001 483.781L-0.242542 483.97L-6.46929e-06 483ZM0 343L-0.242536 342.03L-1 342.219L-1 343H0ZM31.0001 335.25L31.2427 336.22L32.0001 336.031V335.25H31.0001ZM31.0001 211.75H32.0001V210.969L31.2427 210.78L31.0001 211.75ZM-6.46929e-06 204H-1.00001L-1.00001 204.781L-0.242542 204.97L-6.46929e-06 204ZM0 64L-0.242536 63.0299L-1 63.2192L-1 64H0ZM31.0001 56.25L31.2427 57.2201L32.0001 57.0307V56.25H31.0001ZM31.0001 32V31H30.0001V32H31.0001ZM55.0001 32V33H55.7809L55.9703 32.2425L55.0001 32ZM203 -1H63.0001V1H203V-1ZM211.97 31.7575L203.97 -0.242536L202.03 0.242536L210.03 32.2425L211.97 31.7575ZM763 31H211V33H763V31ZM770.03 -0.242536L762.03 31.7575L763.97 32.2425L771.97 0.242536L770.03 -0.242536ZM911 -1H771V1H911V-1ZM919.97 31.7575L911.97 -0.242536L910.03 0.242536L918.03 32.2425L919.97 31.7575ZM943 31H919V33H943V31ZM944 56L944 32L942 32L942 56L944 56ZM975.243 63.0299L943.243 55.0299L942.757 56.9701L974.757 64.9701L975.243 63.0299ZM976 204V64H974V204H976ZM943.243 212.97L975.243 204.97L974.757 203.03L942.757 211.03L943.243 212.97ZM944 335V212H942V335H944ZM942.757 335.97L974.757 343.97L975.243 342.03L943.243 334.03L942.757 335.97ZM974 343V483H976V343H974ZM974.757 482.03L942.757 490.03L943.243 491.97L975.243 483.97L974.757 482.03ZM944 515L944 491H942L942 515H944ZM919 516H943V514H919V516ZM911.97 547.243L919.97 515.243L918.03 514.757L910.03 546.757L911.97 547.243ZM771 548H911V546H771V548ZM762.03 515.243L770.03 547.243L771.97 546.757L763.97 514.757L762.03 515.243ZM211 516H763V514H211V516ZM203.97 547.243L211.97 515.243L210.03 514.757L202.03 546.757L203.97 547.243ZM63.0001 548H203V546H63.0001V548ZM54.03 515.243L62.03 547.243L63.9703 546.757L55.9703 514.757L54.03 515.243ZM31.0001 516H55.0001V514H31.0001V516ZM30.0001 490.75V515H32.0001V490.75H30.0001ZM-0.242542 483.97L30.7576 491.72L31.2427 489.78L0.242529 482.03L-0.242542 483.97ZM-1 343L-1.00001 483H0.999994L1 343H-1ZM30.7576 334.28L-0.242536 342.03L0.242536 343.97L31.2427 336.22L30.7576 334.28ZM30.0001 211.75V335.25H32.0001V211.75H30.0001ZM-0.242542 204.97L30.7576 212.72L31.2427 210.78L0.242529 203.03L-0.242542 204.97ZM-1 64L-1.00001 204H0.999994L1 64H-1ZM30.7576 55.2798L-0.242536 63.0299L0.242536 64.9701L31.2427 57.2201L30.7576 55.2798ZM30.0001 32V56.25H32.0001V32H30.0001ZM55.0001 31H31.0001V33H55.0001V31ZM62.03 -0.242536L54.03 31.7575L55.9703 32.2425L63.9703 0.242536L62.03 -0.242536Z" fill="url(#paint0_linear)" mask="url(#path-1-inside-1)"/>
<defs>
<linearGradient id="paint0_linear" x1="959.5" y1="-18.6592" x2="-74.563" y2="261.067" gradientUnits="userSpaceOnUse">
<stop stop-color="#B49C6C"/>
<stop offset="0.708333" stop-color="#B49C6C" stop-opacity="0.291667"/>
<stop offset="1" stop-color="#B49C6C"/>
</linearGradient>
</defs>
</svg>
